<svg width="162" height="163" viewBox="0 0 162 163" fill="none" xmlns="http://www.w3.org/2000/svg">
<circle cx="81" cy="81.5244" r="81" fill="#FFF7EE"/>
<path d="M63.0394 64.405C58.6181 71.7007 54.0169 79.0244 50.0625 86.4325V91.8944H66.4031V98.1494H72.6581V91.8944H76.7812V86.5057H72.6581V64.405H63.0394ZM56.1206 86.5113V86.3313C59.2212 80.5831 62.5348 74.9523 66.0544 69.4507H66.4031V86.5057H56.1206V86.5113ZM111.42 64.405H104.074L91.3219 79.5138H91.0013V64.3994H84.3188V98.1494H90.9956V87.3213L94.455 83.3894L103.905 98.1494H111.938L99.3825 78.94L111.42 64.405Z" fill="#F7931E"/>
<path d="M114.75 53.1494C116.242 53.1494 117.673 53.742 118.727 54.7969C119.782 55.8518 120.375 57.2826 120.375 58.7744V103.774C120.375 105.266 119.782 106.697 118.727 107.752C117.673 108.807 116.242 109.399 114.75 109.399H47.25C45.7582 109.399 44.3274 108.807 43.2725 107.752C42.2176 106.697 41.625 105.266 41.625 103.774V58.7744C41.625 57.2826 42.2176 55.8518 43.2725 54.7969C44.3274 53.742 45.7582 53.1494 47.25 53.1494H114.75ZM47.25 47.5244C44.2663 47.5244 41.4048 48.7097 39.295 50.8195C37.1853 52.9292 36 55.7907 36 58.7744V103.774C36 106.758 37.1853 109.62 39.295 111.729C41.4048 113.839 44.2663 115.024 47.25 115.024H114.75C117.734 115.024 120.595 113.839 122.705 111.729C124.815 109.62 126 106.758 126 103.774V58.7744C126 55.7907 124.815 52.9292 122.705 50.8195C120.595 48.7097 117.734 47.5244 114.75 47.5244H47.25Z" fill="#F7931E"/>
</svg>
