<svg width="109" height="127" viewBox="0 0 109 127" fill="none" xmlns="http://www.w3.org/2000/svg">
<path fill-rule="evenodd" clip-rule="evenodd" d="M22.7195 5.70441C18.9522 10.396 16.9158 31.712 17.3231 37.5254C17.4758 40.0242 21.5486 37.3724 26.3341 33.3438C26.6395 31.355 26.8432 28.9582 26.8432 26.2555C26.7922 19.5241 27.7086 15.3425 28.7777 12.7417C27.4032 10.141 29.2868 7.89721 28.1668 6.41835C26.945 4.88849 22.7704 5.70441 22.7195 5.70441Z" fill="#F08D1B"/>
<path fill-rule="evenodd" clip-rule="evenodd" d="M22.7194 5.70441C22.1594 6.41835 21.6503 7.43825 21.1921 8.76412C22.363 8.45815 23.6867 8.61114 24.8067 9.78403C27.5049 12.6398 24.1449 26.7144 17.4757 31.304C17.323 33.9557 17.2721 36.1995 17.3739 37.5254C17.5266 40.0242 21.5994 37.3724 26.3849 33.3438C26.6904 31.355 26.894 28.9582 26.894 26.2555C26.8431 19.5241 27.7595 15.3425 28.8286 12.7417C27.454 10.141 29.3377 7.89721 28.2176 6.41835C26.9449 4.88849 22.7703 5.70441 22.7194 5.70441Z" fill="#EA7003"/>
<path fill-rule="evenodd" clip-rule="evenodd" d="M42.1159 18.249L46.6978 13.0475C46.6978 13.0475 43.6432 8.25398 40.8941 4.68432C39.3668 2.7465 37.9413 1.16565 37.1777 0.961672C34.9377 0.34973 27.7085 2.44053 23.483 4.99029C23.2285 5.14328 22.9739 5.39825 22.7194 5.70422C22.7703 5.70422 23.7885 5.14328 25.3667 7.18308C26.9449 9.27389 31.2213 16.4642 33.1049 23.6035C33.3595 24.5724 33.6649 25.5413 33.9195 26.4593C38.4504 22.1247 42.1159 18.249 42.1159 18.249Z" fill="#FCCC00"/>
<path fill-rule="evenodd" clip-rule="evenodd" d="M31.8322 1.62463C29.0322 2.38956 25.8248 3.61345 23.483 4.99032C23.2285 5.1433 22.9739 5.39828 22.7194 5.70425C22.7703 5.70425 23.7885 5.1433 25.3667 7.18311C26.9449 9.27391 31.2213 16.4642 33.1049 23.6036C33.3595 24.5725 33.6649 25.5414 33.9195 26.4593C34.6831 25.2864 46.1378 13.7105 43.3378 14.3224C40.5377 14.9344 31.0685 15.9543 29.9994 8.66197C29.4903 5.29629 30.5594 3.0525 31.8322 1.62463Z" fill="#F5A900"/>
<path fill-rule="evenodd" clip-rule="evenodd" d="M84.9819 5.70441C88.7493 10.396 90.7856 31.712 90.3784 37.5254C90.2256 40.0242 86.1529 37.3724 81.3674 33.3438C81.0619 31.355 80.8583 28.9582 80.8583 26.2555C80.9092 19.5241 79.9928 15.3425 78.9237 12.7417C80.2983 10.141 78.4146 7.89721 79.5346 6.41835C80.7564 4.88849 84.931 5.70441 84.9819 5.70441Z" fill="#F08D1B"/>
<path fill-rule="evenodd" clip-rule="evenodd" d="M84.9818 5.70441C85.5418 6.41835 86.0509 7.43825 86.5091 8.76412C85.3382 8.45815 84.0146 8.61114 82.8945 9.78403C80.1963 12.6398 83.5564 26.7144 90.2255 31.304C90.3783 33.9557 90.4292 36.1995 90.3273 37.5254C90.1746 40.0242 86.1018 37.3724 81.3163 33.3438C81.0109 31.355 80.8072 28.9582 80.8072 26.2555C80.8582 19.5241 79.9418 15.3425 78.8727 12.7417C80.2472 10.141 78.3636 7.89721 79.4836 6.41835C80.7563 4.88849 84.9309 5.70441 84.9818 5.70441Z" fill="#EA7003"/>
<path fill-rule="evenodd" clip-rule="evenodd" d="M65.5853 18.249L61.0034 13.0475C61.0034 13.0475 64.058 8.25398 66.8071 4.68432C68.3344 2.7465 69.7599 1.16565 70.5235 0.961672C72.7635 0.34973 79.9927 2.44053 84.2182 4.99029C84.4728 5.14328 84.7273 5.39825 84.9819 5.70422C84.931 5.70422 83.9128 5.14328 82.3346 7.18308C80.7564 9.27389 76.48 16.4642 74.5963 23.6035C74.3417 24.5724 74.0363 25.5413 73.7817 26.4593C69.2508 22.1247 65.5853 18.249 65.5853 18.249Z" fill="#FCCC00"/>
<path fill-rule="evenodd" clip-rule="evenodd" d="M75.92 1.62463C78.7201 2.38956 81.9274 3.61345 84.2692 4.99032C84.5238 5.1433 84.7783 5.39828 85.0328 5.70425C84.9819 5.70425 83.9637 5.1433 82.3855 7.18311C80.8074 9.27391 76.5309 16.4642 74.6473 23.6036C74.3927 24.5725 74.0873 25.5414 73.8327 26.4593C73.0691 25.2864 61.6144 13.7105 64.4145 14.3224C67.2145 14.9344 76.6837 15.9543 77.7528 8.66197C78.211 5.29629 77.1419 3.0525 75.92 1.62463Z" fill="#F5A900"/>
<path fill-rule="evenodd" clip-rule="evenodd" d="M27.8612 126.716H80.7054C90.8365 126.716 99.1347 118.404 99.1347 108.256C99.1347 108.256 99.9493 68.8366 95.011 47.8775C90.0728 26.9185 73.8326 12.5889 54.2833 12.5889C34.734 12.5889 18.4939 26.9185 13.5556 47.8775C8.61741 68.8366 9.43196 108.256 9.43196 108.256C9.43196 118.404 17.7302 126.716 27.8612 126.716Z" fill="#FFE053"/>
<path fill-rule="evenodd" clip-rule="evenodd" d="M27.8612 126.716H80.7054C90.8364 126.716 99.1347 118.404 99.1347 108.256C99.1347 108.256 99.9493 68.8363 95.011 47.8773C91.9055 34.7205 84.3709 24.2155 74.3417 18.1471C74.6472 18.3511 90.2764 30.6919 93.2292 46.2454C96.2329 61.952 94.3492 65.6746 93.0256 65.3176C91.7019 64.9607 78.9745 61.697 78.9745 61.697L19.5121 71.743L17.883 68.4793C17.883 68.4793 14.2175 72.253 10.3992 71.4371C9.07559 89.7953 9.43196 108.154 9.43196 108.154C9.43196 118.404 17.7302 126.716 27.8612 126.716Z" fill="#E88400"/>
<path fill-rule="evenodd" clip-rule="evenodd" d="M42.5233 15.6484C42.5233 15.6484 40.996 9.52901 44.916 3.46058C48.8361 -2.60784 61.1562 3.15461 62.6835 5.70437C64.2108 8.25413 64.4653 13.1497 61.0035 15.9544C57.5416 18.7591 58.8653 14.5265 58.8653 14.5265C58.8653 14.5265 62.378 12.0278 61.6653 8.40712C60.9526 4.83745 49.6506 4.58248 48.4288 5.60238C47.207 6.67328 43.6433 11.0079 44.6106 15.1385C45.6288 19.3201 42.5233 15.6484 42.5233 15.6484Z" fill="#F7931E"/>
<path fill-rule="evenodd" clip-rule="evenodd" d="M42.5233 15.6486C42.5233 15.6486 41.5051 11.5179 43.2869 6.6734C44.8651 7.08137 46.6978 6.06146 47.4615 5.14355C48.7851 3.5117 50.7706 4.02165 54.4361 4.22563C58.1016 4.42962 61.6144 6.82639 62.3271 6.31644C62.4798 6.21445 62.5816 6.01047 62.6835 5.70449C64.2108 8.25425 64.4144 13.0988 61.0034 15.9035C57.5416 18.7083 58.8652 14.4757 58.8652 14.4757C58.8652 14.4757 62.378 11.9769 61.6653 8.35624C60.9525 4.83758 49.6506 4.5826 48.4288 5.6025C47.2069 6.6734 43.6433 11.008 44.6106 15.1386C45.6287 19.3202 42.5233 15.6486 42.5233 15.6486Z" fill="#F7931E"/>
<path fill-rule="evenodd" clip-rule="evenodd" d="M30.5086 126.716H78.0582C87.171 126.716 94.6547 118.812 94.6547 109.123C94.6547 109.123 95.4183 71.5901 90.9383 51.651C86.4582 31.7119 71.8472 18.0452 54.2834 18.0452C36.6686 18.0452 22.0576 31.7119 17.6284 51.651C13.1484 71.5901 13.912 109.123 13.912 109.123C13.8611 118.761 21.3448 126.716 30.5086 126.716Z" fill="#DB4745"/>
<path fill-rule="evenodd" clip-rule="evenodd" d="M31.1195 126.716H77.3963C86.2546 126.716 93.5347 118.914 93.5347 109.378C93.5347 109.378 94.2474 72.406 89.9201 52.7729C85.5928 33.1397 71.3381 19.677 54.2325 19.677C37.1268 19.677 22.923 33.1397 18.5448 52.7729C14.2175 72.406 14.9302 109.378 14.9302 109.378C14.9811 118.914 22.2612 126.716 31.1195 126.716Z" fill="#E88400"/>
<path fill-rule="evenodd" clip-rule="evenodd" d="M79.0254 30.9978C72.509 23.8585 63.8035 19.6259 54.2325 19.6259C37.1268 19.6259 22.923 33.0886 18.5448 52.7217C14.2175 72.3549 14.9302 109.326 14.9302 109.326C14.9302 113.151 16.1012 116.67 18.0357 119.525C20.8867 122.33 24.7049 124.013 28.8795 124.013H75.2072C84.0655 124.013 91.3456 116.211 91.3456 106.675C91.3456 106.675 92.0583 69.7031 87.731 50.07C86.1019 42.7777 83.0982 36.2503 79.0254 30.9978Z" fill="#F5A900"/>
<path fill-rule="evenodd" clip-rule="evenodd" d="M79.2801 72.61C87.3747 74.7518 85.3892 84.0329 85.3383 90.5603C85.3383 95.2009 86.3056 108.664 83.811 112.029C80.5528 116.466 72.9164 115.089 67.6218 115.089C61.7162 115.089 32.3414 116.007 29.0323 114.273C23.3813 111.315 25.214 102.901 25.3159 97.0877C25.3668 92.4981 24.4504 78.9334 26.8432 75.6187C30.1014 71.1822 37.8905 72.61 43.1851 72.61C54.3343 72.559 68.589 71.9471 79.2801 72.61Z" fill="#E88400"/>
<path fill-rule="evenodd" clip-rule="evenodd" d="M75.5635 27.6321C69.5562 22.5326 62.2252 19.6259 54.2833 19.6259C37.1777 19.6259 22.9739 33.0886 18.5957 52.7217C15.3375 67.4593 14.9302 91.937 14.9302 103.258C15.6429 103.36 16.4066 103.411 17.1702 103.411H63.447C72.3053 103.411 79.5854 95.6087 79.5854 86.0726C79.5854 86.0726 80.2981 49.1011 75.9708 29.4679C75.869 28.856 75.7163 28.244 75.5635 27.6321Z" fill="#FCCC00"/>
<path fill-rule="evenodd" clip-rule="evenodd" d="M71.0835 38.6471C76.6836 40.075 75.1054 46.3984 75.0545 51.6509C75.0036 63.8388 74.6981 62.6149 62.0725 62.7169C57.9488 62.7169 41.2505 63.5838 38.5523 61.646C35.345 59.3002 36.2104 47.8263 36.465 44.1036C36.9741 36.5563 45.476 38.4432 51.5851 38.4432C57.6434 38.4432 65.2798 38.1882 71.0835 38.6471Z" fill="#F5A900"/>
<path fill-rule="evenodd" clip-rule="evenodd" d="M69.6072 37.3215C75.2073 38.7493 73.6291 45.0727 73.5782 50.3252C73.5273 62.5131 73.2218 61.2892 60.5962 61.3912C56.4725 61.3912 39.7742 62.2581 37.076 60.3203C33.8686 57.9745 34.7341 46.5006 34.9887 42.7779C35.4978 35.2307 43.9997 37.1175 50.1088 37.1175C56.1671 37.0665 63.8035 36.8625 69.6072 37.3215Z" fill="#F7931E"/>
<path fill-rule="evenodd" clip-rule="evenodd" d="M78.2617 71.0804C86.3564 73.2222 84.3709 82.5033 84.32 89.0307C84.32 93.6713 85.2873 107.134 82.7927 110.5C79.5345 114.936 71.898 113.559 66.6034 113.559C60.6979 113.559 31.3231 114.477 28.014 112.743C22.363 109.786 24.1957 101.372 24.2976 95.5581C24.3485 90.9685 23.4321 77.4038 25.8248 74.0891C29.0831 69.6526 36.8722 71.0804 42.1668 71.0804C53.316 71.0294 67.5198 70.4685 78.2617 71.0804Z" fill="#F7931E"/>
<path fill-rule="evenodd" clip-rule="evenodd" d="M94.1965 77.6585L92.1092 75.2617C92.1092 75.2617 90.8874 75.6697 89.8183 77.0466C88.6983 78.4234 92.1092 103.972 93.3311 108.256C94.5529 112.539 97.8111 113.1 100.357 112.029C102.902 111.009 106.058 108.511 107.789 106.726C109.52 104.941 108.248 99.2804 106.669 94.7929C105.091 90.3053 104.888 86.9906 104.888 86.9906L103.36 84.8998L94.1965 77.6585Z" fill="#FCCC00"/>
<path fill-rule="evenodd" clip-rule="evenodd" d="M94.1965 77.6585L92.1092 75.2617C92.1092 75.2617 90.8874 75.6697 89.8183 77.0466C88.6983 78.4234 92.1092 103.972 93.3311 108.256C94.5529 112.539 97.8111 113.1 100.357 112.029C100.917 111.774 101.528 111.519 102.138 111.162C98.8802 111.927 97.8111 107.134 96.5384 100.657C95.2147 94.1809 94.0438 83.319 94.0438 83.319L97.4038 81.9931L95.062 78.2704L94.1965 77.6585Z" fill="#F5A900"/>
<path fill-rule="evenodd" clip-rule="evenodd" d="M93.2293 76.5876L92.0583 75.2617C92.0583 75.2617 90.8365 75.6697 89.7674 77.0466C88.6474 78.4234 92.0583 103.972 93.2802 108.256C94.502 112.539 97.7602 113.1 100.306 112.029C100.866 111.774 101.477 111.519 102.088 111.162C101.273 111.366 100.56 111.213 100 110.754C98.0657 111.519 96.2838 110.499 94.7056 107.746C92.7202 104.227 90.2765 88.2145 91.0911 81.4321C91.3456 78.7804 92.262 77.3525 93.2293 76.5876Z" fill="#E88400"/>
<path fill-rule="evenodd" clip-rule="evenodd" d="M104.378 83.5229C104.378 83.5229 105.04 85.9707 104.837 87.0416C104.684 88.1125 97.862 89.7444 96.9965 89.7444C96.1311 89.7954 95.7747 88.3675 95.571 85.4608L104.378 83.5229Z" fill="#F49F00"/>
<path fill-rule="evenodd" clip-rule="evenodd" d="M104.837 81.4322C103.92 78.8315 102.444 74.8028 101.782 73.9359C100.815 72.559 92.7711 73.8849 92.0583 75.2618C91.3456 76.6387 93.9929 84.2369 95.062 85.8178C96.182 87.3986 101.477 85.6648 103.258 85.0019C106.313 83.829 105.753 84.084 104.837 81.4322Z" fill="#F7931E"/>
<path fill-rule="evenodd" clip-rule="evenodd" d="M94.502 74.038C93.2802 74.3949 92.3129 74.8029 92.1092 75.2619C91.3965 76.6387 94.0438 84.237 95.1129 85.8179C96.2329 87.3987 101.528 85.6649 103.309 85.0019C105.804 84.084 105.855 84.084 105.295 82.6562C101.018 83.88 95.5202 81.6872 94.6038 78.0156C94.0947 76.0778 94.1965 74.8539 94.502 74.038Z" fill="#F7931E"/>
<path fill-rule="evenodd" clip-rule="evenodd" d="M94.5019 74.038C93.5856 74.2929 92.771 74.5989 92.3637 74.9049C92.211 76.9957 94.5019 83.5231 95.5201 85.0019C96.6401 86.5828 101.935 84.8489 103.717 84.186C104.633 83.829 105.244 83.6251 105.6 83.4211C105.549 83.2171 105.447 82.9621 105.295 82.6052C101.018 83.829 95.5201 81.6362 94.6037 77.9646C94.4001 77.1997 94.2983 76.5367 94.2983 75.9758C94.1965 75.1599 94.2983 74.4969 94.5019 74.038Z" fill="#DB4745"/>
<path fill-rule="evenodd" clip-rule="evenodd" d="M73.4254 80.5141C73.4254 80.5141 73.4254 83.3188 75.0545 85.9706C76.6327 88.6223 78.5163 92.243 76.989 96.1696C76.989 96.1696 76.8363 96.7816 75.9708 96.7816C75.1054 96.7816 73.7817 96.5776 73.6799 96.0166C73.5781 95.4557 75.5127 92.6 73.9854 88.4184C72.4581 84.2368 72.0508 81.534 72.2035 80.8711C72.2035 80.8711 72.7126 80.3611 73.4254 80.5141Z" fill="#DB4745"/>
<path fill-rule="evenodd" clip-rule="evenodd" d="M71.6945 80.1063C71.6945 80.1063 71.5926 81.0242 72.1017 81.2282C72.6108 81.4322 73.3745 81.2282 73.629 80.9732C73.8836 80.6672 73.8836 79.7493 73.8836 79.7493C73.8836 79.7493 72.1017 79.3413 71.6945 80.1063Z" fill="#DB4745"/>
<path fill-rule="evenodd" clip-rule="evenodd" d="M76.4801 76.9447C80.0438 77.2506 79.8401 79.8004 76.4292 79.9534C74.9528 80.0554 72.5091 80.0044 68.4873 80.0044C65.28 80.0044 33.5633 80.1064 31.476 79.8514C29.2359 79.5964 28.4723 77.4036 31.476 76.9957C33.8178 76.6897 46.5961 76.8427 50.058 76.8427C52.9598 76.8427 74.4946 76.7917 76.4801 76.9447Z" fill="#DB4745"/>
<path fill-rule="evenodd" clip-rule="evenodd" d="M65.738 44.4608C65.738 44.4608 65.738 46.7556 67.0616 48.9484C68.3853 51.1412 69.9126 54.0989 68.6398 57.3626C68.6398 57.3626 68.538 57.8726 67.8253 57.8726C67.1125 57.8726 66.0434 57.7196 65.9416 57.2606C65.8398 56.8017 67.4689 54.4559 66.1962 50.9882C64.9234 47.5715 64.618 45.3277 64.7198 44.7668C64.7198 44.7668 65.178 44.3588 65.738 44.4608Z" fill="#DB4745"/>
<path fill-rule="evenodd" clip-rule="evenodd" d="M64.3126 44.1545C64.3126 44.1545 64.2108 44.9194 64.618 45.0724C65.0253 45.2254 65.6362 45.0724 65.8399 44.8684C66.0435 44.6135 66.0435 43.8485 66.0435 43.8485C66.0435 43.8485 64.618 43.4916 64.3126 44.1545Z" fill="#DB4745"/>
<path fill-rule="evenodd" clip-rule="evenodd" d="M67.2145 41.0951C70.7782 41.401 70.5745 43.9508 67.1636 44.1038C65.6872 44.2058 63.2435 44.1548 59.2217 44.1548C56.0144 44.1548 42.8797 44.2568 40.7924 44.0018C38.5524 43.7468 37.7887 41.554 40.7924 41.1461C43.1342 40.8401 47.5634 40.9931 51.0761 40.9931C53.978 40.9931 65.229 40.8911 67.2145 41.0951Z" fill="#DB4745"/>
<path fill-rule="evenodd" clip-rule="evenodd" d="M91.04 53.8438C91.04 53.8438 90.48 56.0876 91.1928 58.5353C91.9055 60.9831 92.6691 64.2468 90.6837 67.0515C90.6837 67.0515 90.4291 67.5105 89.7673 67.3065C89.0546 67.1535 88.0873 66.6946 88.0873 66.2356C88.1382 65.7767 90.2764 63.8898 89.8691 60.2182C89.5127 56.5975 89.7164 54.3537 89.9709 53.8438C89.9709 53.8438 90.5309 53.5888 91.04 53.8438Z" fill="#DB4745"/>
<path fill-rule="evenodd" clip-rule="evenodd" d="M91.4983 54.8126C91.4983 54.8126 91.4474 57.1074 92.7202 59.3512C93.9929 61.544 95.4184 64.5527 94.0947 67.8164C94.0947 67.8164 93.942 68.3264 93.2293 68.2754C92.5165 68.2754 91.4474 68.0714 91.3456 67.6124C91.2947 67.1535 92.9238 64.8077 91.7529 61.34C90.582 57.8724 90.3274 55.6286 90.4292 55.0676C90.4801 55.0676 90.9383 54.6597 91.4983 54.8126Z" fill="#DB4745"/>
<path fill-rule="evenodd" clip-rule="evenodd" d="M89.971 54.3028C89.971 54.3028 89.8692 53.5379 90.2765 53.3849C90.6838 53.2319 91.2947 53.3339 91.4983 53.5888C91.702 53.8438 91.7529 54.6088 91.7529 54.6088C91.7529 54.6088 90.3274 54.9657 89.971 54.3028Z" fill="#DB4745"/>
<path fill-rule="evenodd" clip-rule="evenodd" d="M90.1237 54.4046C90.1237 54.4046 90.0219 55.1695 90.4292 55.3225C90.8365 55.4755 91.4983 55.3735 91.651 55.1185C92.0583 54.5066 91.9565 54.0476 91.2438 54.0476C90.8365 54.0476 90.2765 54.0986 90.1237 54.4046Z" fill="#DB4745"/>
<path fill-rule="evenodd" clip-rule="evenodd" d="M13.3011 77.3526L15.2357 74.8029C15.2357 74.8029 16.4575 75.1088 17.6794 76.4347C18.9012 77.7096 17.4248 103.462 16.5084 107.848C15.5921 112.182 12.4357 112.998 9.78837 112.131C7.19198 111.315 3.83195 109.072 1.9992 107.389C0.166456 105.757 0.98101 99.9945 2.20284 95.4049C3.42467 90.8154 3.42467 87.5007 3.42467 87.5007L4.79923 85.3079L13.3011 77.3526Z" fill="#FCCC00"/>
<path fill-rule="evenodd" clip-rule="evenodd" d="M13.3012 77.3526L15.2358 74.8029C15.2358 74.8029 16.4576 75.1088 17.6794 76.4347C18.9013 77.7096 17.4249 103.462 16.5085 107.848C15.5921 112.182 12.4357 112.998 9.78843 112.131C9.22843 111.927 8.61751 111.672 7.95569 111.366C11.2648 111.876 11.9266 107.032 12.7412 100.504C13.5557 93.9261 13.963 83.0131 13.963 83.0131L10.5521 81.9422L12.5885 78.0666L13.3012 77.3526Z" fill="#F5A900"/>
<path fill-rule="evenodd" clip-rule="evenodd" d="M14.1667 76.1798L15.2358 74.752C15.2358 74.752 16.4576 75.0579 17.6794 76.3838C18.9013 77.6587 17.4249 103.411 16.5085 107.797C15.5921 112.131 12.4357 112.947 9.78843 112.08C9.22843 111.876 8.61751 111.621 7.95569 111.316C8.82115 111.468 9.48298 111.214 9.99207 110.755C11.9775 111.366 13.7085 110.194 15.0321 107.389C16.7631 103.717 17.9849 87.6027 16.6612 80.8714C16.203 78.2196 15.1849 76.8937 14.1667 76.1798Z" fill="#E88400"/>
<path fill-rule="evenodd" clip-rule="evenodd" d="M3.57738 83.9312C3.57738 83.9312 3.11919 86.4299 3.37374 87.4498C3.62829 88.5207 10.552 89.5916 11.4175 89.5916C12.2829 89.5406 12.5375 88.1128 12.5375 85.206L3.57738 83.9312Z" fill="#F49F00"/>
<path fill-rule="evenodd" clip-rule="evenodd" d="M2.96649 81.9422C3.67923 79.2394 4.85015 75.1598 5.41015 74.1909C6.27562 72.763 14.3702 73.426 15.1848 74.7518C15.9994 76.0777 13.9121 83.829 12.9448 85.5118C11.9775 87.1947 6.53016 85.8178 4.69742 85.3078C1.64284 84.4409 2.25376 84.6449 2.96649 81.9422Z" fill="#F7931E"/>
<path fill-rule="evenodd" clip-rule="evenodd" d="M12.7411 73.7321C14.0138 73.987 14.9811 74.344 15.2357 74.752C16.0502 76.0778 13.9629 83.8291 12.9956 85.5119C12.0283 87.1948 6.58102 85.8179 4.74827 85.308C2.20279 84.594 2.15188 84.594 2.61007 83.1152C6.93739 84.0331 12.2829 81.3813 12.9447 77.6587C13.3011 75.7719 13.0465 74.548 12.7411 73.7321Z" fill="#F7931E"/>
<path fill-rule="evenodd" clip-rule="evenodd" d="M12.7413 73.7321C13.7086 73.936 14.4722 74.191 14.9304 74.446C15.2358 76.5368 13.454 83.2171 12.5885 84.747C11.6213 86.4298 6.17393 85.053 4.34118 84.543C3.3739 84.288 2.76298 84.0841 2.40662 83.9311C2.40662 83.7271 2.50844 83.4721 2.61025 83.1152C6.93757 84.0331 12.2831 81.3813 12.9449 77.6587C13.0976 76.8938 13.1485 76.2308 13.0976 75.6699C13.0976 74.8539 12.9449 74.242 12.7413 73.7321Z" fill="#DB4745"/>
<path fill-rule="evenodd" clip-rule="evenodd" d="M82.8437 87.8066C82.8437 92.4471 83.811 105.91 81.3164 109.276C78.0582 113.712 70.4217 112.335 65.1271 112.335C59.2216 112.335 29.8468 113.253 26.5376 111.519C26.4358 111.468 26.2831 111.366 26.1813 111.315C26.6904 111.876 27.3013 112.386 28.0649 112.743C31.3741 114.477 60.698 113.559 66.6544 113.559C71.949 113.559 79.6364 114.936 82.8437 110.499C85.2873 107.134 84.3201 93.671 84.371 89.0305C84.371 83.268 86.0001 75.3128 80.7055 72.0491C84.1164 75.8227 82.8437 82.6561 82.8437 87.8066Z" fill="#F7931E"/>
<path fill-rule="evenodd" clip-rule="evenodd" d="M79.3818 82.5541C79.3818 87.1946 80.3491 100.657 77.8545 104.023C74.5963 108.46 66.9599 107.083 61.6653 107.083C56.167 107.083 30.4577 107.899 24.1958 106.624C24.4503 108.46 25.0613 110.091 26.1813 111.315C26.2831 111.366 26.4358 111.468 26.5376 111.519C29.8468 113.253 59.1707 112.335 65.1271 112.335C70.4217 112.335 78.1091 113.712 81.3164 109.276C83.7601 105.91 82.7928 92.4471 82.8437 87.8066C82.8437 82.6561 84.1164 75.8227 80.7055 72.1001C80.2982 71.8451 79.84 71.6411 79.3309 71.4371C79.9418 74.9558 79.3818 79.1374 79.3818 82.5541Z" fill="#E4494B"/>
<path fill-rule="evenodd" clip-rule="evenodd" d="M72.6109 49.3052C72.56 61.493 72.2546 60.2691 59.629 60.3711C55.6071 60.3711 39.5197 61.238 36.3124 59.4022C36.516 59.7592 36.7706 60.0142 37.076 60.2691C39.7742 62.207 56.4726 61.391 60.5963 61.34C73.171 61.289 73.5273 62.4619 73.5782 50.2741C73.5782 45.7865 74.7491 40.534 71.5927 38.1882C73.5273 40.84 72.6109 45.3785 72.6109 49.3052Z" fill="#F7931E"/>
<path fill-rule="evenodd" clip-rule="evenodd" d="M70.1163 37.4745C70.4217 39.9223 70.0145 42.829 70.0145 45.4807C70.0145 50.2743 69.9635 52.977 69.0981 54.5579C69.149 55.4758 68.9963 56.4447 68.6399 57.4136C68.6399 57.4136 68.5381 57.9235 67.8253 57.9235C67.1126 57.9235 66.0435 57.7706 65.9417 57.3116C65.8908 57.1586 66.0435 56.8527 66.1962 56.3427C64.2617 56.6487 61.4107 56.5467 57.0325 56.5467C53.4179 56.5467 40.2323 57.2096 35.1414 56.0877C35.3959 57.4646 35.7523 58.6375 36.3123 59.4534C39.5196 61.2382 55.607 60.4223 59.6289 60.4223C72.2036 60.3713 72.5599 61.5442 72.6108 49.3564C72.6108 45.4297 73.5272 40.8912 71.5927 38.2394C71.1854 37.8824 70.6763 37.6275 70.1163 37.4745Z" fill="#DB4745"/>
</svg>
