<svg width="37" height="35" viewBox="0 0 37 35" fill="none" xmlns="http://www.w3.org/2000/svg">
<path d="M26.097 0.500104C23.2469 0.502671 20.5144 1.66328 18.5003 3.72677C17.5057 2.6911 16.3205 1.86719 15.0131 1.30257C13.7057 0.737936 12.302 0.443761 10.883 0.437009C9.46396 0.430256 8.05765 0.711059 6.74519 1.26322C5.43274 1.81538 4.24011 2.62798 3.23609 3.65413C2.23207 4.68029 1.43654 5.8997 0.895384 7.24202C0.354224 8.58435 0.0781457 10.023 0.0830726 11.4751C0.0879995 12.9271 0.373834 14.3638 0.92409 15.7023C1.47435 17.0407 2.27813 18.2544 3.28909 19.2734L18.5003 34.8384L33.7116 19.2734C35.2142 17.734 36.2369 15.7732 36.6503 13.6389C37.0637 11.5047 36.8494 9.29297 36.0343 7.28343C35.2192 5.27388 33.84 3.55681 32.0712 2.34938C30.3023 1.14195 28.2233 0.498391 26.097 0.500104ZM31.1674 16.6884L18.5003 29.6501L5.83325 16.6884C5.1674 16.0071 4.63921 15.1982 4.27885 14.308C3.91849 13.4178 3.73302 12.4637 3.73302 11.5001C3.73302 10.5365 3.91849 9.58241 4.27885 8.6922C4.63921 7.80198 5.1674 6.99311 5.83325 6.31177C6.49911 5.63043 7.2896 5.08996 8.15958 4.72122C9.02956 4.35248 9.96201 4.16269 10.9037 4.16269C11.8453 4.16269 12.7778 4.35248 13.6478 4.72122C14.5177 5.08996 15.3082 5.63043 15.9741 6.31177L18.5003 8.9151L21.0266 6.3301C22.3929 4.9964 24.2087 4.25232 26.097 4.25232C27.9853 4.25232 29.8011 4.9964 31.1674 6.3301C31.8338 7.01117 32.3624 7.81996 32.723 8.71021C33.0837 9.60046 33.2693 10.5547 33.2693 11.5184C33.2693 12.4822 33.0837 13.4364 32.723 14.3267C32.3624 15.2169 31.8338 16.0257 31.1674 16.7068V16.6884Z" fill="black"/>
</svg>
