<svg width="27" height="33" viewBox="0 0 27 33" fill="none" xmlns="http://www.w3.org/2000/svg">
<path d="M3.04971 32.7442C2.57439 32.7442 2.11853 32.5553 1.78242 32.2192C1.44632 31.8831 1.2575 31.4273 1.2575 30.9519L0.988662 4.67801C0.967081 4.14454 1.05118 3.61208 1.23612 3.11123C1.42106 2.61038 1.7032 2.15104 2.0663 1.75963C2.4294 1.36821 2.8663 1.05244 3.35188 0.830482C3.83745 0.608523 4.36212 0.484752 4.8957 0.466289L22.0831 0.376678C22.6174 0.38601 23.1446 0.500507 23.6346 0.713629C24.1246 0.926751 24.5679 1.23432 24.939 1.61878C25.3102 2.00323 25.6019 2.45703 25.7977 2.95427C25.9934 3.4515 26.0892 3.98242 26.0797 4.51671L26.3306 30.7906C26.3337 31.1047 26.2542 31.4141 26.1001 31.6877C25.946 31.9614 25.7226 32.1897 25.4525 32.3499C25.18 32.5072 24.871 32.59 24.5564 32.59C24.2417 32.59 23.9327 32.5072 23.6602 32.3499L13.4446 26.6865L3.96375 32.4753C3.683 32.6322 3.37066 32.724 3.04971 32.7442ZM13.3729 22.7973C13.6843 22.7979 13.9913 22.8716 14.269 23.0124L22.7104 27.6901L22.4953 4.48086C22.4953 4.12242 22.2623 3.87151 22.1189 3.88943L4.91362 4.05073C4.77025 4.05073 4.5731 4.28372 4.5731 4.64216L4.78817 27.7618L12.4589 23.0483C12.7375 22.8887 13.0519 22.8024 13.3729 22.7973Z" fill="black"/>
</svg>
