<svg width="35" height="35" viewBox="0 0 35 35" fill="none" xmlns="http://www.w3.org/2000/svg">
<path d="M17.2549 24.0206C18.2192 24.0206 19.001 23.257 19.001 22.315C19.001 21.373 18.2192 20.6094 17.2549 20.6094C16.2905 20.6094 15.5088 21.373 15.5088 22.315C15.5088 23.257 16.2905 24.0206 17.2549 24.0206Z" fill="#00A9DC"/>
<path d="M23.7813 18.6401C23.0382 17.3987 21.2497 17.4869 20.3988 17.0056C19.5931 16.5464 18.7744 14.9658 17.2522 14.9658C15.7455 14.9658 14.9111 16.5506 14.1129 17.0056C13.2523 17.492 11.4766 17.3936 10.7304 18.6401C10.0182 19.8417 10.9664 21.3321 10.9664 22.3144C10.9664 23.3119 10.0172 24.7852 10.7304 25.9888C11.4734 27.23 13.26 27.1412 14.1129 27.6233C14.9163 28.0811 15.7409 29.6631 17.2522 29.6631C18.7725 29.6631 19.5616 28.1004 20.3988 27.6233C21.2578 27.1375 23.0332 27.2386 23.7813 25.9888C24.4945 24.7852 23.5452 23.316 23.5452 22.3144C23.5452 21.3275 24.4941 19.8429 23.7813 18.6401ZM17.2557 25.4173C15.5021 25.4173 14.076 24.0257 14.076 22.3148C14.076 20.6042 15.5021 19.2126 17.2557 19.2126C19.0092 19.2126 20.436 20.6042 20.436 22.3148C20.436 24.0256 19.0092 25.4173 17.2557 25.4173Z" fill="#00A9DC"/>
<path d="M32.3336 0.0729675H2.17713C1.02571 0.0729675 0.0888672 0.981019 0.0888672 2.10574V24.2774C0.0888672 25.4019 1.02571 26.317 2.17713 26.317H9.30683C8.58502 24.6523 9.53572 22.9143 9.53572 22.3144C9.53572 21.6486 8.441 19.7108 9.49277 17.9416C10.5666 16.1433 12.775 16.1193 13.3973 15.797C13.737 15.5934 14.7605 14.1261 16.3196 13.7014H5.14567C4.7504 13.7014 4.43055 13.3886 4.43055 13.0028C4.43055 12.6171 4.75039 12.3043 5.14567 12.3043H28.6754C29.0707 12.3043 29.3905 12.6171 29.3905 13.0028C29.3905 13.3886 29.0707 13.7014 28.6754 13.7014H18.1931C19.7991 14.136 20.7043 15.5654 21.1206 15.797C21.62 16.0902 23.9263 16.1256 25.0179 17.9346C26.0519 19.6832 24.975 21.6985 24.975 22.3144C24.975 22.9137 25.9259 24.6518 25.2039 26.317H32.3336C33.485 26.317 34.4145 25.4019 34.4145 24.2774V2.10574C34.4145 0.981019 33.485 0.0729675 32.3336 0.0729675ZM9.48596 5.1054H24.3344C24.7297 5.1054 25.0495 5.41817 25.0495 5.80394C25.0495 6.18971 24.7297 6.50248 24.3344 6.50248H9.48596C9.09069 6.50248 8.77084 6.18971 8.77084 5.80394C8.77084 5.41817 9.09068 5.1054 9.48596 5.1054ZM28.6754 10.1019H5.14567C4.7504 10.1019 4.43055 9.78916 4.43055 9.40339C4.43055 9.01762 4.75039 8.70485 5.14567 8.70485H28.6754C29.0707 8.70485 29.3905 9.01762 29.3905 9.40339C29.3905 9.78916 29.0707 10.1019 28.6754 10.1019ZM21.9286 34.5389C21.5703 35.029 20.9526 35.1193 20.5055 34.8532C18.3174 33.5749 16.172 33.5679 14.0123 34.8322C13.5403 35.1047 12.9182 34.9789 12.5821 34.5249C12.3246 34.1826 12.2602 33.7355 12.3962 33.3164L13.6834 29.0902C13.762 29.1601 13.8336 29.237 13.8978 29.2998C14.5843 30.0053 15.6214 31.0601 17.2517 31.0601C18.8822 31.0601 19.9049 30.0123 20.5914 29.3208C20.6558 29.2509 20.7344 29.1741 20.8203 29.0902L22.1217 33.3444C22.2575 33.7425 22.1861 34.1966 21.9286 34.5389Z" fill="#00A9DC"/>
</svg>
