<svg width="40" height="40" viewBox="0 0 40 40" fill="none" xmlns="http://www.w3.org/2000/svg">
<g clip-path="url(#clip0_362_953)">
<path d="M34.8885 8.92889H29.5596C29.364 8.92889 29.1929 8.83109 29.0707 8.68444L27.2984 6.3378C26.504 5.26223 25.2207 4.62665 23.8885 4.62665H16.5551C15.2229 4.62665 13.9396 5.26223 13.1451 6.33778L11.3729 8.68444C11.2506 8.8311 11.0796 8.92889 10.884 8.92889H5.55512C3.19624 8.92889 1.27734 10.8477 1.27734 13.2067V31.54C1.27734 33.8989 3.19624 35.8178 5.55512 35.8178H34.8885C37.2473 35.8178 39.1662 33.8989 39.1662 31.54V13.2067C39.1662 10.8477 37.2473 8.92889 34.8885 8.92889ZM20.2218 30.3178C15.8462 30.3178 12.2773 26.7488 12.2773 22.3733C12.2773 17.9855 15.8462 14.4289 20.2218 14.4289C24.5974 14.4289 28.1662 17.9855 28.1662 22.3733C28.1662 26.7488 24.5974 30.3178 20.2218 30.3178Z" fill="white"/>
<path d="M20.2211 26.6511C22.5837 26.6511 24.4989 24.7359 24.4989 22.3734C24.4989 20.0108 22.5837 18.0956 20.2211 18.0956C17.8586 18.0956 15.9434 20.0108 15.9434 22.3734C15.9434 24.7359 17.8586 26.6511 20.2211 26.6511Z" fill="white"/>
</g>
<defs>
<clipPath id="clip0_362_953">
<rect width="39.1111" height="39.1111" fill="white" transform="translate(0.666016 0.666687)"/>
</clipPath>
</defs>
</svg>
