<svg width="35" height="35" viewBox="0 0 35 35" fill="none" xmlns="http://www.w3.org/2000/svg">
<circle cx="17.8498" cy="17.1911" r="17.1503" fill="white"/>
<path d="M26.8538 20.0345C26.8517 19.4656 26.6789 18.9104 26.3579 18.4406C26.0369 17.9709 25.5823 17.6083 25.053 17.3997L26.8253 10.7652C26.8624 10.6239 26.8662 10.476 26.8366 10.333C26.807 10.1899 26.7448 10.0557 26.6547 9.94067C26.5627 9.83292 26.4476 9.74718 26.318 9.68977C26.1884 9.63236 26.0476 9.60474 25.906 9.60895H12.9214L12.6086 8.41475C12.5542 8.21278 12.4346 8.03448 12.2683 7.90762C12.102 7.78076 11.8984 7.71247 11.6893 7.71339H9.7937V9.60895H10.9595L13.31 18.3854C13.3655 18.5922 13.4894 18.774 13.6615 18.9014C13.8336 19.0288 14.0438 19.0941 14.2578 19.0868H24.0104C24.2618 19.0868 24.5029 19.1866 24.6806 19.3644C24.8583 19.5421 24.9582 19.7832 24.9582 20.0345C24.9582 20.2859 24.8583 20.527 24.6806 20.7047C24.5029 20.8825 24.2618 20.9823 24.0104 20.9823H11.6893C11.4379 20.9823 11.1968 21.0822 11.0191 21.2599C10.8413 21.4377 10.7415 21.6787 10.7415 21.9301C10.7415 22.1815 10.8413 22.4225 11.0191 22.6003C11.1968 22.778 11.4379 22.8779 11.6893 22.8779H12.8076C12.6518 23.3074 12.6017 23.7681 12.6616 24.221C12.7216 24.6739 12.8898 25.1057 13.152 25.4799C13.4142 25.854 13.7627 26.1595 14.168 26.3703C14.5734 26.5812 15.0235 26.6913 15.4804 26.6913C15.9373 26.6913 16.3874 26.5812 16.7927 26.3703C17.198 26.1595 17.5466 25.854 17.8088 25.4799C18.071 25.1057 18.2392 24.6739 18.2992 24.221C18.3591 23.7681 18.309 23.3074 18.1531 22.8779H20.3899C20.248 23.2689 20.1936 23.6864 20.2307 24.1007C20.2677 24.5151 20.3952 24.9163 20.6041 25.276C20.8131 25.6357 21.0985 25.9452 21.4401 26.1826C21.7817 26.42 22.1712 26.5796 22.5812 26.65C22.9912 26.7204 23.4117 26.7001 23.813 26.5903C24.2142 26.4805 24.5865 26.2841 24.9036 26.0147C25.2206 25.7454 25.4747 25.4098 25.6479 25.0315C25.8211 24.6533 25.9092 24.2417 25.906 23.8257C25.9042 23.336 25.7735 22.8555 25.5269 22.4324C25.9322 22.1769 26.2663 21.8231 26.4983 21.4039C26.7302 20.9847 26.8525 20.5137 26.8538 20.0345ZM23.1479 17.1912H15.0065L13.4332 11.5045H24.6739L23.1479 17.1912ZM15.4804 24.7734C15.2929 24.7734 15.1097 24.7179 14.9538 24.6137C14.798 24.5096 14.6765 24.3615 14.6048 24.1884C14.533 24.0152 14.5142 23.8246 14.5508 23.6408C14.5874 23.4569 14.6777 23.288 14.8102 23.1555C14.9428 23.0229 15.1116 22.9327 15.2955 22.8961C15.4793 22.8595 15.6699 22.8783 15.8431 22.95C16.0163 23.0218 16.1643 23.1432 16.2684 23.2991C16.3726 23.455 16.4282 23.6382 16.4282 23.8257C16.4282 24.077 16.3283 24.3181 16.1506 24.4958C15.9728 24.6736 15.7318 24.7734 15.4804 24.7734ZM23.0626 24.7734C22.8752 24.7734 22.6919 24.7179 22.5361 24.6137C22.3802 24.5096 22.2587 24.3615 22.187 24.1884C22.1153 24.0152 22.0965 23.8246 22.1331 23.6408C22.1696 23.4569 22.2599 23.288 22.3925 23.1555C22.525 23.0229 22.6939 22.9327 22.8777 22.8961C23.0616 22.8595 23.2522 22.8783 23.4253 22.95C23.5985 23.0218 23.7465 23.1432 23.8507 23.2991C23.9548 23.455 24.0104 23.6382 24.0104 23.8257C24.0104 24.077 23.9106 24.3181 23.7328 24.4958C23.5551 24.6736 23.314 24.7734 23.0626 24.7734Z" fill="#00A9DC"/>
</svg>
