<svg width="59" height="59" viewBox="0 0 59 59" fill="none" xmlns="http://www.w3.org/2000/svg">
<path d="M29.026 30.0352C26.8794 30.0375 24.7802 29.403 22.9942 28.2121C21.2082 27.0212 19.8155 25.3273 18.9924 23.3447C18.1693 21.3621 17.9527 19.1799 18.3701 17.0741C18.7875 14.9684 19.82 13.0338 21.3371 11.5151C22.8542 9.99632 24.7877 8.96167 26.893 8.54201C28.9982 8.12236 31.1807 8.33656 33.1642 9.15752C35.1476 9.97848 36.8431 11.3693 38.0359 13.154C39.2288 14.9388 39.8655 17.0372 39.8655 19.1839C39.8624 22.0588 38.7198 24.8153 36.688 26.8493C34.6562 28.8833 31.901 30.0289 29.026 30.0352ZM29.026 11.8752C27.5772 11.8729 26.1602 12.3005 24.9546 13.104C23.7489 13.9075 22.8088 15.0507 22.2533 16.3888C21.6978 17.7269 21.5518 19.1998 21.8339 20.6209C22.116 22.0421 22.8134 23.3475 23.8379 24.372C24.8624 25.3965 26.1679 26.094 27.589 26.376C29.0101 26.6581 30.483 26.5122 31.8211 25.9566C33.1593 25.4011 34.3025 24.461 35.1059 23.2554C35.9094 22.0497 36.3371 20.6328 36.3348 19.1839C36.3348 17.2455 35.5647 15.3865 34.1941 14.0159C32.8234 12.6452 30.9644 11.8752 29.026 11.8752ZM29.026 58.0225C22.5295 58.0163 16.2225 55.8325 11.1132 51.8201C10.9224 51.6687 10.7644 51.48 10.6491 51.2655C10.5337 51.051 10.4634 50.8152 10.4424 50.5725C10.4424 50.3842 10.4424 50.2077 10.4424 50.0194C10.4424 47.5774 10.9234 45.1593 11.8579 42.9032C12.7924 40.6471 14.1621 38.5971 15.8889 36.8704C17.6156 35.1437 19.6656 33.7739 21.9217 32.8394C24.1778 31.9049 26.5958 31.4239 29.0378 31.4239C31.4798 31.4239 33.8979 31.9049 36.154 32.8394C38.4101 33.7739 40.46 35.1437 42.1868 36.8704C43.9135 38.5971 45.2832 40.6471 46.2178 42.9032C47.1523 45.1593 47.6333 47.5774 47.6333 50.0194C47.6333 50.2077 47.6333 50.3842 47.6333 50.5725C47.6123 50.8152 47.5419 51.051 47.4266 51.2655C47.3112 51.48 47.1533 51.6687 46.9624 51.8201C41.8467 55.8375 35.5307 58.0216 29.026 58.0225ZM13.9732 49.5604C18.3385 52.7634 23.6117 54.4905 29.026 54.4905C34.4404 54.4905 39.7136 52.7634 44.0789 49.5604C43.9251 45.6711 42.2719 41.9923 39.4657 39.295C36.6596 36.5976 32.9184 35.0911 29.026 35.0911C25.1337 35.0911 21.3925 36.5976 18.5863 39.295C15.7802 41.9923 14.127 45.6711 13.9732 49.5604Z" fill="black"/>
<path d="M29.0264 58.0225C22.1652 58.026 15.5249 55.5978 10.2846 51.1689C5.04433 46.7401 1.54331 40.5973 0.403317 33.8315C-0.736679 27.0658 0.558131 20.1149 4.0578 14.2134C7.55746 8.31196 13.0355 3.84181 19.5189 1.59688C26.0024 -0.648055 33.0717 -0.522472 39.4714 1.95132C45.871 4.42512 51.1868 9.08701 54.4746 15.1091C57.7625 21.1311 58.8096 28.1236 57.43 34.8446C56.0504 41.5656 52.3334 47.5801 46.9392 51.8201C41.8299 55.8325 35.5229 58.0163 29.0264 58.0225ZM29.0264 3.55431C23.732 3.55456 18.5695 5.20549 14.2574 8.27728C9.9453 11.3491 6.69822 15.6889 4.96817 20.6926C3.23811 25.6962 3.11117 31.1148 4.605 36.1941C6.09883 41.2733 9.13911 45.7604 13.3026 49.0307C17.0589 51.9786 21.5682 53.8112 26.3159 54.3194C31.0637 54.8275 35.8587 53.9908 40.1537 51.9046C44.4488 49.8185 48.0709 46.5669 50.6067 42.521C53.1425 38.4751 54.4899 33.7979 54.495 29.023C54.4857 22.2712 51.7994 15.7985 47.0251 11.0242C42.2508 6.24996 35.7782 3.56365 29.0264 3.55431Z" fill="black"/>
</svg>
