<svg width="50" height="50" viewBox="0 0 50 50" fill="none" xmlns="http://www.w3.org/2000/svg">
<path d="M25 25.6719C23.575 25.6734 22.1816 25.2523 20.996 24.4617C19.8105 23.6712 18.886 22.5467 18.3396 21.2307C17.7932 19.9146 17.6495 18.4661 17.9265 17.0683C18.2036 15.6705 18.889 14.3863 19.896 13.3781C20.9031 12.37 22.1866 11.6832 23.5841 11.4046C24.9815 11.126 26.4302 11.2682 27.7469 11.8132C29.0636 12.3581 30.189 13.2814 30.9808 14.4661C31.7727 15.6508 32.1953 17.0438 32.1953 18.4687C32.1932 20.3771 31.4348 22.2069 30.086 23.5571C28.7373 24.9073 26.9084 25.6677 25 25.6719ZM25 13.6172C24.0382 13.6156 23.0977 13.8995 22.2973 14.4329C21.497 14.9662 20.873 15.7251 20.5042 16.6133C20.1354 17.5016 20.0386 18.4793 20.2258 19.4227C20.4131 20.366 20.876 21.2326 21.5561 21.9127C22.2362 22.5927 23.1027 23.0557 24.0461 23.2429C24.9894 23.4302 25.9671 23.3333 26.8554 22.9645C27.7437 22.5958 28.5025 21.9717 29.0359 21.1714C29.5692 20.3711 29.8531 19.4305 29.8516 18.4687C29.8516 17.182 29.3404 15.948 28.4306 15.0382C27.5207 14.1283 26.2867 13.6172 25 13.6172ZM25 44.25C20.6876 44.2459 16.501 42.7963 13.1094 40.1328C12.9827 40.0324 12.8778 39.9071 12.8013 39.7647C12.7247 39.6223 12.678 39.4658 12.6641 39.3047C12.6641 39.1797 12.6641 39.0625 12.6641 38.9375C12.6641 37.3165 12.9833 35.7114 13.6037 34.2137C14.224 32.7161 15.1332 31.3554 16.2795 30.2091C17.4257 29.0629 18.7865 28.1537 20.2841 27.5334C21.7817 26.913 23.3868 26.5937 25.0078 26.5937C26.6288 26.5937 28.2339 26.913 29.7316 27.5334C31.2292 28.1537 32.5899 29.0629 33.7362 30.2091C34.8824 31.3554 35.7916 32.7161 36.4119 34.2137C37.0323 35.7114 37.3516 37.3165 37.3516 38.9375C37.3516 39.0625 37.3516 39.1797 37.3516 39.3047C37.3376 39.4658 37.2909 39.6223 37.2144 39.7647C37.1378 39.9071 37.0329 40.0324 36.9062 40.1328C33.5104 42.7996 29.3178 44.2494 25 44.25ZM15.0078 38.6328C17.9055 40.759 21.4059 41.9055 25 41.9055C28.5941 41.9055 32.0945 40.759 34.9922 38.6328C34.8901 36.0511 33.7927 33.6091 31.9299 31.8186C30.0672 30.0281 27.5837 29.028 25 29.028C22.4163 29.028 19.9328 30.0281 18.0701 31.8186C16.2073 33.6091 15.1099 36.0511 15.0078 38.6328Z" fill="white"/>
<path d="M25.0003 44.25C20.4458 44.2524 16.0379 42.6405 12.5594 39.7006C9.08088 36.7607 6.75688 32.6831 6.00015 28.1919C5.24341 23.7008 6.10291 19.0868 8.42601 15.1693C10.7491 11.2519 14.3854 8.28459 18.6892 6.79439C22.993 5.30419 27.6856 5.38756 31.9337 7.02967C36.1818 8.67179 39.7105 11.7664 41.893 15.7639C44.0755 19.7613 44.7705 24.403 43.8548 28.8644C42.939 33.3258 40.4716 37.3183 36.8909 40.1328C33.4993 42.7963 29.3127 44.2459 25.0003 44.25ZM25.0003 8.09375C21.4859 8.09391 18.0589 9.18981 15.1966 11.2289C12.3342 13.2679 10.1787 16.1487 9.03032 19.4702C7.8819 22.7917 7.79763 26.3886 8.78925 29.7602C9.78086 33.1318 11.799 36.1104 14.5628 38.2812C17.0562 40.2381 20.0495 41.4546 23.2011 41.7919C26.3527 42.1292 29.5356 41.5738 32.3867 40.1889C35.2378 38.8041 37.6421 36.6457 39.3254 33.9601C41.0087 31.2744 41.9031 28.1696 41.9065 25C41.9003 20.5181 40.1171 16.2215 36.948 13.0523C33.7788 9.88313 29.4822 8.09995 25.0003 8.09375Z" fill="white"/>
</svg>
