<svg width="346" height="111" viewBox="0 0 346 111" fill="none" xmlns="http://www.w3.org/2000/svg">
<path d="M76.8465 65.9429L65.8121 76.9772L56.4855 86.3039L33.76 109.029C31.1327 111.657 26.9292 111.657 24.4333 109.029C23.1197 107.716 22.4629 106.008 22.4629 104.3C22.4629 102.593 23.1197 100.885 24.4333 99.5714L47.1588 76.8459L56.4855 67.5192L67.5198 56.4849L76.8465 65.9429Z" fill="#0094B5"/>
<path d="M113.102 27.0598C113.102 28.7675 112.445 30.4751 111.132 31.7887L86.1731 56.7474L76.8464 47.4208L101.805 22.4621C104.432 19.8349 108.505 19.8349 111.132 22.4621C112.445 23.6444 113.102 25.3521 113.102 27.0598Z" fill="#0094B5"/>
<path d="M92.741 6.69893C92.741 8.40662 92.0842 10.1143 90.7706 11.4279L45.4509 56.7476L36.1243 47.4209L47.1586 36.3866L56.4853 27.0599L81.4439 2.10128C84.0712 -0.525947 88.1434 -0.525947 90.7706 2.10128C92.2156 3.28353 92.741 4.99123 92.741 6.69893Z" fill="#0094B5"/>
<path d="M36.2555 65.9429L13.53 88.6684C10.9028 91.2956 6.83056 91.2956 4.20333 88.6684C2.88972 87.3548 2.23291 85.6471 2.23291 83.9394C2.23291 82.2317 2.88972 80.524 4.20333 79.2104L26.9288 56.4849L36.2555 65.9429Z" fill="#0094B5"/>
<path d="M56.6164 26.9291L47.2898 36.2557L22.3311 11.2971C19.7039 8.66986 19.7039 4.59765 22.3311 1.97042C23.6448 0.656807 25.3524 0 27.0601 0C28.7678 0 30.4755 0.656807 31.7892 1.97042L56.6164 26.9291Z" fill="#0094B5"/>
<path d="M109.03 88.7994C107.716 90.1131 106.008 90.7699 104.301 90.7699C102.593 90.7699 100.885 90.1131 99.5717 88.7994L56.4852 45.7129L65.8119 36.3862L76.8462 47.4206L86.1729 56.7472L108.898 79.4728C111.526 81.9686 111.526 86.1722 109.03 88.7994Z" fill="#0094B5"/>
<path d="M56.6167 67.6504L47.2901 76.9771L1.97042 31.6574C-0.656807 29.0302 -0.656807 24.8266 1.97042 22.3308C3.28403 21.0172 4.99173 20.3604 6.69943 20.3604C8.40712 20.3604 10.1148 21.0172 11.4284 22.3308L36.3871 47.2894L45.7137 56.6161L56.6167 67.6504Z" fill="#0094B5"/>
<path d="M88.6688 109.03C87.3551 110.343 85.6474 111 83.9397 111C82.232 111 80.5244 110.343 79.2107 109.03L56.4852 86.3042L65.8119 76.9775L88.6688 99.703C91.296 102.33 91.296 106.534 88.6688 109.03Z" fill="#0094B5"/>
<path d="M26.9291 75.1379C26.9291 75.1379 26.6664 56.3533 26.9291 56.616C27.1919 56.8787 36.2558 65.8113 36.2558 65.8113L26.9291 75.1379Z" fill="#0094B5"/>
<path d="M45.5824 37.9624C45.5824 37.9624 45.8451 56.7471 45.5824 56.4844C45.3197 56.2216 36.2557 47.2891 36.2557 47.2891L45.5824 37.9624Z" fill="#0094B5"/>
<path d="M37.9634 26.7969C37.9634 26.7969 56.7481 26.5342 56.4853 26.7969C56.2226 27.0597 47.29 36.1236 47.29 36.1236L37.9634 26.7969Z" fill="#0094B5"/>
<path d="M65.9435 36.2549C65.9435 36.2549 66.2062 55.0395 65.9435 54.7768C65.6808 54.5141 56.6168 45.5815 56.6168 45.5815L65.9435 36.2549Z" fill="#0094B5"/>
<path d="M76.8463 65.811C76.8463 65.811 58.0617 66.0738 58.3244 65.811C58.5871 65.5483 67.5197 56.4844 67.5197 56.4844L76.8463 65.811Z" fill="#0094B5"/>
<path d="M47.1586 76.8455C47.1586 76.8455 46.8959 58.0608 47.1586 58.3235C47.4214 58.5863 56.4853 67.5188 56.4853 67.5188L47.1586 76.8455Z" fill="#0094B5"/>
<path d="M65.9435 76.8457C65.9435 76.8457 66.2062 95.6304 65.9435 95.3677C65.6808 95.1049 56.6168 86.1724 56.6168 86.1724L65.9435 76.8457Z" fill="#0094B5"/>
<path d="M86.1731 37.9624C86.1731 37.9624 86.4358 56.7471 86.1731 56.4844C85.9104 56.2216 76.8464 47.2891 76.8464 47.2891L86.1731 37.9624Z" fill="#0094B5"/>
<path d="M143.705 66.6084L139.019 75.511V81.6023H138.082V75.511L133.396 66.6084H134.568L138.785 74.5739L142.767 66.6084H143.705Z" fill="#0094B5"/>
<path d="M163.619 67.5455C164.79 68.2483 165.493 69.1855 166.196 70.3569C166.899 71.5283 167.133 72.9339 167.133 74.3396C167.133 75.7453 166.899 77.151 166.196 78.3224C165.493 79.4938 164.79 80.4309 163.619 81.1337C162.447 81.8366 161.276 82.0709 159.87 82.0709C158.464 82.0709 157.293 81.8366 156.122 81.1337C154.95 80.4309 154.247 79.4938 153.545 78.3224C152.842 77.151 152.607 75.7453 152.607 74.3396C152.607 72.9339 152.842 71.5283 153.545 70.3569C154.247 69.1855 154.95 68.2483 156.122 67.5455C157.293 66.8427 158.464 66.6084 159.87 66.6084C161.276 66.6084 162.681 66.8427 163.619 67.5455ZM156.824 68.2483C155.887 68.7169 155.185 69.654 154.716 70.5911C154.247 71.5282 154.013 72.6996 154.013 74.1053C154.013 75.511 154.247 76.6824 154.716 77.6195C155.185 78.5566 155.887 79.4938 156.824 79.9623C157.762 80.4309 158.933 80.8995 160.104 80.8995C161.276 80.8995 162.213 80.6652 163.15 79.9623C164.087 79.4938 164.79 78.5566 165.493 77.6195C165.961 76.6824 166.196 75.511 166.196 74.1053C166.196 72.6996 165.961 71.5282 165.493 70.5911C165.024 69.654 164.321 68.7169 163.15 68.2483C162.213 67.7798 161.042 67.3112 160.104 67.3112C158.933 67.3112 157.762 67.5455 156.824 68.2483Z" fill="#0094B5"/>
<path d="M178.378 66.6084V75.7453C178.378 77.3853 178.847 78.791 179.549 79.4938C180.252 80.1966 181.424 80.6652 182.595 80.6652C184.001 80.6652 184.938 80.1966 185.641 79.4938C186.344 78.791 186.812 77.3853 186.812 75.7453V66.6084H187.749V75.7453C187.749 77.6195 187.281 79.2595 186.344 80.1966C185.406 81.1337 184.235 81.6023 182.595 81.6023C180.955 81.6023 179.784 81.1337 178.847 80.1966C177.909 79.2595 177.441 77.8538 177.441 75.7453V66.6084H178.378Z" fill="#0094B5"/>
<path d="M206.492 81.6023L202.274 75.2767H199.463V81.6023H198.526V66.6084H202.743C204.383 66.6084 205.554 67.077 206.492 67.7798C207.194 68.4826 207.663 69.654 207.663 70.8254C207.663 71.9968 207.194 73.1683 206.492 73.8711C205.789 74.5739 204.617 75.0425 203.212 75.0425L207.663 81.368H206.492V81.6023ZM199.463 74.3396H202.509C205.086 74.3396 206.492 73.1682 206.492 70.8254C206.492 69.654 206.257 68.9512 205.554 68.2483C204.852 67.5455 203.914 67.3112 202.509 67.3112H199.463V74.3396Z" fill="#0094B5"/>
<path d="M239.057 79.7287C238.823 80.4315 238.354 80.9 237.651 81.1343C236.948 81.6028 236.245 81.6029 235.308 81.6029C234.371 81.6029 233.668 81.3686 232.966 81.1343C232.263 80.6657 231.56 80.1972 231.326 79.7287C230.857 79.0258 230.623 78.5572 230.623 77.8544H231.326C231.326 78.3229 231.56 78.7915 231.794 79.2601C232.028 79.7286 232.497 80.1972 232.966 80.4315C233.434 80.6658 234.137 80.9001 235.074 80.9001C236.011 80.9001 236.948 80.6657 237.417 79.9629C237.885 79.4943 238.354 78.5572 238.354 77.8544C238.354 77.1515 238.12 76.4487 237.885 75.9802C237.417 75.5116 237.183 75.2773 236.48 75.0431C236.011 74.8088 235.308 74.5745 234.371 74.3402C233.434 74.1059 232.731 73.8716 232.028 73.6374C231.56 73.4031 231.091 72.9345 230.623 72.466C230.154 71.9974 230.154 71.2946 230.154 70.3575C230.154 69.1861 230.623 68.4832 231.326 67.7804C232.028 67.0775 233.2 66.8433 234.371 66.8433C235.777 66.8433 236.714 67.0775 237.651 67.7804C238.354 68.4832 238.823 69.186 239.057 70.1232H238.12C237.885 69.4203 237.651 68.9517 236.948 68.2489C236.245 67.7803 235.543 67.5461 234.371 67.5461C233.434 67.5461 232.731 67.7803 232.028 68.2489C231.56 68.7174 231.091 69.4203 231.091 70.3575C231.091 71.0603 231.326 71.5288 231.56 71.9974C231.794 72.4659 232.263 72.7002 232.731 72.9345C233.2 73.1688 233.903 73.4031 234.84 73.6374C235.777 73.8716 236.48 74.1059 237.183 74.5745C237.651 74.8088 238.354 75.2773 238.588 75.7459C239.057 76.2144 239.291 77.1515 239.291 77.8544C239.525 78.5572 239.291 79.0258 239.057 79.7287Z" fill="#0094B5"/>
<path d="M250.771 80.6656H256.394V81.3684H249.834V66.3745H250.771V80.6656Z" fill="#0094B5"/>
<path d="M276.073 67.5455C277.244 68.2483 277.947 69.1855 278.65 70.3569C279.353 71.5283 279.587 72.9339 279.587 74.3396C279.587 75.7453 279.353 77.151 278.65 78.3224C277.947 79.4938 277.244 80.4309 276.073 81.1337C274.902 81.8366 273.73 82.0709 272.325 82.0709C270.919 82.0709 269.747 81.8366 268.576 81.1337C267.405 80.4309 266.702 79.4938 265.999 78.3224C265.296 77.151 265.062 75.7453 265.062 74.3396C265.062 72.9339 265.296 71.5283 265.999 70.3569C266.702 69.1855 267.405 68.2483 268.576 67.5455C269.747 66.8427 270.919 66.6084 272.325 66.6084C273.73 66.6084 275.136 66.8427 276.073 67.5455ZM269.279 68.2483C268.342 68.7169 267.639 69.654 267.17 70.5911C266.702 71.5282 266.468 72.6996 266.468 74.1053C266.468 75.511 266.702 76.6824 267.17 77.6195C267.639 78.5566 268.342 79.4938 269.279 79.9623C270.216 80.4309 271.387 80.8995 272.559 80.8995C273.73 80.8995 274.667 80.6652 275.604 79.9623C276.542 79.4938 277.244 78.5566 277.947 77.6195C278.416 76.6824 278.65 75.511 278.65 74.1053C278.65 72.6996 278.416 71.5282 277.947 70.5911C277.479 69.654 276.776 68.7169 275.604 68.2483C274.667 67.7798 273.496 67.3112 272.559 67.3112C271.387 67.3112 270.216 67.5455 269.279 68.2483Z" fill="#0094B5"/>
<path d="M300.907 67.7801C302.078 68.7172 302.781 69.6544 303.25 71.06H302.313C301.844 69.8886 301.141 68.9515 300.204 68.2486C299.267 67.5458 298.096 67.3115 296.69 67.3115C295.518 67.3115 294.581 67.5459 293.644 68.0144C292.707 68.483 292.004 69.4201 291.536 70.3572C291.067 71.2943 290.833 72.4657 290.833 73.8714C290.833 75.2771 291.067 76.4485 291.536 77.3856C292.004 78.3227 292.941 79.2599 293.879 79.7284C294.816 80.197 295.987 80.4312 297.158 80.4312C298.33 80.4312 299.267 80.197 300.204 79.7284C301.141 79.2599 301.844 78.557 302.313 77.6198C302.781 76.6827 303.25 75.5113 303.25 74.3399H296.69V73.6371H304.187V74.3399C304.187 75.7456 303.718 76.917 303.25 78.0884C302.547 79.2598 301.844 79.9627 300.673 80.6655C299.501 81.3684 298.33 81.6026 297.158 81.6026C295.753 81.6026 294.581 81.3684 293.41 80.6655C292.239 79.9627 291.536 79.0255 290.833 77.8541C290.13 76.6827 289.896 75.2771 289.896 73.8714C289.896 72.4657 290.13 71.06 290.833 69.8886C291.536 68.7172 292.239 67.7801 293.41 67.0772C294.581 66.3744 295.753 66.1401 297.158 66.1401C298.33 66.6087 299.736 66.843 300.907 67.7801Z" fill="#0094B5"/>
<path d="M322.461 77.6197H315.432L314.027 81.6025H312.855L318.478 67.0771H319.649L325.038 81.6025H324.101L322.461 77.6197ZM322.226 76.9169L318.946 68.2485L315.666 76.9169H322.226Z" fill="#0094B5"/>
<path d="M345.185 81.6023H344.248L335.58 68.2483V81.6023H334.643V66.6084H335.58L344.248 79.9623V66.6084H345.185V81.6023Z" fill="#0094B5"/>
<path d="M154.286 32.7621C156.524 34.5029 157.767 36.741 158.513 39.7252H151.799C151.302 38.4818 150.555 37.487 149.561 36.9897C148.566 36.2436 147.571 35.7462 146.079 35.7462C144.338 35.7462 142.846 36.4923 141.603 37.7358C140.608 38.9792 139.862 40.9686 139.862 43.2068C139.862 45.4449 140.359 47.1857 141.603 48.4292C142.598 49.6726 144.09 50.4187 146.079 50.4187C147.571 50.4187 148.566 50.1699 149.561 49.4239C150.555 48.6778 151.302 47.9318 151.799 46.6884H158.513C157.767 49.6726 156.524 51.9108 154.286 53.6516C152.048 55.3923 149.312 56.1384 146.079 56.1384C143.592 56.1384 141.354 55.641 139.365 54.3976C137.375 53.4028 135.883 51.6621 134.888 49.6726C133.894 47.6831 133.396 45.445 133.396 42.9582C133.396 40.4713 133.894 38.2331 134.888 36.2436C135.883 34.2542 137.375 32.7621 139.365 31.5187C141.354 30.5239 143.344 29.7778 146.079 29.7778C149.561 30.0265 152.296 31.0213 154.286 32.7621Z" fill="#0094B5"/>
<path d="M184.625 31.5187C186.614 32.7621 188.107 34.2542 189.35 36.2436C190.593 38.2331 191.091 40.4713 191.091 42.9582C191.091 45.445 190.593 47.6831 189.35 49.6726C188.107 51.6621 186.614 53.1542 184.625 54.3976C182.635 55.641 180.397 56.1384 178.159 56.1384C175.672 56.1384 173.434 55.641 171.693 54.3976C169.704 53.1542 168.212 51.6621 166.968 49.6726C165.725 47.6831 165.228 45.445 165.228 42.9582C165.228 40.4713 165.725 38.2331 166.968 36.2436C168.212 34.2542 169.704 32.7621 171.693 31.5187C173.683 30.2752 175.921 29.7778 178.159 29.7778C180.397 30.0265 182.635 30.5239 184.625 31.5187ZM172.937 37.7358C171.693 38.9792 171.196 40.9686 171.196 43.2068C171.196 45.4449 171.693 47.1858 172.937 48.6779C174.18 49.9213 175.672 50.6673 177.91 50.6673C179.9 50.6673 181.641 49.9213 182.884 48.6779C184.128 47.4344 184.625 45.4449 184.625 43.2068C184.625 40.9686 184.128 39.2279 182.884 37.7358C181.641 36.4923 180.149 35.7462 177.91 35.7462C175.921 35.7462 174.18 36.4923 172.937 37.7358Z" fill="#0094B5"/>
<path d="M227.15 30.5239V56.1384H220.933V40.2226L215.462 56.1384H209.991L204.52 39.9739V56.1384H198.303V30.5239H205.764L212.727 48.4292L219.441 30.5239H227.15Z" fill="#0094B5"/>
<path d="M241.325 47.1854V56.1381H235.108V30.2749H245.304C248.289 30.2749 250.775 31.0209 252.268 32.513C253.76 34.0052 254.754 35.9946 254.754 38.7302C254.754 40.2223 254.506 41.7144 253.76 42.9578C253.014 44.2012 252.019 45.1959 250.527 45.942C249.035 46.688 247.294 46.9367 245.304 46.9367H241.325V47.1854ZM248.289 38.7302C248.289 36.492 247.045 35.2486 244.558 35.2486H241.325V41.963H244.558C247.045 41.963 248.289 40.9683 248.289 38.7302Z" fill="#0094B5"/>
<path d="M277.136 51.4134H267.437L265.945 56.1384H259.479L268.93 30.5239H276.141L285.591 56.1384H278.877L277.136 51.4134ZM275.644 46.6884L272.411 37.2384L269.178 46.6884H275.644Z" fill="#0094B5"/>
<path d="M314.439 56.1381H308.221L297.777 40.2223V56.1381H291.56V30.2749H297.777L308.221 46.1907V30.2749H314.439V56.1381Z" fill="#0094B5"/>
<path d="M344.778 30.2749L335.825 47.4341V55.8894H329.608V47.4341L320.656 30.2749H327.619L332.592 40.7196L337.566 30.2749H344.778Z" fill="#0094B5"/>
</svg>
