<svg width="171" height="111" viewBox="0 0 171 111" fill="none" xmlns="http://www.w3.org/2000/svg">
<path d="M163.322 60.9861C163.322 61.0662 163.322 61.1463 163.322 61.2264C163.282 60.1452 163.242 59.1441 163.162 58.1831C163.282 59.1041 163.322 60.0651 163.322 60.9861Z" fill="#231F20"/>
<path d="M170.049 104.353V106.875H136.293V104.353C138.375 104.353 139.816 103.752 140.617 102.551C141.418 101.349 141.819 99.067 141.819 95.7434V58.1828C141.819 54.1784 138.575 50.9349 134.571 50.9349C130.566 50.9349 127.323 54.1784 127.323 58.1828V95.7434C127.323 99.107 127.723 101.389 128.564 102.551C129.405 103.752 130.807 104.353 132.809 104.353V106.875H99.0523V104.353C101.535 104.353 103.257 103.752 104.258 102.551C105.259 101.349 105.74 99.067 105.74 95.7434V19.2206C105.74 15.6167 105.259 12.9739 104.298 11.252C103.337 9.53013 101.575 8.68923 99.0123 8.68923V6.1665H127.243V38.5615C130.566 36.9198 134.33 35.9988 138.255 35.9988C146.864 35.9988 154.432 40.3635 158.917 46.9706C161.119 50.2542 162.601 54.0583 163.042 58.1828C163.122 59.1438 163.162 60.1449 163.202 61.2261C163.202 61.9068 163.242 62.5875 163.242 63.3083V95.7434C163.242 99.107 163.722 101.389 164.723 102.551C165.845 103.792 167.606 104.353 170.049 104.353Z" fill="#08586B"/>
<path d="M92.7655 26.2285V78.7653C92.7655 85.7729 92.1248 91.2188 90.8434 95.063C89.562 98.9071 87.3597 102.151 84.2763 104.874C82.2742 106.635 79.391 108.077 75.5469 109.198C71.7027 110.319 66.4971 110.88 59.8499 110.88V108.477C63.0534 108.477 65.7363 107.356 67.9387 105.074C70.141 102.791 71.2222 98.9071 71.2222 93.4212V39.2826C71.2222 35.6787 70.7417 33.0359 69.7806 31.314C68.8196 29.5921 67.0577 28.7512 64.4949 28.7512V26.2285H92.7655Z" fill="#08586B"/>
<path d="M79.9517 21.3831C85.8564 21.3831 90.6432 16.5963 90.6432 10.6916C90.6432 4.78677 85.8564 0 79.9517 0C74.0469 0 69.2601 4.78677 69.2601 10.6916C69.2601 16.5963 74.0469 21.3831 79.9517 21.3831Z" fill="#5DC9E2"/>
<path d="M28.1356 75.2417C28.2157 75.2417 28.2958 75.2417 28.3358 75.2817C28.2958 75.2817 28.2958 75.2817 28.2558 75.2817C28.2157 75.2417 28.1757 75.2417 28.1356 75.2417Z" fill="#08586B"/>
<path d="M25.693 65.9915C25.8131 65.9915 25.8932 65.9915 25.9733 65.9915C26.2536 65.9915 26.5339 65.9915 26.8142 65.9915C27.3348 65.9915 27.8554 65.9915 28.3759 65.9515C28.496 65.9515 28.6162 65.9515 28.7764 65.9515C42.5913 65.1906 53.443 56.6214 53.443 46.1701C53.443 35.2382 41.5101 26.3486 26.8142 26.3486C12.1183 26.3486 0.185425 35.2382 0.185425 46.1701C0.185425 55.0597 8.03391 62.5878 18.8856 65.1105H18.9257C18.4452 65.2307 17.9647 65.3909 17.4841 65.551C12.0783 67.5532 8.23413 72.7588 8.23413 78.8855C8.23413 80.4071 8.47439 81.8887 8.91487 83.2902C10.5967 88.4958 15.2417 92.4201 20.8878 93.0207C21.3283 93.0608 21.7688 93.1008 22.2092 93.1008C22.7698 93.1409 23.3705 93.1409 24.0112 93.1409H30.6984C31.6194 93.1409 32.5004 93.1809 33.3413 93.221H33.3813C33.982 93.221 34.5826 93.261 35.1432 93.3811C39.588 94.222 42.9517 98.1062 42.9517 102.831C42.9517 104.473 42.5513 106.035 41.8305 107.356C41.6303 107.757 41.3499 108.157 41.0696 108.518C42.4311 106.916 43.5123 105.074 44.3131 103.112C45.2742 100.749 45.7948 98.1863 45.7948 95.4634C45.7948 89.2567 43.0318 83.7307 38.667 79.9666C36.2244 77.8844 33.3012 76.3227 30.0577 75.5619C29.8976 75.5218 29.7774 75.4818 29.6173 75.4818C29.5372 75.4818 29.4971 75.4417 29.417 75.4417C29.2969 75.4017 29.1768 75.4017 29.0567 75.3616C28.9365 75.3216 28.8164 75.3216 28.6562 75.2816C28.5361 75.2816 28.456 75.2415 28.3359 75.2415C28.2558 75.2415 28.1757 75.2015 28.1357 75.2015C28.1357 75.2015 28.1357 75.2015 28.0956 75.2015C28.0556 75.2015 27.9755 75.2015 27.9354 75.1614H27.7352C27.6952 75.1614 27.6551 75.1614 27.6151 75.1614L25.693 75.0813C25.4928 75.0813 25.2525 75.0813 25.0523 75.0413C25.0123 75.0413 24.9322 75.0413 24.8921 75.0013C22.7698 74.6409 21.1281 72.7588 21.1281 70.5164C21.1681 68.0337 23.2103 66.0315 25.693 65.9915ZM20.4874 46.2101C20.4874 37.5207 23.3305 30.4731 26.8142 30.4731C30.298 30.4731 33.1411 37.5207 33.1411 46.2101C33.1411 54.8995 30.298 61.9471 26.8142 61.9471C23.3305 61.9471 20.4874 54.8995 20.4874 46.2101Z" fill="#005468"/>
<path d="M62.693 93.5015C62.693 103.072 55.0447 110.84 45.5144 111C43.4722 111 41.5101 110.64 39.7082 109.999L40.1086 109.599C40.4289 109.279 40.7493 108.918 40.9896 108.558C42.351 106.956 43.4322 105.114 44.2331 103.152C45.1941 100.789 45.7147 98.2266 45.7147 95.5036C45.7147 89.2969 42.9517 83.7709 38.587 80.0069C36.1443 77.9246 33.2212 76.3629 29.9776 75.6021C29.8175 75.562 29.6973 75.522 29.5372 75.522C29.4571 75.522 29.417 75.482 29.3369 75.482C29.2168 75.4419 29.0967 75.4419 28.9766 75.4019C28.8564 75.3618 28.7363 75.3618 28.5761 75.3218C28.456 75.3218 28.3759 75.2818 28.2558 75.2818C28.1757 75.2818 28.0956 75.2417 28.0556 75.2417C28.0556 75.2417 28.0556 75.2417 28.0155 75.2417C27.9755 75.2417 27.8954 75.2417 27.8553 75.2017L29.0566 75.2417L39.1476 75.562L43.1919 75.6822L45.1541 75.8023C46.0751 75.8824 47.0361 76.0025 47.9571 76.1627C48.3575 76.2428 48.7179 76.3229 49.1183 76.403C50.7201 76.8034 52.2818 77.404 53.7233 78.1649C59.1292 81.2082 62.693 86.9344 62.693 93.5015Z" fill="#5DC9E2"/>
</svg>
