<svg width="372" height="111" viewBox="0 0 372 111" fill="none" xmlns="http://www.w3.org/2000/svg">
<g clip-path="url(#clip0)">
<path d="M147.693 35.5747H142.261V5.89697H147.693V35.5747Z" fill="#383838"/>
<path d="M184.014 33.3066C184.014 33.6954 183.948 34.0194 183.818 34.4082C183.687 34.7322 183.49 35.0562 183.229 35.2506C182.967 35.5097 182.705 35.7041 182.378 35.8337C182.051 35.9633 181.658 36.0281 181.331 36.0281C181.004 36.0281 180.676 35.9633 180.349 35.8337C180.022 35.7041 179.695 35.5097 179.433 35.2506L159.604 14.7094V35.6393H154.172V8.16474C154.172 7.58155 154.303 7.12796 154.63 6.67437C154.957 6.22078 155.35 5.89679 155.808 5.70239C156.332 5.508 156.855 5.4432 157.379 5.5728C157.902 5.70239 158.36 5.89679 158.753 6.35038L178.582 26.8915V5.89679H184.014V33.3066Z" fill="#383838"/>
<path d="M220.334 5.89697L206.133 34.5379C205.937 34.9915 205.61 35.3155 205.152 35.5747C204.694 35.8339 204.235 35.9635 203.712 35.9635C203.188 35.9635 202.73 35.8339 202.272 35.5747C201.814 35.3155 201.487 34.9267 201.29 34.5379L187.024 5.89697H193.11L203.646 27.2805L214.248 5.89697H220.334Z" fill="#383838"/>
<path d="M250.438 35.5744H230.806C230.086 35.5744 229.235 35.4448 228.319 35.1856C227.403 34.9264 226.617 34.4728 225.832 33.8896C225.047 33.3064 224.458 32.5289 223.934 31.5569C223.411 30.5849 223.149 29.4185 223.149 28.0577V8.61817C223.149 8.22938 223.214 7.90538 223.345 7.58139C223.476 7.2574 223.672 6.9334 223.934 6.73901C224.196 6.47981 224.458 6.28542 224.785 6.15582C225.112 6.02622 225.505 5.96143 225.897 5.96143H250.373V11.3397H228.58V28.0577C228.58 28.7705 228.777 29.2889 229.169 29.6777C229.562 30.0665 230.086 30.2609 230.806 30.2609H250.373V35.5744H250.438ZM248.017 23.457H230.871V18.014H248.017V23.457Z" fill="#383838"/>
<path d="M284.403 26.8269C284.403 27.8637 284.272 28.8357 284.01 29.6781C283.748 30.5204 283.356 31.298 282.963 31.946C282.505 32.594 281.981 33.1772 281.392 33.6308C280.803 34.0844 280.149 34.4732 279.56 34.7323C278.906 34.9915 278.251 35.2507 277.597 35.3803C276.942 35.5099 276.288 35.5747 275.699 35.5747H254.757V30.1964H275.699C276.746 30.1964 277.531 29.8725 278.12 29.2893C278.709 28.7061 278.971 27.8637 278.971 26.8269C278.971 26.3085 278.906 25.8549 278.709 25.4661C278.578 25.0774 278.317 24.6886 278.055 24.3646C277.793 24.0406 277.4 23.8462 277.008 23.6518C276.615 23.4574 276.157 23.3926 275.633 23.3926H263.134C262.283 23.3926 261.302 23.263 260.32 22.939C259.273 22.615 258.357 22.0966 257.506 21.4486C256.655 20.7359 255.935 19.8287 255.346 18.7271C254.757 17.6255 254.495 16.2647 254.495 14.6448C254.495 13.0248 254.757 11.664 255.346 10.5625C255.935 9.46089 256.655 8.55372 257.506 7.84093C258.357 7.12815 259.338 6.60976 260.32 6.35056C261.367 6.02657 262.283 5.89697 263.134 5.89697H281.654V11.2753H263.134C262.087 11.2753 261.302 11.5992 260.713 12.1824C260.124 12.8304 259.862 13.608 259.862 14.6448C259.862 15.6816 260.124 16.5239 260.713 17.1071C261.302 17.6903 262.087 18.0143 263.134 18.0143H275.699H275.764C276.353 18.0143 276.942 18.0791 277.597 18.2735C278.251 18.4031 278.906 18.6623 279.56 18.9215C280.214 19.2455 280.803 19.6343 281.392 20.0879C281.981 20.5415 282.505 21.1246 282.963 21.7726C283.421 22.4206 283.748 23.1982 284.01 23.9758C284.272 24.8182 284.403 25.7901 284.403 26.8269Z" fill="#383838"/>
<path d="M315.684 11.2753H303.708V35.5747H298.277V11.2753H286.301V5.89697H315.684V11.2753Z" fill="#383838"/>
<path d="M171.645 51.3851H159.669V75.6846H154.237V51.3851H142.261V46.0068H171.645V51.3851Z" fill="#383838"/>
<path d="M206.722 63.6968C206.722 65.5112 206.395 67.1959 205.806 68.6863C205.152 70.1767 204.301 71.5374 203.189 72.639C202.076 73.7406 200.767 74.583 199.197 75.231C197.626 75.879 195.99 76.1381 194.223 76.1381H186.893C185.126 76.1381 183.425 75.8142 181.92 75.231C180.415 74.6478 179.04 73.7406 177.928 72.639C176.815 71.5374 175.964 70.2415 175.31 68.6863C174.656 67.1959 174.328 65.5112 174.328 63.6968V57.9945C174.328 56.1802 174.656 54.5602 175.31 53.0051C175.964 51.4499 176.815 50.1539 177.928 49.0523C179.04 47.9508 180.349 47.1084 181.92 46.4604C183.425 45.8124 185.126 45.5532 186.893 45.5532H194.223C195.99 45.5532 197.691 45.8772 199.197 46.4604C200.702 47.1084 202.011 47.9508 203.189 49.0523C204.301 50.1539 205.152 51.4499 205.806 53.0051C206.461 54.5602 206.722 56.1802 206.722 57.9945V63.6968ZM201.291 57.9945C201.291 56.9578 201.094 55.9858 200.767 55.0786C200.44 54.2362 199.916 53.4586 199.327 52.8755C198.738 52.2923 197.953 51.7739 197.102 51.4499C196.252 51.1259 195.27 50.9315 194.223 50.9315H186.893C185.846 50.9315 184.865 51.1259 184.014 51.4499C183.163 51.7739 182.378 52.2923 181.789 52.8755C181.134 53.4586 180.676 54.2362 180.349 55.0786C180.022 55.921 179.826 56.893 179.826 57.9945V63.6968C179.826 64.7336 180.022 65.7056 180.349 66.6128C180.676 67.4551 181.2 68.2327 181.789 68.8159C182.443 69.3991 183.163 69.9175 184.014 70.2415C184.865 70.5655 185.846 70.7599 186.893 70.7599H194.223C195.27 70.7599 196.252 70.5655 197.102 70.2415C197.953 69.9175 198.738 69.3991 199.327 68.8159C199.982 68.2327 200.44 67.4551 200.767 66.6128C201.094 65.7704 201.291 64.7984 201.291 63.6968V57.9945Z" fill="#383838"/>
<path d="M255.543 72.963C255.543 73.3518 255.477 73.6758 255.346 74.0646C255.215 74.3886 255.019 74.7126 254.757 74.907C254.495 75.1662 254.234 75.3606 253.906 75.4902C253.579 75.6198 253.187 75.6846 252.794 75.6846H233.161C232.638 75.6846 232.114 75.6198 231.525 75.4902C230.936 75.3606 230.347 75.1662 229.824 74.9718C229.235 74.7126 228.711 74.3886 228.188 73.9998C227.664 73.611 227.206 73.1574 226.813 72.5743C226.421 71.9911 226.093 71.3431 225.832 70.6303C225.57 69.9175 225.504 69.0751 225.504 68.1679V53.5883C225.504 53.0699 225.57 52.5515 225.701 51.9683C225.832 51.3851 226.028 50.8019 226.224 50.2835C226.486 49.7004 226.813 49.182 227.206 48.6636C227.599 48.1452 228.122 47.6916 228.646 47.3028C229.235 46.914 229.889 46.59 230.609 46.3308C231.329 46.0716 232.18 46.0068 233.096 46.0068H255.215V51.3851H233.096C232.376 51.3851 231.852 51.5795 231.46 51.9683C231.067 52.3571 230.871 52.8755 230.871 53.6531V68.1679C230.871 68.8807 231.067 69.3991 231.46 69.7879C231.852 70.1767 232.376 70.3711 233.096 70.3711H249.98V63.5673H235.517V58.1242H252.794C253.187 58.1242 253.514 58.189 253.906 58.3186C254.234 58.4482 254.561 58.6426 254.757 58.9018C255.019 59.1609 255.215 59.4201 255.346 59.7441C255.477 60.0681 255.543 60.3921 255.543 60.7809V72.963Z" fill="#383838"/>
<path d="M291.209 55.986C291.209 57.2171 291.078 58.3187 290.751 59.2907C290.424 60.2627 290.031 61.1051 289.507 61.8178C288.984 62.5306 288.395 63.1786 287.675 63.697C287.021 64.2154 286.301 64.669 285.515 64.993C284.796 65.317 284.01 65.5762 283.29 65.7058C282.505 65.8354 281.785 65.965 281.131 65.965L292.452 75.6847H284.076L272.754 65.965H268.828V60.5867H281.131C281.785 60.5219 282.44 60.3923 283.029 60.1331C283.618 59.8739 284.076 59.6147 284.468 59.2259C284.861 58.8371 285.188 58.3835 285.45 57.8003C285.646 57.2819 285.777 56.634 285.777 55.9212V52.5516C285.777 52.2276 285.712 52.0332 285.646 51.8389C285.581 51.7093 285.45 51.5797 285.385 51.5149C285.254 51.4501 285.123 51.3853 284.992 51.3853C284.861 51.3853 284.73 51.3853 284.599 51.3853H266.668V75.6847H261.236V48.7285C261.236 48.3397 261.302 48.0157 261.433 47.6917C261.563 47.3677 261.76 47.0438 262.022 46.8494C262.283 46.5902 262.545 46.3958 262.872 46.2662C263.199 46.1366 263.592 46.0718 263.985 46.0718H284.599C285.843 46.0718 286.824 46.2662 287.675 46.7198C288.526 47.1734 289.18 47.6917 289.704 48.3397C290.227 48.9877 290.62 49.7005 290.816 50.4781C291.078 51.2557 291.144 51.9684 291.144 52.6164V55.986H291.209Z" fill="#383838"/>
<path d="M328.118 63.6968C328.118 65.5112 327.791 67.1959 327.202 68.6863C326.548 70.1767 325.697 71.5374 324.584 72.639C323.472 73.7406 322.163 74.583 320.592 75.231C319.022 75.879 317.386 76.1381 315.619 76.1381H308.289C306.522 76.1381 304.821 75.8142 303.316 75.231C301.81 74.6478 300.436 73.7406 299.324 72.639C298.211 71.5374 297.36 70.2415 296.706 68.6863C296.051 67.1959 295.724 65.5112 295.724 63.6968V57.9945C295.724 56.1802 296.051 54.5602 296.706 53.0051C297.36 51.4499 298.211 50.1539 299.324 49.0523C300.436 47.9508 301.745 47.1084 303.316 46.4604C304.821 45.8124 306.522 45.5532 308.289 45.5532H315.619C317.386 45.5532 319.087 45.8772 320.592 46.4604C322.098 47.1084 323.406 47.9508 324.584 49.0523C325.697 50.1539 326.548 51.4499 327.202 53.0051C327.857 54.5602 328.118 56.1802 328.118 57.9945V63.6968ZM322.687 57.9945C322.687 56.9578 322.49 55.9858 322.163 55.0786C321.836 54.2362 321.312 53.4586 320.723 52.8755C320.134 52.2923 319.349 51.7739 318.498 51.4499C317.647 51.1259 316.666 50.9315 315.619 50.9315H308.289C307.242 50.9315 306.26 51.1259 305.41 51.4499C304.559 51.7739 303.774 52.2923 303.185 52.8755C302.53 53.4586 302.072 54.2362 301.745 55.0786C301.418 55.921 301.221 56.893 301.221 57.9945V63.6968C301.221 64.7336 301.418 65.7056 301.745 66.6128C302.072 67.4551 302.596 68.2327 303.185 68.8159C303.839 69.3991 304.559 69.9175 305.41 70.2415C306.26 70.5655 307.242 70.7599 308.289 70.7599H315.619C316.666 70.7599 317.647 70.5655 318.498 70.2415C319.349 69.9175 320.134 69.3991 320.723 68.8159C321.378 68.2327 321.836 67.4551 322.163 66.6128C322.49 65.7704 322.687 64.7984 322.687 63.6968V57.9945Z" fill="#383838"/>
<path d="M371.507 46.0068L366.468 73.8054C366.337 74.3886 366.075 74.8422 365.748 75.231C365.355 75.6198 364.897 75.879 364.308 76.0086C363.719 76.0734 363.196 76.0734 362.672 75.8142C362.149 75.6198 361.756 75.231 361.494 74.7774L351.547 58.5778L341.6 74.7774C341.338 75.1662 341.011 75.4902 340.618 75.6846C340.225 75.879 339.767 76.0086 339.309 76.0086C338.655 76.0086 338.066 75.8142 337.542 75.3606C337.019 74.9718 336.757 74.3886 336.626 73.7406L331.522 46.0068H337.019L340.618 65.576L349.191 52.0331C349.453 51.6443 349.78 51.3203 350.173 51.1259C350.565 50.9315 351.023 50.8019 351.482 50.8019C351.94 50.8019 352.398 50.9315 352.79 51.1259C353.183 51.3203 353.51 51.6443 353.772 52.0331L362.28 65.576L365.879 46.0068H371.507Z" fill="#383838"/>
<path d="M160.323 97.9107C160.323 99.4658 159.931 100.891 159.145 102.123C158.36 103.354 157.313 104.326 156.07 104.974C154.761 105.686 153.321 106.01 151.75 106.01C150.376 106.01 149.067 105.751 147.824 105.298C146.646 104.844 145.533 104.131 144.683 103.224C143.766 102.382 143.047 101.345 142.588 100.179C142.065 99.0122 141.803 97.7163 141.803 96.2907C141.803 94.9299 142.065 93.6339 142.523 92.4676C142.981 91.3012 143.701 90.2644 144.617 89.3572C145.533 88.5149 146.58 87.8021 147.758 87.2837C148.936 86.8301 150.245 86.5709 151.62 86.5709C152.601 86.5709 153.517 86.7005 154.434 86.9597C155.35 87.2189 156.201 87.6077 156.986 88.1261C157.771 88.5797 158.426 89.1628 158.884 89.8108L159.145 90.1348L157.117 92.2084L156.79 91.8196C156.135 91.1068 155.284 90.5236 154.368 90.1348C153.452 89.746 152.536 89.4868 151.62 89.4868C150.376 89.4868 149.198 89.8108 148.151 90.394C147.169 90.9772 146.319 91.7548 145.73 92.7916C145.141 93.7635 144.814 94.9299 144.814 96.2259C144.814 97.5219 145.141 98.6882 145.73 99.6602C146.319 100.697 147.169 101.475 148.217 102.058C149.264 102.641 150.442 102.965 151.75 102.965C152.732 102.965 153.714 102.771 154.499 102.382C155.284 101.993 155.939 101.475 156.397 100.827C156.855 100.243 157.051 99.5954 157.051 98.8178H151.096V95.8371H160.062L160.127 96.2907C160.127 96.4851 160.193 96.7443 160.193 97.0683C160.258 97.3923 160.323 97.6515 160.323 97.9107ZM171.907 85.7285V105.751H174.852V85.7285H171.907ZM201.029 98.4938C201.029 99.9194 200.702 101.215 200.047 102.382C199.393 103.483 198.542 104.391 197.364 105.039C196.251 105.686 194.943 106.01 193.568 106.01C192.129 106.01 190.885 105.686 189.773 105.039C188.66 104.391 187.744 103.483 187.089 102.382C186.435 101.28 186.108 99.9842 186.108 98.4938C186.108 97.0683 186.435 95.7723 187.089 94.6707C187.744 93.5692 188.595 92.662 189.773 92.014C190.885 91.366 192.194 91.042 193.568 91.042C195.008 91.042 196.251 91.366 197.364 92.014C198.476 92.662 199.393 93.5692 200.047 94.6707C200.702 95.7723 201.029 97.0683 201.029 98.4938ZM197.953 98.4938C197.953 97.5867 197.757 96.7443 197.364 96.0963C196.971 95.3835 196.448 94.8651 195.793 94.4763C195.139 94.0875 194.354 93.8931 193.503 93.8931C192.652 93.8931 191.867 94.0875 191.212 94.4763C190.558 94.8651 190.034 95.4483 189.642 96.0963C189.249 96.8091 189.053 97.5867 189.053 98.4938C189.053 99.401 189.249 100.243 189.642 100.956C190.034 101.669 190.558 102.187 191.212 102.576C191.867 102.965 192.652 103.159 193.503 103.159C194.354 103.159 195.139 102.965 195.793 102.576C196.448 102.187 196.971 101.604 197.364 100.891C197.757 100.243 197.953 99.401 197.953 98.4938ZM226.748 98.4938C226.748 99.9194 226.42 101.215 225.831 102.317C225.242 103.419 224.392 104.326 223.41 104.974C222.363 105.622 221.185 105.946 219.876 105.946C218.764 105.946 217.717 105.686 216.8 105.168C216.277 104.909 215.884 104.585 215.492 104.261V105.686H212.547V85.7285H215.492V92.7916C215.819 92.4676 216.277 92.1436 216.735 91.8844C217.717 91.3012 218.764 91.042 219.876 91.042C221.185 91.042 222.363 91.366 223.41 92.014C224.457 92.662 225.308 93.5692 225.897 94.6707C226.42 95.7723 226.748 97.0683 226.748 98.4938ZM221.709 102.576C222.363 102.187 222.821 101.669 223.214 100.956C223.606 100.243 223.737 99.401 223.737 98.4938C223.737 97.5867 223.541 96.8091 223.214 96.0963C222.821 95.3835 222.363 94.8651 221.709 94.4763C221.054 94.0875 220.334 93.8931 219.549 93.8931C218.698 93.8931 217.978 94.0875 217.389 94.4763C216.735 94.8651 216.277 95.4483 215.884 96.0963C215.492 96.8091 215.361 97.5867 215.361 98.4938C215.361 99.401 215.557 100.243 215.884 100.956C216.277 101.669 216.735 102.187 217.389 102.576C218.044 102.965 218.698 103.159 219.549 103.159C220.4 103.159 221.12 102.965 221.709 102.576ZM251.55 91.3012V105.751H248.54V104.196C248.147 104.585 247.689 104.909 247.231 105.168C246.25 105.686 245.202 106.01 244.025 106.01C242.781 106.01 241.603 105.686 240.556 105.039C239.509 104.391 238.724 103.483 238.135 102.382C237.546 101.28 237.218 99.9842 237.218 98.5586C237.218 97.1331 237.546 95.8371 238.135 94.7355C238.724 93.6339 239.574 92.7268 240.622 92.0788C241.669 91.4308 242.847 91.1068 244.155 91.1068C245.333 91.1068 246.38 91.366 247.297 91.9492C247.755 92.2084 248.213 92.5324 248.54 92.9212L248.606 91.4308H251.55V91.3012ZM248.082 96.0963C247.689 95.3835 247.231 94.8651 246.577 94.4763C245.922 94.0875 245.268 93.8931 244.417 93.8931C243.566 93.8931 242.847 94.0875 242.258 94.4763C241.603 94.8651 241.145 95.3835 240.752 96.0963C240.36 96.8091 240.229 97.5867 240.229 98.4938C240.229 99.401 240.425 100.243 240.752 100.956C241.145 101.669 241.603 102.187 242.258 102.576C242.847 102.965 243.632 103.159 244.417 103.159C245.202 103.159 245.922 102.965 246.577 102.576C247.231 102.187 247.689 101.669 248.082 100.956C248.475 100.243 248.671 99.401 248.671 98.4938C248.606 97.5867 248.475 96.8091 248.082 96.0963ZM263.985 85.7285V105.751H266.929V85.7285H263.985ZM274.128 94.3467V97.3275H312.085V94.3467H274.128Z" fill="url(#paint0_linear)"/>
<path d="M81.9887 111C74.5937 111 68.573 105.039 68.573 97.7163V60.0035C68.573 56.4396 69.9473 53.1348 72.4995 50.6077L87.6822 35.5744C90.2999 32.9825 94.6191 32.9825 97.2368 35.5744C99.8545 38.1664 99.8545 42.4431 97.2368 45.035L82.1196 60.0035V78.2767C82.6431 75.6848 83.8865 73.352 85.7844 71.4729L110.98 46.5254V6.67426C110.98 2.98074 113.99 0 117.72 0C121.451 0 124.461 2.98074 124.461 6.67426V46.5902C124.461 50.1541 123.087 53.4588 120.534 55.986L95.339 80.9334V97.7163C95.4044 105.039 89.3837 111 81.9887 111ZM56.1389 97.7163V60.0035C56.1389 56.4396 54.7646 53.1348 52.2123 50.6077L37.0296 35.5744C34.4119 32.9825 30.0927 32.9825 27.475 35.5744C24.8573 38.1664 24.8573 42.4431 27.475 45.035L42.5922 60.0035V78.2767C42.0687 75.6848 40.8253 73.352 38.9275 71.4729L13.732 46.5902V6.67426C13.732 2.98074 10.7217 0 6.92601 0C3.13034 0 0.185425 2.98074 0.185425 6.67426V46.5902C0.185425 50.1541 1.55972 53.4588 4.11198 55.986L29.3074 80.9334V97.7163C29.3074 105.039 35.3281 111 42.7231 111C50.1181 111 56.1389 105.039 56.1389 97.7163ZM84.4755 23.5219C87.0932 20.9299 87.0932 16.6532 84.4755 14.0613C81.8578 11.4694 77.5386 11.4694 74.9209 14.0613L62.3559 26.4378L49.7909 14.0613C47.1732 11.4694 42.854 11.4694 40.2363 14.0613C37.6186 16.6532 37.6186 20.9299 40.2363 23.5219L62.3559 45.4238L84.4755 23.5219Z" fill="url(#paint1_linear)"/>
</g>
<defs>
<linearGradient id="paint0_linear" x1="141.76" y1="95.8638" x2="312.039" y2="95.8638" gradientUnits="userSpaceOnUse">
<stop stop-color="#ECB554"/>
<stop offset="1" stop-color="#C17A32"/>
</linearGradient>
<linearGradient id="paint1_linear" x1="124.506" y1="55.4975" x2="0.185425" y2="55.4975" gradientUnits="userSpaceOnUse">
<stop stop-color="#C17A32"/>
<stop offset="1" stop-color="#ECB554"/>
</linearGradient>
<clipPath id="clip0">
<rect width="371.321" height="111" fill="white" transform="translate(0.185425)"/>
</clipPath>
</defs>
</svg>
