<svg width="16" height="17" viewBox="0 0 16 17" fill="none" xmlns="http://www.w3.org/2000/svg">
<path d="M8.00163 11.1625C8.45113 11.1625 8.81553 10.8066 8.81553 10.3675C8.81553 9.92845 8.45113 9.5725 8.00163 9.5725C7.55214 9.5725 7.18774 9.92845 7.18774 10.3675C7.18774 10.8066 7.55214 11.1625 8.00163 11.1625Z" fill="#343434"/>
<path d="M11.0433 8.65458C10.6969 8.07595 9.86328 8.11705 9.46663 7.89268C9.09106 7.67864 8.70947 6.94189 7.99991 6.94189C7.2976 6.94189 6.90869 7.68063 6.53662 7.89268C6.1355 8.11943 5.30778 8.07357 4.95996 8.65458C4.62801 9.2147 5.06999 9.90939 5.06999 10.3673C5.06999 10.8322 4.62752 11.519 4.95996 12.08C5.30631 12.6586 6.13908 12.6171 6.53662 12.8419C6.91113 13.0553 7.29549 13.7927 7.99991 13.7927C8.70857 13.7927 9.07641 13.0643 9.46663 12.8419C9.86702 12.6154 10.6946 12.6625 11.0433 12.08C11.3757 11.5189 10.9333 10.8341 10.9333 10.3673C10.9333 9.90724 11.3756 9.21521 11.0433 8.65458ZM8.00154 11.8136C7.18416 11.8136 6.51944 11.1649 6.51944 10.3674C6.51944 9.57012 7.18416 8.92145 8.00154 8.92145C8.81893 8.92145 9.48396 9.57012 9.48396 10.3674C9.48396 11.1649 8.81893 11.8136 8.00154 11.8136Z" fill="#343434"/>
<path d="M15.03 0H0.973388C0.436685 0 0 0.423265 0 0.947525V11.2822C0 11.8064 0.436685 12.233 0.973388 12.233H4.29671C3.96026 11.457 4.4034 10.6469 4.4034 10.3673C4.4034 10.0569 3.89313 9.15367 4.38338 8.32898C4.8839 7.49078 5.9133 7.47957 6.20337 7.32935C6.36172 7.23445 6.83881 6.55049 7.56551 6.35253H2.3571C2.17285 6.35253 2.02376 6.20674 2.02376 6.02693C2.02376 5.84711 2.17285 5.70132 2.3571 5.70132H13.3249C13.5091 5.70132 13.6582 5.84711 13.6582 6.02693C13.6582 6.20674 13.5091 6.35253 13.3249 6.35253H8.4388C9.1874 6.55512 9.60936 7.22138 9.80338 7.32935C10.0362 7.46601 11.1112 7.4825 11.62 8.32572C12.102 9.14079 11.6 10.0802 11.6 10.3673C11.6 10.6466 12.0433 11.4568 11.7067 12.233H15.03C15.5667 12.233 16 11.8064 16 11.2822V0.947525C16 0.423265 15.5667 0 15.03 0ZM4.38021 2.34574H11.3014C11.4857 2.34574 11.6348 2.49153 11.6348 2.67134C11.6348 2.85116 11.4857 2.99695 11.3014 2.99695H4.38021C4.19596 2.99695 4.04687 2.85116 4.04687 2.67134C4.04687 2.49153 4.19596 2.34574 4.38021 2.34574ZM13.3249 4.67474H2.3571C2.17285 4.67474 2.02376 4.52895 2.02376 4.34913C2.02376 4.16932 2.17285 4.02353 2.3571 4.02353H13.3249C13.5091 4.02353 13.6582 4.16932 13.6582 4.34913C13.6582 4.52895 13.5091 4.67474 13.3249 4.67474ZM10.18 16.0654C10.013 16.2938 9.72509 16.3359 9.51668 16.2119C8.49674 15.616 7.49674 15.6128 6.49007 16.2021C6.27002 16.3291 5.98006 16.2705 5.8234 16.0589C5.70336 15.8993 5.67333 15.6909 5.73673 15.4956L6.33674 13.5256C6.37337 13.5582 6.40673 13.594 6.43668 13.6233C6.75667 13.9522 7.24007 14.4439 7.99999 14.4439C8.76 14.4439 9.23673 13.9555 9.55671 13.6331C9.58674 13.6005 9.62336 13.5647 9.6634 13.5256L10.27 15.5086C10.3333 15.6942 10.3 15.9058 10.18 16.0654Z" fill="#343434"/>
</svg>
