<svg width="457" height="461" viewBox="0 0 457 461" fill="none" xmlns="http://www.w3.org/2000/svg">
<g clip-path="url(#clip0_424_178)">
<path d="M171.632 16.7032C172.172 12.8286 166.683 9.63964 162.567 9.30723C160.602 9.14103 158.564 9.44227 156.704 8.79825C152.68 7.39592 151.069 2.19176 147.129 0.488195C144.187 -0.747925 140.809 0.353157 137.96 1.78664C135.112 3.22012 132.284 5.02756 129.103 5.23531C126.338 5.4119 123.323 4.38353 120.901 5.73391C119.092 6.77267 118.146 8.85018 116.483 10.0448C114.752 11.1142 112.748 11.659 110.714 11.6133C108.685 11.5583 106.664 11.8861 104.757 12.5793C102.917 13.4207 101.399 15.3736 101.784 17.3576L171.632 16.7032Z" fill="#F5F5F5"/>
<path d="M447.644 245.967C448.538 239.516 439.421 234.208 432.57 233.658C429.306 233.388 425.917 233.886 422.819 232.806C416.125 230.479 413.463 221.826 406.904 219.063C402.018 216.986 396.383 218.845 391.643 221.224C386.903 223.603 382.225 226.605 376.923 226.947C372.318 227.238 367.317 225.535 363.284 227.789C360.279 229.461 358.71 232.92 355.944 234.956C353.179 236.992 349.707 237.377 346.339 237.564C342.971 237.75 339.499 237.771 336.442 239.174C333.386 240.576 330.85 243.806 331.484 247.11L447.644 245.967Z" fill="#EBEBEB"/>
<path d="M101.056 88.5332C101.731 83.5991 94.756 79.5376 89.5166 79.1117C87.0217 78.9143 84.4332 79.2986 82.063 78.4676C76.9379 76.6914 74.89 70.0641 69.8794 67.9554C66.1473 66.3765 61.8332 67.7892 58.2051 69.607C54.5771 71.4249 51.001 73.7621 46.9467 73.9906C43.4226 74.2087 39.597 72.9518 36.5511 74.6242C34.2537 75.9123 33.0582 78.5507 30.9375 80.1089C28.8168 81.667 26.1659 81.9682 23.5878 82.1033C21.0097 82.2383 18.3901 82.2695 16.0199 83.3394C13.6497 84.4093 11.7473 86.8816 12.2255 89.4057L101.056 88.5332Z" fill="#F5F5F5"/>
<path d="M377.016 357.426L353.896 457.759L363.668 457.738L386.85 358.371L377.016 357.426Z" fill="#E0E0E0"/>
<path d="M419.212 357.426L442.415 457.759H451.708L429.254 357.426H419.212Z" fill="#E0E0E0"/>
<path d="M361.413 282.064L374.574 351.141H389.544L375.478 282.064H361.413Z" fill="#E0E0E0"/>
<path d="M132.055 357.426L113.188 457.759H122.793L142.493 357.426H132.055Z" fill="#E0E0E0"/>
<path d="M171.715 357.426L193.286 457.208H202.777L181.944 357.426H171.715Z" fill="#E0E0E0"/>
<path d="M116.441 282.064L129.613 351.141H144.572L130.507 282.064H116.441Z" fill="#E0E0E0"/>
<path d="M86.8135 275.779L89.5059 288.338H389.99L386.476 275.779H86.8135Z" fill="#EBEBEB"/>
<path d="M92.5518 300.169L95.7224 312.728H394.179L391.466 300.169H92.5518Z" fill="#EBEBEB"/>
<path d="M98.4775 325.421L101.44 337.98H398.972L396.155 325.421H98.4775Z" fill="#EBEBEB"/>
<path d="M442.072 351.141H121.233V363.7H442.072V351.141Z" fill="#EBEBEB"/>
<path d="M312.065 195.598C309.586 195.599 307.15 194.948 305.002 193.711C302.854 192.475 301.069 190.695 299.826 188.552C298.584 186.408 297.927 183.976 297.922 181.499C297.917 179.022 298.564 176.587 299.798 174.438L340.341 103.803C341.564 101.641 343.341 99.8448 345.49 98.5978C347.639 97.3508 350.081 96.6986 352.566 96.7081C355.043 96.6934 357.48 97.3356 359.628 98.5693C361.775 99.8029 363.557 101.584 364.791 103.73L405.75 174.127C406.995 176.271 407.654 178.706 407.66 181.185C407.667 183.665 407.02 186.103 405.786 188.254C404.552 190.405 402.773 192.194 400.628 193.441C398.483 194.688 396.048 195.349 393.566 195.359L312.075 195.608L312.065 195.598ZM352.608 100.915C350.864 100.91 349.15 101.369 347.642 102.245C346.135 103.122 344.888 104.384 344.031 105.901L303.488 176.537C302.623 178.043 302.169 179.751 302.172 181.488C302.175 183.225 302.635 184.931 303.506 186.434C304.376 187.938 305.627 189.186 307.133 190.054C308.639 190.922 310.347 191.38 312.086 191.38L393.577 191.131C395.311 191.121 397.013 190.656 398.512 189.783C400.01 188.91 401.254 187.659 402.117 186.156C402.981 184.652 403.435 182.949 403.434 181.215C403.433 179.482 402.977 177.779 402.111 176.277L361.153 105.891C360.296 104.378 359.052 103.12 357.549 102.246C356.045 101.372 354.337 100.912 352.597 100.915H352.608Z" fill="#EBEBEB"/>
<path d="M344.645 131.475L346.548 157.829C346.62 158.868 347.072 159.846 347.817 160.575C348.562 161.304 349.55 161.735 350.592 161.786C351.688 161.843 352.764 161.476 353.597 160.763C354.431 160.05 354.959 159.044 355.072 157.953L357.775 131.434C357.822 130.96 357.768 130.482 357.617 130.031C357.465 129.58 357.22 129.166 356.897 128.816C356.574 128.467 356.18 128.19 355.742 128.004C355.304 127.817 354.831 127.726 354.355 127.736L347.92 127.881C347.465 127.891 347.017 127.994 346.603 128.182C346.189 128.37 345.818 128.641 345.512 128.977C345.205 129.313 344.971 129.708 344.822 130.137C344.673 130.567 344.613 131.022 344.645 131.475Z" fill="#EBEBEB"/>
<path d="M357.713 176.557C357.321 177.767 356.58 178.833 355.582 179.621C354.584 180.41 353.375 180.885 352.107 180.987C350.84 181.089 349.57 180.814 348.459 180.195C347.348 179.577 346.445 178.643 345.864 177.512C345.284 176.381 345.052 175.104 345.198 173.841C345.343 172.579 345.86 171.387 346.683 170.418C347.506 169.449 348.598 168.745 349.821 168.396C351.044 168.047 352.343 168.067 353.554 168.455C354.36 168.713 355.108 169.128 355.753 169.675C356.399 170.222 356.93 170.891 357.316 171.644C357.702 172.397 357.936 173.218 358.004 174.061C358.072 174.904 357.973 175.753 357.713 176.557Z" fill="#EBEBEB"/>
<path d="M457.01 457.634C457.01 457.78 354.697 457.904 228.516 457.904C102.334 457.904 0 457.78 0 457.634C0 457.489 102.292 457.364 228.516 457.364C354.739 457.364 457.01 457.478 457.01 457.634Z" fill="#263238"/>
<path d="M298.696 346.197L193.7 346.124C181.08 346.124 170.83 335.373 170.83 322.118V45.8091C170.83 32.5546 181.08 21.8035 193.7 21.8139L298.644 21.8762C311.274 21.8762 321.514 32.6273 321.514 45.8818L321.462 322.191C321.566 335.456 311.326 346.197 298.696 346.197Z" fill="#263238"/>
<path d="M298.665 31.6613H278.31C276.937 31.7286 275.646 32.337 274.72 33.3533C273.795 34.3696 273.31 35.7109 273.372 37.0836V40.9581C273.434 42.3325 272.948 43.6754 272.02 44.692C271.093 45.7085 269.799 46.3158 268.424 46.3804H228.765C227.389 46.3132 226.097 45.7033 225.171 44.6847C224.245 43.6662 223.762 42.3222 223.827 40.9477V37.0836C223.889 35.7109 223.404 34.3696 222.479 33.3533C221.553 32.337 220.262 31.7286 218.889 31.6613H193.94C185.093 31.6613 177.92 39.1922 177.92 48.4787V318.161C177.92 327.437 185.082 334.968 193.919 334.978L298.665 335.04C307.511 335.04 314.684 327.52 314.684 318.233L314.663 48.5099C314.663 39.1611 307.511 31.6613 298.665 31.6613Z" fill="white"/>
<path d="M206.467 309.518V316.114C206.466 316.244 206.43 316.37 206.364 316.482C206.298 316.593 206.204 316.684 206.09 316.747C205.977 316.809 205.849 316.84 205.72 316.837C205.59 316.833 205.464 316.795 205.354 316.727L200.156 313.424C200.053 313.358 199.969 313.268 199.91 313.16C199.851 313.053 199.82 312.933 199.82 312.811C199.82 312.689 199.851 312.569 199.91 312.462C199.969 312.354 200.053 312.264 200.156 312.198L205.354 308.895C205.465 308.826 205.592 308.788 205.722 308.785C205.852 308.782 205.981 308.814 206.095 308.878C206.208 308.942 206.303 309.035 206.368 309.147C206.434 309.26 206.468 309.388 206.467 309.518Z" fill="#E0E0E0"/>
<path d="M249.15 312.749C249.148 313.648 248.88 314.527 248.378 315.274C247.876 316.02 247.165 316.602 246.332 316.945C245.5 317.288 244.585 317.376 243.703 317.199C242.82 317.023 242.01 316.589 241.374 315.952C240.738 315.315 240.306 314.504 240.131 313.622C239.956 312.74 240.047 311.826 240.392 310.995C240.736 310.164 241.32 309.454 242.069 308.955C242.817 308.455 243.697 308.189 244.597 308.189C245.806 308.191 246.964 308.673 247.817 309.528C248.671 310.383 249.15 311.541 249.15 312.749Z" fill="#E0E0E0"/>
<path d="M288.3 308.791H283.789C282.715 308.791 281.845 309.661 281.845 310.734V315.262C281.845 316.335 282.715 317.205 283.789 317.205H288.3C289.374 317.205 290.244 316.335 290.244 315.262V310.734C290.244 309.661 289.374 308.791 288.3 308.791Z" fill="#E0E0E0"/>
<path d="M199.21 68.2463C198.17 68.2463 196.725 68.2463 195.343 68.2463C193.69 68.2463 192.037 68.2463 190.883 68.2463C190.745 68.2463 190.613 68.1915 190.516 68.0941C190.418 67.9967 190.363 67.8646 190.363 67.7269C190.362 67.6592 190.374 67.5919 190.399 67.5289C190.424 67.4659 190.461 67.4086 190.509 67.3602C190.556 67.3119 190.613 67.2734 190.675 67.2472C190.738 67.221 190.805 67.2075 190.873 67.2075C192.027 67.2075 193.7 67.2075 195.364 67.2075C197.027 67.2075 198.669 67.2698 199.823 67.2075C199.891 67.2061 199.958 67.2183 200.021 67.2432C200.084 67.2682 200.142 67.3055 200.19 67.3529C200.239 67.4003 200.277 67.4568 200.303 67.5193C200.33 67.5817 200.343 67.6488 200.343 67.7165C200.345 67.7847 200.332 67.8525 200.308 67.9161C200.283 67.9796 200.246 68.0376 200.198 68.0868C200.151 68.136 200.094 68.1754 200.032 68.2028C199.969 68.2301 199.902 68.2449 199.834 68.2463H199.21Z" fill="#263238"/>
<path d="M194.043 71.7365C193.97 71.735 193.899 71.7186 193.832 71.6882C193.766 71.6578 193.707 71.6141 193.658 71.5599L190.54 67.9969C190.455 67.8988 190.408 67.7734 190.408 67.6437C190.408 67.5141 190.455 67.3887 190.54 67.2906L193.658 64.0497C193.704 63.9945 193.76 63.9494 193.824 63.9171C193.888 63.8847 193.958 63.8659 194.029 63.8617C194.1 63.8576 194.172 63.8681 194.239 63.8928C194.306 63.9175 194.367 63.9558 194.419 64.0052C194.471 64.0547 194.511 64.1142 194.539 64.1802C194.567 64.2461 194.58 64.317 194.579 64.3884C194.578 64.4599 194.562 64.5303 194.532 64.5954C194.503 64.6604 194.46 64.7186 194.407 64.7664L191.652 67.6645L194.5 70.8743C194.567 70.9496 194.61 71.0425 194.624 71.1417C194.639 71.2409 194.624 71.3421 194.583 71.4333C194.541 71.5245 194.474 71.6016 194.389 71.6554C194.304 71.7092 194.206 71.7373 194.105 71.7365H194.043Z" fill="#263238"/>
<path d="M301.19 65.2338C302.08 65.2338 302.802 64.513 302.802 63.6237C302.802 62.7345 302.08 62.0137 301.19 62.0137C300.301 62.0137 299.579 62.7345 299.579 63.6237C299.579 64.513 300.301 65.2338 301.19 65.2338Z" fill="#263238"/>
<path d="M302.813 68.7034C302.815 69.0247 302.721 69.3395 302.544 69.6075C302.366 69.8756 302.113 70.0849 301.816 70.2088C301.52 70.3328 301.193 70.3657 300.877 70.3035C300.562 70.2414 300.272 70.0868 300.044 69.8596C299.817 69.6323 299.662 69.3426 299.6 69.0273C299.538 68.712 299.571 68.3853 299.695 68.0888C299.819 67.7923 300.028 67.5393 300.297 67.3621C300.565 67.1848 300.88 67.0912 301.201 67.0933C301.629 67.0933 302.039 67.2629 302.341 67.5649C302.643 67.8668 302.813 68.2764 302.813 68.7034Z" fill="#263238"/>
<path d="M301.19 75.4033C302.08 75.4033 302.802 74.6824 302.802 73.7932C302.802 72.904 302.08 72.1831 301.19 72.1831C300.301 72.1831 299.579 72.904 299.579 73.7932C299.579 74.6824 300.301 75.4033 301.19 75.4033Z" fill="#263238"/>
<path d="M211.622 221.868C209.172 222.135 206.705 222.225 204.242 222.138C201.781 222.225 199.318 222.135 196.871 221.868C199.318 221.601 201.781 221.511 204.242 221.598C206.705 221.511 209.172 221.601 211.622 221.868Z" fill="#263238"/>
<path d="M238.1 239.111C238.1 239.257 229.035 239.381 217.859 239.381C206.684 239.381 197.619 239.257 197.619 239.111C197.619 238.966 206.674 238.841 217.859 238.841C229.045 238.841 238.1 238.966 238.1 239.111Z" fill="#263238"/>
<path d="M238.1 256.261C238.1 256.406 229.035 256.531 217.859 256.531C206.684 256.531 197.619 256.406 197.619 256.261C197.619 256.116 206.674 255.991 217.859 255.991C229.045 255.991 238.1 256.095 238.1 256.261Z" fill="#263238"/>
<path d="M291.606 232.65H276.803C273.226 232.65 270.326 235.545 270.326 239.116C270.326 242.688 273.226 245.583 276.803 245.583H291.606C295.183 245.583 298.082 242.688 298.082 239.116C298.082 235.545 295.183 232.65 291.606 232.65Z" fill="#EBEBEB"/>
<path d="M282.146 239.111C282.146 240.184 281.828 241.232 281.231 242.124C280.635 243.015 279.788 243.71 278.796 244.121C277.804 244.531 276.713 244.639 275.661 244.429C274.608 244.22 273.641 243.704 272.882 242.945C272.123 242.187 271.607 241.221 271.397 240.169C271.188 239.117 271.295 238.027 271.706 237.036C272.117 236.045 272.812 235.199 273.705 234.603C274.597 234.007 275.646 233.689 276.719 233.689C277.432 233.689 278.138 233.829 278.796 234.102C279.454 234.374 280.053 234.774 280.557 235.277C281.06 235.781 281.46 236.378 281.733 237.036C282.006 237.694 282.146 238.399 282.146 239.111Z" fill="#E0E0E0"/>
<path d="M291.616 262.712H276.803C275.085 262.712 273.438 262.03 272.223 260.816C271.008 259.603 270.326 257.957 270.326 256.24C270.326 254.524 271.008 252.878 272.223 251.664C273.438 250.451 275.085 249.769 276.803 249.769H291.616C293.334 249.769 294.981 250.451 296.196 251.664C297.41 252.878 298.093 254.524 298.093 256.24C298.093 257.957 297.41 259.603 296.196 260.816C294.981 262.03 293.334 262.712 291.616 262.712Z" fill="#EBEBEB"/>
<path d="M276.719 261.663C279.716 261.663 282.146 259.235 282.146 256.24C282.146 253.246 279.716 250.818 276.719 250.818C273.722 250.818 271.293 253.246 271.293 256.24C271.293 259.235 273.722 261.663 276.719 261.663Z" fill="#E0E0E0"/>
<path d="M238.1 273.484C238.1 273.639 229.035 273.754 217.859 273.754C206.684 273.754 197.619 273.639 197.619 273.484C197.619 273.328 206.674 273.214 217.859 273.214C229.045 273.214 238.1 273.338 238.1 273.484Z" fill="#263238"/>
<path d="M291.616 281.866H276.803C275.953 281.868 275.111 281.702 274.325 281.378C273.539 281.054 272.825 280.578 272.224 279.978C271.622 279.378 271.145 278.665 270.819 277.88C270.494 277.096 270.326 276.255 270.326 275.405C270.326 273.689 271.008 272.043 272.223 270.829C273.438 269.616 275.085 268.934 276.803 268.934H291.616C293.334 268.934 294.981 269.616 296.196 270.829C297.41 272.043 298.093 273.689 298.093 275.405C298.093 276.255 297.925 277.096 297.6 277.88C297.274 278.665 296.797 279.378 296.195 279.978C295.594 280.578 294.88 281.054 294.094 281.378C293.308 281.702 292.466 281.868 291.616 281.866Z" fill="#EBEBEB"/>
<path d="M276.719 280.828C279.716 280.828 282.146 278.4 282.146 275.405C282.146 272.411 279.716 269.983 276.719 269.983C273.722 269.983 271.293 272.411 271.293 275.405C271.293 278.4 273.722 280.828 276.719 280.828Z" fill="#E0E0E0"/>
<path d="M415.273 49.8267C416.764 40.5951 410.484 31.9033 401.245 30.413C392.006 28.9228 383.308 35.1984 381.817 44.4301C380.325 53.6617 386.606 62.3535 395.844 63.8437C405.083 65.3339 413.782 59.0583 415.273 49.8267Z" fill="#FF725E"/>
<path d="M396.144 84.9807C396.051 84.9807 395.968 81.8644 395.968 77.9898C395.968 74.1153 396.051 71.0094 396.144 71.0094C396.325 73.3316 396.384 75.6615 396.321 77.9898C396.384 80.3216 396.325 82.655 396.144 84.9807Z" fill="#FF725E"/>
<path d="M386.384 67.0725C386.467 67.0725 384.876 70.0433 382.828 73.5855C380.78 77.1276 379.044 79.9738 378.961 79.9219C378.878 79.8699 380.468 76.9614 382.516 73.4089C384.564 69.8563 386.3 67.0205 386.384 67.0725Z" fill="#FF725E"/>
<path d="M376.362 60.84C375.126 62.0522 373.806 63.1767 372.412 64.2055C371.093 65.3312 369.705 66.372 368.254 67.3218C369.491 66.1096 370.811 64.985 372.204 63.9562C373.518 62.825 374.908 61.7838 376.362 60.84Z" fill="#FF725E"/>
<path d="M413.048 78.0937C412.845 77.5378 412.695 76.9639 412.601 76.3798C412.362 75.341 412.008 73.8452 411.561 72.2247C411.114 70.6043 410.688 69.1708 410.366 68.132C410.149 67.5782 409.989 67.004 409.888 66.4181C410.184 66.9348 410.424 67.4815 410.605 68.0489C410.99 69.0877 411.468 70.5108 411.904 72.1313C412.341 73.7517 412.642 75.2475 412.83 76.2863C412.966 76.8793 413.04 77.4852 413.048 78.0937Z" fill="#FF725E"/>
<path d="M430.231 65.9091C428.487 64.6157 426.815 63.2286 425.221 61.7541C423.551 60.374 421.958 58.9037 420.449 57.3497C422.193 58.6431 423.866 60.0302 425.46 61.5048C427.13 62.8848 428.722 64.3551 430.231 65.9091Z" fill="#FF725E"/>
<path d="M436.813 49.1643C436.113 49.1214 435.418 49.0242 434.734 48.8735C433.476 48.6657 431.74 48.3957 429.816 48.1775C427.893 47.9594 426.136 47.8244 424.868 47.7413C424.171 47.7398 423.476 47.6807 422.789 47.5647C423.478 47.471 424.174 47.4467 424.868 47.4919C426.147 47.4919 427.914 47.6062 429.848 47.8244C431.781 48.0425 433.528 48.3541 434.775 48.6242C435.47 48.7412 436.152 48.922 436.813 49.1643Z" fill="#FF725E"/>
<path d="M436.833 32.7C436.833 32.8039 433.195 33.7388 428.641 34.8814C424.088 36.0241 420.387 36.8031 420.325 36.7096C420.263 36.6162 423.974 35.6709 428.517 34.5387C433.06 33.4064 436.812 32.6066 436.833 32.7Z" fill="#FF725E"/>
<path d="M417.705 13.5247C417.778 13.5247 416.031 16.3709 413.786 19.7572C411.54 23.1435 409.627 25.8651 409.565 25.8028C409.503 25.7404 411.239 22.9566 413.484 19.5702C414.788 17.4848 416.196 15.467 417.705 13.5247Z" fill="#FF725E"/>
<path d="M398.692 9.51501C398.746 10.2897 398.746 11.0672 398.692 11.8418C398.692 13.2753 398.692 15.249 398.692 17.4303C398.692 19.6117 398.692 21.5854 398.754 23.0396C398.809 23.8108 398.809 24.5849 398.754 25.356C398.607 24.596 398.527 23.8242 398.515 23.05C398.432 21.6165 398.359 19.6325 398.359 17.4407C398.359 15.249 398.422 13.2857 398.505 11.8314C398.497 11.0552 398.56 10.2799 398.692 9.51501Z" fill="#FF725E"/>
<path d="M384.304 27.4128C384.221 27.4647 382.433 24.7016 380.322 21.2425C378.212 17.7835 376.549 14.9269 376.632 14.8854C376.715 14.8438 378.503 17.5965 380.624 21.0556C382.744 24.5146 384.439 27.3712 384.304 27.4128Z" fill="#FF725E"/>
<path d="M375.707 34.7153C375.099 34.6905 374.495 34.5964 373.909 34.4348C372.807 34.1959 371.299 33.8323 369.646 33.396C367.993 32.9598 366.528 32.3573 365.488 31.9937C364.907 31.8091 364.346 31.5655 363.814 31.2666C364.415 31.3757 365.003 31.5427 365.571 31.7652C366.611 32.0976 368.118 32.5754 369.73 33.0533C371.341 33.5311 372.848 33.9466 373.95 34.2374C374.55 34.3409 375.138 34.5009 375.707 34.7153Z" fill="#FF725E"/>
<path d="M371.965 47.7205C370.181 48.0768 368.375 48.3094 366.559 48.4164C364.756 48.6482 362.94 48.7661 361.122 48.7696C362.906 48.4116 364.712 48.1756 366.528 48.0633C368.331 47.8375 370.147 47.723 371.965 47.7205Z" fill="#FF725E"/>
<path d="M360.404 349.479L375.561 457.375L379.511 457.5C376.996 420.852 374.314 383.478 360.404 349.479Z" fill="#455A64"/>
<path d="M402.516 344.42C391.923 355.982 387.661 371.968 384.979 387.435C381.174 409.363 380.821 435.27 381.975 457.499L387.505 457.624C385.313 419.281 390.407 380.87 402.516 344.42Z" fill="#455A64"/>
<path d="M363.19 413.311C361.973 407.961 360.58 402.529 357.524 397.968C353.366 391.819 346.681 387.934 339.914 384.901C333.146 381.868 326.046 379.458 319.934 375.261C326.753 386.428 342.222 389.399 350.081 399.849C354 405.042 355.632 411.566 357.16 417.892C360.518 431.686 362.576 443.622 365.924 457.365H370.415C368.937 442.543 366.524 427.829 363.19 413.311Z" fill="#455A64"/>
<path d="M391.549 457.499C391.549 457.499 395.343 414.651 398.16 406.777C400.978 398.903 427.59 377.172 427.341 378.201C427.091 379.229 407.371 403.006 404.554 407.92C401.737 412.833 396.913 457.499 396.913 457.499H391.549Z" fill="#455A64"/>
<path d="M265.742 412.688C266.793 413.107 267.748 413.735 268.551 414.533C269.353 415.331 269.985 416.283 270.41 417.331C271.258 419.435 271.614 421.706 271.45 423.968C271.231 428.331 269.059 432.871 266.626 436.506C262.769 433.556 261.574 428.061 261.137 425.225C260.451 420.759 261.927 412.262 265.763 412.688" fill="#FF725E"/>
<path d="M271.314 443.372C270.985 442.15 270.986 440.862 271.317 439.639C271.647 438.417 272.296 437.304 273.196 436.413C274.107 435.538 275.185 434.854 276.365 434.401C277.545 433.948 278.804 433.735 280.067 433.774C280.641 433.737 281.216 433.822 281.753 434.024C282.291 434.227 282.78 434.542 283.186 434.948C283.504 435.397 283.696 435.923 283.74 436.472C283.784 437.02 283.679 437.571 283.435 438.064C282.946 439.045 282.203 439.877 281.283 440.474C278.248 442.666 274.911 444.224 271.262 443.383" fill="#FF725E"/>
<path d="M267.499 456.959C267.5 456.66 267.524 456.361 267.572 456.066C267.645 455.432 267.738 454.612 267.852 453.635C268.09 450.928 268.761 448.277 269.838 445.782C270.97 443.285 272.746 441.134 274.984 439.55C275.665 439.088 276.397 438.708 277.167 438.417C277.373 438.333 277.585 438.264 277.801 438.21L278.03 438.158C277.007 438.587 276.028 439.116 275.109 439.737C272.957 441.343 271.244 443.465 270.129 445.907C269.054 448.372 268.353 450.984 268.05 453.656C267.894 454.695 267.769 455.505 267.665 456.076C267.641 456.376 267.585 456.671 267.499 456.959Z" fill="#263238"/>
<path d="M265.181 419.252C265.221 419.377 265.246 419.506 265.253 419.637L265.389 420.748C265.513 421.725 265.659 423.117 265.825 424.851C266.168 428.321 266.563 433.109 266.865 438.407C267.166 443.705 267.374 448.514 267.457 451.994C267.457 453.739 267.52 455.11 267.52 456.149V457.271C267.52 457.531 267.52 457.666 267.52 457.666C267.509 457.534 267.509 457.402 267.52 457.271L267.468 456.149C267.468 455.11 267.374 453.75 267.301 451.994C267.156 448.514 266.948 443.684 266.626 438.417C266.303 433.151 265.94 428.331 265.659 424.862C265.513 423.158 265.409 421.745 265.326 420.759C265.326 420.302 265.264 419.928 265.243 419.637C265.213 419.51 265.193 419.382 265.181 419.252Z" fill="#263238"/>
<path d="M265.17 446.426C264.561 443.83 263.34 441.416 261.61 439.385C259.88 437.355 257.69 435.766 255.222 434.751C253.964 434.242 252.342 433.961 251.396 434.938C250.45 435.914 250.783 437.524 251.396 438.75C252.639 441.297 254.608 443.419 257.055 444.85C259.502 446.28 262.319 446.956 265.149 446.79" fill="#FF725E"/>
<path d="M256.074 438.812C256.35 438.882 256.618 438.979 256.874 439.103C257.123 439.207 257.435 439.332 257.778 439.508C258.121 439.685 258.527 439.872 258.943 440.142C259.403 440.406 259.848 440.697 260.273 441.014C260.772 441.369 261.251 441.75 261.708 442.157C262.755 443.087 263.693 444.132 264.504 445.273C265.3 446.435 265.956 447.687 266.459 449.002C266.671 449.574 266.851 450.156 266.999 450.748C267.133 451.265 267.241 451.788 267.322 452.316C267.396 452.749 267.444 453.186 267.467 453.625C267.493 453.971 267.493 454.318 267.467 454.664C267.494 454.944 267.494 455.225 267.467 455.505C267.394 455.505 267.467 454.3 267.103 452.389C267.013 451.87 266.895 451.357 266.75 450.851C266.591 450.27 266.4 449.698 266.178 449.138C265.671 447.851 265.023 446.624 264.244 445.481C263.448 444.35 262.535 443.305 261.521 442.365C261.074 441.955 260.606 441.57 260.117 441.212C259.681 440.859 259.223 440.589 258.818 440.318C257.175 439.311 256.053 438.875 256.074 438.812Z" fill="#263238"/>
<path d="M83.0396 400.44L53.7969 424.405L83.4555 460.896C86.7716 457.853 78.4344 433.286 78.4344 433.286L97.8013 418.743L83.0396 400.44Z" fill="#455A64"/>
<g opacity="0.6">
<path opacity="0.6" d="M70.8461 420.728C70.4549 420.464 69.9802 420.353 69.5125 420.416C69.0447 420.479 68.6166 420.712 68.3096 421.07C68.0297 421.452 67.9071 421.927 67.967 422.397C68.027 422.866 68.2649 423.295 68.6318 423.595C69.052 423.864 69.5553 423.974 70.0497 423.903C70.5441 423.833 70.9965 423.587 71.3243 423.21C71.5734 422.781 71.6465 422.272 71.5283 421.789C71.4101 421.307 71.1097 420.889 70.6902 420.624" fill="white"/>
</g>
<g opacity="0.6">
<path opacity="0.6" d="M53.9111 424.301L56.8531 421.87L84.0063 458.06C84.0063 458.06 84.6093 460.263 83.3098 461L53.9111 424.301Z" fill="white"/>
</g>
<path d="M79.0997 433.733C78.923 433.878 78.0601 433.047 76.8231 432.642C75.586 432.237 74.4113 432.372 74.3489 432.144C74.2865 431.915 75.534 431.354 77.083 431.884C78.6319 432.414 79.2972 433.639 79.0997 433.733Z" fill="#263238"/>
<path d="M80.6281 438.854C80.493 439.03 79.5885 438.511 78.3099 438.511C77.0312 438.511 76.1268 438.989 75.9917 438.812C75.8565 438.636 76.7713 437.69 78.3203 437.711C79.8692 437.732 80.7944 438.708 80.6281 438.854Z" fill="#263238"/>
<path d="M77.7692 444.743C77.5925 444.619 78.289 443.642 79.6405 443.31C80.9919 442.978 82.0522 443.497 81.9587 443.684C81.8651 443.871 80.9191 443.788 79.8795 444.079C78.84 444.37 77.9668 444.91 77.7692 444.743Z" fill="#263238"/>
<path d="M83.1441 429.921C82.9258 429.983 82.5099 428.965 81.6159 428.009C80.7219 427.054 79.7759 426.534 79.8487 426.316C79.9214 426.098 81.1793 426.316 82.2085 427.469C83.2376 428.622 83.3624 429.9 83.1441 429.921Z" fill="#263238"/>
<path d="M86.7721 425.578C86.6993 425.641 86.0236 425.028 85.2959 423.74C84.8799 422.985 84.5553 422.183 84.3292 421.351C84.1963 420.86 84.099 420.36 84.0381 419.855C83.9899 419.556 83.9899 419.25 84.0381 418.951C84.0758 418.734 84.1817 418.534 84.3406 418.381C84.4995 418.228 84.703 418.129 84.9217 418.099C85.118 418.086 85.3148 418.119 85.4956 418.197C85.6764 418.275 85.836 418.394 85.9613 418.546C86.1514 418.78 86.3088 419.038 86.4291 419.315C86.6496 419.782 86.8271 420.269 86.9592 420.769C87.1838 421.608 87.2716 422.478 87.2191 423.345C87.2602 424.152 87.0456 424.952 86.6058 425.63C86.4914 425.63 86.7097 424.737 86.6058 423.345C86.5732 422.538 86.437 421.739 86.2004 420.966C86.0578 420.517 85.8806 420.079 85.6702 419.658C85.4623 419.19 85.192 418.858 84.9425 418.899C84.693 418.941 84.8177 418.899 84.7658 419.107C84.7357 419.324 84.7357 419.544 84.7658 419.761C84.8176 420.236 84.8939 420.707 84.9945 421.174C85.1752 421.968 85.4293 422.743 85.7533 423.491C86.1459 424.159 86.4865 424.857 86.7721 425.578Z" fill="#263238"/>
<path d="M86.3349 425.516C86.2517 425.516 86.6052 424.602 87.7071 423.595C88.3596 423.017 89.1046 422.554 89.9109 422.223C90.3912 422.03 90.889 421.884 91.3975 421.787C91.719 421.691 92.0597 421.679 92.3873 421.751C92.7148 421.824 93.0183 421.979 93.2687 422.203C93.3981 422.369 93.4776 422.568 93.4978 422.778C93.518 422.988 93.4783 423.199 93.3831 423.387C93.2431 423.651 93.0683 423.896 92.8633 424.114C92.5108 424.522 92.097 424.872 91.6366 425.153C90.87 425.61 90.0022 425.87 89.1105 425.911C87.5823 425.963 86.7611 425.392 86.8131 425.329C87.561 425.369 88.3106 425.369 89.0585 425.329C89.8481 425.228 90.6067 424.959 91.2832 424.54C91.6744 424.298 92.0252 423.997 92.3227 423.646C92.6658 423.273 92.8633 422.878 92.7074 422.764C92.5421 422.659 92.3565 422.591 92.1629 422.564C91.9692 422.537 91.7721 422.552 91.5846 422.608C91.1222 422.69 90.6668 422.808 90.2228 422.961C89.4805 423.24 88.7807 423.621 88.1437 424.093C86.9482 424.862 86.4388 425.579 86.3349 425.516Z" fill="#263238"/>
<path d="M69.7959 420.011L70.1493 457.78L117.2 457.582C116.909 453.095 92.5206 444.172 92.5206 444.172L93.2899 419.959L69.7959 420.011Z" fill="#455A64"/>
<g opacity="0.6">
<path opacity="0.6" d="M77.9668 442.199C77.5138 442.338 77.1284 442.641 76.8847 443.047C76.641 443.454 76.5562 443.936 76.6466 444.401C76.7715 444.856 77.0662 445.247 77.4703 445.492C77.8743 445.738 78.357 445.819 78.8192 445.72C79.2899 445.561 79.688 445.239 79.9417 444.812C80.1953 444.386 80.2876 443.882 80.2018 443.393C80.024 442.93 79.6736 442.553 79.224 442.342C78.7744 442.131 78.2606 442.102 77.7901 442.261" fill="white"/>
</g>
<g opacity="0.6">
<path opacity="0.6" d="M70.1387 457.655V453.833L115.391 455.37C115.391 455.37 117.47 456.284 117.241 457.759L70.1387 457.655Z" fill="white"/>
</g>
<path d="M93.2901 443.954C93.2901 444.183 92.1362 444.297 91.003 444.993C89.8699 445.689 89.2774 446.707 89.0695 446.613C88.8616 446.52 89.1942 445.201 90.5768 444.318C91.9594 443.435 93.3628 443.746 93.2901 443.954Z" fill="#263238"/>
<path d="M98.228 445.969C98.228 446.198 97.2924 446.593 96.5128 447.569C95.7331 448.545 95.4732 449.563 95.2861 449.563C95.099 449.563 94.9118 448.255 95.8994 447.06C96.887 445.865 98.228 445.751 98.228 445.969Z" fill="#263238"/>
<path d="M101.056 451.869C100.848 451.869 100.525 450.768 101.056 449.511C101.586 448.255 102.719 447.746 102.812 447.933C102.906 448.12 102.251 448.805 101.773 449.844C101.295 450.883 101.284 451.838 101.056 451.869Z" fill="#263238"/>
<path d="M92.8536 438.418C92.7497 438.625 91.6997 438.314 90.4003 438.418C89.1008 438.521 88.0925 438.927 87.9677 438.729C87.843 438.532 88.8202 437.69 90.3483 437.618C91.8765 437.545 92.9576 438.231 92.8536 438.418Z" fill="#263238"/>
<path d="M91.6998 432.85C90.931 433.061 90.1193 433.061 89.3504 432.85C87.995 432.61 86.6971 432.117 85.5249 431.396C85.2603 431.248 85.0186 431.062 84.8076 430.845C84.6619 430.678 84.5732 430.47 84.5545 430.249C84.5358 430.029 84.588 429.808 84.7036 429.619C84.8205 429.453 84.9764 429.318 85.1576 429.225C85.3388 429.133 85.5398 429.086 85.7432 429.089C86.0422 429.089 86.3398 429.13 86.6268 429.214C87.9871 429.528 89.2438 430.186 90.2756 431.125C91.3672 432.164 91.7518 432.985 91.6687 433.026C91.5855 433.068 91.0345 432.393 89.9118 431.562C89.2741 431.08 88.5749 430.685 87.8327 430.388C87.3909 430.212 86.9354 430.073 86.4709 429.972C85.9719 429.848 85.5561 429.848 85.4313 430.066C85.3066 430.284 85.4313 430.18 85.4937 430.326C85.6443 430.487 85.8197 430.624 86.0135 430.731C86.4169 430.987 86.8333 431.223 87.2609 431.437C87.9945 431.796 88.7602 432.084 89.548 432.299C90.2765 432.435 90.9954 432.619 91.6998 432.85Z" fill="#263238"/>
<path d="M91.4085 433.172C91.3253 433.172 90.8679 432.393 90.7743 430.897C90.7304 430.027 90.8359 429.155 91.0862 428.321C91.2362 427.825 91.4347 427.344 91.6788 426.887C91.8038 426.576 92.0074 426.302 92.2697 426.093C92.5321 425.884 92.8442 425.746 93.1757 425.693C93.3944 425.686 93.6101 425.745 93.7952 425.862C93.9804 425.978 94.1266 426.147 94.2153 426.347C94.3345 426.623 94.4183 426.912 94.4648 427.209C94.5672 427.915 94.528 428.633 94.3495 429.324C94.171 430.014 93.8568 430.662 93.4252 431.229C92.5104 432.455 91.554 432.735 91.5332 432.652C91.5124 432.569 92.2505 432.091 92.947 430.918C93.3558 430.245 93.608 429.488 93.6851 428.705C93.7523 428.254 93.7523 427.795 93.6851 427.344C93.6019 426.846 93.4148 426.441 93.2277 426.492C93.0406 426.544 92.5936 426.866 92.4064 427.272C92.1763 427.68 91.9816 428.108 91.8243 428.549C91.5654 429.307 91.4149 430.097 91.3773 430.897C91.2837 432.278 91.5332 433.141 91.4085 433.172Z" fill="#263238"/>
<path d="M73.8296 201.114C73.8296 201.114 67.2284 208.167 63.9954 214.929C60.7623 221.691 58.6832 237.782 58.6832 237.782C58.6832 237.782 49.5767 258.048 50.9593 268.415C52.3419 278.781 61.6148 349.749 61.6148 349.749C61.6148 349.749 61.1574 418.681 67.7274 430.969L69.1931 437.607L95.7227 432.85L95.5563 428.871L101.794 293.708L117.761 201.685L73.8296 201.114Z" fill="#263238"/>
<path d="M132.367 221.213C132.367 221.213 148.22 308.469 149.624 323.604C151.027 338.738 97.0326 418.598 97.0326 418.598L72.3535 392.909L107.782 327.104L96.2633 260.78L112.283 202.183L129.103 202.776L132.367 221.213Z" fill="#263238"/>
<path d="M63.6104 409.498C63.6372 410.145 63.6997 410.79 63.7975 411.431C63.9638 412.698 64.2757 414.547 64.7123 416.957C65.5959 421.756 67.0305 428.715 68.9537 437.41V437.597H69.1408L95.6807 432.943H95.8782V432.735C96.6163 414.547 97.4999 392.806 98.4459 369.486C99.4231 344.4 100.328 321.131 101.076 302.05C103.062 286.717 104.704 274.003 105.858 265.163C106.409 260.759 106.846 257.3 107.147 254.911C107.282 253.747 107.397 252.833 107.469 252.22C107.542 251.608 107.552 251.296 107.552 251.296C107.552 251.296 107.49 251.597 107.397 252.21C107.303 252.823 107.168 253.737 107.001 254.89C106.669 257.269 106.191 260.728 105.577 265.122C104.413 273.92 102.719 286.624 100.639 301.966C99.8701 321.048 98.9241 344.317 97.9054 369.402C96.9906 392.723 96.1381 414.464 95.4312 432.652L95.6391 432.413L69.1304 437.181L69.3487 437.327C67.3736 428.643 65.887 421.693 64.941 416.915C64.4732 414.516 64.1301 412.667 63.9014 411.41C63.7871 410.786 63.7247 410.309 63.6831 409.987C63.6674 409.823 63.6431 409.66 63.6104 409.498Z" fill="#455A64"/>
<path d="M32.8086 165.006C32.8086 165.006 49.2336 129.626 53.1112 127.746C56.9887 125.866 68.1328 125.232 69.6401 127.352L40.1998 169.712L32.8086 165.006Z" fill="#455A64"/>
<path d="M33.6609 160.228C32.9355 159.827 32.0847 159.715 31.2803 159.917C26.1761 161.184 7.52644 166.149 5.44733 171.478C3.03555 177.617 17.7869 257.393 19.6893 259.554C21.5917 261.715 50.928 258.089 51.8324 254.682C52.7368 251.275 42.2893 165.287 42.2893 165.287L33.6609 160.228Z" fill="#455A64"/>
<path d="M10.5099 214.565C10.5099 214.565 8.8466 214.669 7.1937 218.336C5.5408 222.003 8.45156 251.774 10.645 254.817C12.8385 257.861 19.2422 258.505 19.2422 258.505L10.5099 214.565Z" fill="#455A64"/>
<path d="M43.204 256.313C43.1448 256.256 43.0956 256.189 43.0585 256.116L42.6634 255.503C42.3204 254.963 41.863 254.142 41.3224 253.051C39.835 249.96 38.7084 246.708 37.9646 243.36C36.8848 238.401 36.1072 233.382 35.636 228.329C35.0331 222.637 34.3677 216.383 33.6608 209.818C32.2471 196.688 31.0723 184.784 30.8748 176.111C30.7709 171.779 30.8748 168.278 30.9892 165.858C31.0516 164.653 31.1243 163.708 31.1867 163.074C31.1867 162.783 31.2387 162.555 31.2595 162.358C31.2486 162.275 31.2486 162.191 31.2595 162.108C31.271 162.191 31.271 162.275 31.2595 162.358C31.2595 162.555 31.2595 162.794 31.2595 163.085C31.2595 163.76 31.2595 164.695 31.1659 165.869C31.1035 168.278 31.0723 171.779 31.2283 176.1C31.5194 184.743 32.7564 196.637 34.1702 209.766C34.8563 216.321 35.5113 222.574 36.1038 228.267C36.5472 233.308 37.2831 238.32 38.3077 243.277C39.0131 246.612 40.0761 249.861 41.4783 252.968C41.9877 254.059 42.4139 254.89 42.7258 255.451L43.0689 256.085C43.1728 256.261 43.2144 256.261 43.204 256.313Z" fill="#263238"/>
<path d="M33.8481 208.998C32.7 209.279 31.5375 209.497 30.3656 209.652C28.2241 210.016 25.2614 210.587 22.0491 211.387C18.8369 212.187 15.9365 213.059 13.8678 213.734C12.7633 214.147 11.6351 214.494 10.4893 214.773C10.746 214.586 11.03 214.439 11.3313 214.337C11.8927 214.088 12.7139 213.755 13.7431 213.371C19.1143 211.368 24.6935 209.974 30.376 209.216C31.4156 209.081 32.3408 208.987 32.9541 208.956C33.2526 208.927 33.5537 208.941 33.8481 208.998Z" fill="#263238"/>
<path d="M10.1251 211.273C10.1913 211.428 10.2333 211.593 10.2498 211.761C10.3226 212.145 10.4058 212.613 10.5097 213.174L11.3726 218.367C12.1107 222.761 13.1814 228.828 14.4912 235.496C15.8011 242.165 17.1941 248.18 18.2129 252.522C18.7118 254.599 19.1173 256.365 19.4291 257.663L19.741 259.066C19.7884 259.228 19.8129 259.396 19.8138 259.564C19.7298 259.419 19.6701 259.261 19.6371 259.097L19.2212 257.715C18.8782 256.521 18.4 254.776 17.8386 252.615C16.7263 248.294 15.3021 242.29 13.9611 235.611C12.62 228.931 11.6117 222.844 10.9671 218.419C10.6449 216.217 10.4058 214.42 10.2706 213.225C10.2083 212.654 10.1563 212.187 10.1147 211.792C10.0982 211.619 10.1017 211.445 10.1251 211.273Z" fill="#263238"/>
<path d="M30.9896 175.352C30.9448 174.611 31.0007 173.866 31.1559 173.14C31.6825 169.611 32.5995 166.152 33.8899 162.825C34.1154 162.118 34.4335 161.444 34.8359 160.82C34.9815 160.883 33.7964 164.04 32.7568 168.091C31.7173 172.143 31.1767 175.373 30.9896 175.352Z" fill="#263238"/>
<path d="M134.051 99.6063C133.885 96.6043 133.51 81.9474 133.334 79.766C133.147 76.7258 131.835 73.8637 129.654 71.7364C128.578 70.683 127.216 69.9688 125.738 69.6825C124.259 69.3962 122.729 69.5506 121.337 70.1264C120.458 70.3483 119.654 70.7987 119.006 71.4318C118.358 72.0648 117.889 72.8581 117.647 73.7309C111.493 95.5447 112.449 118.886 109.746 141.489C117.782 142.798 128.593 142.268 136.712 141.842C136.691 123.789 135.163 119.145 134.051 99.6063Z" fill="#263238"/>
<path d="M130.673 130.426C130.625 130.236 130.604 130.04 130.61 129.844C130.61 129.408 130.558 128.806 130.527 128.172C130.527 126.645 130.413 124.547 130.34 122.002C130.226 116.725 130.08 109.537 129.914 101.653C129.851 97.6742 129.789 93.8931 129.737 90.4444C129.737 88.7201 129.737 87.0892 129.685 85.5519C129.704 84.1612 129.606 82.7714 129.394 81.3969C129.271 80.394 128.928 79.4307 128.388 78.5759C127.849 77.7211 127.128 76.996 126.275 76.4524C125.633 76.0999 124.926 75.8808 124.196 75.8084C124.196 75.8084 124.196 75.8084 124.342 75.8084C124.487 75.7924 124.633 75.7924 124.778 75.8084C125.35 75.8611 125.904 76.027 126.411 76.2966C127.21 76.7213 127.901 77.3258 128.427 78.0625C129.126 79.0404 129.599 80.1617 129.81 81.3449C130.054 82.7549 130.176 84.1833 130.174 85.6142C130.174 87.1516 130.236 88.7928 130.278 90.5068C130.34 93.9554 130.413 97.778 130.496 101.715C130.6 109.63 130.694 116.798 130.766 122.064C130.766 124.619 130.766 126.707 130.766 128.234C130.766 128.92 130.766 129.47 130.766 129.917C130.749 130.089 130.718 130.259 130.673 130.426Z" fill="#455A64"/>
<path d="M123.364 122.137C123.294 121.704 123.263 121.266 123.271 120.828C123.271 119.976 123.219 118.751 123.219 117.234C123.219 114.201 123.281 109.963 123.395 105.382C123.51 100.801 123.635 96.6771 123.728 93.54C123.728 92.1065 123.811 90.9016 123.842 89.9563C123.833 89.5137 123.871 89.0714 123.957 88.6371C124.027 89.0732 124.058 89.5147 124.05 89.9563C124.05 90.7977 124.05 92.0338 124.05 93.5504C124.05 96.5836 123.988 100.822 123.874 105.392C123.759 109.963 123.624 114.097 123.541 117.234C123.489 118.668 123.458 119.872 123.427 120.828C123.453 121.265 123.432 121.704 123.364 122.137Z" fill="#455A64"/>
<path d="M70.4302 127.746C69.3906 127.746 49.7845 129.138 45.2313 150.121C40.678 171.104 39.3682 200.501 39.3682 200.501L60.6271 198.423L70.4302 127.746Z" fill="#FF725E"/>
<path d="M80.0561 123.103L83.5075 116.735L113.655 115.915L115.734 121.337L133.5 127.746L132.013 206.401L145.174 279.02C145.174 279.02 145.039 289.501 109.995 292.825L107.22 254.869L89.7032 254.454L90.1814 291.527C90.1814 291.527 59.265 291.028 49.4619 284.037C49.4619 284.037 46.4888 248.72 54.93 223.281C62.3213 201.01 65.2009 195.234 65.2009 195.234L65.8038 128.494L80.0561 123.103Z" fill="#FF725E"/>
<g opacity="0.3">
<path opacity="0.3" d="M70.7421 128.65C64.6849 154.556 58.6208 180.473 52.5498 206.401L58.7144 212.935C61.873 211.463 64.549 209.125 66.4314 206.195C68.3139 203.264 69.3256 199.859 69.3491 196.377C69.3491 192.783 68.2056 189.282 68.06 185.688C67.7274 177.586 72.2182 170.159 74.2974 162.316C77.1561 151.212 75.0666 139.287 70.7421 128.65Z" fill="black"/>
</g>
<path d="M129.653 126.739C136.93 128.079 142.533 135.765 144.207 144.013C145.174 148.843 147.991 172.132 147.991 172.132L149.54 180.671C149.54 180.671 150.839 210.016 144.613 213.298C137.336 217.121 133.177 212.924 130.766 209.85C128.354 206.775 125.786 186.768 125.786 186.768L128.499 138.882L129.653 126.739Z" fill="#FF725E"/>
<path d="M133.094 138.518C133.092 138.8 133.065 139.082 133.011 139.359C132.928 139.948 132.814 140.748 132.668 141.759C132.336 143.837 131.878 146.88 131.306 150.557C130.735 154.234 129.997 158.711 129.227 163.614C128.822 166.066 128.406 168.642 127.969 171.312C127.533 173.981 126.992 176.734 126.764 179.622C126.623 181.253 126.623 182.893 126.764 184.525C129.019 194.611 131.13 203.513 132.72 209.891C133.521 213.007 134.165 215.583 134.633 217.401C134.851 218.243 135.028 218.907 135.163 219.416C135.244 219.648 135.296 219.889 135.319 220.133C135.212 219.914 135.129 219.684 135.07 219.448L134.446 217.453C133.926 215.708 133.198 213.163 132.367 209.984C130.683 203.627 128.51 194.725 126.244 184.649C126.104 182.99 126.104 181.322 126.244 179.663C126.473 176.775 127.013 174.012 127.46 171.353C127.907 168.694 128.344 166.159 128.749 163.656C129.581 158.763 130.329 154.307 130.953 150.62C131.577 146.932 132.117 143.972 132.492 141.842C132.679 140.855 132.824 140.055 132.939 139.463C132.955 139.143 133.008 138.826 133.094 138.518Z" fill="#263238"/>
<path d="M55.9385 132.649L61.4481 206.401C61.4481 206.401 71.7605 159.418 72.1764 147.399C72.4922 140.506 71.7917 133.605 70.0973 126.915C70.0973 126.915 60.0967 125.305 55.9385 132.649Z" fill="#455A64"/>
<path d="M52.7574 127.975C53.4382 128.185 54.0657 128.539 54.5974 129.013C55.218 129.509 55.6834 130.173 55.9384 130.925C56.2315 131.814 56.4165 132.734 56.4894 133.667C56.6661 135.62 56.6557 137.386 56.6557 138.664C56.7004 139.357 56.6725 140.053 56.5726 140.741C56.3663 140.068 56.2646 139.367 56.2711 138.664C56.1671 137.396 56.1256 135.63 55.9488 133.709C55.7721 131.787 55.3355 130.063 54.3999 129.263C53.4643 128.463 52.7054 128.058 52.7574 127.975Z" fill="#263238"/>
<path d="M90.9926 130.644C90.9926 130.644 90.7535 130.447 90.3688 130C89.9842 129.554 89.4436 128.962 88.7679 128.079H89.0798C88.3313 130.25 87.1878 133.397 85.8883 136.929L85.7012 137.428L85.4205 137.002C85.2646 136.763 85.0775 136.524 84.9319 136.274C84.0602 134.712 83.3397 133.071 82.7801 131.372C82.2291 129.824 81.7405 128.432 81.3871 127.217C81.0336 126.001 80.6802 125.139 80.4411 124.464C80.2977 124.129 80.1864 123.781 80.1084 123.425C80.3339 123.71 80.5128 124.029 80.6386 124.37C80.94 124.994 81.3143 125.928 81.7509 127.081C82.1875 128.234 82.6969 129.647 83.2479 131.143C83.8264 132.8 84.5428 134.405 85.3894 135.942C85.5349 136.181 85.7012 136.399 85.8468 136.617L85.379 136.69C86.6992 133.169 87.8947 130.042 88.7471 127.902L88.8615 127.601L89.059 127.861C89.7667 128.743 90.4128 129.673 90.9926 130.644Z" fill="#263238"/>
<path d="M114.902 125.575C114.822 125.918 114.7 126.249 114.538 126.562C114.268 127.185 113.852 128.068 113.332 129.159C112.813 130.25 112.168 131.538 111.409 132.961C110.613 134.521 109.702 136.021 108.686 137.448L108.342 137.916L108.207 137.344L108.155 137.105C107.303 133.48 106.565 130.187 106.076 127.757L106.409 127.84C105.685 128.531 104.886 129.141 104.028 129.658C103.467 130.063 103.207 130.353 103.176 130.322C103.145 130.291 103.353 129.969 103.893 129.491C104.687 128.917 105.431 128.278 106.118 127.58L106.357 127.3L106.461 127.663C107.064 130.042 107.864 133.324 108.717 136.95V137.188L108.239 137.085C109.235 135.679 110.141 134.211 110.952 132.691L112.969 128.962L114.33 126.437C114.484 126.127 114.676 125.838 114.902 125.575Z" fill="#263238"/>
<path d="M91.5123 130.353C91.5123 130.353 88.5911 168.268 87.8322 173.15C87.0733 178.032 89.6722 254.454 89.6722 254.454L106.763 255.555C106.763 255.555 106.939 192.45 106.763 192.014C106.586 191.578 106.846 147.462 106.846 147.462L102.968 129.886L96.3566 137.708L91.5123 130.353Z" fill="white"/>
<path d="M110.588 166.398C110.588 166.481 109.985 166.616 109.684 167.437C109.596 167.657 109.557 167.894 109.57 168.131C109.582 168.367 109.646 168.599 109.757 168.808C109.915 169.039 110.14 169.217 110.402 169.317C110.664 169.417 110.95 169.435 111.222 169.369C111.5 169.338 111.761 169.221 111.97 169.035C112.178 168.849 112.324 168.603 112.387 168.33C112.417 168.095 112.395 167.856 112.323 167.63C112.251 167.404 112.131 167.196 111.971 167.022C111.64 166.689 111.216 166.464 110.754 166.378C110.754 166.378 110.89 166.274 111.17 166.274C111.562 166.315 111.928 166.487 112.21 166.762C112.437 166.969 112.612 167.226 112.722 167.513C112.833 167.799 112.874 168.108 112.844 168.414C112.76 168.789 112.567 169.132 112.289 169.399C112.012 169.666 111.662 169.845 111.283 169.915C110.904 169.984 110.513 169.941 110.158 169.791C109.804 169.64 109.501 169.389 109.289 169.068C109.149 168.793 109.076 168.488 109.076 168.18C109.076 167.871 109.149 167.567 109.289 167.292C109.459 166.925 109.754 166.631 110.12 166.461C110.422 166.346 110.578 166.367 110.588 166.398Z" fill="#263238"/>
<path d="M110.588 199.493C110.588 199.576 109.985 199.722 109.684 200.532C109.596 200.752 109.557 200.989 109.57 201.225C109.582 201.462 109.646 201.693 109.756 201.903C109.924 202.124 110.15 202.294 110.409 202.394C110.668 202.494 110.949 202.52 111.222 202.469C111.495 202.419 111.748 202.293 111.954 202.107C112.159 201.921 112.309 201.681 112.386 201.415C112.417 201.18 112.396 200.94 112.324 200.714C112.252 200.488 112.132 200.28 111.971 200.106C111.389 199.452 110.744 199.545 110.754 199.452C110.765 199.358 110.89 199.348 111.17 199.358C111.561 199.395 111.928 199.563 112.21 199.836C112.435 200.044 112.609 200.302 112.719 200.588C112.829 200.874 112.872 201.182 112.844 201.488C112.76 201.863 112.567 202.206 112.289 202.473C112.012 202.74 111.662 202.919 111.283 202.989C110.904 203.058 110.513 203.015 110.158 202.865C109.804 202.714 109.501 202.463 109.289 202.142C109.149 201.869 109.076 201.566 109.076 201.259C109.076 200.952 109.149 200.649 109.289 200.376C109.459 200.01 109.754 199.715 110.12 199.545C110.422 199.441 110.578 199.472 110.588 199.493Z" fill="#263238"/>
<path d="M112.075 239.527C112.075 239.61 111.472 239.755 111.17 240.566C111.082 240.786 111.044 241.022 111.056 241.259C111.069 241.496 111.132 241.727 111.243 241.937C111.411 242.158 111.637 242.327 111.895 242.427C112.154 242.527 112.436 242.554 112.709 242.503C112.981 242.452 113.235 242.327 113.44 242.141C113.646 241.954 113.796 241.715 113.873 241.449C113.904 241.213 113.883 240.974 113.811 240.748C113.739 240.522 113.618 240.314 113.457 240.14C112.875 239.485 112.23 239.579 112.241 239.485C112.251 239.392 112.376 239.381 112.657 239.392C113.048 239.425 113.416 239.594 113.696 239.87C113.925 240.076 114.103 240.332 114.215 240.619C114.326 240.906 114.37 241.215 114.341 241.521C114.258 241.9 114.066 242.245 113.787 242.514C113.509 242.784 113.157 242.964 112.776 243.034C112.395 243.104 112.002 243.06 111.646 242.907C111.29 242.755 110.987 242.5 110.775 242.176C110.638 241.902 110.566 241.599 110.566 241.293C110.566 240.986 110.638 240.684 110.775 240.41C110.946 240.043 111.24 239.749 111.607 239.579C111.939 239.475 112.075 239.506 112.075 239.527Z" fill="#263238"/>
<g opacity="0.3">
<path opacity="0.3" d="M134.258 166.097C133.884 163.074 133.084 160.114 132.886 157.07C132.637 153.435 133.271 149.799 132.554 146.174C130.079 150.329 129.518 155.284 129.508 160.093C129.497 164.903 129.944 169.733 129.258 174.49C128.79 177.752 127.73 181.668 127.335 184.94C126.94 188.212 127.876 190.009 128.832 194.923C132.127 185.626 135.464 175.893 134.258 166.097Z" fill="black"/>
</g>
<path d="M128.489 158.369C130.452 163.975 131.088 169.96 130.347 175.854C129.606 181.748 127.507 187.389 124.217 192.336" fill="#FF725E"/>
<path d="M124.216 192.336C124.123 192.274 125.256 190.632 126.628 187.745C127.419 186.062 128.093 184.327 128.645 182.551C129.298 180.359 129.778 178.118 130.079 175.851C130.345 173.58 130.436 171.291 130.35 169.006C130.26 167.14 130.042 165.283 129.695 163.448C129.081 160.332 128.385 158.441 128.489 158.4C128.715 158.812 128.896 159.247 129.03 159.698C129.185 160.124 129.362 160.644 129.528 161.256C129.695 161.869 129.924 162.576 130.069 163.334C130.474 165.184 130.734 167.063 130.849 168.954C131.124 173.591 130.539 178.24 129.123 182.665C128.538 184.448 127.818 186.184 126.971 187.859C126.628 188.597 126.243 189.22 125.932 189.77C125.661 190.249 125.366 190.714 125.048 191.162C124.813 191.582 124.534 191.975 124.216 192.336Z" fill="#263238"/>
<path d="M76.8543 208.478C76.1245 208.027 75.4539 207.486 74.8584 206.868C71.8206 204.054 69.1551 200.863 66.9265 197.374C66.4182 196.676 66.0024 195.915 65.6895 195.11C66.265 195.756 66.7833 196.451 67.2384 197.187C68.1636 198.465 69.4631 200.21 71.0016 202.059C72.5401 203.908 74.0267 205.487 75.1598 206.629C75.7754 207.197 76.3422 207.816 76.8543 208.478Z" fill="#263238"/>
<path d="M70.0143 209.569C69.5748 208.972 69.2246 208.314 68.9748 207.616C67.5113 204.346 66.4636 200.905 65.8561 197.374C65.6777 196.651 65.6042 195.906 65.6378 195.161C65.7937 195.161 66.3967 198.454 67.613 202.433C68.8292 206.411 70.1599 209.517 70.0143 209.569Z" fill="#263238"/>
<path d="M103.446 189.781C103.446 189.853 102.812 189.448 101.783 189.043C100.439 188.519 98.9962 188.301 97.5577 188.403C96.1193 188.505 94.7217 188.926 93.4663 189.635C92.5099 190.186 92.0005 190.674 91.9277 190.591C92.2639 190.062 92.7242 189.624 93.2688 189.313C94.5324 188.471 95.9945 187.973 97.5102 187.869C99.0237 187.753 100.541 188.04 101.907 188.7C102.501 188.929 103.029 189.3 103.446 189.781Z" fill="#263238"/>
<path d="M45.7299 187.319C45.7299 187.319 38.0891 195.629 38.6713 201.425C39.2535 207.221 41.9563 219.977 49.0669 219.593C56.1775 219.209 62.6955 207.71 63.6207 198.589C64.5459 189.469 63.6207 168.008 63.6207 168.008L53.4226 170.304L45.7299 187.319Z" fill="#FFBE9D"/>
<path d="M30.5525 134.135C35.8335 140.876 48.9215 157.133 48.9215 157.133L61.2403 154.016C61.6803 153.907 62.0767 153.666 62.3773 153.327C62.6779 152.987 62.8686 152.565 62.9244 152.115C62.9607 151.821 62.938 151.523 62.8577 151.237C62.7774 150.952 62.641 150.686 62.4566 150.453L45.1895 128.64C44.5452 127.821 43.6568 127.229 42.6531 126.949C41.6495 126.669 40.5826 126.715 39.6071 127.081L31.7168 130.042C31.3297 130.188 30.9821 130.423 30.702 130.727C30.422 131.032 30.2171 131.398 30.1039 131.795C29.9908 132.193 29.9724 132.612 30.0503 133.018C30.1282 133.424 30.3002 133.807 30.5525 134.135Z" fill="#263238"/>
<path d="M61.6143 151.253C61.1897 150.908 60.7934 150.529 60.4292 150.121C59.6911 149.352 58.6411 148.241 57.3833 146.839C54.8676 144.024 51.4994 140.024 48.0273 135.412C47.1644 134.259 46.3328 133.127 45.5427 132.016C44.8895 130.928 44.0103 129.993 42.9646 129.273C42.4566 129.037 41.9031 128.915 41.3429 128.915C40.7827 128.915 40.2292 129.037 39.7212 129.273L36.8104 130.312L32.5586 131.714C32.047 131.912 31.518 132.062 30.9785 132.161C31.4641 131.909 31.968 131.694 32.4859 131.517L36.6441 129.948L39.5445 128.91C40.1008 128.702 40.6802 128.563 41.2701 128.494C41.9291 128.44 42.5897 128.577 43.1725 128.889C44.2977 129.629 45.2454 130.608 45.9481 131.756L48.4327 135.142C51.884 139.744 55.1898 143.764 57.6328 146.631C58.8075 148.012 59.7951 149.155 60.5435 150.028C60.9326 150.407 61.2907 150.817 61.6143 151.253Z" fill="#455A64"/>
<path d="M37.5493 131.87C37.7342 131.779 37.9419 131.745 38.1461 131.772C38.3504 131.8 38.5419 131.887 38.6963 132.023C38.8508 132.16 38.9612 132.339 39.0136 132.538C39.0661 132.737 39.0581 132.947 38.9908 133.142C38.9234 133.336 38.7997 133.506 38.6354 133.631C38.4711 133.755 38.2735 133.827 38.0678 133.839C37.8621 133.851 37.6576 133.801 37.4801 133.697C37.3026 133.592 37.1603 133.437 37.0711 133.252C36.9526 133.005 36.9363 132.721 37.0259 132.463C37.1154 132.204 37.3035 131.991 37.5493 131.87Z" fill="white"/>
<path d="M48.1108 146.61L42.414 147.555L40.3349 149.425C40.041 149.679 39.8149 150.001 39.677 150.364C39.539 150.727 39.4936 151.118 39.5449 151.503C39.7068 152.526 40.1535 153.484 40.8339 154.266C41.5678 155.176 42.3972 156.005 43.3081 156.738C43.3081 156.738 41.3121 159.979 44.41 161.62C44.41 161.62 44.2021 164.975 47.4559 165.318C47.4559 165.318 48.4019 168.507 50.8553 168.684L53.3814 171.187L52.6121 172.714L63.9121 173.067C63.9694 170.055 63.82 167.043 63.4651 164.051C63.2732 162.833 62.9776 161.634 62.5815 160.467C63.1532 157.288 60.7726 155.959 60.4088 156.187C60.4088 156.187 65.8041 154.775 65.118 151.066L59.9202 152.396L50.429 154.37L56.5208 150.308C56.8228 150.031 57.0883 149.717 57.3109 149.373C57.8307 148.553 58.6 147.067 57.945 146.195C57.6644 145.831 50.1795 148.958 50.1795 148.958L45.5431 153.227L44.0877 151.149C44.0877 151.149 48.8593 150.173 48.1108 146.61Z" fill="#FFBE9D"/>
<path d="M61.1369 156.229C61.1369 156.395 59.1305 156.676 56.7291 157.382C54.3278 158.088 52.4566 158.909 52.3838 158.764C53.6312 157.863 55.0443 157.217 56.542 156.863C58.0157 156.346 59.5782 156.13 61.1369 156.229Z" fill="#EB996E"/>
<path d="M58.5269 166.004C59.2062 165.386 59.8354 164.716 60.4085 163.999L60.606 163.739L60.7411 164.04C60.9279 164.438 61.2585 164.749 61.6663 164.913C61.8806 165.02 62.1193 165.069 62.3584 165.054C62.5975 165.039 62.8285 164.962 63.0281 164.83C63.1145 164.763 63.1785 164.672 63.2119 164.568C63.2453 164.464 63.2465 164.353 63.2153 164.248L63.0593 163.313C62.9813 162.664 62.8527 162.021 62.6747 161.391C62.5894 161.124 62.4197 160.892 62.1911 160.729C61.9625 160.566 61.6872 160.481 61.4064 160.488C60.8189 160.513 60.2379 160.622 59.6808 160.81L56.6349 161.558C55.708 161.829 54.7579 162.013 53.7969 162.108C54.6828 161.72 55.6012 161.411 56.5413 161.184L59.5352 160.332C60.1421 160.108 60.7807 159.982 61.4272 159.958C61.7971 159.966 62.1573 160.078 62.4668 160.28C62.7837 160.512 63.0229 160.834 63.1529 161.205C63.3409 161.868 63.4764 162.545 63.5583 163.23C63.5583 163.552 63.6519 163.874 63.7039 164.186C63.7421 164.38 63.7242 164.58 63.6524 164.764C63.5806 164.948 63.4578 165.108 63.2984 165.225C63.0272 165.405 62.7127 165.51 62.3874 165.528C62.0621 165.546 61.7378 165.477 61.448 165.328C60.9725 165.088 60.6023 164.682 60.4085 164.186H60.7307C60.2957 164.73 59.7845 165.21 59.213 165.609C58.7868 165.889 58.5476 166.035 58.5269 166.004Z" fill="#EB996E"/>
<path d="M48.537 150.308C47.7848 151.481 46.9364 152.589 46.0005 153.622C45.2111 154.769 44.3242 155.846 43.3496 156.842C43.8778 155.55 44.6193 154.356 45.5431 153.31C46.3557 152.14 47.3694 151.124 48.537 150.308Z" fill="#EB996E"/>
<path d="M50.8867 154.224C50.8867 154.38 49.7016 154.754 48.8076 155.969C48.3401 156.741 47.9898 157.578 47.768 158.452C47.6952 158.452 47.5913 158.14 47.6121 157.6C47.6761 156.896 47.9291 156.222 48.3445 155.65C48.7598 155.078 49.3221 154.628 49.9719 154.349C50.5332 154.162 50.8659 154.162 50.8867 154.224Z" fill="#EB996E"/>
<path d="M111.867 70.5419C110.993 68.2567 111.336 65.7117 110.993 63.2706C110.245 57.9418 105.952 53.6621 100.982 51.5742C96.3564 49.6421 90.7116 50.0576 85.1396 51.8443C81.2691 53.0123 77.8113 55.2569 75.1702 58.3158C73.4871 60.3903 72.3257 62.8375 71.7831 65.4525C71.2405 68.0675 71.3326 70.7744 72.0515 73.3466L99.3503 69.4097C101.897 71.4872 104.548 73.679 107.615 74.8631C108.508 75.2608 109.49 75.4184 110.463 75.3202C110.939 75.2549 111.387 75.0564 111.755 74.7476C112.123 74.4388 112.396 74.0323 112.542 73.5751C112.854 72.5467 112.251 71.5391 111.867 70.5419Z" fill="#263238"/>
<path d="M94.9015 50.2135C100.879 49.1747 106.129 51.5119 111.16 54.8879C116.185 58.357 120.026 63.2795 122.169 68.9942C124.467 74.9463 125.049 83.5368 123.209 89.6758C122.415 92.5582 120.937 95.2063 118.899 97.3948C116.861 99.5832 114.323 101.247 111.503 102.245C103.291 105.153 93.8308 104.79 86.8449 99.5336C79.8591 94.2775 75.9296 85.5831 75.6073 76.8783C75.3008 70.8361 76.9047 64.8508 80.1918 59.77C81.8482 57.2575 84.0043 55.1125 86.5259 53.4684C89.0476 51.8243 91.8809 50.7164 94.8495 50.2135" fill="#263238"/>
<path d="M85.4101 115.167L85.6284 120.028L96.3566 138.986L111.95 119.041L112.48 69.1812C112.459 68.067 112.02 67.0013 111.25 66.1952C110.48 65.3892 109.435 64.9015 108.322 64.8288L84.5057 59.7493C76.9169 59.2403 72.2389 68.7241 72.031 76.3694C71.8231 84.8144 71.8855 95.1293 73.0706 101.372C75.5551 113.931 85.3061 115.177 85.3061 115.177" fill="#FFBE9D"/>
<path d="M75.5029 86.8296C75.5111 87.253 75.6859 87.6561 75.9895 87.9516C76.293 88.2472 76.7008 88.4113 77.1246 88.4085C77.332 88.4168 77.5389 88.3837 77.7333 88.3111C77.9277 88.2385 78.1057 88.1278 78.2567 87.9856C78.4077 87.8434 78.5289 87.6725 78.6129 87.4829C78.697 87.2933 78.7424 87.0889 78.7464 86.8815C78.7303 86.4617 78.5527 86.0642 78.2506 85.772C77.9484 85.4798 77.5451 85.3154 77.1246 85.313C76.9178 85.3032 76.7111 85.335 76.5167 85.4065C76.3224 85.4779 76.1444 85.5876 75.9932 85.729C75.842 85.8704 75.7207 86.0406 75.6365 86.2297C75.5523 86.4187 75.5069 86.6227 75.5029 86.8296Z" fill="#263238"/>
<path d="M74.5257 81.2307C74.7336 81.4384 75.9291 80.4828 77.6444 80.4205C79.3597 80.3581 80.7007 81.1787 80.8774 80.9606C81.0541 80.7425 80.7527 80.4932 80.1705 80.1088C79.3991 79.6093 78.4896 79.3657 77.5716 79.4129C76.6651 79.4418 75.7913 79.7584 75.0767 80.3166C74.5881 80.7113 74.4218 81.1372 74.5257 81.2307Z" fill="#263238"/>
<path d="M91.3359 86.5283C91.3468 86.9527 91.5239 87.3558 91.8291 87.651C92.1343 87.9463 92.5433 88.1101 92.968 88.1072C93.174 88.1156 93.3796 88.0827 93.5728 88.0106C93.7659 87.9385 93.9427 87.8286 94.0927 87.6874C94.2428 87.5461 94.3632 87.3764 94.4467 87.188C94.5303 86.9997 94.5754 86.7966 94.5794 86.5906C94.5712 86.1672 94.3964 85.7641 94.0928 85.4686C93.7893 85.1731 93.3814 85.0089 92.9576 85.0117C92.7508 85.002 92.5441 85.0338 92.3497 85.1052C92.1554 85.1767 91.9774 85.2863 91.8262 85.4277C91.675 85.5691 91.5537 85.7394 91.4695 85.9284C91.3853 86.1174 91.3399 86.3214 91.3359 86.5283Z" fill="#263238"/>
<path d="M91.0969 80.8257C91.3049 81.0334 92.5003 80.0778 94.2156 80.0154C95.9309 79.9531 97.3343 80.7841 97.459 80.5556C97.5838 80.3271 97.3343 80.0881 96.7521 79.7038C95.9808 79.2042 95.0713 78.9607 94.1532 79.0078C93.2467 79.0368 92.3729 79.3533 91.6583 79.9116C91.1593 80.3478 90.993 80.7114 91.0969 80.8257Z" fill="#263238"/>
<path d="M85.836 94.0801C84.9071 93.8272 83.9502 93.6911 82.9876 93.675C82.5406 93.675 82.1144 93.5711 82.0312 93.2698C81.9734 92.8115 82.0606 92.3465 82.2807 91.9402L83.4658 88.502C85.1187 83.6094 86.2934 79.5894 86.0959 79.5271C85.8984 79.4648 84.4014 83.3705 82.7485 88.2734L81.6154 91.7325C81.3584 92.2808 81.2996 92.9012 81.4491 93.488C81.5219 93.6413 81.6276 93.7766 81.7588 93.8843C81.89 93.9921 82.0433 94.0696 82.2079 94.1112C82.4567 94.1682 82.7118 94.1926 82.9668 94.184C83.9236 94.2761 84.8884 94.2412 85.836 94.0801Z" fill="#263238"/>
<path d="M85.4102 115.167C91.381 114.767 97.1515 112.854 102.178 109.609C102.178 109.609 98.2487 118.512 85.5453 117.805L85.4102 115.167Z" fill="#EB996E"/>
<path d="M87.1773 97.83C87.494 97.4822 87.8935 97.2198 88.3387 97.0673C88.784 96.9148 89.2605 96.877 89.7242 96.9575C90.0565 96.9887 90.3764 97.0994 90.6569 97.2802C90.9373 97.461 91.1701 97.7066 91.3355 97.9962C91.5755 98.347 91.7166 98.7558 91.744 99.1798C91.7714 99.6038 91.6842 100.027 91.4915 100.406C91.2258 100.734 90.8668 100.973 90.462 101.091C90.0572 101.21 89.6259 101.203 89.2252 101.071C88.47 100.899 87.7608 100.566 87.1461 100.095C86.9478 99.903 86.8104 99.6573 86.7511 99.3882C86.7095 99.1109 86.731 98.8278 86.8137 98.5599C86.8965 98.2919 87.0385 98.0461 87.2293 97.8404" fill="#EB996E"/>
<path d="M91.2002 76.7433C91.3873 77.2107 93.1233 76.9199 95.1713 77.0964C97.2192 77.273 98.9137 77.7613 99.1632 77.325C99.2775 77.1172 98.9761 76.6809 98.2899 76.2862C97.3836 75.7444 96.3606 75.4273 95.3064 75.3617C94.2428 75.2733 93.1734 75.4407 92.1877 75.8499C91.4809 76.1304 91.117 76.5563 91.2002 76.7433Z" fill="#263238"/>
<path d="M74.744 73.5855C75.0662 73.9698 76.2513 73.5127 77.6963 73.44C79.1413 73.3673 80.3784 73.6062 80.6383 73.1803C80.7526 72.983 80.5447 72.5883 80.0042 72.2351C79.2677 71.8121 78.4222 71.6169 77.5747 71.6742C76.7271 71.7315 75.9157 72.0388 75.243 72.5571C74.7544 72.983 74.6504 73.44 74.744 73.5855Z" fill="#263238"/>
<path d="M116.233 66.8751C113.769 59.6038 102.999 49.7252 95.3583 50.4004L83.2891 57.9418C83.7248 60.0161 84.713 61.9343 86.1494 63.4939C87.5857 65.0535 89.4169 66.1965 91.4496 66.8024C93.6223 67.4152 96.2212 67.5503 97.5414 69.3785C98.8616 71.2067 98.1755 74.0217 99.4334 75.9538C101.169 78.6338 105.785 78.4156 107.116 81.3242C107.687 82.5914 107.428 84.1184 108.031 85.3857C108.831 87.0581 113.156 89.1252 114.923 88.502C116.69 87.8787 116.628 84.8871 117.179 83.3082C117.874 81.5119 117.929 79.531 117.335 77.6989C116.503 74.1567 117.418 70.3237 116.233 66.8751Z" fill="#263238"/>
<path d="M109.726 90.1225C109.726 89.1772 110.703 86.9231 111.628 86.7361C114.092 86.2583 118.572 86.2895 118.905 92.5947C119.29 101.206 110.588 99.8037 110.526 99.5648C110.464 99.3258 109.84 93.3738 109.726 90.1225Z" fill="#FFBE9D"/>
<path d="M112.969 96.1785C112.969 96.1785 113.125 96.2824 113.375 96.3862C113.554 96.4608 113.747 96.4992 113.941 96.4992C114.136 96.4992 114.328 96.4608 114.508 96.3862C115.402 96.0123 116.098 94.5372 116.077 92.9895C116.071 92.2492 115.893 91.5204 115.558 90.86C115.468 90.594 115.314 90.3542 115.109 90.1621C114.904 89.97 114.654 89.8315 114.383 89.759C114.208 89.7181 114.024 89.7406 113.864 89.8224C113.705 89.9041 113.579 90.0399 113.51 90.2056C113.406 90.4549 113.51 90.6211 113.427 90.6315C113.343 90.6419 113.229 90.4965 113.291 90.1433C113.324 89.9248 113.435 89.7255 113.603 89.5824C113.834 89.3949 114.129 89.3054 114.425 89.3331C114.782 89.3855 115.119 89.5299 115.403 89.7521C115.688 89.9743 115.909 90.2666 116.046 90.6004C116.445 91.331 116.663 92.1469 116.68 92.9791C116.68 94.7138 115.88 96.3758 114.601 96.7913C114.373 96.8687 114.13 96.894 113.891 96.8652C113.652 96.8364 113.422 96.7544 113.219 96.6252C112.99 96.3862 112.938 96.1993 112.969 96.1785Z" fill="#EB996E"/>
<path d="M124.051 78.343C124.312 77.5068 124.424 76.6315 124.383 75.7565C124.407 71.4979 123.001 67.3544 120.392 63.9874C119.895 63.2689 119.28 62.6401 118.572 62.1281C118.406 62.2319 121.296 65.0989 122.814 69.7214C123.668 72.5145 124.085 75.4226 124.051 78.343Z" fill="#FF725E"/>
<path d="M85.8053 55.3449C85.0048 58.8455 79.6719 63.3329 77.3225 66.0648C72.8524 71.2586 72.0104 72.0273 72.0415 87.7229C69.7287 82.8507 68.5049 77.5339 68.4551 72.1416C68.5597 67.5564 70.3381 63.1675 73.4553 59.8011C75.0264 58.1519 76.9606 56.8913 79.1044 56.1195C81.2482 55.3478 83.5426 55.0861 85.8053 55.3553" fill="#263238"/>
<path d="M120.63 66.7609C120.159 66.9327 119.671 67.0545 119.175 67.1244C118.696 67.2283 118.135 67.3426 117.428 67.4257C116.721 67.5088 115.962 67.6542 115.089 67.6957C113.058 67.8443 111.018 67.8443 108.987 67.6957C106.494 67.5156 104.019 67.137 101.585 66.5635C99.16 65.9557 96.7887 65.1496 94.4956 64.1536C92.6282 63.3334 90.8248 62.3751 89.1003 61.2866C88.3414 60.8503 87.7177 60.3725 87.1563 59.9778C86.6673 59.6563 86.1954 59.3095 85.7425 58.939C85.3383 58.6228 84.9594 58.2755 84.6094 57.9003C85.053 58.1386 85.474 58.4168 85.8672 58.7313C86.2519 59.0221 86.7301 59.3649 87.3122 59.77C87.8944 60.1751 88.5285 60.5906 89.2874 61.0061C91.0203 62.0436 92.8231 62.9598 94.6827 63.7485C96.9493 64.7331 99.2882 65.5423 101.679 66.1688C104.073 66.7343 106.505 67.1232 108.956 67.3322C110.969 67.4829 112.99 67.5002 115.006 67.3841C115.869 67.3841 116.649 67.2491 117.324 67.1971C118 67.1452 118.593 67.0517 119.071 66.979C119.584 66.8644 120.105 66.7914 120.63 66.7609Z" fill="#455A64"/>
<path d="M121.524 72.9415C121.189 73.0654 120.84 73.1457 120.484 73.1804C119.567 73.3527 118.64 73.4706 117.709 73.5336C111.511 73.9879 105.306 72.7642 99.7453 69.9914C98.9056 69.5811 98.0899 69.1233 97.3024 68.6203C96.9989 68.4542 96.7192 68.248 96.4707 68.0074C96.4707 67.9347 97.7702 68.693 99.9012 69.6694C105.469 72.2269 111.565 73.4267 117.688 73.17C120.069 73.0765 121.514 72.848 121.524 72.9415Z" fill="#455A64"/>
<path d="M123.707 73.1492C123.856 73.5688 123.954 74.0047 123.998 74.4476C124.134 75.2994 124.269 76.5251 124.352 78.0521C124.445 79.841 124.445 81.6336 124.352 83.4225C124.27 85.6204 123.974 87.8052 123.468 89.9459C122.453 93.8796 120.087 97.332 116.784 99.6998C115.781 100.384 114.708 100.959 113.582 101.414C113.182 101.607 112.76 101.75 112.324 101.84C112.698 101.603 113.091 101.398 113.499 101.227C114.572 100.707 115.598 100.096 116.566 99.3985C117.984 98.3505 119.22 97.0767 120.225 95.6279C121.49 93.8791 122.417 91.9098 122.959 89.8212C123.451 87.7086 123.757 85.5571 123.874 83.3913C123.998 81.3865 124.019 79.5791 123.988 78.0625C123.957 76.5459 123.884 75.3202 123.801 74.4788C123.73 74.0393 123.699 73.5943 123.707 73.1492Z" fill="#455A64"/>
<path d="M89.329 101.05C89.7957 101.055 90.2563 100.944 90.67 100.728C90.8725 100.604 91.0459 100.437 91.1786 100.24C91.3113 100.043 91.4002 99.8199 91.4393 99.5856C91.4859 99.2985 91.4691 99.0047 91.3901 98.7247C91.3111 98.4448 91.1717 98.1855 90.9818 97.9651C90.5777 97.5321 90.0241 97.2685 89.4329 97.2276C88.9351 97.1977 88.4388 97.3056 87.9983 97.5392C87.229 97.9443 86.9588 98.4429 86.834 98.391C86.7093 98.3391 86.9899 97.7677 87.8008 97.2068C88.2887 96.8798 88.8664 96.7128 89.4537 96.729C89.8191 96.7373 90.179 96.8199 90.5114 96.9717C90.8438 97.1235 91.1418 97.3413 91.3873 97.6119C91.6326 97.8925 91.8092 98.2263 91.903 98.5869C91.9968 98.9475 92.0053 99.325 91.9278 99.6894C91.8708 99.9834 91.7476 100.261 91.5675 100.5C91.3874 100.739 91.1551 100.935 90.8883 101.071C89.9111 101.486 89.277 101.092 89.329 101.05Z" fill="#263238"/>
<path d="M142.503 171.976L147.139 162.098C147.909 158.982 151.048 157.943 154.894 157.694L158.959 156.032C158.959 156.032 161.922 151.762 164.666 151.876C164.881 151.884 165.089 151.958 165.26 152.088C165.432 152.218 165.558 152.398 165.623 152.604C165.669 152.743 165.683 152.892 165.663 153.038C165.643 153.183 165.59 153.323 165.508 153.445L162.171 158.576L159.51 159.885C159.51 159.885 162.005 160.488 162.993 159.563C163.98 158.639 167.317 156 167.317 156C167.317 156 169.864 151.419 173.17 151.762C173.269 151.771 173.364 151.804 173.447 151.859C173.53 151.914 173.599 151.988 173.646 152.076C173.693 152.163 173.718 152.261 173.719 152.36C173.719 152.459 173.695 152.557 173.648 152.645L171.112 157.538C171.112 157.538 175.738 150.588 180.145 153.185L175.259 158.493C175.259 158.493 182.349 154.473 185.177 157.839L167.234 165.245L156.89 167.271L153.273 177.077L150.092 175.238L142.503 171.976Z" fill="#FFBE9D"/>
<path d="M153.251 184.805C153.251 184.805 153.802 202.36 150.559 207.201C147.315 212.041 141.286 218.627 133.822 213.35L129.154 195.691C129.154 195.691 136.753 187.381 138.136 183.953C141.577 175.446 147.139 162.139 147.139 162.139L157.035 166.544L153.251 184.805Z" fill="#FFBE9D"/>
<path d="M139.259 182.343C138.954 183.117 138.578 183.861 138.137 184.566C137.409 185.906 136.432 187.776 135.465 189.895C134.498 192.014 133.719 193.977 133.168 195.411C132.927 196.205 132.61 196.974 132.222 197.706C132.319 196.878 132.518 196.066 132.814 195.286C133.408 193.371 134.127 191.498 134.966 189.677C135.802 187.851 136.75 186.078 137.804 184.369C138.205 183.637 138.694 182.957 139.259 182.343Z" fill="#EB996E"/>
<path d="M162.171 158.525C161.46 159.147 160.639 159.63 159.749 159.948C158.937 160.426 158.04 160.743 157.108 160.883C157.816 160.262 158.634 159.779 159.52 159.459C160.336 158.982 161.236 158.665 162.171 158.525Z" fill="#EB996E"/>
<path d="M163.657 163.168C163.657 163.095 164.125 162.783 164.967 162.42L166.464 161.807L167.327 161.443C167.615 161.334 167.869 161.152 168.065 160.914C168.969 159.875 169.707 158.836 170.3 158.14C170.893 157.444 171.34 157.008 171.392 157.101C171.332 157.223 171.267 157.341 171.194 157.455L170.612 158.369C169.96 159.385 169.241 160.357 168.46 161.277C168.334 161.422 168.195 161.554 168.044 161.672C167.888 161.777 167.721 161.864 167.545 161.932L166.641 162.274C166.069 162.482 165.539 162.638 165.102 162.783C164.638 162.97 164.153 163.099 163.657 163.168Z" fill="#EB996E"/>
</g>
<defs>
<clipPath id="clip0_424_178">
<rect width="457" height="461" fill="white"/>
</clipPath>
</defs>
</svg>
