<svg width="162" height="163" viewBox="0 0 162 163" fill="none" xmlns="http://www.w3.org/2000/svg">
<circle cx="81" cy="81.5244" r="81" fill="#FFF7EE"/>
<path d="M33 53.0911C33 53.0911 40.175 43.5244 56.9167 43.5244C73.6583 43.5244 80.8333 53.0911 80.8333 53.0911V120.058C80.8333 120.058 73.6583 115.274 56.9167 115.274C40.175 115.274 33 120.058 33 120.058V53.0911Z" stroke="#F7931E" stroke-width="7" stroke-linecap="round" stroke-linejoin="round"/>
<path d="M80.8334 53.0911C80.8334 53.0911 88.0084 43.5244 104.75 43.5244C121.492 43.5244 128.667 53.0911 128.667 53.0911V120.058C128.667 120.058 121.492 115.274 104.75 115.274C88.0084 115.274 80.8334 120.058 80.8334 120.058V53.0911Z" stroke="#F7931E" stroke-width="7" stroke-linecap="round" stroke-linejoin="round"/>
</svg>
