<svg width="75" height="60" viewBox="0 0 75 60" fill="none" xmlns="http://www.w3.org/2000/svg">
<path d="M24.2546 28.4361C27.1352 29.7035 29.3821 31.6047 30.9952 34.1396C32.6083 36.6745 33.4149 39.6703 33.4149 43.127C33.4149 48.0816 31.8594 52.1144 28.7483 55.2255C25.6373 58.2213 21.6621 59.7192 16.8227 59.7192C11.9833 59.7192 7.95053 58.1637 4.72428 55.0526C1.61325 51.9416 0.0577393 47.9664 0.0577393 43.127C0.0577393 40.8226 0.345797 38.5181 0.921913 36.2136C1.49803 33.9092 2.76549 30.4525 4.72428 25.8435L14.7487 0.955322H31.8594L24.2546 28.4361ZM65.0436 28.4361C67.9242 29.7035 70.1711 31.6047 71.7842 34.1396C73.3973 36.6745 74.2039 39.6703 74.2039 43.127C74.2039 48.0816 72.6484 52.1144 69.5374 55.2255C66.4263 58.2213 62.4511 59.7192 57.6117 59.7192C52.7724 59.7192 48.7396 58.1637 45.5133 55.0526C42.4023 51.9416 40.8468 47.9664 40.8468 43.127C40.8468 40.8226 41.1348 38.5181 41.7109 36.2136C42.2871 33.9092 43.5545 30.4525 45.5133 25.8435L55.5377 0.955322H72.6484L65.0436 28.4361Z" fill="#00A9DC"/>
</svg>
