<svg width="45" height="46" viewBox="0 0 45 46" fill="none" xmlns="http://www.w3.org/2000/svg">
<circle cx="22.5" cy="23.0244" r="22.5" fill="#00A9DC"/>
<path d="M32.75 15.3994H13.25C12.819 15.3994 12.4057 15.5706 12.101 15.8754C11.7962 16.1801 11.625 16.5934 11.625 17.0244V30.0244C11.625 30.4554 11.7962 30.8687 12.101 31.1735C12.4057 31.4782 12.819 31.6494 13.25 31.6494H32.75C33.181 31.6494 33.5943 31.4782 33.899 31.1735C34.2038 30.8687 34.375 30.4554 34.375 30.0244V17.0244C34.375 16.5934 34.2038 16.1801 33.899 15.8754C33.5943 15.5706 33.181 15.3994 32.75 15.3994ZM30.9625 17.0244L23 22.5332L15.0375 17.0244H30.9625ZM13.25 30.0244V17.7638L22.5369 24.1907C22.6729 24.285 22.8345 24.3356 23 24.3356C23.1655 24.3356 23.3271 24.285 23.4631 24.1907L32.75 17.7638V30.0244H13.25Z" fill="#001B35"/>
</svg>
