<svg width="162" height="163" viewBox="0 0 162 163" fill="none" xmlns="http://www.w3.org/2000/svg">
<circle cx="81" cy="81.5244" r="81" fill="#FFF7EE"/>
<path d="M64.9002 95.3994C64.5566 95.3994 64.213 95.45 63.8853 95.557C62.0223 96.1654 60.063 96.5557 58.0002 96.5557C55.9374 96.5557 53.9781 96.1654 52.1136 95.557C51.7859 95.45 51.4438 95.3994 51.1002 95.3994C42.1791 95.3994 34.9528 102.695 35.0002 111.677C35.0204 115.472 38.1239 118.524 41.9002 118.524H74.1001C77.8764 118.524 80.98 115.472 81.0001 111.677C81.0476 102.695 73.8213 95.3994 64.9002 95.3994ZM58.0002 90.7744C65.6218 90.7744 71.8001 84.5625 71.8001 76.8994C71.8001 69.2364 65.6218 63.0244 58.0002 63.0244C50.3786 63.0244 44.2002 69.2364 44.2002 76.8994C44.2002 84.5625 50.3786 90.7744 58.0002 90.7744ZM120.1 44.5244H64.9002C61.0951 44.5244 58.0002 47.7402 58.0002 51.6917V58.3994C61.3668 58.3994 64.4833 59.3793 67.2002 60.9721V53.7744H117.8V95.3994H108.6V86.1494H90.2001V95.3994H79.2406C81.9862 97.8116 84.0016 100.997 84.946 104.649H120.1C123.905 104.649 127 101.434 127 97.4821V51.6917C127 47.7402 123.905 44.5244 120.1 44.5244Z" fill="#F7931E"/>
</svg>

