<svg width="567" height="557" viewBox="0 0 223 218" fill="none" xmlns="http://www.w3.org/2000/svg">
<path d="M19.5025 131.15L23.5993 128.497C23.5993 128.497 25.5884 117.931 24.1108 108.606C22.0363 95.4486 13.0945 90.9255 9.84552 92.2232C6.59653 93.521 5.82928 97.433 11.6974 105.011C15.1595 109.491 19.6114 118.959 19.5025 131.15Z" fill="#00A9DC"/>
<g opacity="0.3">
<path opacity="0.3" d="M19.5025 131.15L23.5993 128.497C23.5993 128.497 25.5884 117.931 24.1108 108.606C22.0363 95.4486 13.0945 90.9255 9.84552 92.2232C6.59653 93.521 5.82928 97.433 11.6974 105.011C15.1595 109.491 19.6114 118.959 19.5025 131.15Z" fill="white"/>
</g>
<path d="M20.9944 125.935H20.9518C20.8751 125.923 20.8059 125.882 20.759 125.82C20.7122 125.758 20.6913 125.681 20.7008 125.603C22.4011 113.29 17.4565 99.8294 11.8963 94.3971C11.8404 94.3424 11.8085 94.2678 11.8076 94.1897C11.8067 94.1115 11.8369 94.0362 11.8916 93.9803C11.9462 93.9244 12.0208 93.8925 12.099 93.8916C12.1772 93.8907 12.2525 93.9209 12.3084 93.9756C17.968 99.5026 23.0073 113.185 21.2833 125.679C21.2742 125.75 21.2399 125.814 21.1868 125.861C21.1337 125.908 21.0654 125.934 20.9944 125.935Z" fill="white"/>
<path d="M9.18713 137.813C8.57143 138.164 6.81906 136.814 6.34544 136.487C5.51363 135.92 4.84166 135.149 4.39416 134.247C3.8948 133.218 3.72922 132.059 3.92054 130.932C4.01906 130.337 4.15832 129.75 4.33732 129.175C4.50309 128.606 4.66412 128.038 4.81094 127.47C5.01015 126.92 5.09398 126.334 5.05722 125.75C4.9104 124.585 3.87318 123.771 2.93543 123.065C1.89348 122.288 0.813639 121.261 0.818375 119.859C0.893035 118.77 1.32793 117.737 2.05451 116.922C2.72704 116.07 3.52271 115.321 4.12893 114.422C4.60619 113.797 4.85524 113.028 4.83462 112.243C4.76937 111.763 4.60831 111.3 4.361 110.884C3.88739 109.97 3.21486 109.131 2.87386 108.151C2.53286 107.171 2.58022 105.949 3.34747 105.248C3.97264 104.67 4.9104 104.589 5.75816 104.646C6.55503 104.744 7.32111 105.014 8.00309 105.437C10.2291 106.673 11.5031 109.311 13.8664 110.263C14.7979 110.557 15.747 110.791 16.7081 110.964C17.6553 111.215 18.6262 111.703 19.0762 112.579C19.9429 114.313 18.3326 116.449 18.9436 118.286C19.4835 119.915 21.0654 120.536 21.951 122.004C22.313 122.652 22.459 123.399 22.3678 124.135C22.2905 125.38 21.9855 126.6 21.4679 127.735C20.8836 128.912 20.2272 130.053 19.5024 131.15L9.18713 137.813Z" fill="#00A9DC"/>
<g opacity="0.65">
<path opacity="0.65" d="M9.18713 137.813C8.57143 138.164 6.81906 136.814 6.34544 136.487C5.51363 135.92 4.84166 135.149 4.39416 134.247C3.8948 133.218 3.72922 132.059 3.92054 130.932C4.01906 130.337 4.15832 129.75 4.33732 129.175C4.50309 128.606 4.66412 128.038 4.81094 127.47C5.01015 126.92 5.09398 126.334 5.05722 125.75C4.9104 124.585 3.87318 123.771 2.93543 123.065C1.89348 122.288 0.813639 121.261 0.818375 119.859C0.893035 118.77 1.32793 117.737 2.05451 116.922C2.72704 116.07 3.52271 115.321 4.12893 114.422C4.60619 113.797 4.85524 113.028 4.83462 112.243C4.76937 111.763 4.60831 111.3 4.361 110.884C3.88739 109.97 3.21486 109.131 2.87386 108.151C2.53286 107.171 2.58022 105.949 3.34747 105.248C3.97264 104.67 4.9104 104.589 5.75816 104.646C6.55503 104.744 7.32111 105.014 8.00309 105.437C10.2291 106.673 11.5031 109.311 13.8664 110.263C14.7979 110.557 15.747 110.791 16.7081 110.964C17.6553 111.215 18.6262 111.703 19.0762 112.579C19.9429 114.313 18.3326 116.449 18.9436 118.286C19.4835 119.915 21.0654 120.536 21.951 122.004C22.313 122.652 22.459 123.399 22.3678 124.135C22.2905 125.38 21.9855 126.6 21.4679 127.735C20.8836 128.912 20.2272 130.053 19.5024 131.15L9.18713 137.813Z" fill="white"/>
</g>
<path d="M15.1355 134.327C15.099 134.326 15.0632 134.318 15.03 134.303C14.9968 134.287 14.967 134.266 14.9423 134.239C14.9176 134.212 14.8985 134.18 14.8861 134.146C14.8738 134.112 14.8684 134.075 14.8703 134.039C15.3439 123.032 10.1342 110.874 6.34527 107.346C6.29918 107.294 6.2741 107.226 6.27492 107.157C6.27575 107.088 6.30242 107.021 6.34974 106.97C6.39706 106.919 6.46162 106.888 6.53085 106.882C6.60008 106.876 6.66899 106.896 6.72416 106.938C10.5699 110.543 15.8649 122.899 15.4008 134.062C15.3973 134.131 15.3683 134.197 15.3193 134.246C15.2703 134.295 15.2048 134.324 15.1355 134.327Z" fill="white"/>
<path d="M13.3456 120.872H13.2651C10.6628 120.152 7.99033 119.715 5.29416 119.57C5.25767 119.568 5.22178 119.56 5.18859 119.545C5.15541 119.53 5.1256 119.508 5.10091 119.481C5.07621 119.454 5.05713 119.422 5.04477 119.388C5.03241 119.354 5.02703 119.317 5.02894 119.281C5.02949 119.244 5.03753 119.208 5.05255 119.174C5.06757 119.141 5.08926 119.111 5.1163 119.086C5.14334 119.061 5.17516 119.042 5.20982 119.03C5.24447 119.018 5.28123 119.013 5.31784 119.016C8.06782 119.159 10.7943 119.599 13.4498 120.327C13.5193 120.351 13.5768 120.401 13.6104 120.466C13.6439 120.532 13.6509 120.608 13.6298 120.678C13.6109 120.737 13.5726 120.789 13.5211 120.824C13.4696 120.859 13.4078 120.876 13.3456 120.872Z" fill="white"/>
<path d="M113.6 217.863C174.02 217.863 223 189.585 223 154.702C223 119.819 174.02 91.5413 113.6 91.5413C53.18 91.5413 4.19995 119.819 4.19995 154.702C4.19995 189.585 53.18 217.863 113.6 217.863Z" fill="#FAFAFA"/>
<path d="M55.4592 127.777C78.6331 114.402 116.2 114.402 139.369 127.777C159.01 139.116 161.994 156.426 148.34 169.588L199.324 198.649C202.431 200.444 202.431 203.352 199.324 205.147L194.739 207.794C191.633 209.589 186.688 209.447 183.676 207.482L139.156 176.346C115.949 189.607 78.5716 189.555 55.4782 176.223C32.2901 162.844 32.2901 141.157 55.4592 127.777Z" fill="#E6E6E6"/>
<path d="M64.8508 10.1745L60.8346 12.4952C60.8549 12.3191 60.866 12.142 60.8678 11.9648V10.7997C60.8678 8.72526 59.4138 7.88696 57.6188 8.90523C56.8453 9.37724 56.1842 10.0125 55.6817 10.7665C55.3833 8.16166 53.342 7.19075 50.8556 8.62106C48.1702 10.1745 45.9963 13.9445 45.9963 17.0466V18.7848C45.9776 19.4815 46.1186 20.1733 46.4083 20.8071L43.093 22.7347C42.5647 23.0774 42.1255 23.541 41.8118 24.087C41.498 24.633 41.3187 25.2458 41.2886 25.8748C41.2886 27.0257 42.0937 27.4898 43.093 26.9167L64.8793 14.3376C65.4051 13.9967 65.8427 13.5362 66.1563 12.9937C66.47 12.4512 66.6507 11.8422 66.6837 11.2165C66.6553 10.0656 65.8502 9.60144 64.8508 10.1745Z" fill="#EBEBEB"/>
<path d="M11.8774 20.6222L14.1413 18.8746V13.8827C14.1413 9.9233 17.3003 5.32925 20.7245 3.35428C24.1535 1.37458 26.9336 2.98013 26.9336 6.9348V7.65943C27.6563 6.48861 28.6423 5.5026 29.8132 4.77986C32.2807 3.35902 34.2793 4.5099 34.2793 7.35632V7.68785L37.4383 5.86444C39.0628 4.91721 40.3795 5.68446 40.3795 7.55997C40.3243 8.5808 40.0293 9.57426 39.5183 10.4597C39.0073 11.3451 38.2947 12.0976 37.4383 12.6561L11.8774 27.4138C10.2529 28.3611 8.93628 27.5891 8.93628 25.7136C8.9914 24.6934 9.28649 23.7006 9.79754 22.8159C10.3086 21.9312 11.0212 21.1796 11.8774 20.6222Z" fill="#EBEBEB"/>
<path d="M45.4712 136.482V150.894C45.4712 158.718 50.6431 166.523 60.982 172.515C81.66 184.454 115.192 184.454 135.87 172.515C146.209 166.542 151.381 158.718 151.381 150.894V136.482C151.381 128.658 146.209 120.853 135.87 114.866C115.192 102.927 81.66 102.927 60.982 114.866C50.6431 120.834 45.4712 128.658 45.4712 136.482ZM146.256 136.482C146.256 142.743 141.657 148.844 133.308 153.665C124.072 158.998 111.687 161.934 98.4259 161.934C85.1647 161.934 72.7798 158.998 63.5443 153.665C55.1945 148.844 50.5957 142.743 50.5957 136.482C50.5957 130.221 55.1945 124.121 63.5443 119.299C72.7798 113.967 85.1647 111.03 98.4259 111.03C111.687 111.03 124.077 113.967 133.308 119.299C141.662 124.121 146.256 130.235 146.256 136.482Z" fill="#00A9DC"/>
<path opacity="0.2" d="M45.4712 136.482V150.894C45.4712 158.718 50.6431 166.523 60.982 172.515C81.66 184.454 115.192 184.454 135.87 172.515C146.209 166.542 151.381 158.718 151.381 150.894V136.482C151.381 128.658 146.209 120.853 135.87 114.866C115.192 102.927 81.66 102.927 60.982 114.866C50.6431 120.834 45.4712 128.658 45.4712 136.482ZM146.256 136.482C146.256 142.743 141.657 148.844 133.308 153.665C124.072 158.998 111.687 161.934 98.4259 161.934C85.1647 161.934 72.7798 158.998 63.5443 153.665C55.1945 148.844 50.5957 142.743 50.5957 136.482C50.5957 130.221 55.1945 124.121 63.5443 119.299C72.7798 113.967 85.1647 111.03 98.4259 111.03C111.687 111.03 124.077 113.967 133.308 119.299C141.662 124.121 146.256 130.235 146.256 136.482Z" fill="white"/>
<path opacity="0.6" d="M151.328 152.239C150.504 157.198 148.321 160.93 139.526 167.793C127.093 177.502 95.6122 181.466 77.3402 175.437C60.1054 169.753 54.6067 158.628 54.6067 150.998L54.6541 146.513C51.9924 143.345 50.5905 139.939 50.5905 136.482C50.5905 132.939 52.0634 129.449 54.853 126.214L54.9146 119.896H53.9342C48.2934 124.931 45.4707 130.704 45.4707 136.472V150.885C45.4707 158.709 50.6426 166.514 60.9815 172.505C81.6595 184.445 115.191 184.445 135.869 172.505C145.616 166.888 150.769 159.599 151.328 152.239Z" fill="#00A9DC"/>
<path d="M135.874 114.866C115.191 102.927 81.664 102.927 60.9861 114.866C40.3081 126.806 40.3034 146.163 60.9861 158.103C81.6688 170.042 115.191 170.042 135.874 158.103C156.557 146.163 156.552 126.806 135.874 114.866ZM133.312 153.665C124.076 158.998 111.686 161.934 98.43 161.934C85.1735 161.934 72.7838 158.998 63.5436 153.665C55.1938 148.844 50.595 142.743 50.595 136.482C50.595 130.221 55.1938 124.121 63.5436 119.299C72.7791 113.967 85.1688 111.03 98.43 111.03C111.691 111.03 124.076 113.967 133.312 119.299C141.661 124.121 146.26 130.226 146.26 136.482C146.26 142.739 141.661 148.844 133.312 153.665Z" fill="#00A9DC"/>
<path opacity="0.5" d="M135.874 114.866C115.191 102.927 81.664 102.927 60.9861 114.866C40.3081 126.806 40.3034 146.163 60.9861 158.103C81.6688 170.042 115.191 170.042 135.874 158.103C156.557 146.163 156.552 126.806 135.874 114.866ZM133.312 153.665C124.076 158.998 111.686 161.934 98.43 161.934C85.1735 161.934 72.7838 158.998 63.5436 153.665C55.1938 148.844 50.595 142.743 50.595 136.482C50.595 130.221 55.1938 124.121 63.5436 119.299C72.7791 113.967 85.1688 111.03 98.43 111.03C111.691 111.03 124.076 113.967 133.312 119.299C141.661 124.121 146.26 130.226 146.26 136.482C146.26 142.739 141.661 148.844 133.312 153.665Z" fill="white"/>
<path d="M146.265 136.482C146.235 139.027 145.52 141.517 144.195 143.691C142.097 140.058 138.398 136.648 133.302 133.716C124.076 128.379 111.682 125.442 98.4207 125.442C85.1595 125.442 72.7745 128.379 63.5438 133.716C58.4525 136.648 54.7583 140.058 52.6507 143.691C51.3369 141.513 50.6274 139.025 50.5952 136.482C50.5952 130.226 55.194 124.121 63.5485 119.295C72.7793 113.971 85.169 111.03 98.4254 111.03C111.682 111.03 124.081 113.971 133.307 119.295C141.666 124.121 146.265 130.235 146.265 136.482Z" fill="#00A9DC"/>
<path opacity="0.3" d="M146.265 136.482C146.235 139.027 145.52 141.517 144.195 143.691C142.097 140.058 138.398 136.648 133.302 133.716C124.076 128.379 111.682 125.442 98.4207 125.442C85.1595 125.442 72.7745 128.379 63.5438 133.716C58.4525 136.648 54.7583 140.058 52.6507 143.691C51.3369 141.513 50.6274 139.025 50.5952 136.482C50.5952 130.226 55.194 124.121 63.5485 119.295C72.7793 113.971 85.169 111.03 98.4254 111.03C111.682 111.03 124.081 113.971 133.307 119.295C141.666 124.121 146.265 130.235 146.265 136.482Z" fill="white"/>
<path opacity="0.6" d="M63.5485 119.295C55.194 124.121 50.5952 130.226 50.5952 136.482C50.6288 139.026 51.34 141.514 52.6554 143.691C54.7677 140.058 58.4619 136.648 63.5485 133.716C65.6995 132.486 67.9341 131.408 70.236 130.491C68.2184 131.273 62.0235 133.266 64.2826 127.361C66.968 120.346 80.0729 112.75 89.7015 111.49C79.7982 112.47 70.7191 115.16 63.5485 119.295Z" fill="#00A9DC"/>
<path opacity="0.4" d="M133.312 125.826C124.076 120.493 111.687 117.557 98.4302 117.557C85.1738 117.557 72.7793 120.493 63.5438 125.826C56.6575 129.804 52.3287 134.654 51.0215 139.745C52.3287 144.837 56.6575 149.691 63.5438 153.665C72.784 158.998 85.169 161.934 98.4302 161.934C111.691 161.934 124.076 158.998 133.312 153.665C140.203 149.687 144.532 144.837 145.834 139.745C144.536 134.654 140.203 129.804 133.312 125.826Z" fill="white"/>
<path d="M60.0059 143.051C62.9659 145.372 66.3239 146.84 69.7481 148.005C73.1817 149.143 76.6986 150.01 80.267 150.601C87.3975 151.759 94.629 152.171 101.845 151.832C105.449 151.671 109.058 151.335 112.643 150.852C116.217 150.372 119.758 149.674 123.247 148.763C126.72 147.895 130.078 146.623 133.255 144.974C134.039 144.557 134.798 144.093 135.528 143.587C136.261 143.086 136.956 142.532 137.607 141.929C138.264 141.323 138.85 140.644 139.355 139.907C139.877 139.149 140.275 138.313 140.534 137.43C140.55 138.398 140.389 139.361 140.061 140.271C139.713 141.187 139.258 142.058 138.706 142.867C138.16 143.681 137.539 144.443 136.85 145.14C136.167 145.841 135.441 146.497 134.676 147.106C131.589 149.458 128.168 151.336 124.526 152.675C120.935 154.028 117.231 155.06 113.458 155.759C109.704 156.469 105.907 156.92 102.091 157.108C94.433 157.509 86.7599 156.692 79.3577 154.688C75.6548 153.674 72.0784 152.244 68.6967 150.426C67.0126 149.502 65.412 148.434 63.9132 147.233C63.539 146.935 63.1885 146.608 62.8286 146.286C62.4686 145.964 62.1276 145.637 61.8009 145.292C61.1412 144.596 60.5408 143.847 60.0059 143.051Z" fill="white"/>
<path d="M134.297 167.277C134.361 165.989 134.727 164.734 135.368 163.615C136.008 162.496 136.904 161.543 137.982 160.836C138.995 160.244 139.919 160.182 140.591 160.561L152.394 167.31C153.061 167.694 153.478 168.522 153.483 169.678C153.418 170.966 153.051 172.22 152.411 173.339C151.77 174.458 150.875 175.411 149.798 176.119C148.775 176.716 147.847 176.777 147.174 176.389L135.377 169.645C134.723 169.294 134.302 168.466 134.297 167.277Z" fill="#37474F"/>
<path d="M135.4 169.678C134.723 169.294 134.302 168.465 134.297 167.276C134.314 166.318 134.528 165.373 134.927 164.501L151.887 174.22C151.335 174.996 150.633 175.653 149.822 176.152C148.799 176.749 147.871 176.81 147.198 176.422L135.4 169.678Z" fill="#263238"/>
<path d="M192.58 186.505L155.022 167.367L154.975 167.338C154.103 166.865 152.919 166.95 151.617 167.708C148.955 169.261 146.81 173.012 146.824 176.091C146.824 177.635 147.378 178.715 148.245 179.217L183.543 201.95C184.559 202.593 185.693 203.025 186.879 203.219C188.066 203.414 189.279 203.368 190.447 203.084C191.614 202.8 192.713 202.283 193.677 201.565C194.641 200.847 195.451 199.943 196.057 198.905C196.664 197.868 197.056 196.718 197.209 195.526C197.362 194.334 197.273 193.123 196.948 191.966C196.623 190.809 196.068 189.729 195.317 188.791C194.566 187.853 193.633 187.075 192.575 186.505H192.58Z" fill="#455A64"/>
<path d="M148.25 179.226L183.548 201.959C184.86 202.783 186.364 203.252 187.912 203.32C189.46 203.387 190.999 203.051 192.378 202.345C193.757 201.639 194.929 200.586 195.779 199.291C196.629 197.995 197.127 196.501 197.226 194.955C196.549 197.896 191.689 200.397 185.665 197.029C179.641 193.662 157.324 179.553 147.184 173.713C146.946 174.48 146.821 175.278 146.814 176.081C146.819 177.644 147.378 178.724 148.25 179.226Z" fill="#37474F"/>
<path d="M148.249 179.226C147.369 178.724 146.829 177.644 146.829 176.1C146.829 173.021 148.96 169.27 151.622 167.717C152.924 166.959 154.108 166.879 154.979 167.347L158.295 169.034C157.4 168.56 156.192 168.636 154.852 169.412C152.124 171.004 149.921 174.854 149.936 178.013C149.936 179.595 150.48 180.727 151.38 181.239" fill="#00A9DC"/>
<path opacity="0.2" d="M151.375 181.239C150.476 180.727 149.955 179.595 149.931 178.014C149.936 177.177 150.065 176.345 150.315 175.546C149.183 174.873 148.126 174.258 147.184 173.713C147.064 174.109 146.971 174.513 146.905 174.921C146.876 175.12 146.852 175.319 146.834 175.518C146.834 175.717 146.81 175.911 146.834 176.1C146.834 177.644 147.388 178.724 148.254 179.226L151.375 181.239Z" fill="#001B35"/>
<path d="M58.4386 201.164L30.0218 186.95L18.7024 191.961L58.4386 201.164Z" fill="#00A9DC"/>
<g opacity="0.15">
<path opacity="0.15" d="M58.4386 201.164L30.0218 186.95L18.7024 191.961L58.4386 201.164Z" fill="white"/>
</g>
<path d="M58.4384 201.163L33.408 184.431L37.8883 177.99L58.4384 201.163Z" fill="#00A9DC"/>
<g opacity="0.15">
<path opacity="0.15" d="M58.4384 201.163L33.408 184.431L37.8883 177.99L58.4384 201.163Z" fill="white"/>
</g>
<path d="M33.408 184.431L33.8768 188.878L58.4384 201.164L33.408 184.431Z" fill="#00A9DC"/>
<g opacity="0.2">
<path opacity="0.2" d="M33.408 184.431L33.8768 188.878L58.4384 201.164L33.408 184.431Z" fill="#001B35"/>
</g>
<path d="M29.354 183.578C29.4228 183.577 29.4886 183.55 29.5387 183.503C29.5967 183.445 29.6316 183.369 29.6369 183.288C29.6421 183.207 29.6173 183.126 29.5671 183.062L29.0225 182.333C29.0004 182.302 28.972 182.276 28.9392 182.257C28.9063 182.239 28.8699 182.227 28.8322 182.223C28.7945 182.22 28.7565 182.224 28.7207 182.237C28.6849 182.249 28.6521 182.269 28.6246 182.295C28.5669 182.352 28.5317 182.428 28.5256 182.509C28.5195 182.59 28.5429 182.67 28.5915 182.735C28.7715 182.977 28.9562 183.209 29.1409 183.45C29.1641 183.487 29.1955 183.517 29.2324 183.539C29.2694 183.562 29.311 183.575 29.354 183.578Z" fill="#455A64"/>
<path d="M26.8581 180.348C26.5203 179.856 26.1935 179.358 25.8777 178.856C25.835 178.787 25.8187 178.705 25.8317 178.625C25.8448 178.545 25.8863 178.472 25.9488 178.421C25.9782 178.397 26.0124 178.381 26.0489 178.372C26.0855 178.363 26.1235 178.362 26.1604 178.369C26.1973 178.376 26.2322 178.391 26.2627 178.413C26.2932 178.435 26.3186 178.464 26.3371 178.496C26.6544 178.994 26.9765 179.486 27.2843 179.974C27.3307 180.041 27.3506 180.122 27.3401 180.203C27.3296 180.283 27.2895 180.357 27.2275 180.41C27.1816 180.45 27.1226 180.472 27.0618 180.471C27.0208 180.467 26.9814 180.454 26.9462 180.433C26.911 180.411 26.8809 180.382 26.8581 180.348ZM24.3527 176.28C24.0638 175.754 23.7796 175.219 23.5096 174.684C23.4726 174.612 23.4632 174.529 23.4832 174.45C23.5033 174.371 23.5514 174.303 23.6186 174.258C23.6512 174.237 23.6877 174.225 23.7257 174.22C23.7637 174.215 23.8023 174.219 23.8387 174.231C23.8752 174.243 23.9087 174.262 23.9369 174.288C23.9651 174.314 23.9874 174.345 24.0022 174.381C24.2674 174.906 24.5469 175.432 24.831 175.953C24.8714 176.023 24.8845 176.106 24.8679 176.186C24.8513 176.265 24.8062 176.336 24.741 176.384C24.6968 176.411 24.6461 176.426 24.5942 176.427C24.5445 176.426 24.496 176.412 24.4535 176.386C24.4111 176.36 24.3763 176.324 24.3527 176.28ZM22.2404 171.942C22.0036 171.378 21.7668 170.81 21.5678 170.246C21.5388 170.171 21.5382 170.089 21.5661 170.014C21.594 169.938 21.6486 169.876 21.7194 169.839C21.7547 169.824 21.7927 169.816 21.831 169.817C21.8693 169.817 21.9071 169.826 21.9419 169.842C21.9767 169.858 22.0077 169.881 22.033 169.91C22.0583 169.939 22.0773 169.973 22.0888 170.009C22.2925 170.563 22.5151 171.122 22.7519 171.676C22.7837 171.751 22.7873 171.834 22.762 171.911C22.7367 171.987 22.6843 172.052 22.6145 172.093C22.5777 172.111 22.5372 172.121 22.4961 172.122C22.4406 172.12 22.3867 172.102 22.3413 172.07C22.2958 172.038 22.2607 171.993 22.2404 171.942ZM20.6017 167.357C20.4312 166.765 20.2701 166.163 20.128 165.581C20.1054 165.504 20.1135 165.421 20.1505 165.349C20.1876 165.278 20.2508 165.223 20.327 165.197C20.364 165.188 20.4027 165.185 20.4406 165.191C20.4785 165.197 20.5148 165.211 20.5472 165.231C20.5796 165.252 20.6075 165.278 20.6291 165.31C20.6507 165.342 20.6655 165.378 20.6727 165.415C20.8101 165.993 20.9663 166.58 21.1463 167.163C21.1704 167.239 21.1654 167.321 21.1321 167.394C21.0988 167.467 21.0398 167.524 20.9663 167.556H20.8811C20.8194 167.557 20.7589 167.538 20.7087 167.502C20.6584 167.467 20.6209 167.416 20.6017 167.357ZM19.5029 162.569C19.4082 161.967 19.3229 161.352 19.2519 160.741C19.238 160.662 19.2556 160.581 19.3008 160.516C19.346 160.45 19.4152 160.405 19.4934 160.39C19.5711 160.385 19.6477 160.41 19.707 160.461C19.7663 160.511 19.8035 160.583 19.8107 160.66C19.877 161.262 19.9623 161.868 20.057 162.46C20.073 162.537 20.0588 162.617 20.0174 162.684C19.976 162.751 19.9105 162.8 19.8344 162.82H19.7823C19.714 162.816 19.649 162.789 19.5981 162.744C19.5473 162.698 19.5136 162.636 19.5029 162.569ZM19.0293 157.662C19.0293 157.188 19.0008 156.715 19.0008 156.208V155.81C18.9989 155.772 19.0047 155.733 19.0177 155.697C19.0307 155.66 19.0507 155.627 19.0767 155.598C19.1027 155.57 19.134 155.547 19.1689 155.53C19.2039 155.514 19.2417 155.504 19.2803 155.502C19.3586 155.508 19.4314 155.545 19.4829 155.605C19.5343 155.664 19.5602 155.741 19.555 155.82V156.208C19.555 156.682 19.555 157.155 19.555 157.629C19.5616 157.708 19.5371 157.786 19.4866 157.847C19.4362 157.908 19.3638 157.947 19.285 157.956C19.2139 157.946 19.1486 157.912 19.1015 157.857C19.0543 157.803 19.0287 157.734 19.0293 157.662ZM19.4034 153.073C19.3259 153.059 19.2567 153.016 19.21 152.952C19.1633 152.889 19.1427 152.81 19.1524 152.732C19.2045 152.121 19.2708 151.5 19.3466 150.889C19.3495 150.851 19.3602 150.813 19.3782 150.779C19.3962 150.744 19.4211 150.714 19.4513 150.69C19.4814 150.665 19.5163 150.647 19.5537 150.637C19.5911 150.626 19.6302 150.624 19.6686 150.629C19.746 150.645 19.8141 150.691 19.8583 150.756C19.9025 150.822 19.9194 150.902 19.9055 150.979C19.8297 151.581 19.7634 152.192 19.7113 152.789C19.7079 152.862 19.6775 152.932 19.626 152.984C19.5744 153.037 19.5052 153.068 19.4318 153.073H19.4034ZM20.0665 148.232C19.9906 148.208 19.9269 148.156 19.8881 148.087C19.8494 148.017 19.8387 147.935 19.8581 147.858C19.9812 147.257 20.1233 146.655 20.2796 146.063C20.2867 146.026 20.3015 145.99 20.3232 145.959C20.3449 145.927 20.3729 145.9 20.4054 145.88C20.4379 145.86 20.4743 145.847 20.5122 145.842C20.5501 145.837 20.5886 145.84 20.6253 145.85C20.7003 145.879 20.7618 145.935 20.7977 146.007C20.8336 146.079 20.8414 146.161 20.8195 146.239C20.668 146.816 20.5259 147.413 20.4027 148C20.3929 148.066 20.3605 148.126 20.3112 148.17C20.262 148.214 20.1989 148.239 20.1328 148.242L20.0665 148.232ZM21.3452 143.548C21.2732 143.513 21.217 143.452 21.188 143.378C21.1591 143.303 21.1594 143.22 21.1889 143.146C21.3926 142.578 21.6199 142.004 21.8567 141.446C21.8701 141.41 21.8907 141.378 21.9172 141.351C21.9437 141.323 21.9755 141.302 22.0106 141.288C22.0458 141.274 22.0835 141.267 22.1214 141.268C22.1593 141.269 22.1966 141.278 22.2309 141.294C22.2999 141.336 22.3517 141.4 22.3769 141.477C22.4021 141.553 22.399 141.636 22.3682 141.711C22.1314 142.26 21.8946 142.819 21.7099 143.378C21.6922 143.433 21.6575 143.482 21.6108 143.517C21.5641 143.552 21.5077 143.571 21.4494 143.572C21.4132 143.573 21.3773 143.565 21.3452 143.548ZM23.2918 139.149C23.2251 139.102 23.178 139.032 23.1597 138.952C23.1413 138.873 23.153 138.789 23.1923 138.718C23.4812 138.192 23.7843 137.666 24.0922 137.159C24.1104 137.126 24.1356 137.097 24.1662 137.074C24.1967 137.051 24.2318 137.035 24.2692 137.027C24.3065 137.018 24.3451 137.018 24.3824 137.027C24.4197 137.035 24.4548 137.051 24.4853 137.074C24.5476 137.126 24.5895 137.198 24.6034 137.278C24.6173 137.358 24.6023 137.44 24.5611 137.51C24.2532 138.007 23.9548 138.523 23.6754 139.04C23.6529 139.085 23.6184 139.122 23.5758 139.149C23.5333 139.176 23.4841 139.19 23.4339 139.191C23.3834 139.191 23.334 139.176 23.2918 139.149ZM25.8067 135.128C25.7493 135.071 25.7143 134.996 25.7082 134.916C25.7021 134.836 25.7253 134.756 25.7735 134.692C26.1287 134.218 26.5029 133.745 26.877 133.299C26.9015 133.271 26.932 133.247 26.9663 133.231C27.0007 133.215 27.0381 133.207 27.076 133.207C27.1138 133.207 27.1512 133.215 27.1856 133.231C27.22 133.247 27.2504 133.271 27.2749 133.299C27.3288 133.36 27.3586 133.438 27.3586 133.52C27.3586 133.601 27.3288 133.679 27.2749 133.74C26.9055 134.18 26.5408 134.635 26.1903 135.104C26.1656 135.139 26.1329 135.167 26.0951 135.187C26.0572 135.207 26.0152 135.217 25.9724 135.218C25.9363 135.217 25.9007 135.208 25.8681 135.193C25.8354 135.177 25.8064 135.155 25.783 135.128H25.8067ZM28.852 131.585C28.7981 131.524 28.7683 131.446 28.7683 131.365C28.7683 131.284 28.7981 131.205 28.852 131.144C29.2688 130.732 29.6998 130.33 30.1308 129.951C30.1592 129.926 30.1927 129.907 30.2291 129.896C30.2655 129.884 30.3039 129.881 30.3416 129.886C30.3793 129.891 30.4156 129.904 30.4478 129.924C30.4801 129.944 30.5077 129.971 30.5286 130.003C30.5744 130.07 30.5949 130.151 30.5862 130.232C30.5775 130.313 30.5403 130.388 30.4812 130.444C30.055 130.813 29.6335 131.206 29.2214 131.609C29.1728 131.659 29.1065 131.688 29.0367 131.689C28.9964 131.688 28.9568 131.679 28.9207 131.661C28.8846 131.643 28.8531 131.617 28.8283 131.585H28.852ZM32.3378 128.587C32.2989 128.517 32.2862 128.435 32.3018 128.356C32.3174 128.277 32.3603 128.206 32.4231 128.156C32.8967 127.815 33.3703 127.498 33.8439 127.209C33.8763 127.19 33.9125 127.177 33.9499 127.173C33.9874 127.169 34.0253 127.173 34.0612 127.185C34.097 127.196 34.13 127.215 34.1579 127.241C34.1857 127.266 34.2079 127.297 34.2228 127.332C34.2596 127.403 34.2688 127.486 34.2487 127.563C34.2286 127.641 34.1806 127.709 34.1139 127.753C33.6402 128.038 33.1666 128.35 32.693 128.701C32.6487 128.732 32.5957 128.748 32.5415 128.748C32.4931 128.742 32.4468 128.725 32.4071 128.697C32.3674 128.669 32.3354 128.631 32.3141 128.587H32.3378Z" fill="#455A64"/>
<path d="M36.5057 126.541H36.591C36.8412 126.446 37.0996 126.375 37.363 126.328C37.4407 126.311 37.5088 126.264 37.553 126.198C37.5971 126.132 37.6139 126.051 37.5998 125.973C37.5968 125.934 37.5862 125.897 37.5686 125.863C37.5509 125.828 37.5266 125.798 37.497 125.773C37.4674 125.749 37.4332 125.73 37.3964 125.719C37.3595 125.707 37.3208 125.704 37.2825 125.708C36.9891 125.762 36.7007 125.842 36.4205 125.944C36.3455 125.974 36.2847 126.031 36.2503 126.104C36.216 126.177 36.2108 126.261 36.2358 126.337C36.2537 126.395 36.2894 126.446 36.3378 126.483C36.3863 126.519 36.445 126.54 36.5057 126.541Z" fill="#455A64"/>
<path d="M169.496 17.5863L140.369 8.65869L162.809 24.0748L169.496 17.5863Z" fill="#00A9DC"/>
<path opacity="0.15" d="M169.496 17.5863L140.369 8.65869L162.809 24.0748L169.496 17.5863Z" fill="white"/>
<path d="M140.369 8.65863L171.718 13.7026L178.405 7.21411L140.369 8.65863Z" fill="#00A9DC"/>
<path opacity="0.15" d="M140.369 8.65863L171.718 13.7026L178.405 7.21411L140.369 8.65863Z" fill="white"/>
<path d="M171.717 13.7027L171.746 21.451L169.496 17.5863L140.369 8.65869L171.717 13.7027Z" fill="#00A9DC"/>
<path opacity="0.2" d="M171.717 13.7027L171.746 21.451L169.496 17.5863L140.369 8.65869L171.717 13.7027Z" fill="#001B35"/>
<path d="M171.746 21.4509L167.265 19.7506L169.496 17.5862L171.746 21.4509Z" fill="#00A9DC"/>
<path opacity="0.2" d="M169.496 17.5862L167.265 19.7506L167.981 20.0206L169.496 17.5862Z" fill="#001B35"/>
<path d="M177.623 16.2221C177.596 16.2423 177.573 16.2679 177.556 16.2972C177.539 16.3265 177.528 16.359 177.524 16.3926C177.514 16.4735 177.534 16.5552 177.579 16.6229C177.624 16.6907 177.692 16.74 177.77 16.762L178.632 16.9941C178.668 17.0055 178.707 17.0088 178.744 17.0039C178.782 16.999 178.818 16.986 178.85 16.9657C178.882 16.9454 178.909 16.9183 178.93 16.8864C178.95 16.8545 178.963 16.8185 178.969 16.781C178.98 16.7013 178.962 16.6201 178.919 16.5523C178.875 16.4845 178.809 16.4346 178.732 16.4116L177.86 16.1795C177.82 16.1678 177.778 16.1656 177.737 16.173C177.696 16.1804 177.657 16.1972 177.623 16.2221Z" fill="#455A64"/>
<path d="M181.569 17.2783C182.132 17.4677 182.696 17.6667 183.25 17.8703C183.326 17.8991 183.389 17.954 183.428 18.0252C183.467 18.0964 183.48 18.1792 183.463 18.2587C183.453 18.2953 183.436 18.3294 183.411 18.3587C183.387 18.388 183.357 18.4117 183.323 18.4283C183.289 18.4449 183.252 18.454 183.214 18.455C183.176 18.456 183.138 18.4488 183.103 18.4339C182.554 18.2303 181.995 18.0361 181.436 17.8466C181.36 17.8206 181.296 17.7679 181.256 17.6982C181.216 17.6285 181.202 17.5466 181.218 17.4677C181.229 17.407 181.263 17.3527 181.313 17.3162C181.349 17.289 181.391 17.2713 181.436 17.2646C181.481 17.258 181.526 17.2627 181.569 17.2783ZM186.025 18.9928C186.579 19.2391 187.124 19.4664 187.664 19.7553C187.737 19.7895 187.795 19.8495 187.826 19.9239C187.858 19.9982 187.861 20.0816 187.835 20.1579C187.82 20.1932 187.799 20.2252 187.772 20.2516C187.744 20.2781 187.712 20.2985 187.676 20.3114C187.64 20.3244 187.602 20.3297 187.564 20.3269C187.526 20.3241 187.489 20.3133 187.456 20.2952C186.925 20.0347 186.385 19.7837 185.841 19.5469C185.767 19.5137 185.708 19.4552 185.674 19.3822C185.641 19.3092 185.634 19.2265 185.656 19.1491C185.672 19.098 185.703 19.0532 185.746 19.0212C185.786 18.9918 185.833 18.9736 185.882 18.9686C185.931 18.9636 185.98 18.9719 186.025 18.9928ZM190.335 21.1667C190.866 21.4698 191.387 21.7871 191.898 22.1139C191.966 22.1562 192.017 22.2217 192.04 22.2983C192.064 22.3749 192.059 22.4575 192.026 22.5307C192.007 22.5642 191.982 22.5934 191.951 22.6164C191.92 22.6394 191.885 22.6556 191.847 22.6641C191.81 22.6726 191.771 22.6731 191.733 22.6656C191.695 22.6581 191.66 22.6428 191.628 22.6207C191.126 22.3033 190.61 21.9955 190.089 21.6734C190.019 21.6343 189.965 21.5706 189.939 21.4946C189.913 21.4185 189.916 21.3355 189.947 21.2614C189.963 21.2219 189.989 21.1875 190.023 21.1619C190.069 21.1321 190.124 21.1166 190.18 21.1174C190.235 21.1183 190.289 21.1354 190.335 21.1667ZM194.418 23.8236C194.915 24.1883 195.403 24.5672 195.872 24.9461C195.935 24.995 195.978 25.0662 195.991 25.1453C196.004 25.2243 195.987 25.3055 195.943 25.3724C195.919 25.403 195.89 25.4284 195.856 25.4469C195.822 25.4654 195.785 25.4766 195.747 25.4797C195.708 25.4829 195.669 25.4779 195.633 25.4651C195.597 25.4523 195.563 25.432 195.535 25.4055C195.062 25.0314 194.588 24.6619 194.115 24.302C194.048 24.2558 194.002 24.1863 193.984 24.1074C193.966 24.0284 193.979 23.9457 194.02 23.8757C194.034 23.8509 194.053 23.8298 194.077 23.8142C194.127 23.78 194.188 23.7626 194.249 23.7643C194.31 23.766 194.369 23.7867 194.418 23.8236ZM198.183 26.9874C198.628 27.4089 199.069 27.8446 199.495 28.2898C199.55 28.3471 199.581 28.4235 199.581 28.5029C199.581 28.5824 199.55 28.6587 199.495 28.7161C199.468 28.7436 199.435 28.7654 199.399 28.7803C199.364 28.7952 199.325 28.8028 199.286 28.8028C199.248 28.8028 199.209 28.7952 199.174 28.7803C199.138 28.7654 199.105 28.7436 199.078 28.7161C198.661 28.2803 198.226 27.8493 197.79 27.4373C197.731 27.3844 197.694 27.3109 197.687 27.2317C197.68 27.1525 197.703 27.0736 197.752 27.0111L197.79 26.9732C197.846 26.9265 197.917 26.9021 197.989 26.9047C198.062 26.9073 198.131 26.9368 198.183 26.9874ZM201.541 30.5963C201.849 30.9705 202.147 31.3494 202.445 31.7377L202.682 32.055C202.732 32.1156 202.756 32.1932 202.749 32.2712C202.742 32.3492 202.704 32.4212 202.644 32.4718C202.612 32.494 202.576 32.5096 202.538 32.5175C202.499 32.5255 202.46 32.5257 202.421 32.5182C202.383 32.5107 202.347 32.4956 202.314 32.4738C202.282 32.4521 202.254 32.424 202.232 32.3913L201.996 32.0787C201.707 31.6998 201.413 31.3257 201.11 30.9563C201.055 30.8997 201.025 30.8242 201.025 30.7455C201.025 30.6668 201.055 30.5913 201.11 30.5347C201.14 30.5076 201.176 30.487 201.215 30.4743C201.253 30.4617 201.294 30.4572 201.335 30.4612C201.375 30.4652 201.415 30.4776 201.45 30.4976C201.486 30.5176 201.516 30.5448 201.541 30.5774V30.5963ZM204.027 34.4799C204.097 34.4433 204.178 34.4346 204.254 34.4558C204.329 34.4769 204.394 34.5262 204.435 34.5936C204.761 35.1146 205.084 35.645 205.382 36.1802C205.403 36.2127 205.417 36.2491 205.423 36.287C205.429 36.325 205.428 36.3639 205.419 36.4015C205.411 36.439 205.394 36.4743 205.372 36.5055C205.349 36.5366 205.32 36.5629 205.287 36.5828C205.215 36.6149 205.134 36.6186 205.059 36.5931C204.984 36.5677 204.922 36.5149 204.885 36.4454C204.581 35.9197 204.264 35.394 203.937 34.8872C203.895 34.8271 203.877 34.7533 203.887 34.6806C203.897 34.6078 203.933 34.5413 203.989 34.4941L204.027 34.4799ZM206.429 38.7425C206.504 38.7153 206.587 38.7177 206.661 38.7494C206.735 38.781 206.794 38.8395 206.826 38.913C207.087 39.4671 207.343 40.0307 207.575 40.5943C207.591 40.629 207.6 40.6666 207.602 40.705C207.603 40.7434 207.597 40.7816 207.583 40.8175C207.57 40.8533 207.549 40.886 207.522 40.9136C207.495 40.9412 207.463 40.9631 207.428 40.9779C207.351 40.9998 207.268 40.992 207.196 40.9561C207.124 40.9202 207.068 40.8587 207.04 40.7837C206.812 40.2296 206.566 39.6755 206.305 39.1356C206.273 39.0768 206.262 39.0085 206.275 38.9426C206.288 38.8767 206.324 38.8175 206.376 38.7756C206.389 38.75 206.407 38.7273 206.429 38.7093V38.7425ZM208.252 43.2418C208.331 43.2269 208.412 43.2419 208.481 43.2839C208.549 43.326 208.599 43.392 208.621 43.4691C208.801 44.0469 208.972 44.639 209.119 45.2262C209.13 45.2626 209.134 45.3011 209.129 45.3389C209.124 45.3768 209.112 45.4133 209.092 45.4459C209.072 45.4786 209.046 45.5067 209.015 45.5284C208.983 45.5502 208.948 45.565 208.91 45.572C208.831 45.5823 208.751 45.5628 208.685 45.5173C208.62 45.4718 208.573 45.4035 208.555 45.3257C208.408 44.7479 208.243 44.1653 208.081 43.6017C208.061 43.5472 208.059 43.4879 208.074 43.4318C208.089 43.3758 208.122 43.3259 208.167 43.2892C208.188 43.2557 208.217 43.2281 208.252 43.2086V43.2418ZM209.389 47.9069C209.47 47.9049 209.549 47.9327 209.611 47.9851C209.673 48.0375 209.713 48.1107 209.725 48.1911C209.82 48.7831 209.895 49.3846 209.957 49.9813C209.962 50.0184 209.958 50.0561 209.948 50.0919C209.937 50.1277 209.918 50.1607 209.894 50.1889C209.869 50.2171 209.839 50.2397 209.805 50.2554C209.771 50.271 209.734 50.2793 209.697 50.2797C209.615 50.2788 209.537 50.2478 209.478 50.1926C209.418 50.1375 209.382 50.0622 209.374 49.9813C209.313 49.3988 209.242 48.8115 209.147 48.2289C209.139 48.1799 209.143 48.1294 209.161 48.0828C209.178 48.0362 209.208 47.9951 209.247 47.9637C209.283 47.9191 209.333 47.8875 209.389 47.8737V47.9069Z" fill="#455A64"/>
<path d="M214.574 123.524C213.305 122.766 211.515 122.871 209.526 123.998L173.455 144.837C169.605 147.058 166.479 152.343 166.479 156.639C166.479 158.737 167.227 160.205 168.44 160.902L172.309 163.132C173.574 163.852 175.34 163.739 177.301 162.607L213.376 141.768C217.226 139.546 220.348 134.261 220.348 129.965C220.348 127.881 219.609 126.408 218.406 125.703C217.747 125.343 215.209 123.903 214.574 123.524Z" fill="#E0E0E0"/>
<path d="M174.099 163.388C171.921 163.388 170.566 161.664 170.566 158.894C170.566 154.683 173.64 149.478 177.419 147.3L213.495 126.461C214.423 125.884 215.486 125.558 216.578 125.513C218.756 125.513 220.111 127.237 220.111 130.008C220.111 134.223 217.037 139.423 213.258 141.607L177.183 162.446C176.254 163.023 175.192 163.347 174.099 163.388Z" fill="#FAFAFA"/>
<path d="M216.578 125.731C218.61 125.731 219.893 127.365 219.893 129.994C219.893 134.133 216.871 139.243 213.158 141.36L177.083 162.199C176.191 162.756 175.169 163.073 174.118 163.118C173.668 163.133 173.221 163.045 172.81 162.86C172.4 162.676 172.037 162.399 171.75 162.053C171.077 161.129 170.743 160.002 170.803 158.86C170.803 154.726 173.825 149.615 177.538 147.494L213.613 126.655C214.505 126.098 215.527 125.781 216.578 125.736V125.731ZM216.578 125.262C215.443 125.305 214.339 125.645 213.376 126.247L177.301 147.086C173.45 149.312 170.329 154.593 170.329 158.889C170.329 161.896 171.859 163.625 174.118 163.625C175.252 163.581 176.356 163.243 177.32 162.645L213.395 141.806C217.246 139.584 220.367 134.299 220.367 130.003C220.367 126.996 218.837 125.267 216.578 125.267V125.262Z" fill="#EBEBEB"/>
<path d="M182.956 151.718C183.103 151.444 183.079 151.16 182.956 151.084L181.748 150.388C181.723 150.374 181.694 150.367 181.665 150.367C181.637 150.367 181.608 150.374 181.582 150.388L180.474 150.814L180.11 150.037C180.091 149.999 180.062 149.967 180.024 149.947L178.817 149.246C178.665 149.161 178.414 149.355 178.315 149.677L177.562 152.145C177.52 152.293 177.434 152.426 177.315 152.524L175.634 153.826C175.364 154.03 175.26 154.532 175.454 154.669L176.671 155.55C176.713 155.593 176.744 155.646 176.76 155.704C176.777 155.762 176.779 155.823 176.766 155.881L176.477 158.283C176.453 158.458 176.505 158.576 176.586 158.619L177.794 159.32C177.888 159.372 178.03 159.32 178.158 159.164L179.664 157.241C179.696 157.188 179.74 157.144 179.793 157.114C179.846 157.083 179.906 157.067 179.967 157.066L181.478 157.231C181.715 157.264 181.995 156.829 181.952 156.502L181.663 154.432C181.65 154.279 181.683 154.126 181.758 153.992L182.956 151.718Z" fill="#00A9DC"/>
<path opacity="0.15" d="M182.942 151.074C182.916 151.063 182.887 151.056 182.859 151.056C182.83 151.056 182.802 151.063 182.776 151.074L181.09 151.719C181.068 151.729 181.044 151.736 181.02 151.737C180.995 151.738 180.971 151.734 180.948 151.725C180.925 151.716 180.905 151.702 180.888 151.685C180.87 151.667 180.857 151.647 180.848 151.624L180.46 150.8L181.568 150.378C181.594 150.365 181.622 150.359 181.651 150.359C181.68 150.359 181.708 150.365 181.734 150.378L182.942 151.074Z" fill="white"/>
<path opacity="0.15" d="M178.755 152.836C178.713 152.985 178.627 153.117 178.509 153.215L176.828 154.513C176.75 154.573 176.689 154.651 176.648 154.74L175.44 154.039C175.483 153.952 175.545 153.874 175.62 153.812L177.301 152.514C177.419 152.417 177.505 152.287 177.548 152.14L178.755 152.836Z" fill="white"/>
<path opacity="0.1" d="M180.02 149.942C179.868 149.843 179.612 150.037 179.508 150.369L178.755 152.836L177.547 152.135L178.3 149.668C178.4 149.346 178.651 149.151 178.802 149.237C178.836 149.237 179.859 149.852 180.015 149.938L180.02 149.942Z" fill="#001B35"/>
<path opacity="0.25" d="M177.865 156.241L176.666 155.55L175.449 154.669C175.307 154.565 175.326 154.281 175.449 154.049L176.657 154.75C176.534 154.977 176.515 155.266 176.657 155.37L177.865 156.241Z" fill="#001B35"/>
<path opacity="0.15" d="M177.689 158.974C177.689 159.149 177.718 159.268 177.808 159.315L176.595 158.614C176.548 158.574 176.513 158.521 176.494 158.461C176.476 158.402 176.475 158.338 176.491 158.278L176.78 155.877C176.792 155.82 176.791 155.762 176.776 155.706C176.761 155.65 176.733 155.598 176.695 155.555L177.893 156.246C177.932 156.288 177.96 156.339 177.975 156.394C177.989 156.45 177.991 156.508 177.978 156.563L177.689 158.974Z" fill="#001B35"/>
<path d="M180.095 150.028L180.848 151.629C180.857 151.652 180.87 151.672 180.888 151.69C180.905 151.707 180.925 151.721 180.948 151.73C180.971 151.738 180.995 151.742 181.02 151.741C181.044 151.74 181.068 151.734 181.09 151.723L182.776 151.079C183.041 150.975 183.15 151.354 182.956 151.719L181.739 154.001C181.664 154.136 181.631 154.289 181.644 154.442L181.933 156.512C181.976 156.838 181.696 157.274 181.459 157.241L179.953 157.056C179.892 157.057 179.832 157.074 179.779 157.105C179.726 157.135 179.682 157.179 179.65 157.232L178.163 159.154C177.921 159.462 177.642 159.353 177.689 158.97L177.978 156.568C177.992 156.51 177.99 156.448 177.974 156.39C177.957 156.332 177.926 156.28 177.884 156.237L176.666 155.361C176.472 155.219 176.581 154.721 176.846 154.513L178.528 153.215C178.647 153.117 178.733 152.985 178.774 152.836L179.527 150.369C179.627 149.976 179.972 149.777 180.095 150.028Z" fill="#00A9DC"/>
<path opacity="0.5" d="M180.095 150.028L180.848 151.629C180.857 151.652 180.87 151.672 180.888 151.69C180.905 151.707 180.925 151.721 180.948 151.73C180.971 151.738 180.995 151.742 181.02 151.741C181.044 151.74 181.068 151.734 181.09 151.723L182.776 151.079C183.041 150.975 183.15 151.354 182.956 151.719L181.739 154.001C181.664 154.136 181.631 154.289 181.644 154.442L181.933 156.512C181.976 156.838 181.696 157.274 181.459 157.241L179.953 157.056C179.892 157.057 179.832 157.074 179.779 157.105C179.726 157.135 179.682 157.179 179.65 157.232L178.163 159.154C177.921 159.462 177.642 159.353 177.689 158.97L177.978 156.568C177.992 156.51 177.99 156.448 177.974 156.39C177.957 156.332 177.926 156.28 177.884 156.237L176.666 155.361C176.472 155.219 176.581 154.721 176.846 154.513L178.528 153.215C178.647 153.117 178.733 152.985 178.774 152.836L179.527 150.369C179.627 149.976 179.972 149.777 180.095 150.028Z" fill="white"/>
<path d="M191.424 146.84C191.571 146.565 191.543 146.286 191.424 146.21L190.221 145.514C190.195 145.501 190.166 145.494 190.136 145.494C190.106 145.494 190.077 145.501 190.051 145.514L188.947 145.94L188.578 145.164C188.563 145.125 188.534 145.093 188.497 145.074L187.29 144.373C187.138 144.287 186.887 144.482 186.787 144.804L186.001 147.285C185.958 147.433 185.873 147.565 185.755 147.664L184.074 148.962C183.804 149.17 183.7 149.672 183.889 149.81L185.111 150.691C185.153 150.734 185.183 150.787 185.199 150.845C185.214 150.903 185.215 150.964 185.201 151.022L184.917 153.423C184.893 153.599 184.94 153.717 185.021 153.76L186.214 154.437C186.309 154.489 186.446 154.437 186.579 154.281L188.085 152.358C188.117 152.305 188.161 152.261 188.214 152.231C188.267 152.2 188.327 152.183 188.388 152.183L189.894 152.367C190.131 152.396 190.411 151.965 190.368 151.638L190.084 149.568C190.068 149.415 190.102 149.261 190.179 149.128L191.424 146.84Z" fill="#00A9DC"/>
<path opacity="0.15" d="M191.396 146.206C191.37 146.194 191.342 146.188 191.313 146.188C191.284 146.188 191.256 146.194 191.23 146.206L189.53 146.85C189.508 146.861 189.483 146.867 189.459 146.868C189.434 146.869 189.409 146.865 189.386 146.856C189.363 146.847 189.342 146.834 189.324 146.816C189.307 146.799 189.293 146.778 189.284 146.755L188.9 145.931L190.003 145.509C190.03 145.496 190.059 145.49 190.089 145.49C190.118 145.49 190.147 145.496 190.174 145.509L191.396 146.206Z" fill="white"/>
<path opacity="0.15" d="M187.209 147.963C187.167 148.111 187.081 148.243 186.963 148.342L185.267 149.653C185.19 149.714 185.128 149.792 185.087 149.881L183.889 149.18C183.936 149.093 183.999 149.016 184.074 148.952L185.755 147.655C185.873 147.555 185.958 147.424 186.001 147.276L187.209 147.963Z" fill="white"/>
<path opacity="0.1" d="M188.474 145.069C188.322 144.97 188.066 145.164 187.962 145.495L187.209 147.963L186.001 147.286L186.755 144.818C186.854 144.496 187.105 144.302 187.257 144.387C187.29 144.387 188.313 145.003 188.464 145.083L188.474 145.069Z" fill="#001B35"/>
<path opacity="0.25" d="M186.319 151.363L185.12 150.677L183.903 149.796C183.766 149.692 183.785 149.407 183.903 149.175L185.116 149.876C184.992 150.104 184.974 150.392 185.116 150.492L186.319 151.363Z" fill="#001B35"/>
<path opacity="0.15" d="M186.125 154.096C186.101 154.276 186.153 154.394 186.238 154.442L185.03 153.741C184.95 153.693 184.903 153.58 184.926 153.404L185.215 151.003C185.226 150.947 185.224 150.888 185.209 150.832C185.195 150.777 185.167 150.725 185.13 150.681L186.328 151.368C186.367 151.41 186.395 151.461 186.41 151.516C186.425 151.571 186.426 151.629 186.413 151.685L186.125 154.096Z" fill="#001B35"/>
<path d="M188.545 145.154L189.298 146.755C189.307 146.778 189.321 146.799 189.338 146.816C189.356 146.834 189.377 146.847 189.4 146.856C189.423 146.865 189.448 146.869 189.473 146.868C189.497 146.867 189.522 146.861 189.544 146.85L191.23 146.206C191.495 146.101 191.604 146.48 191.41 146.84L190.193 149.128C190.116 149.261 190.083 149.415 190.098 149.568L190.382 151.638C190.43 151.965 190.15 152.396 189.909 152.367L188.403 152.183C188.341 152.184 188.281 152.2 188.228 152.231C188.175 152.262 188.131 152.305 188.099 152.358L186.593 154.281C186.352 154.589 186.072 154.48 186.12 154.096L186.409 151.695C186.421 151.636 186.419 151.575 186.403 151.517C186.386 151.459 186.356 151.406 186.314 151.363L185.097 150.487C184.903 150.345 185.007 149.848 185.277 149.639L186.958 148.342C187.077 148.244 187.163 148.111 187.204 147.963L187.957 145.495C188.081 145.102 188.426 144.917 188.545 145.154Z" fill="#00A9DC"/>
<path opacity="0.5" d="M188.545 145.154L189.298 146.755C189.307 146.778 189.321 146.799 189.338 146.816C189.356 146.834 189.377 146.847 189.4 146.856C189.423 146.865 189.448 146.869 189.473 146.868C189.497 146.867 189.522 146.861 189.544 146.85L191.23 146.206C191.495 146.101 191.604 146.48 191.41 146.84L190.193 149.128C190.116 149.261 190.083 149.415 190.098 149.568L190.382 151.638C190.43 151.965 190.15 152.396 189.909 152.367L188.403 152.183C188.341 152.184 188.281 152.2 188.228 152.231C188.175 152.262 188.131 152.305 188.099 152.358L186.593 154.281C186.352 154.589 186.072 154.48 186.12 154.096L186.409 151.695C186.421 151.636 186.419 151.575 186.403 151.517C186.386 151.459 186.356 151.406 186.314 151.363L185.097 150.487C184.903 150.345 185.007 149.848 185.277 149.639L186.958 148.342C187.077 148.244 187.163 148.111 187.204 147.963L187.957 145.495C188.081 145.102 188.426 144.917 188.545 145.154Z" fill="white"/>
<path d="M199.864 141.967C200.006 141.692 199.983 141.413 199.864 141.337L198.642 140.655C198.615 140.643 198.586 140.637 198.557 140.637C198.528 140.637 198.499 140.643 198.472 140.655L197.363 141.081L196.999 140.304C196.984 140.266 196.955 140.234 196.918 140.214L195.711 139.513C195.559 139.428 195.303 139.622 195.209 139.944L194.455 142.412C194.413 142.56 194.327 142.692 194.209 142.791L192.523 144.089C192.258 144.297 192.149 144.794 192.343 144.936L193.56 145.817C193.604 145.859 193.636 145.912 193.653 145.97C193.669 146.028 193.67 146.09 193.655 146.149L193.366 148.55C193.366 148.725 193.395 148.839 193.475 148.886L194.683 149.587C194.782 149.639 194.92 149.587 195.052 149.431L196.554 147.508C196.585 147.455 196.631 147.411 196.684 147.38C196.738 147.349 196.799 147.333 196.861 147.333L198.363 147.518C198.604 147.546 198.884 147.115 198.836 146.788L198.552 144.718C198.537 144.566 198.569 144.412 198.642 144.278L199.864 141.967Z" fill="#00A9DC"/>
<path opacity="0.15" d="M199.85 141.332C199.823 141.321 199.794 141.315 199.764 141.315C199.735 141.315 199.706 141.321 199.679 141.332L197.998 141.976C197.976 141.987 197.951 141.994 197.927 141.995C197.902 141.996 197.877 141.992 197.854 141.983C197.831 141.974 197.81 141.96 197.792 141.943C197.775 141.926 197.761 141.905 197.752 141.882L197.363 141.058L198.472 140.636C198.497 140.623 198.526 140.616 198.554 140.616C198.583 140.616 198.612 140.623 198.637 140.636L199.85 141.332Z" fill="white"/>
<path opacity="0.15" d="M195.687 143.084C195.644 143.234 195.558 143.367 195.44 143.468L193.759 144.766C193.682 144.827 193.619 144.905 193.574 144.993L192.367 144.292C192.413 144.205 192.476 144.128 192.551 144.065L194.233 142.767C194.35 142.668 194.436 142.536 194.479 142.388L195.687 143.084Z" fill="white"/>
<path opacity="0.1" d="M196.928 140.181C196.776 140.082 196.516 140.276 196.416 140.603L195.687 143.085L194.479 142.388L195.232 139.921C195.332 139.599 195.583 139.405 195.734 139.49C195.767 139.49 196.785 140.106 196.942 140.186L196.928 140.181Z" fill="#001B35"/>
<path opacity="0.25" d="M194.768 146.49L193.574 145.803L192.343 144.917C192.206 144.813 192.22 144.529 192.343 144.297L193.551 144.998C193.432 145.225 193.413 145.514 193.551 145.614L194.768 146.49Z" fill="#001B35"/>
<path opacity="0.15" d="M194.578 149.223C194.555 149.403 194.607 149.521 194.692 149.568L193.484 148.867C193.404 148.82 193.357 148.706 193.375 148.531L193.664 146.125C193.677 146.07 193.676 146.012 193.662 145.957C193.648 145.902 193.621 145.851 193.584 145.808L194.777 146.495C194.815 146.538 194.841 146.589 194.856 146.644C194.871 146.698 194.873 146.756 194.863 146.812L194.578 149.223Z" fill="#001B35"/>
<path d="M196.998 140.281L197.752 141.882C197.761 141.905 197.775 141.925 197.792 141.943C197.81 141.96 197.831 141.974 197.854 141.983C197.877 141.992 197.902 141.996 197.927 141.995C197.951 141.993 197.976 141.987 197.998 141.976L199.679 141.332C199.949 141.228 200.053 141.607 199.864 141.967L198.642 144.254C198.568 144.389 198.537 144.542 198.552 144.695L198.836 146.765C198.883 147.091 198.604 147.522 198.363 147.494L196.861 147.309C196.799 147.309 196.738 147.326 196.684 147.356C196.63 147.387 196.585 147.431 196.553 147.484L195.052 149.407C194.81 149.715 194.531 149.606 194.578 149.223L194.863 146.821C194.877 146.763 194.876 146.702 194.86 146.644C194.845 146.586 194.814 146.533 194.773 146.49L193.551 145.609C193.361 145.472 193.465 144.97 193.735 144.766L195.417 143.468C195.534 143.369 195.62 143.237 195.663 143.089L196.416 140.622C196.534 140.229 196.88 140.03 196.998 140.281Z" fill="#00A9DC"/>
<path opacity="0.5" d="M196.998 140.281L197.752 141.882C197.761 141.905 197.775 141.925 197.792 141.943C197.81 141.96 197.831 141.974 197.854 141.983C197.877 141.992 197.902 141.996 197.927 141.995C197.951 141.993 197.976 141.987 197.998 141.976L199.679 141.332C199.949 141.228 200.053 141.607 199.864 141.967L198.642 144.254C198.568 144.389 198.537 144.542 198.552 144.695L198.836 146.765C198.883 147.091 198.604 147.522 198.363 147.494L196.861 147.309C196.799 147.309 196.738 147.326 196.684 147.356C196.63 147.387 196.585 147.431 196.553 147.484L195.052 149.407C194.81 149.715 194.531 149.606 194.578 149.223L194.863 146.821C194.877 146.763 194.876 146.702 194.86 146.644C194.845 146.586 194.814 146.533 194.773 146.49L193.551 145.609C193.361 145.472 193.465 144.97 193.735 144.766L195.417 143.468C195.534 143.369 195.62 143.237 195.663 143.089L196.416 140.622C196.534 140.229 196.88 140.03 196.998 140.281Z" fill="white"/>
<path d="M208.313 137.093C208.46 136.818 208.436 136.539 208.313 136.463L207.11 135.762C207.083 135.75 207.054 135.744 207.025 135.744C206.996 135.744 206.967 135.75 206.94 135.762L205.831 136.189L205.467 135.412C205.451 135.372 205.423 135.339 205.386 135.317C205.235 135.237 204.212 134.64 204.179 134.621C204.027 134.536 203.771 134.73 203.672 135.052L202.919 137.519C202.878 137.667 202.794 137.799 202.677 137.898L200.991 139.196C200.726 139.404 200.617 139.902 200.811 140.044L202.028 140.925C202.071 140.966 202.103 141.018 202.119 141.075C202.136 141.133 202.137 141.194 202.123 141.252L201.834 143.653C201.834 143.828 201.863 143.946 201.943 143.994L203.151 144.695C203.246 144.747 203.388 144.695 203.516 144.538L205.022 142.616C205.053 142.563 205.097 142.519 205.15 142.489C205.203 142.458 205.263 142.441 205.325 142.44L206.831 142.625C207.072 142.653 207.352 142.222 207.304 141.896L207.016 139.826C207.004 139.673 207.037 139.52 207.11 139.385L208.313 137.093Z" fill="#00A9DC"/>
<path opacity="0.15" d="M208.299 136.458C208.273 136.447 208.245 136.44 208.216 136.44C208.188 136.44 208.159 136.447 208.133 136.458L206.447 137.103C206.425 137.113 206.401 137.12 206.377 137.121C206.353 137.122 206.328 137.118 206.306 137.109C206.283 137.1 206.262 137.086 206.245 137.069C206.228 137.051 206.214 137.031 206.206 137.008L205.817 136.184L206.926 135.762C206.951 135.748 206.98 135.741 207.009 135.741C207.038 135.741 207.066 135.748 207.091 135.762L208.299 136.458Z" fill="white"/>
<path opacity="0.15" d="M204.117 138.211C204.074 138.36 203.988 138.494 203.871 138.595L202.189 139.892C202.112 139.954 202.049 140.031 202.005 140.12L200.797 139.419C200.842 139.332 200.903 139.255 200.977 139.191L202.658 137.894C202.779 137.796 202.867 137.664 202.909 137.515L204.117 138.211Z" fill="white"/>
<path opacity="0.1" d="M205.381 135.322C205.23 135.222 204.969 135.417 204.87 135.743L204.117 138.211L202.909 137.515L203.662 135.047C203.757 134.725 204.013 134.531 204.164 134.616C204.197 134.616 205.216 135.232 205.372 135.312L205.381 135.322Z" fill="#001B35"/>
<path opacity="0.25" d="M203.222 141.602L202.028 140.915L200.811 140.034C200.669 139.93 200.688 139.646 200.811 139.414L202.019 140.115C201.896 140.342 201.882 140.631 202.019 140.731L203.222 141.602Z" fill="#001B35"/>
<path opacity="0.15" d="M203.028 144.349C203.028 144.529 203.061 144.647 203.146 144.695L201.929 143.97C201.848 143.923 201.801 143.809 201.82 143.634L202.109 141.228C202.12 141.172 202.119 141.115 202.105 141.06C202.091 141.005 202.065 140.954 202.028 140.91L203.222 141.597C203.259 141.64 203.286 141.691 203.3 141.746C203.314 141.801 203.315 141.859 203.302 141.914L203.028 144.349Z" fill="#001B35"/>
<path d="M205.452 135.407L206.206 137.008C206.215 137.031 206.229 137.052 206.246 137.069C206.264 137.087 206.285 137.1 206.308 137.109C206.331 137.118 206.356 137.122 206.381 137.121C206.405 137.12 206.43 137.114 206.452 137.103L208.133 136.459C208.403 136.354 208.507 136.733 208.313 137.093L207.096 139.381C207.023 139.515 206.99 139.668 207.001 139.821L207.29 141.891C207.337 142.218 207.058 142.649 206.816 142.62L205.31 142.436C205.249 142.437 205.189 142.453 205.136 142.484C205.083 142.515 205.039 142.558 205.007 142.611L203.501 144.534C203.264 144.842 202.985 144.733 203.028 144.349L203.316 141.948C203.332 141.889 203.331 141.827 203.314 141.769C203.297 141.711 203.266 141.658 203.222 141.616L202.005 140.735C201.81 140.598 201.919 140.096 202.185 139.892L203.871 138.595C203.987 138.495 204.073 138.363 204.117 138.216L204.87 135.743C204.988 135.355 205.334 135.156 205.452 135.407Z" fill="#00A9DC"/>
<path opacity="0.5" d="M205.452 135.407L206.206 137.008C206.215 137.031 206.229 137.052 206.246 137.069C206.264 137.087 206.285 137.1 206.308 137.109C206.331 137.118 206.356 137.122 206.381 137.121C206.405 137.12 206.43 137.114 206.452 137.103L208.133 136.459C208.403 136.354 208.507 136.733 208.313 137.093L207.096 139.381C207.023 139.515 206.99 139.668 207.001 139.821L207.29 141.891C207.337 142.218 207.058 142.649 206.816 142.62L205.31 142.436C205.249 142.437 205.189 142.453 205.136 142.484C205.083 142.515 205.039 142.558 205.007 142.611L203.501 144.534C203.264 144.842 202.985 144.733 203.028 144.349L203.316 141.948C203.332 141.889 203.331 141.827 203.314 141.769C203.297 141.711 203.266 141.658 203.222 141.616L202.005 140.735C201.81 140.598 201.919 140.096 202.185 139.892L203.871 138.595C203.987 138.495 204.073 138.363 204.117 138.216L204.87 135.743C204.988 135.355 205.334 135.156 205.452 135.407Z" fill="white"/>
<path d="M216.768 132.22C216.914 131.945 216.891 131.666 216.768 131.585L215.56 130.889C215.534 130.877 215.506 130.871 215.477 130.871C215.448 130.871 215.42 130.877 215.394 130.889L214.286 131.315L213.921 130.538C213.902 130.501 213.874 130.469 213.841 130.444C213.684 130.363 212.661 129.766 212.633 129.747C212.477 129.662 212.226 129.852 212.126 130.178L211.373 132.646C211.332 132.795 211.246 132.927 211.127 133.025L209.422 134.318C209.152 134.526 209.048 135.023 209.242 135.166L210.459 136.046C210.502 136.088 210.533 136.14 210.55 136.197C210.567 136.255 210.568 136.315 210.554 136.373L210.274 138.76C210.274 138.936 210.303 139.054 210.383 139.101L211.591 139.802C211.686 139.854 211.828 139.802 211.956 139.646L213.462 137.723C213.493 137.67 213.537 137.627 213.59 137.596C213.644 137.565 213.704 137.549 213.765 137.548L215.271 137.733C215.508 137.761 215.787 137.33 215.744 137.003L215.456 134.934C215.442 134.781 215.475 134.627 215.55 134.493L216.768 132.22Z" fill="#00A9DC"/>
<path opacity="0.15" d="M216.753 131.585C216.727 131.573 216.699 131.566 216.67 131.566C216.641 131.566 216.613 131.573 216.587 131.585L214.901 132.23C214.879 132.24 214.855 132.247 214.831 132.248C214.807 132.249 214.782 132.245 214.759 132.236C214.737 132.227 214.716 132.213 214.699 132.196C214.682 132.178 214.668 132.158 214.66 132.135L214.271 131.311L215.379 130.884C215.405 130.871 215.434 130.864 215.462 130.864C215.491 130.864 215.52 130.871 215.545 130.884L216.753 131.585Z" fill="white"/>
<path opacity="0.15" d="M212.571 133.338C212.527 133.487 212.439 133.621 212.32 133.721L210.639 135.019C210.563 135.08 210.501 135.158 210.459 135.246L209.251 134.545C209.294 134.458 209.356 134.38 209.431 134.318L211.112 133.02C211.231 132.922 211.317 132.79 211.359 132.641L212.571 133.338Z" fill="white"/>
<path opacity="0.1" d="M213.836 130.444C213.684 130.349 213.424 130.543 213.324 130.87L212.571 133.337L211.359 132.641L212.112 130.174C212.211 129.852 212.467 129.657 212.618 129.743C212.652 129.743 213.67 130.358 213.826 130.439L213.836 130.444Z" fill="#001B35"/>
<path opacity="0.25" d="M211.676 136.743L210.478 136.056L209.26 135.175C209.118 135.071 209.137 134.787 209.26 134.555L210.468 135.256C210.345 135.483 210.326 135.772 210.468 135.871L211.676 136.743Z" fill="#001B35"/>
<path opacity="0.15" d="M211.482 139.476C211.482 139.656 211.51 139.774 211.6 139.817L210.369 139.116C210.288 139.068 210.241 138.955 210.26 138.775L210.549 136.373C210.56 136.318 210.559 136.26 210.544 136.205C210.529 136.15 210.501 136.099 210.463 136.056L211.662 136.743C211.699 136.786 211.726 136.837 211.74 136.892C211.754 136.947 211.755 137.005 211.742 137.06L211.482 139.476Z" fill="#001B35"/>
<path d="M213.907 130.534L214.66 132.135C214.669 132.158 214.683 132.178 214.701 132.196C214.718 132.213 214.739 132.227 214.762 132.236C214.785 132.245 214.81 132.249 214.835 132.248C214.86 132.246 214.884 132.24 214.906 132.229L216.587 131.585C216.853 131.481 216.962 131.86 216.767 132.22L215.55 134.498C215.475 134.632 215.442 134.785 215.456 134.938L215.744 137.008C215.787 137.335 215.508 137.766 215.271 137.737L213.765 137.553C213.703 137.554 213.643 137.57 213.59 137.601C213.537 137.632 213.493 137.675 213.462 137.728L211.956 139.651C211.719 139.959 211.439 139.845 211.482 139.466L211.771 137.065C211.784 137.006 211.783 136.945 211.766 136.887C211.75 136.829 211.719 136.776 211.676 136.733L210.459 135.852C210.265 135.715 210.374 135.213 210.639 135.009L212.325 133.712C212.439 133.61 212.523 133.479 212.566 133.333L213.32 130.861C213.443 130.482 213.788 130.278 213.907 130.534Z" fill="#00A9DC"/>
<path opacity="0.5" d="M213.907 130.534L214.66 132.135C214.669 132.158 214.683 132.178 214.701 132.196C214.718 132.213 214.739 132.227 214.762 132.236C214.785 132.245 214.81 132.249 214.835 132.248C214.86 132.246 214.884 132.24 214.906 132.229L216.587 131.585C216.853 131.481 216.962 131.86 216.767 132.22L215.55 134.498C215.475 134.632 215.442 134.785 215.456 134.938L215.744 137.008C215.787 137.335 215.508 137.766 215.271 137.737L213.765 137.553C213.703 137.554 213.643 137.57 213.59 137.601C213.537 137.632 213.493 137.675 213.462 137.728L211.956 139.651C211.719 139.959 211.439 139.845 211.482 139.466L211.771 137.065C211.784 137.006 211.783 136.945 211.766 136.887C211.75 136.829 211.719 136.776 211.676 136.733L210.459 135.852C210.265 135.715 210.374 135.213 210.639 135.009L212.325 133.712C212.439 133.61 212.523 133.479 212.566 133.333L213.32 130.861C213.443 130.482 213.788 130.278 213.907 130.534Z" fill="white"/>
<path d="M219.993 15.1474L216.204 16.7719L215.394 20.8118C215.371 20.9228 215.317 21.0252 215.239 21.1075C215.161 21.1897 215.062 21.2486 214.952 21.2776C214.842 21.3066 214.727 21.3046 214.618 21.2717C214.51 21.2387 214.413 21.1763 214.338 21.0913L211.624 17.9891L207.527 18.4627C207.41 18.4805 207.29 18.4634 207.182 18.4137C207.074 18.3639 206.984 18.2836 206.921 18.1828C206.859 18.0819 206.827 17.9649 206.83 17.8463C206.834 17.7277 206.872 17.6127 206.94 17.5155L209.047 13.9776L207.333 10.2313C207.291 10.1307 207.277 10.0207 207.293 9.91295C207.308 9.80515 207.352 9.7035 207.421 9.6187C207.489 9.5339 207.579 9.46907 207.681 9.43102C207.783 9.39298 207.894 9.38312 208.001 9.40249L212.017 10.3166L215.048 7.52698C215.131 7.44915 215.235 7.39635 215.347 7.37464C215.458 7.35292 215.574 7.36317 215.68 7.40421C215.787 7.44524 215.879 7.5154 215.948 7.60665C216.016 7.69789 216.057 7.80652 216.066 7.92008L216.44 12.0216L220.03 14.0392C220.136 14.0903 220.225 14.1711 220.286 14.2716C220.346 14.3722 220.376 14.4882 220.372 14.6056C220.368 14.723 220.33 14.8367 220.263 14.9329C220.196 15.0291 220.102 15.1036 219.993 15.1474Z" fill="#E0E0E0"/>
<path d="M199.111 8.12824C199.078 8.17194 199.038 8.21027 198.993 8.2419C198.912 8.29974 198.817 8.33394 198.719 8.34063C198.62 8.34733 198.521 8.32625 198.434 8.27979L196.326 7.17154L194.214 8.27979C194.126 8.32625 194.028 8.34733 193.929 8.34063C193.83 8.33394 193.735 8.29974 193.655 8.2419C193.574 8.18441 193.511 8.10463 193.474 8.0122C193.437 7.91977 193.427 7.81862 193.447 7.72093L193.849 5.35286L192.139 3.69048C192.068 3.62145 192.018 3.53368 191.994 3.4373C191.971 3.34092 191.975 3.23987 192.007 3.14582C192.036 3.05159 192.092 2.96771 192.168 2.90398C192.243 2.84025 192.335 2.79929 192.433 2.78588L194.801 2.44487L195.857 0.304141C195.901 0.215732 195.968 0.141324 196.052 0.0894051C196.136 0.0374861 196.232 0.010146 196.331 0.0105015C196.429 0.0112305 196.525 0.0390181 196.609 0.0908162C196.692 0.142614 196.76 0.216421 196.804 0.304141L197.861 2.44487L200.229 2.78588C200.327 2.80019 200.419 2.84158 200.494 2.90539C200.57 2.9692 200.626 3.05288 200.656 3.14697C200.687 3.24106 200.691 3.34182 200.667 3.43786C200.643 3.53391 200.593 3.62141 200.522 3.69048L198.813 5.35286L199.22 7.72093C199.238 7.86571 199.199 8.0119 199.111 8.12824ZM192.371 3.20739L192.343 3.26896C192.331 3.30433 192.33 3.34234 192.339 3.37845C192.348 3.41456 192.368 3.44725 192.395 3.47262L194.223 5.25814L193.792 7.77776C193.786 7.81485 193.791 7.85283 193.805 7.8875C193.82 7.92218 193.843 7.9522 193.874 7.97425C193.904 7.99631 193.94 8.00953 193.978 8.01247C194.015 8.0154 194.052 8.00794 194.086 7.99089L196.35 6.80212L198.609 7.99089C198.641 8.00959 198.678 8.01944 198.715 8.01944C198.753 8.01944 198.79 8.00959 198.822 7.99089C198.854 7.96932 198.878 7.93894 198.892 7.90356C198.907 7.86818 198.91 7.82937 198.903 7.79197L198.472 5.27235L200.3 3.48682C200.326 3.46083 200.345 3.42812 200.354 3.39224C200.363 3.35635 200.362 3.31865 200.352 3.28317C200.341 3.24715 200.32 3.21501 200.292 3.19063C200.263 3.16625 200.228 3.15069 200.191 3.14582L197.657 2.7764L196.501 0.46517C196.486 0.430758 196.46 0.401671 196.428 0.381479C196.396 0.361287 196.359 0.350869 196.321 0.351503C196.287 0.355271 196.254 0.367677 196.226 0.387557C196.198 0.407438 196.175 0.434143 196.16 0.46517L195.033 2.75746L192.499 3.12688C192.448 3.1372 192.403 3.16584 192.371 3.20739Z" fill="#E0E0E0"/>
<path d="M172.735 39.7752C169.169 37.7102 164.267 37.9897 158.849 41.1155C147.956 47.4146 139.104 62.8402 139.104 75.5756C139.104 81.9836 141.349 86.4687 144.963 88.5669C145.801 89.0405 149.078 90.9349 149.078 90.9349C148.925 92.3762 148.427 93.7594 147.626 94.9679C146.826 96.1763 145.747 97.1744 144.48 97.8781C144.271 97.9965 144.399 98.2002 144.584 98.3043L149.59 101.198C149.657 101.238 149.734 101.261 149.812 101.264C154.743 101.264 160.45 97.9491 162.041 91.0628C162.638 90.7786 163.239 90.4708 163.85 90.1156C174.743 83.8212 183.595 68.3909 183.595 55.6602C183.595 49.2475 181.355 44.7671 177.741 42.6548L172.735 39.7752Z" fill="#37474F"/>
<path d="M163.85 44.0047C152.957 50.299 144.105 65.7293 144.105 78.4601C144.105 87.1035 148.174 92.2754 154.198 92.749C153.971 95.4959 153.17 98.5839 149.462 100.767C149.168 100.943 149.552 101.269 149.798 101.269C154.729 101.269 160.436 97.954 162.027 91.0677C162.624 90.7835 163.225 90.4756 163.836 90.1204C174.729 83.8261 183.581 68.3958 183.581 55.665C183.581 42.9343 174.753 37.7104 163.85 44.0047Z" fill="#455A64"/>
<path d="M149.476 100.767C149.296 100.881 149.377 101.046 149.528 101.16L144.584 98.3184C144.399 98.2047 144.271 98.0105 144.48 97.8874C145.75 97.1823 146.831 96.1812 147.631 94.9692C148.432 93.7572 148.928 92.37 149.078 90.9253L149.623 91.2473L150.125 91.541C151.38 92.2308 152.77 92.6381 154.198 92.7345C153.976 95.4957 153.17 98.5836 149.476 100.767Z" fill="#263238"/>
<path d="M161.766 80.4538C161.241 80.0796 160.975 79.4071 160.975 78.4362C160.987 77.4246 161.254 76.4324 161.752 75.5519C162.204 74.6718 162.893 73.9354 163.741 73.4254C164.546 72.9612 165.208 72.906 165.726 73.2596C166.242 73.6101 166.502 74.2731 166.502 75.2441C166.487 76.2734 166.215 77.2826 165.711 78.1805C165.27 79.0695 164.587 79.8163 163.741 80.3354C162.955 80.7853 162.297 80.828 161.766 80.4538ZM161.061 54.7082L166.417 51.6155L165.522 69.6696L161.956 71.7298L161.061 54.7082Z" fill="#FAFAFA"/>
<path opacity="0.2" d="M166.483 88.3915C172.299 84.129 177.315 77.3705 180.384 70.1147C174.568 74.382 169.552 81.1357 166.483 88.3915Z" fill="#001B35"/>
<path d="M203.672 113.067C201.654 113.09 200.153 111.679 199.21 109.903C205.254 102.472 209.341 92.5734 209.341 83.9157C209.341 77.4983 207.091 72.9895 203.468 70.9056L198.471 68.026C194.905 65.9658 190.008 66.25 184.595 69.3711C173.701 75.6701 164.85 91.0957 164.85 103.831C164.85 110.239 167.09 114.724 170.703 116.832C171.546 117.306 174.867 119.228 175.686 119.707C179.257 121.786 184.168 121.511 189.596 118.376C191.049 117.53 192.429 116.564 193.721 115.487C197.387 118.39 201.858 115.226 203.629 113.711C203.866 113.512 203.894 113.067 203.672 113.067Z" fill="#E0E0E0"/>
<path d="M180.858 120.763C174.255 120.763 170.159 115.388 170.159 106.739C170.159 94.1223 178.949 78.7962 189.747 72.5492C192.769 70.8063 195.658 69.9207 198.334 69.9207C204.931 69.9207 209.033 75.2914 209.033 83.9444C209.033 92.2184 205.178 102.103 198.973 109.733L198.845 109.894L198.94 110.074C200.053 112.172 201.668 113.346 203.496 113.389C203.483 113.429 203.461 113.465 203.43 113.493C202.17 114.573 199.67 116.377 197.079 116.377C195.925 116.383 194.805 115.988 193.91 115.26L193.716 115.108L193.522 115.264C192.242 116.323 190.877 117.273 189.439 118.106C186.423 119.854 183.534 120.763 180.858 120.763Z" fill="#FAFAFA"/>
<path d="M198.334 69.6128V70.2285C204.742 70.2285 208.725 75.4856 208.725 83.9396C208.725 92.1521 204.898 101.961 198.737 109.538L198.476 109.856L198.67 110.216C199.693 112.148 201.133 113.337 202.786 113.635C201.474 114.682 199.3 116.079 197.079 116.079C195.994 116.084 194.941 115.712 194.1 115.028L193.712 114.72L193.328 115.037C192.062 116.094 190.711 117.044 189.288 117.879C186.314 119.593 183.477 120.465 180.858 120.465C174.45 120.465 170.467 115.208 170.467 106.73C170.467 94.2123 179.186 78.9951 189.885 72.805C192.859 71.0905 195.696 70.219 198.315 70.219V69.6128H198.334ZM198.315 69.6128C195.682 69.6128 192.717 70.47 189.577 72.284C178.684 78.5783 169.832 94.0039 169.832 106.739C169.832 115.809 174.317 121.071 180.839 121.071C183.472 121.071 186.437 120.214 189.577 118.4C191.03 117.554 192.41 116.587 193.702 115.511C194.649 116.284 195.837 116.703 197.06 116.695C199.769 116.695 202.36 114.8 203.61 113.735C203.847 113.536 203.875 113.091 203.653 113.091H203.605C201.616 113.091 200.129 111.693 199.191 109.927C205.235 102.496 209.322 92.5973 209.322 83.9396C209.322 74.8699 204.837 69.6128 198.315 69.6128Z" fill="#00A9DC"/>
<path d="M188.582 97.4849C189.157 96.1066 189.817 94.7652 190.557 93.4687C191.068 92.5788 191.533 91.6636 191.95 90.7265C192.237 90.0838 192.39 89.3891 192.4 88.6852C192.4 87.738 192.116 87.1554 191.547 86.9281C190.979 86.7007 190.231 86.8665 189.288 87.4017C188.356 87.9485 187.54 88.6726 186.887 89.533C186.157 90.486 185.561 91.5346 185.116 92.6493L181.635 91.9342C182.413 89.8773 183.517 87.9585 184.902 86.2508C186.259 84.5749 187.912 83.1635 189.781 82.0877C191.991 80.8248 193.761 80.4301 195.09 80.9037C196.419 81.3773 197.085 82.7319 197.089 84.9673C197.095 85.9765 196.964 86.9818 196.7 87.9558C196.467 88.8381 196.149 89.696 195.753 90.5181C195.379 91.2853 194.891 92.1994 194.299 93.2603C193.725 94.2393 193.206 95.2496 192.746 96.2867C192.428 97.0355 192.267 97.8414 192.272 98.6548L187.929 101.165C187.911 99.9079 188.133 98.659 188.582 97.4849ZM188.109 109.671C187.583 109.297 187.318 108.624 187.318 107.649C187.329 106.637 187.597 105.645 188.095 104.764C188.547 103.886 189.234 103.15 190.079 102.638C190.889 102.164 191.547 102.117 192.068 102.472C192.589 102.827 192.845 103.49 192.845 104.461C192.829 105.489 192.557 106.497 192.054 107.393C191.612 108.283 190.928 109.03 190.079 109.548C189.317 110.003 188.663 110.04 188.133 109.671H188.109Z" fill="#455A64"/>
<path d="M88.5457 75.9119L66.7595 88.5289L75.4124 103.239C75.5792 103.636 75.87 103.969 76.2413 104.187C77.2737 104.769 83.3881 108.312 83.7244 108.506C83.9866 108.657 84.2797 108.747 84.5817 108.769C84.8837 108.791 85.1867 108.744 85.4679 108.632C85.7492 108.52 86.0013 108.345 86.2055 108.122C86.4096 107.898 86.5604 107.631 86.6466 107.341L96.043 80.2596L88.5457 75.9119Z" fill="#00A9DC"/>
<path opacity="0.2" d="M88.5457 75.9119L66.7595 88.5289L75.4124 103.239C75.5792 103.636 75.87 103.969 76.2413 104.187C77.2737 104.769 83.3881 108.312 83.7244 108.506C83.9866 108.657 84.2797 108.747 84.5817 108.769C84.8837 108.791 85.1867 108.744 85.4679 108.632C85.7492 108.52 86.0013 108.345 86.2055 108.122C86.4096 107.898 86.5604 107.631 86.6466 107.341L96.043 80.2596L88.5457 75.9119Z" fill="#001B35"/>
<path d="M74.2568 92.8575L82.9098 107.568C83.0751 107.942 83.3513 108.255 83.7008 108.467C84.0504 108.678 84.4565 108.778 84.8642 108.751C85.2719 108.724 85.6615 108.572 85.9803 108.317C86.2991 108.061 86.5317 107.714 86.6466 107.322L96.0431 80.2405L74.2568 92.8575Z" fill="#00A9DC"/>
<path d="M112.852 0.465302L30.694 47.8882C30.1432 48.2453 29.6845 48.7274 29.3553 49.2952C29.0261 49.8631 28.8357 50.5007 28.7996 51.1562V108.174C28.8345 108.828 29.0245 109.463 29.354 110.028C29.6834 110.593 30.1428 111.071 30.694 111.423L37.4525 115.212C38.0402 115.508 38.689 115.662 39.3469 115.662C40.0049 115.662 40.6537 115.508 41.2414 115.212L123.404 67.761C123.954 67.4032 124.412 66.9209 124.741 66.3531C125.07 65.7854 125.261 65.1483 125.298 64.4931V7.47478C125.263 6.82175 125.073 6.18649 124.743 5.62153C124.414 5.05658 123.955 4.57814 123.404 4.22579L116.65 0.436885C116.059 0.144766 115.407 -0.00481634 114.748 0.00011824C114.088 0.00505282 113.439 0.164366 112.852 0.465302Z" fill="#00A9DC"/>
<path opacity="0.3" d="M125.265 7.1291C125.114 6.18187 124.342 5.84087 123.399 6.38079L41.2461 53.8179C40.6863 54.1675 40.2275 54.6573 39.9152 55.2388L29.3962 49.2476C29.7119 48.7008 30.1577 48.2404 30.6939 47.9072L112.856 0.465353C113.444 0.170737 114.093 0.017334 114.751 0.017334C115.409 0.017334 116.057 0.170737 116.645 0.465353L123.399 4.25426C123.896 4.57356 124.32 4.99506 124.642 5.49074C124.963 5.98642 125.176 6.54492 125.265 7.1291Z" fill="white"/>
<path d="M39.3564 114.322V57.299C39.3926 56.6442 39.583 56.0073 39.9122 55.4401C40.2415 54.873 40.7002 54.3918 41.2509 54.0358L123.404 6.62233C124.441 6.02085 125.298 6.50867 125.298 7.71165V64.711C125.261 65.3662 125.07 66.0034 124.741 66.5711C124.412 67.1388 123.954 67.6211 123.404 67.979L41.2414 115.411C40.1995 116.027 39.3564 115.525 39.3564 114.322Z" fill="#00A9DC"/>
<path opacity="0.2" d="M41.241 115.193C40.6511 115.482 40.0032 115.631 39.3466 115.631C38.69 115.631 38.0421 115.482 37.4521 115.193L30.6984 111.404C30.1476 111.054 29.6884 110.577 29.3589 110.014C29.0294 109.451 28.8392 108.817 28.804 108.165V51.1418C28.8376 50.469 29.0448 49.8163 29.4054 49.2473L39.9149 55.2291C39.5685 55.7862 39.3757 56.4251 39.3561 57.0809V114.099C39.3561 115.203 40.1328 115.837 41.241 115.193Z" fill="#001B35"/>
<path d="M62.407 68.6656L61.5876 68.192C61.2739 68.0126 60.9189 67.9182 60.5575 67.9182C60.1961 67.9182 59.841 68.0126 59.5274 68.192L54.5213 71.0811V64.2421L63.7899 58.895C64.2238 58.639 64.5832 58.2739 64.8325 57.8361C65.0817 57.3983 65.2121 56.9029 65.2107 56.3991V52.5628C65.2121 52.059 65.0817 51.5636 64.8325 51.1257C64.5832 50.6879 64.2238 50.3229 63.7899 50.0668C63.3516 49.8132 62.8542 49.6797 62.3478 49.6797C61.8414 49.6797 61.3439 49.8132 60.9056 50.0668L48.0517 57.4884C47.2908 57.9271 46.6589 58.5588 46.2199 59.3196C45.7809 60.0804 45.5502 60.9435 45.5511 61.8219V97.4329C45.5489 97.9375 45.6789 98.4339 45.9282 98.8726C46.1775 99.3114 46.5373 99.6772 46.9719 99.9336C47.4105 100.186 47.9078 100.319 48.414 100.319C48.9203 100.319 49.4176 100.186 49.8562 99.9336L53.0626 98.0865C53.4972 97.8301 53.857 97.4643 54.1063 97.0255C54.3556 96.5868 54.4856 96.0904 54.4834 95.5858V81.6142L62.3738 77.0581C62.6864 76.8765 62.9459 76.616 63.1263 76.3026C63.3066 75.9893 63.4015 75.6341 63.4015 75.2725V70.4606C63.408 70.1004 63.3195 69.7449 63.1449 69.4298C62.9703 69.1147 62.7158 68.8511 62.407 68.6656Z" fill="#E0E0E0"/>
<path opacity="0.1" d="M50.1499 99.7632L49.8752 99.9242C49.4366 100.176 48.9394 100.309 48.4335 100.309C47.9276 100.308 47.4306 100.175 46.9923 99.9223C46.554 99.6696 46.1898 99.3063 45.936 98.8686C45.6823 98.4309 45.5479 97.9342 45.5464 97.4283V61.8173C45.5476 60.9903 45.7543 60.1766 46.1479 59.4492L49.0322 61.1116C48.6369 61.8383 48.4301 62.6525 48.4307 63.4797V98.7591C48.4315 98.9602 48.4848 99.1576 48.5853 99.3317C48.6857 99.5059 48.8299 99.6508 49.0035 99.7522C49.1771 99.8536 49.3742 99.908 49.5753 99.9099C49.7763 99.9118 49.9744 99.8613 50.1499 99.7632Z" fill="#001B35"/>
<path d="M54.5213 64.2422V74.4154L62.3975 69.8734C62.503 69.8114 62.623 69.7785 62.7453 69.778C62.8676 69.7775 62.9878 69.8095 63.0937 69.8706C63.1997 69.9318 63.2875 70.0199 63.3482 70.1261C63.4089 70.2323 63.4404 70.3526 63.4395 70.4749V75.2963C63.4393 75.656 63.3447 76.0093 63.1651 76.3209C62.9856 76.6326 62.7275 76.8917 62.4165 77.0724L54.5213 81.6285V95.5954C54.5233 96.0987 54.3931 96.5936 54.1438 97.0308C53.8944 97.468 53.5347 97.832 53.1005 98.0866L50.183 99.7726C50.0078 99.8744 49.8089 99.928 49.6063 99.9282C49.4037 99.9284 49.2046 99.8751 49.0292 99.7737C48.8538 99.6723 48.7083 99.5264 48.6074 99.3508C48.5064 99.1751 48.4536 98.9759 48.4544 98.7733V63.4796C48.4544 62.6014 48.6855 61.7387 49.1245 60.9781C49.5634 60.2174 50.1947 59.5856 50.955 59.1461L63.6858 51.7956C63.8443 51.7041 64.0242 51.6559 64.2073 51.656C64.3904 51.6561 64.5702 51.7044 64.7287 51.7962C64.8872 51.8879 65.0187 52.0197 65.1099 52.1784C65.2012 52.3372 65.2491 52.5171 65.2487 52.7002V56.4086C65.2499 56.9105 65.1194 57.4039 64.87 57.8394C64.6206 58.2749 64.2613 58.6373 63.8278 58.8903L54.5213 64.2422Z" fill="#FAFAFA"/>
<path d="M82.0191 42.7304C81.8732 42.236 81.617 41.7811 81.2699 41.3999C80.9228 41.0188 80.4937 40.7213 80.0151 40.5298C79.5364 40.3383 79.0206 40.2579 78.5063 40.2945C77.9921 40.3311 77.4929 40.4839 77.0462 40.7413L73.8588 42.5836C73.4482 42.8202 73.0915 43.1401 72.8118 43.5226C72.532 43.9051 72.3353 44.3419 72.2343 44.8049L62.7288 88.0837C62.6544 88.4484 62.6961 88.8274 62.8482 89.1672C63.0003 89.507 63.255 89.7906 63.5766 89.9781L64.4481 90.4802C64.718 90.636 65.0243 90.7181 65.3361 90.7181C65.6478 90.7181 65.9541 90.636 66.2241 90.4802L70.0651 88.2636C70.5996 87.9362 71.0351 87.4697 71.3249 86.9138C71.6489 86.3526 71.8868 85.746 72.0306 85.1141L73.5746 77.2237L81.3419 72.7386L82.147 75.945C82.2609 76.363 82.5215 76.7262 82.8811 76.968C83.2032 77.1574 85.4433 78.4409 85.7654 78.6351C85.9734 78.7241 86.2016 78.7553 86.4259 78.7253C86.6502 78.6953 86.8622 78.6052 87.0394 78.4646L91.7282 75.7555L82.0191 42.7304ZM75.7059 66.3306L77.3682 57.7724L77.4677 57.2988L79.2295 64.2941L75.7059 66.3306Z" fill="#E0E0E0"/>
<path opacity="0.1" d="M85.7278 78.6117C85.3063 78.3607 83.194 77.153 82.8862 76.9683C82.5266 76.7265 82.266 76.3634 82.1521 75.9453L81.3469 72.7389L83.4971 71.498L85.0364 77.6077C85.1499 78.0094 85.393 78.3624 85.7278 78.6117Z" fill="#001B35"/>
<path opacity="0.1" d="M82.1142 65.9566L79.2299 64.2895L77.468 57.299C77.468 57.299 77.468 57.299 77.468 57.2706C77.6196 56.5886 77.7711 55.8118 77.9416 54.9499C78.1453 53.8748 78.3347 52.7286 78.5147 51.502C78.7199 52.4871 78.9236 53.3948 79.1257 54.2252C79.3293 55.0541 79.5188 55.7645 79.6987 56.3612L82.1142 65.9566Z" fill="#001B35"/>
<path opacity="0.1" d="M65.6652 89.5046C65.6395 89.6182 65.6438 89.7366 65.6776 89.8481C65.7115 89.9597 65.7737 90.0605 65.8582 90.1407C65.9428 90.2209 66.0467 90.2778 66.1598 90.3058C66.2729 90.3337 66.3914 90.3318 66.5035 90.3002V90.3381L66.2336 90.4897C65.9636 90.6456 65.6573 90.7276 65.3456 90.7276C65.0338 90.7276 64.7275 90.6456 64.4575 90.4897L63.5766 89.9782C63.255 89.7907 63.0003 89.507 62.8482 89.1672C62.6961 88.8274 62.6544 88.4485 62.7288 88.0837L72.2295 44.8239C72.3167 44.4237 72.4773 44.0431 72.7031 43.7014L75.5874 45.3685C75.3589 45.707 75.1981 46.0866 75.1138 46.4863L65.6652 89.5046Z" fill="#001B35"/>
<path d="M91.7331 75.7699L87.0396 78.479C86.5139 78.7821 86.0923 78.8389 85.7703 78.6495C85.4113 78.407 85.1509 78.0442 85.0362 77.6264L83.4969 71.5074L73.551 77.2333L72.0118 85.1237C71.8634 85.7564 71.6241 86.3642 71.3014 86.9282C71.0131 87.4838 70.5772 87.9492 70.0416 88.2733L66.6458 90.2388C66.5315 90.3037 66.401 90.3342 66.2698 90.3266C66.1387 90.3191 66.0125 90.2738 65.9064 90.1963C65.8004 90.1188 65.719 90.0122 65.672 89.8895C65.6251 89.7668 65.6145 89.6332 65.6417 89.5047L75.0903 46.4721C75.1919 46.01 75.3889 45.5742 75.6687 45.1925C75.9484 44.8108 76.3047 44.4917 76.7148 44.2556L79.7791 42.4843C79.9969 42.3588 80.2404 42.2842 80.4913 42.2664C80.7421 42.2486 80.9937 42.2878 81.2271 42.3813C81.4606 42.4748 81.6698 42.62 81.839 42.806C82.0082 42.992 82.133 43.214 82.204 43.4552L91.7331 75.7699ZM82.114 65.9661L79.6986 56.3517C79.5186 55.7597 79.3291 55.0446 79.1255 54.2157C78.9218 53.3869 78.7182 52.4776 78.5145 51.4925C78.3393 52.7191 78.1451 53.8605 77.9462 54.9404C77.7473 56.0202 77.5483 56.9485 77.3684 57.7536L74.9719 70.0676L82.114 65.9661Z" fill="#FAFAFA"/>
<path d="M114.182 59.1933C115.009 57.7714 115.736 56.2933 116.356 54.7698C116.997 53.1992 117.535 51.5887 117.966 49.9484C118.402 48.2909 118.734 46.6079 118.961 44.9091C119.193 43.1934 119.31 41.464 119.312 39.7325C119.362 37.1869 119.036 34.6478 118.345 32.1973C117.852 30.3558 116.908 28.6662 115.598 27.2812C115.186 26.886 114.724 26.5454 114.225 26.2677L111.383 24.6195C110.484 24.098 109.471 23.8007 108.433 23.7528C106.766 23.6581 104.918 24.1964 102.891 25.3678C100.77 26.6136 98.8897 28.2307 97.3406 30.1419C95.6321 32.2157 94.1935 34.4977 93.0591 36.9335C90.6181 42.1867 89.3448 47.9067 89.327 53.6994C89.278 56.2487 89.6068 58.7911 90.3027 61.2441C90.7941 63.091 91.7419 64.7848 93.0591 66.1696C93.47 66.5769 93.9335 66.9274 94.4373 67.2116C94.911 67.4768 96.7817 68.5661 97.2459 68.8361C98.1569 69.3633 99.1826 69.6608 100.234 69.7028C101.901 69.7849 103.752 69.2402 105.785 68.0688C106.65 67.5694 107.472 66.9991 108.243 66.3638L109.418 67.7136C109.578 67.8779 109.759 68.0197 109.958 68.1351C110.289 68.3293 112.648 69.6839 112.828 69.7928C113.144 69.9872 113.514 70.0767 113.884 70.0485C114.57 69.9667 115.228 69.732 115.812 69.3618L120.789 66.4917L114.182 59.1933ZM109.74 47.3056C109.438 48.9766 108.954 50.6093 108.295 52.1744C107.718 53.5613 106.944 54.858 105.998 56.0248C105.134 57.0897 104.085 57.9898 102.901 58.6818C102.033 59.2438 101.034 59.5703 100.002 59.629C99.4832 58.7878 99.1131 57.8633 98.9083 56.8963C98.544 55.2228 98.3755 53.5126 98.4062 51.8002C98.3973 49.9037 98.5654 48.0105 98.9083 46.1453C99.2023 44.4752 99.6787 42.8425 100.329 41.2765C100.912 39.8835 101.69 38.5806 102.64 37.4071C103.51 36.328 104.57 35.4164 105.766 34.717C106.618 34.1721 107.598 33.8587 108.608 33.8076C109.133 34.6561 109.507 35.5885 109.716 36.5641C110.088 38.24 110.264 39.9532 110.242 41.6696C110.248 43.566 110.079 45.4589 109.74 47.3246V47.3056Z" fill="#E0E0E0"/>
<path opacity="0.1" d="M97.1275 68.7841C96.526 68.4383 94.8731 67.4769 94.4373 67.2306C93.9335 66.9464 93.47 66.596 93.0591 66.1887C91.7419 64.8038 90.7941 63.1101 90.3027 61.2631C89.6068 58.8102 89.278 56.2677 89.327 53.7184C89.327 50.802 89.6542 47.8947 90.3027 45.0513C90.8805 42.4618 91.7183 39.9373 92.8034 37.5161L95.6877 39.1832C93.4097 44.2885 92.2255 49.8141 92.2114 55.4045C92.1619 57.9522 92.4907 60.4932 93.187 62.9444C93.6775 64.7931 94.6254 66.4887 95.9434 67.8747C96.3036 68.2204 96.7006 68.5253 97.1275 68.7841Z" fill="#001B35"/>
<path opacity="0.1" d="M111.18 35.039C110.901 34.6898 110.553 34.4022 110.158 34.1943C109.762 33.9864 109.328 33.8628 108.883 33.8313C108.802 33.8313 108.717 33.8313 108.636 33.8313C109.159 34.6788 109.532 35.6095 109.74 36.583C110.102 38.2536 110.27 39.9604 110.242 41.6696C110.249 43.5754 110.081 45.4779 109.74 47.353C109.438 49.0239 108.954 50.6566 108.295 52.2217C107.718 53.6086 106.945 54.9054 105.998 56.0722C105.134 57.137 104.085 58.0371 102.901 58.7292C102.033 59.2912 101.034 59.6176 100.002 59.6764C100.106 59.8427 100.221 60.001 100.348 60.15C100.626 60.5019 100.976 60.7901 101.375 60.9952C101.774 61.2002 102.212 61.3174 102.659 61.3388C103.771 61.3332 104.857 61.0041 105.785 60.3915C106.969 59.6995 108.019 58.7994 108.883 57.7346C109.827 56.5664 110.6 55.2699 111.18 53.8841C111.839 52.3176 112.323 50.6832 112.624 49.0106C112.966 47.1356 113.134 45.2331 113.126 43.3273C113.154 41.6228 112.985 39.9209 112.624 38.2549C112.399 37.0854 111.904 35.9845 111.18 35.039Z" fill="#001B35"/>
<path opacity="0.1" d="M109.063 65.6724C108.793 65.9186 108.523 66.146 108.243 66.3828L109.418 67.7326C109.578 67.8968 109.76 68.0386 109.958 68.1541C110.28 68.3435 112.501 69.6176 112.8 69.7975C112.616 69.6849 112.447 69.5497 112.298 69.395L109.063 65.6724Z" fill="#001B35"/>
<path d="M120.789 66.5107L115.812 69.3855C115.229 69.7517 114.572 69.9846 113.889 70.0675C113.591 70.0823 113.293 70.0294 113.018 69.913C112.744 69.7965 112.499 69.6194 112.302 69.395L109.063 65.6724C108.061 66.5942 106.962 67.4041 105.785 68.0878C103.752 69.2592 101.902 69.8039 100.234 69.7218C98.6201 69.6624 97.0877 68.996 95.9434 67.8558C94.6271 66.4685 93.6794 64.7734 93.187 62.9254C92.4949 60.4798 92.1662 57.9457 92.2114 55.4045C92.2291 49.6118 93.5024 43.8918 95.9434 38.6385C97.0797 36.1973 98.5216 33.9104 100.234 31.8327C101.785 29.9226 103.665 28.3057 105.785 27.0587C107.812 25.8841 109.659 25.3458 111.326 25.4437C112.934 25.5204 114.455 26.1963 115.589 27.3381C116.902 28.723 117.846 30.4149 118.336 32.259C119.031 34.7007 119.36 37.2322 119.312 39.7705C119.312 41.5018 119.197 43.2312 118.966 44.9471C118.734 46.6536 118.399 48.3443 117.962 50.01C117.528 51.6488 116.989 53.2578 116.347 54.8266C115.728 56.351 115.002 57.8293 114.173 59.2502L120.789 66.5107ZM98.4062 51.8287C98.3756 53.5426 98.5441 55.2544 98.9083 56.9295C99.1314 58.0926 99.6174 59.1893 100.329 60.1359C100.609 60.4857 100.959 60.7724 101.358 60.9773C101.756 61.1822 102.193 61.3005 102.64 61.3246C103.752 61.3185 104.838 60.9894 105.766 60.3774C106.95 59.6853 107.999 58.7853 108.864 57.7204C109.809 56.5524 110.584 55.2559 111.165 53.8699C111.816 52.3025 112.293 50.6682 112.586 48.9965C112.93 47.1218 113.099 45.2191 113.088 43.3131C113.118 41.6086 112.95 39.9063 112.586 38.2407C112.364 37.0773 111.878 35.9803 111.165 35.0343C110.886 34.685 110.537 34.3974 110.141 34.1895C109.745 33.9816 109.31 33.8581 108.864 33.8266C107.764 33.8176 106.686 34.134 105.766 34.736C104.569 35.4322 103.509 36.3424 102.64 37.4214C101.692 38.596 100.914 39.8987 100.329 41.2908C99.6809 42.8576 99.2045 44.49 98.9083 46.1595C98.5659 48.0233 98.3978 49.9148 98.4062 51.8097V51.8287Z" fill="#FAFAFA"/>
</svg>
