<svg width="82" height="95" viewBox="0 0 43 49" fill="none" xmlns="http://www.w3.org/2000/svg">
<path d="M41.6745 11.6818L21.3416 0L0.955593 11.6818L0 12.2632V36.7896L0.955593 37.3711L21.2885 49.0529L41.6214 37.3711L42.577 36.7896V12.2632L41.6745 11.6818ZM38.7546 34.5696L21.2885 44.6127L14.7055 40.8598V31.3452C16.5105 32.8252 18.7933 33.671 21.2885 33.671C24.1553 33.671 26.7566 32.5081 28.6147 30.658L25.9603 28.0151C24.7923 29.178 23.1466 29.918 21.3416 29.918C17.7316 29.918 14.7586 26.9579 14.7586 23.3635C14.7586 19.7691 17.7316 16.8091 21.3416 16.8091C23.1466 16.8091 24.7923 17.5491 25.9603 18.712L28.6678 16.0162C26.8097 14.1661 24.2083 13.0032 21.3416 13.0032C15.608 13.0032 10.9893 17.6548 10.9893 23.3107V38.534L3.87546 34.5696V14.4833L21.3416 4.44013L38.8077 14.4833V34.5696H38.7546Z" fill="white"/>
<path d="M31.6938 23.3637C31.6938 26.2181 30.5258 28.8082 28.6677 30.6582L25.9602 28.0153C27.1282 26.8524 27.8714 25.2138 27.8714 23.4166C27.8714 21.6194 27.1282 19.9808 25.9602 18.8179L28.6677 16.1221C30.5258 17.9721 31.6938 20.5093 31.6938 23.3637Z" fill="#00A9DC"/>
</svg>
