<svg width="13" height="14" viewBox="0 0 13 14" fill="none" xmlns="http://www.w3.org/2000/svg">
<path d="M12.5619 10.273L8.89642 5.69884V1.24796H9.91024V0.327881H3.82727V1.24796H4.8411V5.69884L1.1756 10.273C0.954499 10.5488 0.821778 10.8747 0.79212 11.2147C0.762463 11.5546 0.837025 11.8954 1.00756 12.1993C1.17809 12.5032 1.43794 12.7584 1.75836 12.9366C2.07878 13.1148 2.44728 13.2091 2.82307 13.209H10.9139C11.2897 13.2091 11.6582 13.1148 11.9786 12.9366C12.2991 12.7584 12.5589 12.5032 12.7294 12.1993C12.9 11.8954 12.9745 11.5546 12.9449 11.2147C12.9152 10.8747 12.7825 10.5488 12.5614 10.273H12.5619ZM5.85493 5.99786V1.24796H7.88259V5.99786L9.23757 7.6885H4.49994L5.85493 5.99786ZM10.9144 12.2889H2.82358C2.6349 12.2887 2.44995 12.2412 2.28913 12.1517C2.12832 12.0621 1.99789 11.934 1.91226 11.7814C1.82662 11.6288 1.7891 11.4577 1.80384 11.287C1.81858 11.1163 1.88501 10.9526 1.99579 10.814L3.76289 8.60858H9.97462L11.7422 10.814C11.853 10.9526 11.9194 11.1163 11.9342 11.287C11.9489 11.4577 11.9114 11.6288 11.8258 11.7814C11.7401 11.934 11.6097 12.0621 11.4489 12.1517C11.2881 12.2412 11.1031 12.2887 10.9144 12.2889Z" fill="#00A9DC"/>
</svg>
