<svg width="166" height="141" viewBox="0 0 166 141" fill="none" xmlns="http://www.w3.org/2000/svg">
<g clip-path="url(#clip0)">
<path d="M132.638 43.7436L82.923 60.2665V55.9811L83.1431 55.8928L165.312 28.5461V32.8757L132.638 43.7436Z" fill="black"/>
<path d="M84.9926 26.4255C85.8293 26.0721 86.3577 25.542 86.3577 24.9235C86.3577 23.9957 85.1688 23.2447 83.6275 23.1121C83.4514 23.0238 83.2753 22.9796 83.0991 22.8912V0.75769L165.268 28.5461L83.0991 55.8928V26.8673L83.6275 26.7348C84.156 26.6906 84.5963 26.6023 84.9926 26.4255Z" fill="#242424"/>
<path d="M132.638 66.3632C132.638 68.9255 132.638 70.9577 132.638 71.8855C132.638 83.372 82.923 85.3158 82.923 94.7259C82.923 89.9988 70.4611 87.1714 57.9993 84.0788V84.0347V78.5565C70.4611 81.649 82.8789 84.4764 82.8789 89.2036C82.923 79.7935 132.638 77.8938 132.638 66.3632Z" fill="#1A1A1A"/>
<path d="M132.638 58.6759C132.638 61.415 132.638 64.1099 132.638 66.4072C132.638 77.8937 82.923 79.8375 82.923 89.2476C82.923 84.5205 70.4611 81.693 58.0433 78.6005V70.8692C70.5051 73.9617 82.923 76.7892 82.923 81.5163C82.923 80.7653 83.2312 80.1026 83.8036 79.4399C90.4089 71.7086 132.638 69.2788 132.638 58.6759Z" fill="#F7931E"/>
<path d="M132.638 56.246C132.638 57.0412 132.638 57.8364 132.638 58.6758C132.638 69.2787 90.3648 71.7527 83.7596 79.4398L82.8789 79.0864C82.9229 69.6321 132.594 67.7325 132.638 56.246Z" fill="#F7931E"/>
<path d="M132.638 56.2019C132.638 56.2461 132.638 56.2461 132.638 56.2019C132.55 67.6884 82.923 69.6323 82.923 79.0423C82.923 74.3152 70.4611 71.4878 58.0433 68.3953V51.8724V51.8282L82.923 60.2664L132.638 43.6993C132.638 44.362 132.638 50.0611 132.638 56.2019Z" fill="#1A1A1A"/>
<path d="M83.6275 23.1122C85.1687 23.2889 86.3577 24.0399 86.3577 24.9235C86.3577 25.542 85.8293 26.0722 84.9926 26.4256L83.6715 26.7348C83.4954 26.7348 83.3193 26.779 83.1431 26.779V25.2769L85.2568 24.7468C84.9045 24.0399 84.3321 23.4656 83.6275 23.1122Z" fill="black"/>
<path d="M85.2568 24.791L83.1431 25.3211V23.1122C83.3193 23.1122 83.4954 23.1122 83.6715 23.1564C84.3321 23.4656 84.9045 24.0399 85.2568 24.791Z" fill="#F7931E"/>
<path d="M82.923 79.0426L83.8036 79.396C83.2312 80.0587 82.923 80.7214 82.923 81.4724C82.923 76.7453 70.4611 73.9178 58.0433 70.8253V68.3955C70.4611 71.5322 82.923 74.3596 82.923 79.0426Z" fill="#F7931E"/>
<path d="M83.6716 26.7347L83.1431 26.8673V26.7789C83.3193 26.7789 83.4954 26.7789 83.6716 26.7347Z" fill="#1A1A1A"/>
<path d="M83.6275 23.1119C83.4514 23.1119 83.2753 23.0677 83.0991 23.0677V22.891C83.3193 22.9793 83.4514 23.0235 83.6275 23.1119Z" fill="#F7931E"/>
<path d="M83.1431 26.8673V55.8927L82.9229 55.9811L32.9874 39.0606L83.1431 26.8673Z" fill="#333333"/>
<path d="M83.1432 26.7787V26.8671L32.9875 39.0604L30.2573 38.1769L80.2809 25.9835C80.8974 26.4695 81.9102 26.7787 83.011 26.7787C83.0551 26.7787 83.0991 26.7787 83.1432 26.7787Z" fill="#1A1A1A"/>
<path d="M83.1431 25.277V26.7791C83.0991 26.7791 83.0991 26.7791 83.055 26.7791C81.9101 26.7791 80.8973 26.4698 80.3249 25.9838L83.1431 25.277Z" fill="black"/>
<path d="M83.1431 23.1121V25.3211L80.2808 26.028C79.9285 25.7187 79.7084 25.3653 79.7084 25.0118C79.7084 23.9957 81.2056 23.1563 83.055 23.1563C83.055 23.068 83.0991 23.068 83.1431 23.1121Z" fill="#F7931E"/>
<path d="M83.1431 22.9355V23.1122C83.0991 23.1122 83.0991 23.1122 83.055 23.1122C81.2056 23.1122 79.7084 23.9516 79.7084 24.9677C79.7084 25.3653 79.9286 25.7188 80.2808 25.9838L30.2573 38.1772L26.8226 36.9843C26.8666 36.9843 26.9106 36.9402 26.9106 36.9402L81.1615 22.8471C81.4698 22.7588 81.778 22.7146 82.0863 22.7146C82.4386 22.7588 82.7908 22.803 83.1431 22.9355Z" fill="#F7931E"/>
<path d="M83.1431 0.757812V22.9355C82.7908 22.8472 82.4826 22.7588 82.1303 22.7588C81.8221 22.7588 81.5138 22.803 81.2056 22.8914L26.9547 36.9844C26.9107 36.9844 26.8666 36.9844 26.8666 37.0286L0.753967 28.1928L83.1431 0.757812Z" fill="#333333"/>
<path d="M49.1042 48.8242L33.1636 43.4344L32.7673 43.3018V43.2576L32.8994 39.1049L32.9874 39.0607L82.9229 55.9811V60.2665L58.0433 51.8725L49.1042 48.8242Z" fill="#242424"/>
<path d="M58.0433 51.8727V68.4397C55.0049 67.6887 51.9664 66.8935 49.1042 66.0982V48.8685L58.0433 51.8727Z" fill="#333333"/>
<path d="M58.0433 78.6008V84.0789V84.1231C55.0049 83.3721 51.9665 82.5768 49.1483 81.7816V76.2593C51.9665 77.0545 55.0049 77.8497 58.0433 78.6008Z" fill="#333333"/>
<path d="M58.0433 70.8696V78.6008C55.0049 77.8498 51.9664 77.0546 49.1042 76.2594V68.5281C51.9664 69.3233 55.0049 70.1185 58.0433 70.8696Z" fill="#F7931E"/>
<path d="M58.0433 68.4396V70.8695C55.0049 70.1184 51.9664 69.3232 49.1042 68.528V66.0981C51.9664 66.8934 55.0049 67.6444 58.0433 68.4396Z" fill="#F7931E"/>
<path d="M49.1042 76.2591V81.7814C40.2532 79.2632 33.1636 76.2591 33.1636 71.9296C33.1636 70.9576 33.1636 68.9696 33.1636 66.4072C33.1636 70.7367 40.2532 73.6967 49.1042 76.2591Z" fill="#1A1A1A"/>
<path d="M49.1042 68.5278V76.259C40.2532 73.7409 33.1636 70.7367 33.1636 66.4072C33.1636 64.1099 33.1636 61.415 33.1636 58.6759C33.1636 63.0054 40.2532 65.9654 49.1042 68.5278Z" fill="#F7931E"/>
<path d="M49.1042 66.054V68.4838C40.2532 65.9657 33.1636 62.9615 33.1636 58.632C33.1636 57.8368 33.1636 56.9974 33.1636 56.2021C33.1636 60.5758 40.2532 63.5358 49.1042 66.054Z" fill="#F7931E"/>
<path d="M49.1042 48.8241V66.0539C40.2532 63.5357 33.1636 60.5315 33.1636 56.202C33.1636 49.8844 33.1636 44.0086 33.1636 43.4343L49.1042 48.8241Z" fill="#1A1A1A"/>
<path d="M32.9875 39.0607H32.8994L32.7673 43.2577L27.9235 41.6231V39.9885C27.9235 39.2374 28.4078 38.6189 29.1564 38.4422L30.3013 38.1771L32.9875 39.0607Z" fill="#1A1A1A"/>
<path d="M30.2573 38.1769L29.1124 38.442C28.4078 38.6187 27.8794 39.2814 27.8794 39.9883V41.6229L25.7217 40.8718V38.442C25.7217 37.7352 26.162 37.1167 26.8226 36.9399L30.2573 38.1769Z" fill="#F7931E"/>
<path d="M30.1252 69.4998C30.1252 70.7368 30.1252 92.0309 30.1252 92.0309C29.7729 92.4286 29.2886 92.6936 28.7161 92.8703V92.8262C28.7161 92.8262 28.7161 71.1344 28.7161 70.6484C28.7161 70.1625 28.584 69.544 28.1877 69.1463C26.9987 69.6765 24.4888 69.3672 23.6521 67.9977C23.8723 67.3792 24.2246 66.8932 24.5328 66.584L24.6209 66.5398C24.8851 66.9374 25.2374 67.2467 25.6777 67.4676C26.03 67.6443 26.3823 67.7326 26.8226 67.7326C27.7033 67.7326 28.4959 67.2908 28.9803 66.584C29.5087 67.1583 30.1252 68.2628 30.1252 69.4998Z" fill="#FE9F00"/>
<path d="M29.3766 65.1262C29.3766 65.6563 29.2004 66.1865 28.9362 66.5841C28.4518 67.291 27.6592 67.7328 26.7785 67.7328C26.3822 67.7328 25.9859 67.6444 25.6336 67.4677C26.5143 67.0701 27.1308 66.1423 27.1308 65.1262C27.1308 64.0659 26.5143 63.1823 25.6336 62.7847C25.6776 62.7847 25.6776 62.7405 25.7217 62.7405C26.0299 62.608 26.3822 62.5197 26.7785 62.5197C27.1748 62.5197 27.5271 62.608 27.8794 62.7847C28.7601 63.1823 29.3766 64.0659 29.3766 65.1262Z" fill="#B61B1C"/>
<path d="M28.7161 92.8703C26.7785 93.533 24.0043 93.1354 23.3438 92.0309C23.3438 92.0309 23.3438 70.7368 23.3438 69.4998C23.3438 68.9696 23.4759 68.4837 23.608 68.0419C24.4006 69.3672 26.9547 69.7207 28.1436 69.1905C28.5399 69.5881 28.672 70.2066 28.672 70.6926C28.672 71.1786 28.672 92.8703 28.672 92.8703H28.7161Z" fill="#F7931E"/>
<path d="M27.8794 41.6672V62.7404V62.7846C27.5271 62.6079 27.1748 62.5196 26.7785 62.5196C26.3822 62.5196 26.074 62.6079 25.7217 62.7404V40.9161L27.8794 41.6672Z" fill="#F7931E"/>
<path d="M0.753967 28.1929L26.8226 37.0286C26.1621 37.2495 25.7217 37.868 25.7217 38.5307V40.9605L0.753967 32.4782V28.1929Z" fill="#242424"/>
<path d="M25.6777 62.7847C26.5584 63.2265 27.1748 64.11 27.1748 65.1261C27.1748 66.1423 26.5584 67.07 25.6777 67.4676C25.2373 67.2467 24.885 66.9375 24.6208 66.5399C24.3566 66.1423 24.1805 65.6563 24.1805 65.1261C24.1805 64.11 24.797 63.2265 25.6777 62.7847Z" fill="#F44337"/>
<path d="M82.967 101.971L83.8037 103.65L85.6531 103.915L84.288 105.196L84.6403 107.052L82.967 106.168L81.3377 107.052L81.6459 105.196L80.3249 103.915L82.1744 103.65L82.967 101.971Z" fill="#F7931E"/>
<path d="M89.8804 102.59L90.4969 103.871L91.9061 104.047L90.8932 105.019L91.1575 106.433L89.8804 105.77L88.6475 106.433L88.9117 105.019L87.8989 104.047L89.264 103.871L89.8804 102.59Z" fill="#F7931E"/>
<path d="M96.1334 102.59L96.7499 103.871L98.159 104.047L97.1462 105.019L97.4104 106.433L96.1334 105.77L94.9004 106.433L95.1646 105.019L94.1518 104.047L95.5169 103.871L96.1334 102.59Z" fill="#F7931E"/>
<path d="M76.0535 102.59L76.67 103.871L78.0791 104.047L77.0663 105.019L77.3305 106.433L76.0535 105.77L74.8206 106.433L75.0848 105.019L74.072 104.047L75.437 103.871L76.0535 102.59Z" fill="#F7931E"/>
<path d="M69.8005 102.59L70.417 103.871L71.8261 104.047L70.8133 105.019L71.0775 106.433L69.8005 105.77L68.5676 106.433L68.8318 105.019L67.819 104.047L69.184 103.871L69.8005 102.59Z" fill="#F7931E"/>
</g>
<defs>
<clipPath id="clip0">
<rect width="164.558" height="140.179" fill="white" transform="translate(0.753967 0.757812)"/>
</clipPath>
</defs>
</svg>
