<svg width="35" height="35" viewBox="0 0 35 35" fill="none" xmlns="http://www.w3.org/2000/svg">
<circle cx="17.1503" cy="17.1911" r="17.1503" fill="white"/>
<path d="M20.9138 9.20297C19.5018 9.20421 18.1481 9.76612 17.1503 10.7652C16.6576 10.2637 16.0704 9.86484 15.4227 9.59148C14.775 9.31811 14.0796 9.17569 13.3766 9.17242C12.6736 9.16915 11.9769 9.3051 11.3267 9.57243C10.6765 9.83976 10.0857 10.2332 9.58831 10.73C9.09091 11.2268 8.6968 11.8172 8.4287 12.4671C8.16061 13.1169 8.02384 13.8135 8.02628 14.5165C8.02872 15.2195 8.17032 15.9151 8.44292 16.5631C8.71552 17.2111 9.11373 17.7987 9.61456 18.292L17.1503 25.8278L24.6861 18.292C25.4305 17.5467 25.9371 16.5974 26.1419 15.5641C26.3468 14.5308 26.2406 13.46 25.8368 12.4871C25.433 11.5142 24.7497 10.6829 23.8734 10.0983C22.9971 9.51372 21.9672 9.20214 20.9138 9.20297ZM23.4257 17.0405L17.1503 23.3159L10.875 17.0405C10.5451 16.7106 10.2834 16.319 10.1049 15.888C9.92637 15.457 9.83449 14.9951 9.83449 14.5286C9.83449 14.0621 9.92637 13.6002 10.1049 13.1692C10.2834 12.7382 10.5451 12.3465 10.875 12.0167C11.2048 11.6868 11.5964 11.4251 12.0274 11.2466C12.4584 11.0681 12.9204 10.9762 13.3869 10.9762C13.8534 10.9762 14.3153 11.0681 14.7463 11.2466C15.1773 11.4251 15.5689 11.6868 15.8988 12.0167L17.1503 13.2771L18.4018 12.0256C19.0787 11.3798 19.9783 11.0196 20.9138 11.0196C21.8492 11.0196 22.7488 11.3798 23.4257 12.0256C23.7558 12.3553 24.0177 12.7469 24.1963 13.1779C24.375 13.6089 24.467 14.0709 24.467 14.5375C24.467 15.0041 24.375 15.4661 24.1963 15.8971C24.0177 16.3281 23.7558 16.7197 23.4257 17.0494V17.0405Z" fill="#00A9DC"/>
</svg>
