<svg width="677" height="505" viewBox="0 0 677 505" fill="none" xmlns="http://www.w3.org/2000/svg">
<path d="M676.561 443.012H0V443.351H676.561V443.012Z" fill="#EBEBEB"/>
<path d="M608.77 464.784H563.955V465.123H608.77V464.784Z" fill="#EBEBEB"/>
<path d="M448.181 468.465H436.423V468.803H448.181V468.465Z" fill="#EBEBEB"/>
<path d="M562.601 452.227H536.635V452.565H562.601V452.227Z" fill="#EBEBEB"/>
<path d="M129.426 454.5H70.9849V454.838H129.426V454.5Z" fill="#EBEBEB"/>
<path d="M150.048 454.5H141.483V454.838H150.048V454.5Z" fill="#EBEBEB"/>
<path d="M304.655 460.21H177.895V460.549H304.655V460.21Z" fill="#EBEBEB"/>
<path d="M320.69 382.663H59.4155C57.3687 382.66 55.4069 381.844 53.9609 380.395C52.5149 378.947 51.7027 376.984 51.7027 374.937V7.65868C51.7205 5.62361 52.5405 3.67776 53.9847 2.24377C55.4288 0.809787 57.3804 0.00348617 59.4155 0H320.69C322.739 0 324.704 0.814022 326.153 2.26299C327.602 3.71196 328.416 5.67718 328.416 7.72633V374.937C328.416 376.986 327.602 378.951 326.153 380.4C324.704 381.849 322.739 382.663 320.69 382.663ZM59.4155 0.270626C57.4584 0.27421 55.5827 1.05417 54.2001 2.43931C52.8175 3.82445 52.041 5.70158 52.041 7.65868V374.937C52.041 376.894 52.8175 378.771 54.2001 380.156C55.5827 381.541 57.4584 382.321 59.4155 382.325H320.69C322.648 382.321 324.525 381.542 325.91 380.157C327.295 378.772 328.074 376.895 328.078 374.937V7.65868C328.074 5.70034 327.295 3.82324 325.91 2.43848C324.525 1.05373 322.648 0.274202 320.69 0.270626H59.4155Z" fill="#EBEBEB"/>
<path d="M613.384 382.663H352.096C350.048 382.66 348.085 381.844 346.637 380.396C345.189 378.948 344.373 376.985 344.37 374.937V7.65868C344.391 5.62238 345.214 3.67654 346.66 2.24293C348.107 0.809314 350.06 0.00344815 352.096 0H613.384C615.417 0.00704232 617.365 0.814917 618.806 2.24852C620.247 3.68213 621.066 5.62595 621.083 7.65868V374.937C621.083 376.981 620.273 378.942 618.83 380.391C617.387 381.839 615.429 382.656 613.384 382.663ZM352.096 0.270626C350.138 0.274202 348.261 1.05373 346.876 2.43848C345.491 3.82324 344.712 5.70034 344.708 7.65868V374.937C344.712 376.895 345.491 378.772 346.876 380.157C348.261 381.542 350.138 382.321 352.096 382.325H613.384C615.342 382.321 617.22 381.542 618.604 380.157C619.989 378.772 620.769 376.895 620.772 374.937V7.65868C620.769 5.70034 619.989 3.82324 618.604 2.43848C617.22 1.05373 615.342 0.274202 613.384 0.270626H352.096Z" fill="#EBEBEB"/>
<path d="M82.3509 191.995H181.562L181.562 27.9555H82.3509L82.3509 191.995Z" fill="#F5F5F5"/>
<path d="M82.3376 27.942H80.3756V191.981H82.3376V27.942Z" fill="#E0E0E0"/>
<path d="M92.4184 184.769H171.508L171.508 35.1678H92.4184L92.4184 184.769Z" fill="#FAFAFA"/>
<path d="M204.971 249.57H304.182V85.5309H204.971V249.57Z" fill="#F5F5F5"/>
<path d="M204.971 85.5444H203.009V249.583H204.971V85.5444Z" fill="#E0E0E0"/>
<path d="M215.038 242.358H294.128V92.7563H215.038V242.358Z" fill="#FAFAFA"/>
<path d="M140.995 400.619C143.458 355.966 136.936 284.25 129.886 259.366C128.953 256.078 127.897 252.262 126.287 251.762C121.686 250.3 119.616 257.513 120.184 260.002C122.891 271.991 125.421 301.746 127.897 353.503C129.129 379.212 127.897 396.911 131.199 400.632L140.995 400.619Z" fill="#E6E6E6"/>
<path d="M133.661 301.097C140.129 280.191 222.968 258.717 199.085 281.206C193.145 286.808 165.487 301.57 154.134 317.091C145.312 329.147 136.395 349.43 134.04 360.675C133.012 337.022 129.359 315.034 133.661 301.097Z" fill="#E6E6E6"/>
<path d="M143.093 327.605C157.517 295.793 203.645 290.083 191.25 306.875C186.379 313.465 168.518 320.988 157.152 336.508C148.329 348.565 139.412 368.834 137.071 380.092C136.029 356.426 137.071 340.892 143.093 327.605Z" fill="#E6E6E6"/>
<path d="M124.961 324.899C107.884 283.98 46.1954 280.719 62.6088 299.73C68.8467 306.97 90.6455 320.217 107.113 337.293C119.914 350.554 134.338 372.474 139.25 384.652C136.07 359.552 131.848 341.407 124.961 324.899Z" fill="#E6E6E6"/>
<path d="M132.132 279.108C147.423 251.085 193.7 248.081 180.48 263.412C175.297 269.447 158.437 277.092 147.423 292.153C138.857 303.844 128.574 319.107 126.287 330.04C125.286 307.064 125.353 291.544 132.132 279.108Z" fill="#E6E6E6"/>
<path d="M118.818 279.663C106.761 262.235 52.7719 243.075 66.7902 258.852C81.5528 275.401 92.0395 272.559 106.031 287.011C116.856 298.242 129.034 316.861 133.229 327.063C130.509 305.806 127.451 292.112 118.818 279.663Z" fill="#E6E6E6"/>
<path d="M133.147 259.597C140.806 245.822 172.388 235.687 164.147 246.255C158.396 253.589 151.496 258.622 144.175 268.609C138.506 276.375 130.793 286.131 129.291 293.371C128.614 278.148 128.547 267.81 133.147 259.597Z" fill="#E6E6E6"/>
<path d="M120.685 263.764C112.972 255.212 71.7155 234.915 81.1874 247.946C84.8814 253.074 100.618 265.536 111.213 276.551C119.454 285.076 128.493 292.031 131.645 299.784C129.562 283.668 128.411 272.302 120.685 263.764Z" fill="#E6E6E6"/>
<path d="M131.253 293.776C119.981 281.3 37.8064 265.225 58.9286 279C66.1543 283.709 97.9256 291.801 113.419 307.862C125.448 320.324 129.778 341 134.392 352.326C146.543 332.421 142.538 306.265 131.253 293.776Z" fill="#E6E6E6"/>
<path d="M117.181 398.806L118.236 436.139C118.344 443.229 119.995 443.013 121.998 443.013H148.559C150.549 443.013 152.199 443.229 152.321 436.139L153.377 398.806C153.498 391.12 151.78 384.639 149.615 384.639H120.942C118.777 384.639 117.059 391.12 117.181 398.806Z" fill="#F5F5F5"/>
<path d="M115.597 391.445H154.96C155.218 391.46 155.473 391.383 155.679 391.226C155.885 391.07 156.028 390.845 156.083 390.592L157.017 383.448C157.023 383.301 156.998 383.154 156.943 383.018C156.888 382.882 156.805 382.759 156.698 382.658C156.592 382.556 156.465 382.479 156.326 382.431C156.187 382.383 156.04 382.365 155.893 382.379H114.65C114.504 382.367 114.358 382.387 114.22 382.436C114.082 382.485 113.956 382.562 113.85 382.663C113.744 382.764 113.661 382.886 113.605 383.021C113.55 383.156 113.523 383.302 113.527 383.448L114.461 390.592C114.518 390.846 114.664 391.071 114.872 391.228C115.081 391.384 115.338 391.461 115.597 391.445Z" fill="#F5F5F5"/>
<path d="M393.583 233.495H363.787V433.974H393.583V233.495Z" fill="#F0F0F0"/>
<path d="M595.374 433.974H369.511V443.013H595.374V433.974Z" fill="#F0F0F0"/>
<path d="M393.583 433.974H601.098V233.495L393.583 233.495V433.974Z" fill="#F5F5F5"/>
<path d="M390.498 225.606H360.039V233.495H390.498V225.606Z" fill="#F0F0F0"/>
<path d="M390.498 233.495L604.846 233.495V225.606L390.498 225.606V233.495Z" fill="#FAFAFA"/>
<path d="M590.232 328.146H404.449V250.193H590.232V328.146ZM406.208 326.441H588.527V251.898H406.153L406.208 326.441Z" fill="#E0E0E0"/>
<path d="M590.232 417.276H404.449V340.405H590.232V417.276ZM406.208 415.571H588.527V342.11H406.153L406.208 415.571Z" fill="#E0E0E0"/>
<path d="M533.509 265.523H461.171C460.322 265.52 459.508 265.181 458.908 264.58C458.307 263.979 457.968 263.166 457.964 262.316C457.968 261.467 458.307 260.653 458.908 260.053C459.508 259.452 460.322 259.113 461.171 259.11H533.509C534.359 259.113 535.172 259.452 535.773 260.053C536.374 260.653 536.713 261.467 536.716 262.316C536.713 263.166 536.374 263.979 535.773 264.58C535.172 265.181 534.359 265.52 533.509 265.523Z" fill="#E0E0E0"/>
<path d="M533.523 349.322H461.171C459.4 349.322 457.964 350.758 457.964 352.529C457.964 354.3 459.4 355.736 461.171 355.736H533.523C535.294 355.736 536.73 354.3 536.73 352.529C536.73 350.758 535.294 349.322 533.523 349.322Z" fill="#E0E0E0"/>
<path d="M487.679 225.525H573.738L580.72 148.79H494.661L487.679 225.525Z" fill="#E6E6E6"/>
<path d="M484.756 225.525H570.815L577.797 148.79H491.738L484.756 225.525Z" fill="#F0F0F0"/>
<path d="M563.089 217.027L568.528 157.287H499.465L494.025 217.027H563.089Z" fill="white"/>
<path d="M467.747 169.492L462.646 225.525H503.889L508.991 169.492H467.747Z" fill="#E6E6E6"/>
<path d="M465.609 169.492L460.508 225.525H501.751L506.853 169.492H465.609Z" fill="#F0F0F0"/>
<path d="M471.252 175.689L467.274 219.327H496.122L500.087 175.689H471.252Z" fill="white"/>
<path d="M338.281 504.119C483.177 504.119 600.638 497.262 600.638 488.802C600.638 480.343 483.177 473.485 338.281 473.485C193.385 473.485 75.9238 480.343 75.9238 488.802C75.9238 497.262 193.385 504.119 338.281 504.119Z" fill="#F5F5F5"/>
<path d="M400.957 79.4549C399.712 76.3001 397.842 73.4295 395.46 71.0155C393.077 68.6015 390.232 66.6939 387.094 65.4074C383.955 64.1208 380.59 63.4817 377.198 63.5286C373.807 63.5755 370.46 64.3073 367.359 65.6801C355.83 70.7678 349.579 85.5575 353.922 97.3702C356.092 103.335 360.444 108.253 366.101 111.131C368.453 112.259 370.448 114.015 371.865 116.206L375.437 121.916C376.609 123.785 378.397 125.186 380.492 125.878C382.587 126.569 384.857 126.508 386.912 125.705L395.923 122.146C397.973 121.329 399.674 119.822 400.731 117.885C401.788 115.949 402.136 113.703 401.715 111.537L400.362 104.691C399.928 102.267 400.176 99.7696 401.079 97.4785C403.278 91.6639 403.234 85.2392 400.957 79.4549Z" fill="#F7931E"/>
<path d="M388.103 137.098C387.525 137.096 386.954 136.977 386.425 136.746C385.915 136.531 385.453 136.215 385.067 135.817C384.681 135.42 384.379 134.949 384.179 134.432C383.783 133.4 383.81 132.254 384.253 131.241C384.696 130.228 385.52 129.43 386.547 129.02L398.495 124.298C399.527 123.899 400.675 123.924 401.688 124.367C402.702 124.811 403.5 125.637 403.907 126.666C404.121 127.175 404.232 127.723 404.232 128.276C404.232 128.829 404.121 129.376 403.907 129.886C403.462 130.911 402.631 131.718 401.593 132.132L389.699 136.8C389.193 137.006 388.649 137.107 388.103 137.098ZM400.037 125.312C399.68 125.311 399.326 125.38 398.995 125.515L386.993 130.238C386.466 130.441 386.011 130.797 385.687 131.26C385.363 131.724 385.185 132.273 385.175 132.838C385.165 133.403 385.323 133.958 385.63 134.433C385.937 134.907 386.379 135.279 386.898 135.501C387.245 135.649 387.618 135.725 387.994 135.725C388.371 135.725 388.744 135.649 389.09 135.501L401.038 130.793C401.386 130.653 401.703 130.447 401.97 130.184C402.237 129.922 402.449 129.609 402.595 129.264C402.745 128.92 402.823 128.549 402.823 128.174C402.823 127.799 402.745 127.428 402.595 127.085C402.379 126.545 402.005 126.083 401.522 125.759C401.039 125.436 400.47 125.266 399.888 125.272L400.037 125.312Z" fill="#001B35"/>
<path d="M394.191 144.377C393.829 144.374 393.471 144.3 393.136 144.161C392.518 143.867 392.035 143.349 391.783 142.713L391.58 142.185C391.453 141.866 391.39 141.524 391.396 141.18C391.401 140.836 391.474 140.496 391.611 140.181C391.748 139.865 391.946 139.58 392.194 139.341C392.442 139.102 392.734 138.915 393.055 138.789L400.51 135.839C401.16 135.604 401.874 135.625 402.508 135.899C403.142 136.173 403.648 136.68 403.92 137.314L404.123 137.842C404.373 138.488 404.358 139.207 404.082 139.842C403.806 140.478 403.291 140.979 402.648 141.238L395.111 144.188C394.819 144.307 394.507 144.371 394.191 144.377ZM401.431 137.003C401.273 137.007 401.117 137.04 400.97 137.098L393.515 140.047C393.36 140.107 393.218 140.197 393.098 140.312C392.978 140.427 392.882 140.564 392.815 140.717C392.748 140.869 392.712 141.033 392.71 141.199C392.707 141.365 392.736 141.53 392.798 141.685L393.001 142.212C393.062 142.368 393.153 142.51 393.269 142.63C393.385 142.75 393.524 142.847 393.677 142.913C393.831 142.98 393.996 143.016 394.163 143.018C394.33 143.021 394.496 142.991 394.651 142.93L402.107 139.98C402.263 139.919 402.406 139.828 402.526 139.712C402.647 139.596 402.744 139.457 402.811 139.303C402.874 139.151 402.907 138.988 402.907 138.823C402.907 138.658 402.874 138.495 402.811 138.343L402.608 137.815C402.507 137.583 402.343 137.384 402.135 137.241C401.927 137.097 401.683 137.015 401.431 137.003Z" fill="#001B35"/>
<path d="M371.987 103.459C371.064 103.461 370.159 103.211 369.367 102.736C368.576 102.262 367.929 101.58 367.496 100.765C367.064 99.9506 366.861 99.0332 366.911 98.1118C366.961 97.1905 367.261 96.3001 367.779 95.5366C368.297 94.773 369.013 94.1651 369.851 93.7783C370.688 93.3915 371.616 93.2404 372.533 93.3414C373.45 93.4423 374.322 93.7914 375.056 94.3511C375.789 94.9108 376.356 95.6599 376.696 96.5178L378.563 101.24L373.841 103.094C373.252 103.333 372.623 103.457 371.987 103.459ZM371.987 94.664C371.437 94.6582 370.892 94.7745 370.392 95.0047C369.892 95.2348 369.449 95.5731 369.095 95.995C368.742 96.4169 368.486 96.9119 368.347 97.4445C368.208 97.9771 368.189 98.5339 368.291 99.0748C368.393 99.6157 368.614 100.127 368.937 100.573C369.261 101.018 369.679 101.386 370.162 101.65C370.645 101.914 371.181 102.068 371.73 102.1C372.28 102.132 372.83 102.042 373.34 101.836L376.804 100.482L375.451 97.032C375.171 96.3415 374.689 95.7515 374.069 95.3388C373.449 94.926 372.718 94.7098 371.973 94.7182L371.987 94.664Z" fill="white"/>
<path d="M386.952 126.165L376.818 100.469L386.14 96.7884L396.275 122.484L395.017 122.985L385.369 98.5474L378.563 101.24L388.211 125.664L386.952 126.165Z" fill="white"/>
<path d="M385.369 98.5476L383.515 93.8252C383.146 92.8917 383.062 91.8695 383.274 90.8881C383.485 89.9067 383.984 89.0102 384.705 88.312C385.427 87.6138 386.339 87.1454 387.327 86.9659C388.315 86.7865 389.333 86.9042 390.254 87.304C391.175 87.7038 391.957 88.3679 392.5 89.2121C393.044 90.0563 393.325 91.0428 393.307 92.0466C393.29 93.0505 392.975 94.0266 392.402 94.8514C391.83 95.6762 391.026 96.3127 390.092 96.6803L385.369 98.5476ZM388.224 88.2368C387.76 88.2432 387.302 88.3349 386.871 88.5075C386.416 88.6865 386.001 88.9537 385.65 89.2938C385.298 89.6339 385.018 90.0402 384.824 90.4892C384.63 90.9382 384.527 91.421 384.521 91.91C384.515 92.3989 384.605 92.8843 384.787 93.3381L386.14 96.7886L389.591 95.4355C390.397 95.119 391.068 94.5311 391.488 93.773C391.907 93.0149 392.049 92.1342 391.889 91.2828C391.728 90.4314 391.276 89.6626 390.609 89.109C389.943 88.5554 389.104 88.2518 388.238 88.2504L388.224 88.2368Z" fill="white"/>
<path d="M406.383 163.038C401.302 163.044 396.228 162.633 391.215 161.806L391.445 160.453C396.364 161.265 401.343 161.673 406.329 161.671L406.383 163.038Z" fill="#F7931E"/>
<path d="M434.352 177.056L435.069 175.594C437.565 170.039 438.067 163.792 436.49 157.909C431.225 159.796 425.786 161.156 420.253 161.968L420.05 160.615C425.721 159.767 431.29 158.334 436.666 156.339L437.343 156.096L437.546 156.772C439.263 162.644 439.04 168.913 436.91 174.647C453.54 168.03 470.9 144.54 470.9 116.558C470.9 91.7143 441.93 71.4987 406.316 71.4987C370.701 71.4987 341.745 91.7143 341.745 116.558C341.745 134.622 357.13 150.9 380.985 158.017L380.593 159.37C356.237 152.077 340.432 135.298 340.432 116.612C340.432 91.0242 370.011 70.1997 406.356 70.1997C442.701 70.1997 472.294 91.0242 472.294 116.612C472.294 146.029 453.35 170.615 435.895 176.528L434.352 177.056Z" fill="#F7931E"/>
<path d="M461.09 103.5L445.123 97.7361L448.113 114.434L461.09 103.5Z" fill="white"/>
<path d="M291.273 327.009H176.312C173.928 327.009 171.995 328.942 171.995 331.326V337.456C171.995 339.839 173.928 341.772 176.312 341.772H291.273C293.657 341.772 295.589 339.839 295.589 337.456V331.326C295.589 328.942 293.657 327.009 291.273 327.009Z" fill="#F7931E"/>
<path d="M289.974 480.684H293.397L289.46 341.772H284.71L289.974 480.684Z" fill="#F7931E"/>
<path opacity="0.3" d="M289.974 480.684H293.397L289.46 341.772H284.71L289.974 480.684Z" fill="white"/>
<path d="M258.406 480.684H254.982L258.933 341.772H263.669L258.406 480.684Z" fill="#F7931E"/>
<path opacity="0.3" d="M258.406 480.684H254.982L258.933 341.772H263.669L258.406 480.684Z" fill="white"/>
<path d="M209.179 480.684H212.616L208.665 341.772H203.915L209.179 480.684Z" fill="#F7931E"/>
<path opacity="0.3" d="M209.179 480.684H212.616L208.665 341.772H203.915L209.179 480.684Z" fill="white"/>
<path d="M177.624 480.684H174.187L178.139 341.772H182.874L177.624 480.684Z" fill="#F7931E"/>
<path opacity="0.3" d="M177.624 480.684H174.187L178.139 341.772H182.874L177.624 480.684Z" fill="white"/>
<path d="M326.522 445.381L338.727 441.254L328.687 412.757L316.495 416.884L326.522 445.381Z" fill="#FFC3BD"/>
<path d="M337.82 436.545L324.451 442.472C324.341 442.511 324.24 442.573 324.156 442.655C324.071 442.736 324.006 442.835 323.963 442.944C323.921 443.054 323.903 443.171 323.91 443.288C323.917 443.405 323.949 443.519 324.005 443.622L329.079 453.933C329.397 454.473 329.898 454.881 330.492 455.083C331.086 455.284 331.732 455.265 332.313 455.029C336.927 452.905 338.998 451.673 344.884 449.089C348.51 447.506 355.803 444.678 360.323 441.768C364.842 438.859 361.297 434.664 359.078 435.503C353.814 437.506 345.06 437.425 340.269 436.396C339.457 436.192 338.602 436.244 337.82 436.545Z" fill="#001B35"/>
<path opacity="0.2" d="M316.495 416.898L328.7 412.757L334.424 429.062L322.016 432.607L316.495 416.898Z" fill="#001B35"/>
<path d="M240.071 288.473C240.071 288.473 300.961 299.46 305.873 319.46C315.521 358.998 337.279 420.836 337.279 420.836L314.114 427.601C314.114 427.601 280.989 356.684 276.822 332.815C242.655 332.815 201.047 335.521 195.634 321.07C190.885 308.242 192.576 288.527 192.576 288.527L240.071 288.473Z" fill="#001B35"/>
<path d="M312.842 431.647L339.904 422.716L337.591 410.497L308.079 420.889L312.842 431.647Z" fill="#F7931E"/>
<path d="M273.48 449.711L286.957 450.739L279.041 417.479L266.47 420.321L273.48 449.711Z" fill="#FFC3BD"/>
<path d="M286.618 447.492L272.099 445.882C271.983 445.86 271.863 445.864 271.747 445.893C271.632 445.922 271.525 445.976 271.432 446.051C271.34 446.125 271.264 446.219 271.211 446.325C271.158 446.431 271.129 446.548 271.125 446.666L270.367 458.141C270.393 458.762 270.632 459.355 271.043 459.821C271.455 460.286 272.014 460.596 272.627 460.698C277.674 461.172 280.096 461.131 286.483 461.835C290.407 462.268 298.147 463.472 303.519 463.188C308.891 462.904 307.917 457.505 305.562 457.14C300.001 456.233 292.477 451.795 288.838 448.507C288.223 447.943 287.446 447.588 286.618 447.492Z" fill="#001B35"/>
<path opacity="0.2" d="M266.47 420.335L279.041 417.493L283.033 434.299L270.327 436.532L266.47 420.335Z" fill="#001B35"/>
<path d="M208.381 288.473C208.381 288.473 282.41 299.555 279.014 327.578C274.129 367.983 286.673 426.424 286.673 426.424L262.925 430.673C262.925 430.673 245.47 358.037 245.335 333.803C221.249 333.803 179.167 335.521 173.781 321.016C169.032 308.188 170.723 288.473 170.723 288.473H208.381Z" fill="#001B35"/>
<path d="M261.288 434.623L289.148 428.561L288.12 416.18L257.675 423.419L261.288 434.623Z" fill="#F7931E"/>
<path d="M247.432 210.601C249.407 218.341 251.342 226.148 253.237 233.929C255.131 241.709 256.985 249.503 258.947 257.189L260.422 262.913L261.18 265.727L261.572 267.08V267.256V267.337C261.572 267.337 261.572 267.216 261.504 267.161C261.402 266.885 261.275 266.617 261.125 266.363L260.922 266.052L260.774 265.849L260.503 265.551C260.219 265.281 260.178 265.321 260.246 265.389C260.392 265.539 260.555 265.671 260.733 265.781C261.329 266.183 261.953 266.54 262.6 266.85C264.062 267.567 265.767 268.203 267.512 268.907C274.548 271.519 282.315 273.738 289.866 276.133L288.675 284.766C284.52 284.814 280.365 284.651 276.226 284.278C272.015 283.932 267.827 283.344 263.683 282.519C261.458 282.087 259.261 281.518 257.107 280.814C255.863 280.417 254.647 279.938 253.467 279.38C252.741 279.042 252.04 278.654 251.369 278.216C250.436 277.622 249.578 276.918 248.812 276.119C248.568 275.849 248.338 275.591 248.068 275.24L247.689 274.725L247.31 274.089C247.031 273.613 246.791 273.116 246.593 272.601L246.376 271.979L245.849 270.49L244.834 267.54C244.171 265.578 243.481 263.616 242.926 261.668C240.477 253.847 238.244 246.066 236.16 238.232C234.076 230.397 232.101 222.576 230.288 214.647L247.432 210.601Z" fill="#FFC3BD"/>
<path d="M228.407 201.237C235.836 192.956 247.608 198.747 252.574 217.285C254.982 226.297 254.225 231.006 254.225 231.006L228.596 238.908C223.089 226.73 218.299 212.522 228.407 201.237Z" fill="#F7931E"/>
<g opacity="0.2">
<path opacity="0.2" d="M228.407 201.237C235.836 192.956 247.608 198.747 252.574 217.285C254.982 226.297 254.225 231.006 254.225 231.006L228.596 238.908C223.089 226.73 218.299 212.522 228.407 201.237Z" fill="#001B35"/>
</g>
<path d="M303.302 272.655L301.002 271.951C299.609 271.53 298.145 271.396 296.699 271.559L291.76 272.14C290.168 272.519 288.673 273.229 287.375 274.225C286.076 275.22 285.002 276.479 284.223 277.918L282.545 281.193C283.384 287.228 295.617 285.252 295.617 285.252H307.159L306.78 277.052C306.722 276.051 306.357 275.092 305.735 274.305C305.113 273.518 304.263 272.942 303.302 272.655Z" fill="#FFC3BD"/>
<path d="M311.218 259.449C310.89 261.671 309.953 263.76 308.512 265.484C307.281 267.283 306.009 269.069 304.723 270.896C302.139 274.428 299.5 277.905 296.604 281.22C296.478 281.364 296.303 281.456 296.113 281.479C295.923 281.503 295.731 281.456 295.573 281.348C295.415 281.24 295.302 281.078 295.256 280.893C295.209 280.707 295.231 280.511 295.319 280.341C297.322 276.417 299.581 272.682 301.895 268.975C303.059 267.125 304.25 265.29 305.467 263.467C306.519 261.475 308.096 259.809 310.027 258.65C310.17 258.563 310.335 258.517 310.503 258.519C310.67 258.521 310.834 258.569 310.975 258.66C311.116 258.75 311.229 258.878 311.301 259.03C311.372 259.181 311.4 259.35 311.381 259.516L311.218 259.449Z" fill="#001B35"/>
<path d="M230.125 193.213L215.688 189.154L197.109 188.288C194.292 188.156 191.509 188.953 189.189 190.557C186.869 192.16 185.14 194.482 184.268 197.164C180.723 207.989 177.502 223.577 175.094 237.068C172.236 254.059 170.783 271.257 170.75 288.487H240.071C241.492 249.99 246.025 231.182 248.704 217.556C249.49 213.519 248.913 209.335 247.064 205.662C245.215 201.988 242.198 199.033 238.488 197.259L230.125 193.213Z" fill="#F7931E"/>
<path d="M210.762 195.919C212.521 200.438 219.327 210.099 227.243 213.875C231.641 210.695 232.588 203.753 233.251 200.506L210.762 195.919Z" fill="white"/>
<path d="M233.251 200.506C233.764 198.72 233.55 196.803 232.656 195.175C231.532 193.415 231.817 191.399 232.94 189.329C233.83 187.68 234.946 186.164 236.255 184.823L227.175 174.201L219.774 165.622C219.138 173.646 218.515 183.592 212.183 189.816C209.95 192.022 209.477 192.685 210.762 195.919C212.521 200.438 218.881 206.744 226.729 210.519C228.429 209.369 229.882 207.891 231.002 206.171C232.122 204.452 232.887 202.525 233.251 200.506Z" fill="#FFC3BD"/>
<path opacity="0.2" d="M233.468 182.997L228.339 174.675C228.245 174.891 228.123 175.122 228.001 175.365C227.539 176.395 227.168 177.464 226.891 178.558C225.958 182.252 229.097 187.53 232.534 190.046C232.683 189.816 232.805 189.573 232.94 189.329C233.815 187.767 234.854 186.302 236.039 184.959C236.106 184.907 236.179 184.862 236.255 184.823L233.468 182.997Z" fill="#001B35"/>
<path d="M251.383 163.106C252.574 170.778 263.561 151.036 257.418 146.706C249.922 141.402 249.137 148.506 251.383 163.106Z" fill="#001B35"/>
<path d="M220.112 153.093C219.409 165.555 218.34 172.795 224.063 179.993C232.669 190.818 249.191 187.246 253.751 175.325C257.81 164.581 258.311 146.016 246.336 139.44C234.361 132.864 220.816 140.644 220.112 153.093Z" fill="#FFC3BD"/>
<path d="M244.671 145.61C244.671 145.61 252.641 153.431 258.324 150.197C264.007 146.963 265.158 138.587 258.324 131.253C255.036 127.722 250.057 124.271 240.287 124.488C241.058 125.239 241.981 125.815 242.993 126.179C242.993 126.179 230.599 124.109 221.966 127.668C222.657 128.708 223.584 129.57 224.672 130.184C216.269 129.549 208.096 132.891 213.847 140.779C206.229 141.524 204.524 151.266 208.584 157.693C212.643 164.121 213.36 168.938 218.786 171.861C218.786 163.106 220.802 161.036 220.802 161.036C224.713 159.371 229.219 151.036 228.312 146.828C236.674 150.197 245.591 151.307 244.671 145.61Z" fill="#001B35"/>
<path d="M215.85 140.495C213.198 138.605 211.138 136.001 209.91 132.985C208.935 137.342 213.441 142.308 213.441 142.308L215.85 140.495Z" fill="#001B35"/>
<path d="M213.888 159.899C213.98 162.753 215.1 165.477 217.041 167.572C219.625 170.278 223.143 167.978 223.806 164.5C224.347 161.374 223.021 156.598 219.747 155.191C216.472 153.783 213.793 156.408 213.888 159.899Z" fill="#FFC3BD"/>
<path d="M240.517 159.52C240.314 160.549 240.68 161.51 241.343 161.672C242.006 161.834 242.696 161.131 242.926 160.102C243.156 159.074 242.763 158.113 242.1 157.951C241.437 157.788 240.72 158.506 240.517 159.52Z" fill="#001B35"/>
<path d="M252.019 162.267C251.802 163.295 252.181 164.243 252.844 164.405C253.507 164.567 254.197 163.864 254.427 162.835C254.657 161.807 254.251 160.846 253.588 160.697C252.925 160.549 252.222 161.239 252.019 162.267Z" fill="#001B35"/>
<path d="M248.189 162.186C248.488 165.133 249.18 168.028 250.246 170.792C248.352 171.753 245.97 170.305 245.97 170.305L248.189 162.186Z" fill="#ED847E"/>
<path d="M243.846 176.055C242.655 175.805 241.526 175.317 240.528 174.619C239.53 173.922 238.684 173.029 238.041 171.996C238.015 171.96 237.997 171.919 237.989 171.876C237.98 171.833 237.98 171.788 237.99 171.745C237.999 171.702 238.018 171.661 238.045 171.626C238.071 171.591 238.105 171.562 238.143 171.54C238.182 171.519 238.225 171.506 238.269 171.503C238.313 171.499 238.357 171.505 238.398 171.52C238.44 171.535 238.478 171.559 238.51 171.589C238.541 171.62 238.566 171.657 238.582 171.698C239.3 172.803 240.26 173.728 241.391 174.404C242.522 175.079 243.792 175.487 245.105 175.595C245.144 175.596 245.183 175.606 245.219 175.624C245.255 175.641 245.287 175.666 245.312 175.697C245.338 175.727 245.357 175.763 245.367 175.802C245.378 175.84 245.381 175.88 245.375 175.92C245.373 175.96 245.364 175.999 245.346 176.036C245.329 176.072 245.304 176.105 245.274 176.131C245.243 176.158 245.208 176.178 245.17 176.19C245.131 176.203 245.091 176.207 245.05 176.204C244.646 176.178 244.244 176.128 243.846 176.055Z" fill="#001B35"/>
<path d="M239.002 155.38C238.907 155.342 238.824 155.282 238.758 155.204C238.656 155.078 238.607 154.916 238.622 154.755C238.638 154.593 238.715 154.443 238.839 154.338C239.572 153.706 240.449 153.264 241.393 153.052C242.337 152.839 243.319 152.863 244.252 153.12C244.406 153.172 244.534 153.284 244.606 153.429C244.678 153.575 244.69 153.744 244.638 153.898C244.585 154.053 244.474 154.18 244.328 154.252C244.182 154.325 244.014 154.336 243.859 154.284C243.125 154.098 242.357 154.092 241.619 154.266C240.882 154.44 240.198 154.79 239.624 155.285C239.539 155.356 239.436 155.403 239.326 155.419C239.216 155.436 239.104 155.422 239.002 155.38Z" fill="#001B35"/>
<path d="M253.44 155.609C253.419 155.511 253.419 155.41 253.44 155.312C253.487 155.157 253.592 155.025 253.732 154.945C253.873 154.864 254.04 154.841 254.197 154.879C255.129 155.127 255.987 155.6 256.694 156.255C257.402 156.911 257.938 157.73 258.257 158.64C258.279 158.718 258.286 158.799 258.278 158.879C258.269 158.959 258.244 159.036 258.205 159.107C258.166 159.177 258.114 159.239 258.05 159.289C257.987 159.339 257.915 159.376 257.837 159.398C257.76 159.421 257.679 159.428 257.599 159.419C257.519 159.41 257.441 159.386 257.371 159.347C257.3 159.308 257.238 159.255 257.188 159.192C257.138 159.129 257.101 159.056 257.079 158.979C256.819 158.266 256.388 157.629 255.824 157.122C255.261 156.615 254.581 156.253 253.845 156.069C253.745 156.032 253.656 155.971 253.585 155.89C253.514 155.81 253.464 155.714 253.44 155.609Z" fill="#001B35"/>
<path d="M200.005 206.866C197.407 214.281 194.809 222.008 192.495 229.585C191.318 233.374 190.249 237.176 189.288 240.924C188.357 244.524 187.634 248.175 187.123 251.858C187.123 252.263 187.015 252.71 187.001 253.102V253.698C187.001 253.887 187.001 254.171 187.001 254.077C187.001 253.982 186.893 254.158 187.001 254.442C187.344 255.476 187.902 256.426 188.638 257.229C190.963 259.802 193.599 262.075 196.487 263.995C203.003 268.388 209.806 272.339 216.851 275.821L213.955 284.157C209.762 283.242 205.628 282.076 201.574 280.666C197.444 279.25 193.412 277.564 189.504 275.618C185.219 273.528 181.255 270.835 177.732 267.621C175.494 265.559 173.691 263.07 172.428 260.301C171.64 258.522 171.182 256.615 171.075 254.672C171.075 254.063 171.075 253.847 171.075 253.522V252.575C171.075 251.939 171.075 251.357 171.075 250.748C171.308 246.243 171.873 241.761 172.766 237.339C173.578 233.063 174.593 228.922 175.689 224.809C177.884 216.639 180.509 208.59 183.551 200.696L200.005 206.866Z" fill="#FFC3BD"/>
<path d="M196.203 188.206C209.436 188.085 211.939 198.382 204.741 214.701C201.986 220.598 198.621 226.189 194.701 231.385L172.821 219.761C175.743 206.731 181.088 188.342 196.203 188.206Z" fill="#F7931E"/>
<path d="M232.737 274.522L227.893 271.816C227.101 271.382 226.191 271.211 225.295 271.329L219.476 272.141C215.566 272.547 212.711 275.537 210.586 278.135L208.11 281.166C207.988 287.282 223.441 285.848 223.441 285.848L236.972 285.672L236.553 280.341C236.446 279.131 236.041 277.967 235.376 276.952C234.71 275.937 233.803 275.102 232.737 274.522Z" fill="#FFC3BD"/>
<path d="M521.412 282.654H155.136V299.798H521.412V282.654Z" fill="#F7931E"/>
<path opacity="0.3" d="M273.94 282.654H155.136V299.798H273.94V282.654Z" fill="white"/>
<path d="M164.946 299.798H159.344V488.802H164.946V299.798Z" fill="#F7931E"/>
<path opacity="0.7" d="M164.946 299.798H159.344V488.802H164.946V299.798Z" fill="white"/>
<path d="M269.745 299.798H264.143V488.802H269.745V299.798Z" fill="#F7931E"/>
<path opacity="0.7" d="M269.745 299.798H264.143V488.802H269.745V299.798Z" fill="white"/>
<path d="M412.418 299.798H406.816V488.802H412.418V299.798Z" fill="#F7931E"/>
<path opacity="0.7" d="M412.418 299.798H406.816V488.802H412.418V299.798Z" fill="white"/>
<path d="M517.218 299.798H511.616V488.802H517.218V299.798Z" fill="#F7931E"/>
<path opacity="0.7" d="M517.218 299.798H511.616V488.802H517.218V299.798Z" fill="white"/>
<path d="M481.712 206.879H381.581C379.865 206.941 378.22 207.584 376.917 208.702C375.614 209.821 374.73 211.349 374.409 213.036L363.963 276.484C363.803 277.24 363.817 278.023 364.003 278.773C364.189 279.523 364.543 280.221 365.038 280.815C365.533 281.409 366.156 281.883 366.86 282.202C367.565 282.52 368.332 282.675 369.105 282.654H469.236C470.956 282.595 472.605 281.951 473.911 280.83C475.217 279.708 476.102 278.175 476.421 276.484L486.867 213.036C487.028 212.279 487.014 211.496 486.827 210.745C486.64 209.994 486.285 209.296 485.788 208.703C485.291 208.109 484.666 207.637 483.96 207.321C483.254 207.005 482.485 206.854 481.712 206.879Z" fill="#001B35"/>
<path d="M418.129 278.514H323.857C323.236 278.514 322.734 279.016 322.734 279.637V281.531C322.734 282.151 323.236 282.654 323.857 282.654H418.129C418.749 282.654 419.252 282.151 419.252 281.531V279.637C419.252 279.016 418.749 278.514 418.129 278.514Z" fill="#001B35"/>
<path opacity="0.2" d="M481.712 206.879H383.773C382.057 206.941 380.412 207.583 379.109 208.702C377.806 209.821 376.922 211.349 376.601 213.036L366.155 276.484C365.993 277.24 366.004 278.024 366.189 278.775C366.375 279.527 366.728 280.226 367.224 280.821C367.719 281.415 368.343 281.889 369.049 282.207C369.755 282.524 370.523 282.677 371.297 282.654H469.168C470.889 282.594 472.538 281.951 473.844 280.829C475.15 279.708 476.035 278.175 476.353 276.484L486.799 213.036C486.958 212.285 486.946 211.507 486.763 210.762C486.579 210.016 486.23 209.322 485.741 208.73C485.252 208.138 484.636 207.664 483.938 207.344C483.24 207.023 482.479 206.864 481.712 206.879Z" fill="white"/>
<path d="M222.535 278.514C222.535 278.514 254.78 283.317 270.341 276.971C277.62 280.476 303.546 282.208 312.572 278.514C309.784 281.748 303.235 282.654 303.235 282.654H235.214C228.678 282.654 223.685 279.799 222.535 278.514Z" fill="#F7931E"/>
<path opacity="0.7" d="M222.535 278.514C222.535 278.514 254.78 283.317 270.341 276.971C277.62 280.476 303.546 282.208 312.572 278.514C309.784 281.748 303.235 282.654 303.235 282.654H235.214C228.678 282.654 223.685 279.799 222.535 278.514Z" fill="white"/>
</svg>
