<svg width="18" height="18" viewBox="0 0 18 18" fill="none" xmlns="http://www.w3.org/2000/svg">
<path d="M9 0C7.21997 0 5.47991 0.527841 3.99987 1.51677C2.51983 2.50571 1.36628 3.91131 0.685088 5.55585C0.00389956 7.20038 -0.17433 9.00998 0.172936 10.7558C0.520203 12.5016 1.37737 14.1053 2.63604 15.364C3.89471 16.6226 5.49836 17.4798 7.24419 17.8271C8.99002 18.1743 10.7996 17.9961 12.4442 17.3149C14.0887 16.6337 15.4943 15.4802 16.4832 14.0001C17.4722 12.5201 18 10.78 18 9C17.9972 6.6139 17.0481 4.32631 15.3609 2.63908C13.6737 0.951855 11.3861 0.00275781 9 0ZM8.99992 4.15385C9.2053 4.15385 9.40608 4.21475 9.57685 4.32886C9.74763 4.44297 9.88073 4.60515 9.95933 4.7949C10.0379 4.98466 10.0585 5.19346 10.0184 5.3949C9.97835 5.59634 9.87945 5.78138 9.73422 5.92661C9.58899 6.07184 9.40395 6.17074 9.20251 6.21081C9.00107 6.25088 8.79227 6.23032 8.60251 6.15172C8.41276 6.07312 8.25057 5.94002 8.13647 5.76924C8.02236 5.59847 7.96145 5.39769 7.96145 5.19231C7.96145 5.05593 7.98832 4.9209 8.0405 4.7949C8.09269 4.66891 8.16918 4.55443 8.26561 4.458C8.36204 4.36157 8.47652 4.28508 8.60252 4.23289C8.72851 4.18071 8.86355 4.15384 8.99992 4.15385H8.99992ZM9.69231 13.8462H9C8.90907 13.8462 8.81902 13.8283 8.73501 13.7936C8.65099 13.7588 8.57465 13.7078 8.51035 13.6435C8.44605 13.5792 8.39506 13.5029 8.36029 13.4188C8.32551 13.3348 8.30764 13.2448 8.30769 13.1538V9C8.12408 9 7.94799 8.92706 7.81816 8.79723C7.68833 8.66739 7.61539 8.4913 7.61539 8.30769C7.61539 8.12408 7.68833 7.94799 7.81816 7.81816C7.94799 7.68832 8.12408 7.61538 8.30769 7.61538H9C9.09093 7.61533 9.18098 7.6332 9.265 7.66797C9.34902 7.70275 9.42536 7.75374 9.48965 7.81804C9.55395 7.88234 9.60495 7.95868 9.63972 8.04269C9.67449 8.12671 9.69236 8.21676 9.69231 8.30769V12.4615C9.87592 12.4615 10.052 12.5345 10.1818 12.6643C10.3117 12.7941 10.3846 12.9702 10.3846 13.1538C10.3846 13.3375 10.3117 13.5135 10.1818 13.6434C10.052 13.7732 9.87592 13.8462 9.69231 13.8462Z" fill="black"/>
</svg>
