<svg width="54" height="54" viewBox="0 0 54 54" fill="none" xmlns="http://www.w3.org/2000/svg">
<path d="M52.951 43.012L32.108 23.145C35.194 16.483 34.233 9.73799 29.476 4.98099C26.122 1.62699 21.473 -0.197011 16.738 0.0169886C11.93 0.217989 7.56198 2.36699 4.43798 6.06399C-1.23502 12.782 -0.765021 22.899 5.50898 29.096C9.88798 33.422 16.06 34.858 22.125 32.993L24.52 35.435C24.708 35.626 24.965 35.735 25.234 35.735H29.261V38.735C29.261 39.288 29.709 39.735 30.261 39.735H33.261V42.735C33.261 43.288 33.709 43.735 34.261 43.735H38.261V47.735C38.261 48.288 38.709 48.735 39.261 48.735H41.261V50.511C41.261 51.476 41.344 52.014 42.104 52.774C42.66 53.332 43.399 53.671 44.261 53.735H52.261C52.813 53.735 53.261 53.288 53.261 52.735V43.735C53.261 43.462 53.149 43.201 52.951 43.012ZM51.261 51.736L44.338 51.739C44.029 51.716 43.738 51.582 43.519 51.362C43.261 51.104 43.261 51.104 43.261 50.512V47.736C43.261 47.183 42.813 46.736 42.261 46.736H40.261V42.736C40.261 42.183 39.813 41.736 39.261 41.736H35.261V38.736C35.261 38.183 34.813 37.736 34.261 37.736H31.261V34.736C31.261 34.183 30.813 33.736 30.261 33.736H25.654L23.12 31.151C22.851 30.876 22.446 30.78 22.081 30.906C16.556 32.806 10.887 31.598 6.91498 27.675C1.37898 22.204 0.961979 13.28 5.96598 7.35499C8.72498 4.08899 12.58 2.19299 16.821 2.01499C21.01 1.84399 25.102 3.43599 28.061 6.39499C32.4 10.735 33.106 16.756 29.997 22.916C29.798 23.309 29.881 23.786 30.2 24.09L51.26 44.165V51.736H51.261Z" fill="#00A9DC"/>
<path d="M8.97001 8.51599C7.83701 9.64999 7.21301 11.157 7.21301 12.759C7.21301 14.361 7.83701 15.868 8.97001 17.001C10.103 18.135 11.61 18.759 13.213 18.759C14.816 18.759 16.322 18.135 17.456 17.001C18.589 15.868 19.213 14.361 19.213 12.759C19.213 11.157 18.589 9.64999 17.456 8.51599C15.116 6.17599 11.309 6.17599 8.97001 8.51599ZM16.041 15.587C14.529 17.099 11.895 17.099 10.384 15.587C9.62901 14.831 9.21301 13.827 9.21301 12.759C9.21301 11.691 9.62901 10.686 10.384 9.92999C11.164 9.15099 12.188 8.76099 13.213 8.76099C14.238 8.76099 15.262 9.15099 16.042 9.92999C16.797 10.686 17.213 11.691 17.213 12.759C17.213 13.827 16.797 14.831 16.041 15.587Z" fill="#00A9DC"/>
</svg>
