<svg width="162" height="163" viewBox="0 0 162 163" fill="none" xmlns="http://www.w3.org/2000/svg">
<circle cx="81" cy="81.5244" r="81" fill="#FFF7EE"/>
<path fill-rule="evenodd" clip-rule="evenodd" d="M42.3999 29.5458C42.3999 28.8202 42.6881 28.1244 43.2012 27.6113C43.7142 27.0983 44.4101 26.8101 45.1356 26.8101H99.8499C100.575 26.8102 101.271 27.0985 101.784 27.6116L118.198 44.0259C118.711 44.5388 119 45.2346 119 45.9601V133.503C119 134.229 118.712 134.924 118.199 135.437C117.686 135.95 116.99 136.239 116.264 136.239H45.1356C44.4101 136.239 43.7142 135.95 43.2012 135.437C42.6881 134.924 42.3999 134.229 42.3999 133.503V29.5458ZM47.8713 32.2815V130.767H113.529V48.6958H99.8499C99.1244 48.6958 98.4285 48.4076 97.9155 47.8945C97.4025 47.3815 97.1142 46.6856 97.1142 45.9601V32.2815H47.8713ZM102.586 36.1498V43.2244H109.66L102.586 36.1498Z" fill="#F7931E"/>
<path d="M56.0785 59.6387H98.4821M56.0785 67.8458H98.4821M56.0785 76.053H98.4821M56.0785 84.2601H98.4821M56.0785 92.4673H98.4821M56.0785 100.674H86.1714" stroke="#F7931E" stroke-width="3"/>
</svg>
