<svg width="45" height="46" viewBox="0 0 45 46" fill="none" xmlns="http://www.w3.org/2000/svg">
<circle cx="22.5" cy="23.0244" r="22.5" fill="#00A9DC"/>
<path d="M23 24.7744C25.0711 24.7744 26.75 23.0955 26.75 21.0244C26.75 18.9533 25.0711 17.2744 23 17.2744C20.9289 17.2744 19.25 18.9533 19.25 21.0244C19.25 23.0955 20.9289 24.7744 23 24.7744Z" stroke="#001B35" stroke-width="2" stroke-linecap="round" stroke-linejoin="round"/>
<path d="M23 11.0244C20.3478 11.0244 17.8043 12.078 15.9289 13.9533C14.0536 15.8287 13 18.3722 13 21.0244C13 23.3894 13.5025 24.9369 14.875 26.6494L23 36.0244L31.125 26.6494C32.4975 24.9369 33 23.3894 33 21.0244C33 18.3722 31.9464 15.8287 30.0711 13.9533C28.1957 12.078 25.6522 11.0244 23 11.0244V11.0244Z" stroke="#001B35" stroke-width="2" stroke-linecap="round" stroke-linejoin="round"/>
</svg>
