<svg width="22" height="30" viewBox="0 0 22 30" fill="none" xmlns="http://www.w3.org/2000/svg">
<path d="M19.25 10H17.875V7.14286C17.875 3.2 14.795 0 11 0C7.205 0 4.125 3.2 4.125 7.14286V10H2.75C1.23062 10 0 11.2786 0 12.8571V27.1429C0 28.7214 1.23062 30 2.75 30H19.25C20.7694 30 22 28.7214 22 27.1429V12.8571C22 11.2786 20.7694 10 19.25 10ZM11 22.8571C9.48063 22.8571 8.25 21.5786 8.25 20C8.25 18.4214 9.48063 17.1429 11 17.1429C12.5194 17.1429 13.75 18.4214 13.75 20C13.75 21.5786 12.5194 22.8571 11 22.8571ZM15.2625 10H6.7375V7.14286C6.7375 4.7 8.64875 2.71429 11 2.71429C13.3512 2.71429 15.2625 4.7 15.2625 7.14286V10Z" fill="#383838"/>
</svg>
