<svg width="15" height="15" viewBox="0 0 15 15" fill="none" xmlns="http://www.w3.org/2000/svg">
<path d="M15 2.25V12.75C15 13.3467 14.7629 13.919 14.341 14.341C13.919 14.7629 13.3467 15 12.75 15H3.75C3.15326 15 2.58097 14.7629 2.15901 14.341C1.73705 13.919 1.5 13.3467 1.5 12.75V10.5C1.5 10.3011 1.57902 10.1103 1.71967 9.96967C1.86032 9.82902 2.05109 9.75 2.25 9.75C2.44891 9.75 2.63968 9.82902 2.78033 9.96967C2.92098 10.1103 3 10.3011 3 10.5V12.75C3 12.9489 3.07902 13.1397 3.21967 13.2803C3.36032 13.421 3.55109 13.5 3.75 13.5H12.75C12.9489 13.5 13.1397 13.421 13.2803 13.2803C13.421 13.1397 13.5 12.9489 13.5 12.75V2.25C13.5 2.05109 13.421 1.86032 13.2803 1.71967C13.1397 1.57902 12.9489 1.5 12.75 1.5H3.75C3.55109 1.5 3.36032 1.57902 3.21967 1.71967C3.07902 1.86032 3 2.05109 3 2.25V4.5C3 4.69891 2.92098 4.88968 2.78033 5.03033C2.63968 5.17098 2.44891 5.25 2.25 5.25C2.05109 5.25 1.86032 5.17098 1.71967 5.03033C1.57902 4.88968 1.5 4.69891 1.5 4.5V2.25C1.5 1.65326 1.73705 1.08097 2.15901 0.65901C2.58097 0.237053 3.15326 0 3.75 0H12.75C13.3467 0 13.919 0.237053 14.341 0.65901C14.7629 1.08097 15 1.65326 15 2.25ZM6.2175 9.9675C6.1472 10.0372 6.09141 10.1202 6.05333 10.2116C6.01525 10.303 5.99565 10.401 5.99565 10.5C5.99565 10.599 6.01525 10.697 6.05333 10.7884C6.09141 10.8798 6.1472 10.9628 6.2175 11.0325C6.28722 11.1028 6.37017 11.1586 6.46157 11.1967C6.55296 11.2347 6.65099 11.2543 6.75 11.2543C6.84901 11.2543 6.94704 11.2347 7.03843 11.1967C7.12983 11.1586 7.21278 11.1028 7.2825 11.0325L10.2825 8.0325C10.3528 7.96278 10.4086 7.87983 10.4467 7.78843C10.4847 7.69704 10.5043 7.59901 10.5043 7.5C10.5043 7.40099 10.4847 7.30296 10.4467 7.21157C10.4086 7.12017 10.3528 7.03722 10.2825 6.9675L7.2825 3.9675C7.14127 3.82627 6.94973 3.74693 6.75 3.74693C6.55027 3.74693 6.35873 3.82627 6.2175 3.9675C6.07627 4.10873 5.99693 4.30027 5.99693 4.5C5.99693 4.69973 6.07627 4.89127 6.2175 5.0325L7.9425 6.75H0.75C0.551088 6.75 0.360322 6.82902 0.21967 6.96967C0.0790178 7.11032 0 7.30109 0 7.5C0 7.69891 0.0790178 7.88968 0.21967 8.03033C0.360322 8.17098 0.551088 8.25 0.75 8.25H7.9425L6.2175 9.9675Z" fill="#1A237E"/>
</svg>
