<svg width="162" height="61" viewBox="0 0 162 61" fill="none" xmlns="http://www.w3.org/2000/svg">
<path d="M82.5177 12.233C83.7827 12.7737 84.8612 13.6748 85.6192 14.8244C86.3772 15.974 86.7813 17.3214 86.7813 18.6992C86.7813 20.0769 86.3772 21.4243 85.6192 22.5739C84.8612 23.7235 83.7827 24.6247 82.5177 25.1654C81.0348 25.7928 79.4357 26.0971 77.8264 26.0583H74.3562V31.2699H68.7261V11.3281H77.8264C79.4366 11.2931 81.0357 11.6015 82.5177 12.233ZM80.1023 20.8645C80.403 20.5962 80.6393 20.2633 80.7937 19.8907C80.948 19.5181 81.0163 19.1153 80.9936 18.7126C81.0149 18.3082 80.946 17.9041 80.7918 17.5298C80.6376 17.1555 80.4021 16.8203 80.1023 16.5487C79.508 16.0368 78.6355 15.7808 77.4848 15.7808H74.3562V21.6205H77.4848C78.6395 21.6205 79.514 21.3685 80.1082 20.8645H80.1023Z" fill="#1A1A1A"/>
<path d="M94.0485 30.3383C92.4042 29.4739 91.0273 28.1754 90.0666 26.5835C89.106 24.9915 88.5981 23.1667 88.5981 21.3065C88.5981 19.4462 89.106 17.6214 90.0666 16.0295C91.0273 14.4375 92.4042 13.1391 94.0485 12.2746C95.8104 11.3937 97.7526 10.9351 99.7217 10.9351C101.691 10.9351 103.633 11.3937 105.395 12.2746C107.04 13.1384 108.418 14.4365 109.379 16.0286C110.341 17.6206 110.849 19.4458 110.849 21.3065C110.849 23.1671 110.341 24.9923 109.379 26.5844C108.418 28.1764 107.04 29.4746 105.395 30.3383C103.633 31.2193 101.691 31.6778 99.7217 31.6778C97.7526 31.6778 95.8104 31.2193 94.0485 30.3383ZM102.454 26.2904C103.271 25.8135 103.94 25.1191 104.388 24.2844C104.854 23.3617 105.097 22.3421 105.097 21.308C105.097 20.2738 104.854 19.2542 104.388 18.3316C103.94 17.4965 103.27 16.8014 102.454 16.3225C101.619 15.8559 100.679 15.611 99.7232 15.611C98.7674 15.611 97.8275 15.8559 96.9928 16.3225C96.176 16.8014 95.5068 17.4965 95.0586 18.3316C94.5924 19.2542 94.3494 20.2738 94.3494 21.308C94.3494 22.3421 94.5924 23.3617 95.0586 24.2844C95.5061 25.1191 96.1756 25.8135 96.9928 26.2904C97.8269 26.7587 98.7671 27.0046 99.7232 27.0046C100.679 27.0046 101.619 26.7587 102.454 26.2904Z" fill="#1A1A1A"/>
<path d="M118.052 30.3591C116.433 29.5166 115.079 28.2398 114.142 26.6714C113.209 25.0406 112.718 23.1936 112.718 21.3139C112.718 19.4342 113.209 17.5872 114.142 15.9564C115.08 14.3879 116.433 13.1103 118.052 12.2657C119.786 11.3655 121.715 10.9104 123.667 10.9412C125.357 10.9134 127.033 11.242 128.587 11.9055C130.01 12.5237 131.26 13.4824 132.227 14.6974L128.644 17.9446C127.354 16.389 125.791 15.6101 123.953 15.6082C122.945 15.5903 121.949 15.8355 121.065 16.3195C120.231 16.7854 119.55 17.4832 119.104 18.3286C118.645 19.2534 118.406 20.2722 118.406 21.305C118.406 22.3377 118.645 23.3565 119.104 24.2814C119.549 25.1266 120.231 25.8236 121.065 26.2874C121.949 26.7738 122.944 27.0201 123.953 27.0018C125.791 27.0018 127.354 26.223 128.644 24.6653L132.227 27.9126C131.26 29.1276 130.01 30.0863 128.587 30.7044C127.033 31.37 125.357 31.7006 123.667 31.6747C121.716 31.7096 119.786 31.2575 118.052 30.3591Z" fill="#1A1A1A"/>
<path d="M78.5098 46.5329H71.917L70.5503 49.6402H68.7261L74.3443 37.2049H76.0973L81.7423 49.6343H79.8824L78.5098 46.5329ZM77.8888 45.1131L75.2149 39.0234L72.5409 45.1131H77.8888Z" fill="#1A1A1A"/>
<path d="M85.5901 48.9557C84.6145 48.4278 83.8017 47.6424 83.24 46.6847C82.6828 45.6897 82.3901 44.5679 82.3901 43.427C82.3901 42.2861 82.6828 41.1644 83.24 40.1693C83.8025 39.2084 84.6188 38.4215 85.599 37.8954C86.6326 37.3376 87.7913 37.0538 88.9652 37.0709C89.8798 37.0571 90.7882 37.223 91.6392 37.5591C92.4279 37.8736 93.1321 38.3691 93.6951 39.0056L92.5424 40.1247C92.0973 39.6461 91.5562 39.2673 90.9544 39.0134C90.3527 38.7594 89.7041 38.6361 89.0514 38.6514C88.1791 38.6381 87.3183 38.8514 86.5527 39.2705C85.8235 39.6694 85.2188 40.2628 84.8057 40.9849C84.3927 41.7318 84.1759 42.5716 84.1759 43.4255C84.1759 44.2794 84.3927 45.1193 84.8057 45.8662C85.2181 46.5889 85.823 47.1824 86.5527 47.5806C87.318 48.0007 88.1788 48.215 89.0514 48.2026C89.7052 48.2155 90.3543 48.0895 90.956 47.833C91.5577 47.5765 92.0983 47.1953 92.5424 46.7144L93.6951 47.8306C93.128 48.4694 92.4214 48.9685 91.6303 49.289C90.7799 49.6279 89.8715 49.7967 88.9563 49.7861C87.7816 49.8037 86.6223 49.5177 85.5901 48.9557Z" fill="#1A1A1A"/>
<path d="M103.818 46.5329H97.2249L95.8552 49.6402H94.031L99.6523 37.2049H101.405L107.05 49.6343H105.19L103.818 46.5329ZM103.197 45.1131L100.523 39.0234L97.8488 45.1131H103.197Z" fill="#1A1A1A"/>
<path d="M108.886 37.2049H114.112C115.323 37.1823 116.521 37.4507 117.606 37.9876C118.592 38.4743 119.417 39.2348 119.983 40.1783C120.534 41.1693 120.824 42.285 120.824 43.4196C120.824 44.5541 120.534 45.6698 119.983 46.6608C119.418 47.6051 118.593 48.3657 117.606 48.8515C116.521 49.3884 115.323 49.6568 114.112 49.6343H108.886V37.2049ZM114.008 48.0895C114.926 48.1061 115.833 47.9019 116.656 47.4942C117.394 47.1369 118.013 46.571 118.435 45.8661C118.843 45.1174 119.056 44.2783 119.056 43.4255C119.056 42.5727 118.843 41.7336 118.435 40.9849C118.019 40.2767 117.406 39.7056 116.67 39.3419C115.848 38.9342 114.94 38.7301 114.023 38.7466H110.657V48.0865L114.008 48.0895Z" fill="#1A1A1A"/>
<path d="M132.527 48.0955V49.6402H123.525V37.2049H132.281V38.7496H125.296V42.5624H131.508V44.0714H125.296V48.0836L132.527 48.0955Z" fill="#1A1A1A"/>
<path d="M146.901 49.6402L146.884 40.586L142.4 48.1312H141.583L137.1 40.6396V49.6402H135.397V37.2049H136.856L142.029 45.9406L147.13 37.2049H148.583L148.601 49.6343L146.901 49.6402Z" fill="#1A1A1A"/>
<path d="M157.074 45.3423V49.6402H155.318V45.3066L150.392 37.2049H152.288L156.257 43.7529L160.244 37.2049H162L157.074 45.3423Z" fill="#1A1A1A"/>
<path d="M39.3874 2.08217e-07H21.2431C18.4538 -0.000390684 15.6918 0.549597 13.1146 1.61857C10.5375 2.68754 8.1958 4.25455 6.2232 6.23014C4.25059 8.20573 2.68573 10.5512 1.61795 13.1326C0.550176 15.7141 0.000397435 18.4809 7.29646e-06 21.2752V39.455C-0.00295988 43.0384 0.899094 46.5642 2.6222 49.7043C4.34531 52.8445 6.83345 55.4969 9.85502 57.4146V14.1944L17.3421 9.86078V14.5188C20.8681 11.6154 25.2635 9.97917 29.8265 9.87127C34.3895 9.76337 38.857 11.1901 42.5159 13.9236L37.1353 19.3138C35.1703 18.0973 32.9167 17.4284 30.6073 17.3765C28.298 17.3245 26.0167 17.8912 23.9991 19.0181C21.9816 20.145 20.301 21.7912 19.1311 23.7866C17.9612 25.7819 17.3443 28.054 17.3443 30.3681C17.3443 32.6822 17.9612 34.9543 19.1311 36.9496C20.301 38.945 21.9816 40.5912 23.9991 41.7181C26.0167 42.845 28.298 43.4117 30.6073 43.3597C32.9167 43.3078 35.1703 42.639 37.1353 41.4224L42.5159 46.8186C38.8562 49.5501 34.389 50.9756 29.8266 50.8677C25.2641 50.7598 20.869 49.1248 17.3421 46.2233V60.382C18.6292 60.6149 19.9352 60.7275 21.2431 60.7184H39.3874C45.0201 60.7184 50.4221 58.477 54.4054 54.4872C58.3886 50.4974 60.6267 45.0859 60.6275 39.4431V21.2693C60.6251 15.6275 58.3863 10.2176 54.4033 6.22909C50.4202 2.24058 45.0191 -2.88533e-07 39.3874 2.08217e-07ZM46.7348 42.5951L41.3453 37.2049C42.6155 35.1526 43.2885 32.7858 43.2885 30.3711C43.2885 27.9563 42.6155 25.5895 41.3453 23.5373L46.7348 18.15C49.3621 21.6826 50.7812 25.9703 50.7812 30.3755C50.7812 34.7808 49.3621 39.0685 46.7348 42.6011V42.5951Z" fill="url(#paint0_linear_449_338)"/>
<path d="M50.7813 30.3592C50.7847 34.7664 49.3652 39.0566 46.7347 42.5892L41.3452 37.2049C42.6154 35.1526 43.2884 32.7858 43.2884 30.3711C43.2884 27.9563 42.6154 25.5895 41.3452 23.5373L46.7347 18.15C49.3635 21.6756 50.783 25.9586 50.7813 30.3592Z" fill="white"/>
<path d="M37.1353 41.4135L42.5159 46.8097C38.8562 49.5412 34.389 50.9666 29.8265 50.8587C25.2641 50.7509 20.869 49.1159 17.3421 46.2144V60.3731C14.6802 59.8783 12.1382 58.8749 9.85498 57.4175V14.1944L17.3421 9.86078V14.5188C20.8681 11.6154 25.2635 9.97917 29.8265 9.87127C34.3895 9.76337 38.857 11.19 42.5159 13.9235L37.1353 19.3138C35.1703 18.0973 32.9167 17.4284 30.6073 17.3765C28.2979 17.3245 26.0166 17.8912 23.9991 19.0181C21.9815 20.145 20.301 21.7912 19.131 23.7866C17.9611 25.7819 17.3443 28.054 17.3443 30.3681C17.3443 32.6822 17.9611 34.9543 19.131 36.9496C20.301 38.945 21.9815 40.5912 23.9991 41.7181C26.0166 42.845 28.2979 43.4117 30.6073 43.3597C32.9167 43.3078 35.1703 42.639 37.1353 41.4224V41.4135Z" fill="white"/>
<defs>
<linearGradient id="paint0_linear_449_338" x1="6.02235" y1="54.6941" x2="53.8201" y2="6.98194" gradientUnits="userSpaceOnUse">
<stop stop-color="#146AB4"/>
<stop offset="1" stop-color="#00D4FE"/>
</linearGradient>
</defs>
</svg>
