<svg width="109" height="109" viewBox="0 0 109 109" fill="none" xmlns="http://www.w3.org/2000/svg">
<path d="M70.5659 3.73039e-07H38.0589C33.0616 -0.000699945 28.1131 0.984652 23.496 2.8998C18.8789 4.81495 14.6835 7.6224 11.1494 11.1618C7.61531 14.7013 4.81172 18.9034 2.8987 23.5283C0.985688 28.1531 0.000712039 33.1102 1.30722e-05 38.1164V70.6871C-0.00530289 77.107 1.6108 83.4238 4.6979 89.0496C7.78499 94.6755 12.2427 99.4274 17.6561 102.863V25.4305L31.0699 17.6664V26.0117C37.3871 20.8101 45.2618 17.8786 53.4368 17.6852C61.6118 17.4919 69.6158 20.0479 76.1709 24.9453L66.5311 34.6023C63.0107 32.4228 58.9731 31.2246 54.8357 31.1314C50.6983 31.0383 46.6111 32.0537 42.9965 34.0726C39.3819 36.0916 36.371 39.0409 34.275 42.6157C32.179 46.1905 31.0739 50.2612 31.0739 54.4071C31.0739 58.553 32.179 62.6237 34.275 66.1985C36.371 69.7733 39.3819 72.7226 42.9965 74.7415C46.6111 76.7605 50.6983 77.7759 54.8357 77.6828C58.9731 77.5896 63.0107 76.3914 66.5311 74.2119L76.1709 83.8796C69.6143 88.7733 61.611 91.3272 53.4369 91.1339C45.2629 90.9406 37.3887 88.0113 31.0699 82.8131V108.18C33.3759 108.597 35.7156 108.799 38.0589 108.782H70.5659C80.6574 108.782 90.3357 104.767 97.4719 97.6185C104.608 90.4704 108.618 80.7754 108.619 70.6658V38.1058C108.615 27.998 104.604 18.3057 97.4682 11.16C90.3322 4.01419 80.6556 -5.16933e-07 70.5659 3.73039e-07ZM83.7295 76.3128L74.0737 66.6558C76.3494 62.979 77.5552 58.7387 77.5552 54.4124C77.5552 50.0862 76.3494 45.8459 74.0737 42.1691L83.7295 32.5173C88.4364 38.8463 90.9789 46.528 90.9789 54.4204C90.9789 62.3128 88.4364 69.9946 83.7295 76.3235V76.3128Z" fill="url(#paint0_linear_78_30)"/>
<path d="M90.9788 54.3911C90.985 62.287 88.4418 69.9732 83.729 76.3022L74.0732 66.6558C76.3489 62.979 77.5547 58.7387 77.5547 54.4124C77.5547 50.0862 76.3489 45.8459 74.0732 42.1691L83.729 32.5173C88.4386 38.8337 90.9819 46.5071 90.9788 54.3911V54.3911Z" fill="white"/>
<path d="M66.5313 74.1959L76.1711 83.8637C69.6144 88.7574 61.6111 91.3112 53.437 91.1179C45.263 90.9247 37.3888 87.9954 31.07 82.7972V108.164C26.301 107.277 21.7469 105.48 17.6562 102.869V25.4306L31.07 17.6665V26.0118C37.3872 20.8101 45.2619 17.8786 53.4369 17.6853C61.6119 17.492 69.6159 20.048 76.1711 24.9453L66.5313 34.6024C63.0108 32.4229 58.9733 31.2246 54.8358 31.1315C50.6984 31.0384 46.6112 32.0538 42.9966 34.0727C39.382 36.0917 36.3711 39.0409 34.2751 42.6158C32.1791 46.1906 31.074 50.2613 31.074 54.4072C31.074 58.5531 32.1791 62.6237 34.2751 66.1986C36.3711 69.7734 39.382 72.7227 42.9966 74.7416C46.6112 76.7606 50.6984 77.7759 54.8358 77.6828C58.9733 77.5897 63.0108 76.3915 66.5313 74.2119V74.1959Z" fill="white"/>
<defs>
<linearGradient id="paint0_linear_78_30" x1="10.7896" y1="97.9893" x2="96.4234" y2="12.5087" gradientUnits="userSpaceOnUse">
<stop stop-color="#146AB4"/>
<stop offset="1" stop-color="#00D4FE"/>
</linearGradient>
</defs>
</svg>
