<svg width="29" height="34" viewBox="0 0 29 34" fill="none" xmlns="http://www.w3.org/2000/svg">
<path d="M28.3433 8.01039L14.5 0L0.656708 8.01039L0 8.39091V25.1716L0.656708 25.5521L14.5 33.5625L28.3433 25.5521L29 25.1716V8.39091L28.3433 8.01039ZM26.3743 23.6518L14.5 30.5229L10.0308 27.9369V21.4681C11.3822 22.582 13.0993 23.1514 14.847 23.0652C16.5946 22.979 18.2476 22.2434 19.4835 21.0018L17.6593 19.1735C17.0343 19.8002 16.238 20.2271 15.371 20.4002C14.5039 20.5733 13.6052 20.4847 12.7884 20.1458C11.9716 19.8068 11.2734 19.2327 10.7822 18.496C10.291 17.7593 10.0288 16.8931 10.0288 16.0071C10.0288 15.121 10.291 14.2548 10.7822 13.5181C11.2734 12.7814 11.9716 12.2073 12.7884 11.8684C13.6052 11.5294 14.5039 11.4409 15.371 11.6139C16.238 11.787 17.0343 12.2139 17.6593 12.8406L19.4835 11.0123C18.4979 10.0238 17.242 9.35042 15.8746 9.07743C14.5072 8.80443 13.0898 8.94404 11.8016 9.4786C10.5134 10.0132 9.41225 10.9187 8.63758 12.0805C7.8629 13.2424 7.44946 14.6085 7.44953 16.0059V26.4423L2.62683 23.6506V9.91071L14.5 3.04075L26.3743 9.91071V23.6518Z" fill="black"/>
<path d="M21.5504 16.0071C21.5511 16.935 21.3688 17.854 21.0141 18.7111C20.6593 19.5683 20.1392 20.3468 19.4834 21.0018L17.6592 19.1735C18.0748 18.7581 18.4046 18.2646 18.6297 17.7213C18.8547 17.1779 18.9705 16.5954 18.9705 16.0071C18.9705 15.4188 18.8547 14.8362 18.6297 14.2929C18.4046 13.7495 18.0748 13.256 17.6592 12.8406L19.4834 11.0123C20.1394 11.6672 20.6598 12.4456 21.0145 13.3028C21.3693 14.16 21.5514 15.079 21.5504 16.0071Z" fill="#00A9DC"/>
</svg>
