<svg width="27" height="27" viewBox="0 0 27 27" fill="none" xmlns="http://www.w3.org/2000/svg">
<path d="M11 0.5C5.21285 0.5 0.5 5.21285 0.5 11C0.5 16.7871 5.21285 21.5 11 21.5C13.3544 21.5 15.5292 20.7176 17.2819 19.4031L22.9362 25.0574C23.0737 25.1995 23.2378 25.313 23.4192 25.3914C23.6024 25.4706 23.7996 25.5124 23.9991 25.5144C24.1987 25.5164 24.3966 25.4786 24.5814 25.4032C24.7662 25.3278 24.934 25.2162 25.0751 25.0751C25.2162 24.934 25.3278 24.7662 25.4032 24.5814C25.4786 24.3966 25.5164 24.1987 25.5144 23.9991C25.5124 23.7996 25.4706 23.6024 25.3914 23.4192C25.313 23.2378 25.1995 23.0737 25.0574 22.9362L19.4031 17.2819C20.7176 15.5292 21.5 13.3544 21.5 11C21.5 5.21285 16.7871 0.5 11 0.5ZM11 3.5C15.154 3.5 18.5 6.84602 18.5 11C18.5 15.154 15.154 18.5 11 18.5C6.84602 18.5 3.5 15.154 3.5 11C3.5 6.84602 6.84602 3.5 11 3.5Z" fill="white" stroke="white"/>
</svg>
