<svg width="46" height="46" viewBox="0 0 46 46" fill="none" xmlns="http://www.w3.org/2000/svg">
<path d="M40.2985 25.3732C39.7906 25.3732 39.2597 25.2112 38.7519 25.0954C37.7235 24.8682 36.7129 24.5664 35.728 24.1926C34.6572 23.8019 33.4801 23.8222 32.4233 24.2496C31.3665 24.6769 30.5046 25.4812 30.0035 26.5076L29.4957 27.5494C27.2474 26.295 25.1814 24.7372 23.3556 22.9193C21.5431 21.0882 19.9897 19.0162 18.7391 16.7614L19.7085 16.1132C20.732 15.6107 21.5339 14.7463 21.96 13.6864C22.3862 12.6265 22.4064 11.4459 22.0168 10.372C21.6503 9.38213 21.3496 8.36903 21.1166 7.33932C21.0012 6.83002 20.9088 6.29756 20.8396 5.76511C20.5593 4.13446 19.7077 2.65777 18.4381 1.60096C17.1685 0.544152 15.5645 -0.023321 13.9147 0.00073456H6.98988C5.99508 -0.00863322 5.00994 0.197079 4.10154 0.603865C3.19314 1.01065 2.38279 1.60896 1.72567 2.35807C1.06855 3.10717 0.580077 3.98948 0.293511 4.94493C0.00694493 5.90039 -0.0709878 6.90655 0.065018 7.89492C1.29473 17.5934 5.71115 26.6046 12.6167 33.505C19.5222 40.4055 28.5232 44.802 38.1979 46H39.0751C40.7772 46.0025 42.4207 45.3762 43.6916 44.2406C44.4219 43.5855 45.0052 42.7825 45.4032 41.8846C45.8011 40.9867 46.0045 40.0144 45.9999 39.0318V32.0868C45.9716 30.4787 45.3878 28.9304 44.348 27.706C43.3082 26.4816 41.8769 25.6571 40.2985 25.3732ZM41.4526 39.2633C41.4522 39.592 41.382 39.9168 41.2467 40.2162C41.1113 40.5156 40.914 40.7826 40.6678 40.9996C40.4099 41.2229 40.1083 41.3897 39.7823 41.4894C39.4564 41.5891 39.1133 41.6194 38.775 41.5783C30.1302 40.4667 22.1005 36.5003 15.9523 30.3049C9.80413 24.1095 5.88746 16.0376 4.82009 7.36247C4.78335 7.02336 4.81555 6.6803 4.91473 6.35403C5.01392 6.02775 5.17803 5.72503 5.39716 5.46416C5.61347 5.21722 5.87973 5.01931 6.17824 4.88359C6.47674 4.74788 6.80063 4.67747 7.12838 4.67706H14.0532C14.59 4.66508 15.1142 4.84114 15.5355 5.17495C15.9568 5.50875 16.2489 5.97941 16.3615 6.50591C16.4539 7.13868 16.5693 7.76374 16.7078 8.38107C16.9744 9.60142 17.3293 10.8007 17.7696 11.9693L14.538 13.4741C14.2617 13.6012 14.0131 13.7819 13.8066 14.0056C13.6001 14.2294 13.4397 14.4918 13.3346 14.7779C13.2295 15.064 13.1818 15.3681 13.1942 15.6727C13.2066 15.9773 13.2789 16.2765 13.4069 16.5531C16.729 23.6897 22.449 29.4264 29.5649 32.7581C30.1269 32.9897 30.7572 32.9897 31.3192 32.7581C31.6071 32.6549 31.8716 32.4953 32.0975 32.2886C32.3234 32.082 32.5061 31.8324 32.6349 31.5543L34.0661 28.3133C35.2594 28.7413 36.4773 29.0969 37.7132 29.3782C38.3287 29.5171 38.952 29.6329 39.5829 29.7255C40.1079 29.8384 40.5772 30.1314 40.91 30.5539C41.2428 30.9764 41.4184 31.5021 41.4064 32.0405L41.4526 39.2633Z" fill="#00A9DC"/>
</svg>
