<svg width="62" height="57" viewBox="0 0 62 57" fill="none" xmlns="http://www.w3.org/2000/svg">
<path d="M22.8751 23.0891C20.4122 23.0891 17.9427 23.0891 15.4797 23.0891C11.9368 23.0891 8.39386 23.0891 4.85751 23.0891C4.48215 23.0891 4.10678 23.0891 3.738 23.0891C3.68532 23.0891 3.63922 23.0891 3.58654 23.0891C3.55361 23.0891 3.52727 23.0891 3.49434 23.0891C3.34288 23.0763 3.36922 23.0827 3.57337 23.1083C3.5602 23.1211 3.38239 23.0699 3.35605 23.0635C3.32971 23.0571 3.14532 23.0187 3.14532 22.9995C3.198 23.0187 3.25068 23.0443 3.29678 23.0635C3.2441 23.0379 3.19141 23.0123 3.14532 22.9868C3.11898 22.974 2.928 22.878 2.928 22.8524C2.9741 22.8844 3.01361 22.9164 3.05971 22.9484C3.01361 22.91 2.9741 22.8716 2.93458 22.8333C2.94117 22.8397 2.81605 22.7181 2.81605 22.7117C2.928 22.8652 2.94776 22.8844 2.86215 22.7693C2.82922 22.7245 2.79629 22.6734 2.76995 22.6286C2.75678 22.603 2.74361 22.5774 2.73044 22.5518C2.67117 22.4239 2.67776 22.4495 2.75678 22.6286C2.73702 22.6286 2.68434 22.4047 2.67776 22.3855C2.67776 22.3983 2.63166 22.2193 2.64483 22.2129C2.65141 22.2704 2.66458 22.3216 2.67117 22.3792C2.66458 22.3216 2.66458 22.2576 2.66458 22.2001C2.66458 22.1873 2.66458 22.1745 2.66458 22.1617C2.66458 22.0658 2.66458 21.9634 2.66458 21.8675C2.66458 21.407 2.66458 20.9529 2.66458 20.4924C2.66458 16.9555 2.66458 13.4121 2.66458 9.87522C2.66458 8.29544 2.66458 6.71566 2.66458 5.13588C2.66458 4.68817 2.66458 4.24046 2.66458 3.79275C2.66458 3.69681 2.66458 3.59448 2.66458 3.49854C2.66458 3.48575 2.66458 3.47296 2.66458 3.46656C2.66458 3.43458 2.66458 3.409 2.66458 3.37702C2.67776 3.26189 2.67117 3.26189 2.658 3.37062C2.65141 3.39621 2.65141 3.42819 2.64483 3.45377C2.65141 3.39621 2.66459 3.33864 2.67776 3.28108C2.68434 3.2555 2.73702 3.03804 2.75678 3.03804C2.67776 3.21073 2.67117 3.23631 2.73044 3.11479C2.75678 3.06362 2.78312 3.01885 2.81605 2.96768C2.82922 2.9421 2.84898 2.92291 2.86215 2.89733C2.928 2.80779 2.928 2.80779 2.86215 2.89093C2.84239 2.91012 2.82922 2.9357 2.80946 2.95489C2.84898 2.91012 2.88849 2.87175 2.928 2.83337C2.94776 2.81418 2.96751 2.795 2.98727 2.77581C3.09263 2.68627 3.07288 2.69906 2.92141 2.81418C2.92141 2.7886 3.11239 2.69266 3.13873 2.67987C3.16507 2.66708 3.19141 2.65429 3.21776 2.64149C3.34946 2.58393 3.32312 2.59033 3.13873 2.66708C3.17824 2.66708 3.25727 2.6287 3.30337 2.61591C3.32971 2.60952 3.55361 2.53916 3.56678 2.55835C3.36263 2.58393 3.33629 2.59033 3.48776 2.57754C3.52068 2.57754 3.54703 2.57754 3.57995 2.57754C3.63264 2.57754 3.6919 2.57754 3.74459 2.57754C4.12654 2.57754 4.50849 2.57754 4.89044 2.57754C6.45118 2.57754 8.00532 2.57754 9.56606 2.57754C13.2802 2.57754 16.9878 2.57754 20.7019 2.57754C21.4263 2.57754 22.1573 2.56474 22.8817 2.57754C22.9146 2.57754 22.941 2.57754 22.9739 2.57754C23.1253 2.59033 23.099 2.58393 22.8949 2.55835C22.908 2.53916 23.1319 2.60952 23.1583 2.61591C23.1846 2.62231 23.2175 2.6351 23.2439 2.64149C23.3756 2.69266 23.3558 2.67987 23.1714 2.60952C23.1846 2.59672 23.3427 2.69906 23.3624 2.70545C23.3888 2.71825 23.5402 2.795 23.5402 2.82058C23.4941 2.7886 23.4546 2.75662 23.4085 2.72464C23.4546 2.76302 23.4941 2.80139 23.5336 2.83977C23.5534 2.85895 23.5732 2.87814 23.5929 2.89733C23.6851 2.99966 23.6719 2.98048 23.5534 2.83337C23.5995 2.83337 23.7114 3.08281 23.7378 3.12119C23.8497 3.29387 23.6851 3.04443 23.7114 3.04443C23.7312 3.04443 23.7839 3.26829 23.7905 3.28748C23.7971 3.31306 23.8036 3.34504 23.8102 3.37062C23.8366 3.51133 23.83 3.48575 23.8036 3.28748C23.8102 3.28748 23.8102 3.46656 23.8102 3.46656C23.8102 3.47935 23.8102 3.49854 23.8102 3.51133C23.8102 3.79915 23.8102 4.09336 23.8102 4.38117C23.8102 7.70702 23.8102 11.0329 23.8102 14.3587C23.8102 16.9618 23.8432 19.565 23.8102 22.1681C23.8102 22.1809 23.8102 22.1937 23.8102 22.2001C23.8102 22.232 23.8102 22.2576 23.8102 22.2896C23.7971 22.4367 23.8036 22.4111 23.83 22.2129C23.8497 22.2257 23.7773 22.4431 23.7707 22.4687C23.7641 22.5007 23.6522 22.7501 23.7444 22.5582C23.8366 22.36 23.7114 22.6094 23.6983 22.635C23.6851 22.6606 23.5863 22.8461 23.56 22.8461C23.5929 22.8013 23.6258 22.7629 23.6588 22.7181C23.6192 22.7629 23.5797 22.8013 23.5402 22.8397C23.5205 22.8588 23.5007 22.878 23.481 22.8972C23.3756 22.9868 23.3953 22.974 23.5468 22.8588C23.5468 22.8716 23.4283 22.942 23.4019 22.9548C23.3822 22.9676 23.1846 23.0891 23.1714 23.0763C23.2241 23.0571 23.2768 23.0315 23.3229 23.0123C23.2702 23.0315 23.211 23.0507 23.1583 23.0635C23.1319 23.0699 22.908 23.1403 22.8949 23.1211C22.9541 23.1147 23.0068 23.1019 23.0661 23.0955C23.0002 23.0891 22.941 23.0891 22.8751 23.0891C22.1836 23.1019 21.5251 23.6647 21.558 24.3683C21.591 25.0526 22.1375 25.6602 22.8751 25.6474C24.8375 25.6091 26.3983 24.0996 26.4312 22.1937C26.4378 21.9762 26.4312 21.7651 26.4312 21.5477C26.4312 20.1918 26.4312 18.8422 26.4312 17.4863C26.4312 13.7191 26.4312 9.95837 26.4312 6.1912C26.4312 5.28938 26.4444 4.38757 26.4312 3.48575C26.4114 1.98272 25.4697 0.690754 24.0144 0.18548C23.5139 0.0127918 22.9871 0 22.4668 0C19.2334 0 16 0 12.7666 0C9.75703 0 6.74093 0 3.73142 0C2.68434 0 1.65044 0.351773 0.945802 1.13207C0.300435 1.84201 0.0238492 2.70545 0.0238492 3.63925C0.0238492 4.73294 0.0238492 5.82664 0.0238492 6.92033C0.0238492 10.7131 0.0238492 14.5058 0.0238492 18.2986C0.0238492 19.4882 0.0238492 20.6778 0.0238492 21.8675C0.0238492 22.5263 0.109459 23.1531 0.412386 23.7543C1.00507 24.9375 2.30239 25.6283 3.63264 25.641C6.47752 25.6602 9.32898 25.641 12.1739 25.641C15.5456 25.641 18.9173 25.641 22.2824 25.641C22.48 25.641 22.6775 25.641 22.8685 25.641C23.56 25.641 24.2185 25.0526 24.1856 24.3619C24.1592 23.6775 23.6127 23.0891 22.8751 23.0891ZM22.8751 31.3398C20.3134 31.3398 17.7517 31.3398 15.19 31.3398C11.647 31.3398 8.1041 31.3398 4.56117 31.3398C4.25166 31.3398 3.94215 31.3398 3.63264 31.3398C2.10483 31.3526 0.800924 32.2352 0.247752 33.6039C-0.107858 34.4929 0.0238492 35.6378 0.0238492 36.578C0.0238492 40.2108 0.0238492 43.8437 0.0238492 47.4829C0.0238492 49.0499 0.0238492 50.6233 0.0238492 52.1903C0.0238492 52.5868 0.0238492 52.977 0.0238492 53.3735C0.0238492 54.3457 0.346533 55.2795 1.06434 55.9767C1.78873 56.6802 2.75019 56.9872 3.75776 56.9872C4.15946 56.9872 4.56117 56.9872 4.9563 56.9872C6.56971 56.9872 8.18971 56.9872 9.80313 56.9872C13.5568 56.9872 17.317 56.9872 21.0707 56.9872C22.1836 56.9872 23.369 57.1023 24.4095 56.6418C25.6673 56.0854 26.418 54.8062 26.4312 53.4887C26.4312 53.1881 26.4312 52.8875 26.4312 52.5868C26.4312 49.1459 26.4312 45.7049 26.4312 42.2639C26.4312 39.7759 26.4773 37.2879 26.4312 34.7999C26.3983 32.8876 24.8375 31.3781 22.8751 31.3398C22.1836 31.327 21.5251 31.941 21.558 32.6189C21.591 33.3225 22.1375 33.8853 22.8751 33.8981C22.908 33.8981 22.9344 33.8981 22.9673 33.8981C23.1188 33.9109 23.0924 33.9045 22.8883 33.8789C22.9014 33.8597 23.1253 33.9301 23.1517 33.9365C23.178 33.9429 23.211 33.9557 23.2373 33.9621C23.369 34.0132 23.3492 34.0004 23.1649 33.9301C23.178 33.9173 23.3361 34.0196 23.3558 34.026C23.3822 34.0388 23.5336 34.1156 23.5336 34.1412C23.4875 34.1092 23.448 34.0772 23.4019 34.0452C23.448 34.0836 23.4875 34.122 23.5271 34.1603C23.5468 34.1795 23.5666 34.1987 23.5863 34.2179C23.6785 34.3202 23.6653 34.3011 23.5468 34.1539C23.5929 34.1539 23.7049 34.4034 23.7312 34.4418C23.8432 34.6144 23.6785 34.365 23.7049 34.365C23.7246 34.365 23.7773 34.5889 23.7839 34.6081C23.7905 34.6336 23.7971 34.6656 23.8036 34.6912C23.83 34.8319 23.8234 34.8063 23.7971 34.6081C23.8036 34.6081 23.8036 34.7871 23.8036 34.7871C23.8036 34.7999 23.8036 34.8191 23.8036 34.8319C23.8036 35.1197 23.8036 35.4139 23.8036 35.7017C23.8036 37.1088 23.8036 38.5095 23.8036 39.9166C23.8036 43.5879 23.8036 47.2527 23.8036 50.9239C23.8036 51.781 23.8168 52.6316 23.8036 53.4887C23.8036 53.5015 23.8036 53.5142 23.8036 53.5206C23.8036 53.5526 23.8036 53.5782 23.8036 53.6102C23.7905 53.7573 23.7971 53.7317 23.8234 53.5334C23.8432 53.5462 23.7707 53.7637 23.7641 53.7893C23.7575 53.8213 23.6456 54.0707 23.7378 53.8788C23.83 53.6805 23.6653 53.9939 23.6456 54.0259C23.6324 54.0515 23.6127 54.0707 23.5995 54.0963C23.5205 54.205 23.5336 54.1858 23.6456 54.0387C23.6522 54.0515 23.481 54.205 23.4678 54.2178C23.2768 54.4225 23.7114 54.0835 23.4678 54.2242C23.4151 54.2498 23.369 54.2818 23.3229 54.3137C23.2966 54.3265 23.2702 54.3393 23.2439 54.3521C23.1122 54.4097 23.1385 54.4033 23.3229 54.3265C23.3229 54.3457 23.0924 54.3969 23.0727 54.4033C23.0463 54.4097 23.0134 54.4161 22.9871 54.4225C22.8422 54.448 22.8685 54.4417 23.0727 54.4161C23.0463 54.4033 22.9278 54.4225 22.8883 54.4225C22.6775 54.4289 22.4602 54.4225 22.2495 54.4225C18.9634 54.4225 15.6707 54.4225 12.3846 54.4225C9.5002 54.4225 6.61581 54.4225 3.73142 54.4225C3.65239 54.4225 3.57337 54.4225 3.50093 54.4225C3.19142 54.4289 3.7841 54.4928 3.49434 54.4289C3.43507 54.4161 3.37581 54.4033 3.32312 54.3905C3.29678 54.3841 3.26385 54.3713 3.23751 54.3649C3.10581 54.3137 3.12556 54.3265 3.30995 54.3969C3.29678 54.4097 3.09922 54.2881 3.07946 54.2754C3.05312 54.2626 3.03337 54.2434 3.00702 54.2306C2.89507 54.1538 2.91483 54.1666 3.06629 54.2754C3.05312 54.2818 2.89507 54.1155 2.8819 54.1027C2.73044 53.9684 2.95434 54.1666 2.92141 54.1666C2.87532 54.1666 2.76337 53.9172 2.73702 53.8788C2.58556 53.6422 2.80288 54.1474 2.73702 53.8724C2.71727 53.7893 2.69093 53.7061 2.67117 53.623C2.6119 53.4247 2.7041 53.7125 2.67776 53.7061C2.67117 53.7061 2.67117 53.527 2.67117 53.527C2.67117 53.5143 2.67117 53.4951 2.67117 53.4823C2.67117 53.3799 2.67117 53.2776 2.67117 53.1753C2.67117 51.9984 2.67117 50.8216 2.67117 49.6447C2.67117 45.9351 2.67117 42.2319 2.67117 38.5223C2.67117 37.3839 2.67117 36.2454 2.67117 35.1133C2.67117 35.0174 2.67117 34.9215 2.67117 34.8255C2.67117 34.7871 2.67117 34.7424 2.67117 34.7104C2.66458 34.4482 2.67117 34.7999 2.65141 34.7871C2.63166 34.7743 2.7041 34.5569 2.71068 34.5313C2.71727 34.5057 2.73044 34.4737 2.73702 34.4482C2.78971 34.3202 2.77654 34.3394 2.7041 34.5185C2.68434 34.4993 2.85556 34.2563 2.87532 34.2243C3.00702 34.0132 2.8358 34.2947 2.82922 34.2819C2.82263 34.2691 2.99385 34.1156 3.00702 34.1028C3.198 33.8981 2.76337 34.2371 3.00702 34.0964C3.07946 34.0516 3.15849 34.0132 3.23093 33.9685C3.47459 33.8214 2.95434 34.0324 3.23751 33.9685C3.29678 33.9557 3.34946 33.9365 3.40873 33.9237C3.43507 33.9173 3.468 33.9109 3.49434 33.9045C3.63922 33.8789 3.61288 33.8853 3.40873 33.9109C3.40873 33.9045 3.59312 33.9045 3.59312 33.9045C3.65239 33.9045 3.71166 33.9045 3.77093 33.9045C6.708 33.9045 9.64508 33.9045 12.5822 33.9045C15.8287 33.9045 19.0753 33.9045 22.3219 33.9045C22.5129 33.9045 22.6973 33.9045 22.8883 33.9045C23.5797 33.9045 24.2383 33.3161 24.2053 32.6253C24.1593 31.9282 23.6127 31.3398 22.8751 31.3398ZM32.0551 8.2059C33.01 8.2059 33.9583 8.2059 34.9132 8.2059C37.1851 8.2059 39.4637 8.2059 41.7356 8.2059C44.4949 8.2059 47.2607 8.2059 50.02 8.2059C52.3973 8.2059 54.7747 8.2059 57.152 8.2059C58.311 8.2059 59.47 8.23788 60.6291 8.2059C60.6488 8.2059 60.662 8.2059 60.6817 8.2059C61.3732 8.2059 62.0317 7.61748 61.9988 6.92673C61.9659 6.23597 61.4193 5.64755 60.6817 5.64755C59.7269 5.64755 58.7786 5.64755 57.8237 5.64755C55.5517 5.64755 53.2732 5.64755 51.0012 5.64755C48.242 5.64755 45.4761 5.64755 42.7168 5.64755C40.3395 5.64755 37.9622 5.64755 35.5849 5.64755C34.4258 5.64755 33.2668 5.61557 32.1078 5.64755C32.088 5.64755 32.0749 5.64755 32.0551 5.64755C31.3637 5.64755 30.7051 6.23597 30.738 6.92673C30.771 7.61748 31.3176 8.2059 32.0551 8.2059ZM50.3361 17.4415C48.2683 17.4415 46.2071 17.4415 44.1393 17.4415C40.8598 17.4415 37.5868 17.4415 34.3073 17.4415C33.5566 17.4415 32.8058 17.4415 32.0551 17.4415C31.3637 17.4415 30.7051 18.03 30.738 18.7207C30.771 19.4115 31.3176 19.9999 32.0551 19.9999C34.1229 19.9999 36.1841 19.9999 38.252 19.9999C41.5315 19.9999 44.8044 19.9999 48.0839 19.9999C48.8347 19.9999 49.5854 19.9999 50.3361 19.9999C51.0276 19.9999 51.6861 19.4115 51.6532 18.7207C51.6203 18.03 51.0737 17.4415 50.3361 17.4415ZM32.0551 39.5457C33.01 39.5457 33.9583 39.5457 34.9132 39.5457C37.1851 39.5457 39.4637 39.5457 41.7356 39.5457C44.4949 39.5457 47.2607 39.5457 50.02 39.5457C52.3973 39.5457 54.7747 39.5457 57.152 39.5457C58.311 39.5457 59.47 39.5776 60.6291 39.5457C60.6488 39.5457 60.662 39.5457 60.6817 39.5457C61.3732 39.5457 62.0317 38.9572 61.9988 38.2665C61.9659 37.5757 61.4193 36.9873 60.6817 36.9873C59.7269 36.9873 58.7786 36.9873 57.8237 36.9873C55.5517 36.9873 53.2732 36.9873 51.0012 36.9873C48.242 36.9873 45.4761 36.9873 42.7168 36.9873C40.3395 36.9873 37.9622 36.9873 35.5849 36.9873C34.4258 36.9873 33.2668 36.9553 32.1078 36.9873C32.088 36.9873 32.0749 36.9873 32.0551 36.9873C31.3637 36.9873 30.7051 37.5757 30.738 38.2665C30.771 38.9572 31.3176 39.5457 32.0551 39.5457ZM50.3361 48.7813C48.2683 48.7813 46.2071 48.7813 44.1393 48.7813C40.8598 48.7813 37.5868 48.7813 34.3073 48.7813C33.5566 48.7813 32.8058 48.7813 32.0551 48.7813C31.3637 48.7813 30.7051 49.3697 30.738 50.0605C30.771 50.7512 31.3176 51.3397 32.0551 51.3397C34.1229 51.3397 36.1841 51.3397 38.252 51.3397C41.5315 51.3397 44.8044 51.3397 48.0839 51.3397C48.8347 51.3397 49.5854 51.3397 50.3361 51.3397C51.0276 51.3397 51.6861 50.7512 51.6532 50.0605C51.6203 49.3697 51.0737 48.7813 50.3361 48.7813Z" fill="#353535"/>
</svg>
