<svg width="55" height="55" viewBox="0 0 55 55" fill="none" xmlns="http://www.w3.org/2000/svg">
<rect x="1" y="1" width="53" height="53" rx="26.5" stroke="#C5C9CE" stroke-width="2"/>
<path d="M16 38C16 38.1 16 38.2 16.1 38.3V38.4C16.1 38.4 16.1 38.4 16.1 38.5C16.1 38.6 16.2 38.7 16.3 38.7C16.4 38.8 16.5 38.8 16.5 38.9H16.6C16.8 39 16.9 39 17 39H24.1C24.5 40.7 26.1 42 28 42C29.9 42 31.4 40.7 31.9 39H39C39.6 39 40 38.6 40 38C40 37.7 39.9 37.5 39.7 37.3L38 34.7V30C38 25.6 35.1 21.8 31.1 20.5C31.7 19.8 32 18.9 32 18C32 15.8 30.2 14 28 14C25.8 14 24 15.8 24 18C24 18.9 24.3 19.8 24.9 20.5C20.9 21.8 18 25.6 18 30V34.7L16.2 37.4C16.2 37.4 16.2 37.5 16.1 37.5V37.6C16 37.8 16 37.9 16 38ZM28 40C27.3 40 26.6 39.6 26.3 39H29.7C29.4 39.6 28.7 40 28 40ZM26 18C26 16.9 26.9 16 28 16C29.1 16 30 16.9 30 18C30 19.1 29.1 20 28 20C26.9 20 26 19.1 26 18ZM19.8 35.6C19.9 35.4 20 35.2 20 35V30C20 25.6 23.6 22 28 22C32.4 22 36 25.6 36 30V35C36 35.2 36.1 35.4 36.2 35.6L37.2 37H18.9L19.8 35.6Z" fill="#C5C9CE"/>
</svg>
