<svg width="45" height="46" viewBox="0 0 45 46" fill="none" xmlns="http://www.w3.org/2000/svg">
<circle cx="22.5" cy="23.0244" r="22.5" fill="#00A9DC"/>
<path d="M21.4335 17.2844L17.7686 13.0539C17.3461 12.5664 16.5715 12.5686 16.0807 13.0604L13.0669 16.0797C12.1699 16.9778 11.9132 18.3114 12.4321 19.3806C15.5322 25.7993 20.7088 30.9832 27.1232 34.0923C28.1913 34.6112 29.5238 34.3544 30.4208 33.4564L33.4628 30.4089C33.9557 29.916 33.9568 29.1371 33.465 28.7146L29.2183 25.0692C28.7742 24.6879 28.0841 24.7377 27.6388 25.184L26.1612 26.6639C26.0855 26.7431 25.9859 26.7954 25.8777 26.8126C25.7695 26.8299 25.6586 26.8111 25.5621 26.7592C23.1467 25.3683 21.1432 23.3621 19.7554 20.9449C19.7034 20.8483 19.6846 20.7372 19.7018 20.6288C19.7191 20.5204 19.7714 20.4206 19.8507 20.3448L21.3241 18.8704C21.7704 18.4219 21.8192 17.7285 21.4335 17.2833V17.2844Z" stroke="#001B35" stroke-width="2" stroke-linecap="round" stroke-linejoin="round"/>
</svg>
