<svg width="162" height="163" viewBox="0 0 162 163" fill="none" xmlns="http://www.w3.org/2000/svg">
<circle cx="81" cy="81.5244" r="81" fill="#FFF7EE"/>
<path d="M80.0703 44C73.8165 43.9853 62.4327 49.9072 62.0719 55.172C61.711 60.4369 62.8009 60.7613 63.3078 61.0494H69.1786C70.52 58.0693 72.1538 56.3272 76.4398 56.3627C80.7257 56.3982 85.4269 61.6729 83.4435 66.344C81.46 71.0151 79.6271 72.6421 77.1865 77.6933C74.7459 82.7446 73.9306 90.3746 77.135 96.7187L84.3704 96.8453C82.5796 87.7894 92.059 79.7212 95.8287 74.1467C99.5982 68.5721 99.9565 66.4474 100 61.8347C99.9667 57.4575 98.3557 53.0832 94.8502 49.5227C91.3448 45.9622 86.3242 44.0148 80.0703 44ZM80.4308 102.748C75.5916 102.748 71.6761 106.6 71.6761 111.361C71.6761 116.122 75.5916 120 80.4308 120C85.2699 120 89.1854 116.122 89.1854 111.361C89.1854 106.6 85.2699 102.748 80.4308 102.748Z" fill="#F7931E"/>
</svg>
