<svg width="162" height="163" viewBox="0 0 162 163" fill="none" xmlns="http://www.w3.org/2000/svg">
<circle cx="81" cy="81.5244" r="81" fill="#FFF7EE"/>
<path d="M47.4333 55.3911H39V114.424C39 119.063 42.795 122.858 47.4333 122.858H106.467V114.424H47.4333V55.3911Z" fill="#F7931E"/>
<path d="M114.9 38.5244H64.3C59.6617 38.5244 55.8667 42.3194 55.8667 46.9577V97.5577C55.8667 102.196 59.6617 105.991 64.3 105.991H114.9C119.538 105.991 123.333 102.196 123.333 97.5577V46.9577C123.333 42.3194 119.538 38.5244 114.9 38.5244ZM89.6422 93.341C87.1543 93.341 85.2147 91.3592 85.2147 88.9135C85.2147 86.4257 87.1965 84.5282 89.6422 84.5282C92.13 84.5282 94.0275 86.4257 94.0275 88.9135C93.9853 91.3592 92.13 93.341 89.6422 93.341ZM100.184 67.3242C97.5273 71.2457 94.9973 72.4264 93.6058 74.9564C93.0577 75.9684 92.8468 76.643 92.8468 79.932H86.4375C86.4375 78.2032 86.1845 75.378 87.5338 72.9745C89.2627 69.8964 92.5095 68.0832 94.407 65.3846C96.431 62.5172 95.2925 57.2042 89.6 57.2042C85.8893 57.2042 84.034 60.0294 83.275 62.3907L77.4982 59.9872C79.1005 55.2224 83.3593 51.1744 89.5578 51.1744C94.7443 51.1744 98.3285 53.5357 100.142 56.4874C101.702 59.0596 102.587 63.7822 100.184 67.3242Z" fill="#F7931E"/>
</svg>
