<svg width="56" height="54" viewBox="0 0 56 54" fill="none" xmlns="http://www.w3.org/2000/svg">
<path d="M54.4853 21.3322L54.4568 21.4763V21.6232C54.4568 21.6416 54.4545 21.6584 54.4509 21.6724C54.4474 21.6863 54.4433 21.6949 54.441 21.699C54.4409 21.6991 54.4408 21.6993 54.4407 21.6995C54.4407 21.6995 54.4406 21.6995 54.4405 21.6996L54.231 21.8055L54.0639 21.9704L42.5928 33.2901L42.0343 33.8411L42.1684 34.6141L44.9641 50.7321C44.9644 50.7338 44.9647 50.7355 44.965 50.7373C45.0991 51.5663 44.599 52.2041 44.0242 52.3841H44.0238H44.0228H44.0218H44.0209H44.0199H44.0189H44.018H44.017H44.0161H44.0151H44.0141H44.0132H44.0123H44.0113H44.0104H44.0094H44.0085H44.0076H44.0066H44.0057H44.0048H44.0038H44.0029H44.002H44.0011H44.0002H43.9993H43.9984H43.9974H43.9965H43.9956H43.9947H43.9938H43.9929H43.992H43.9911H43.9902H43.9894H43.9885H43.9876H43.9867H43.9858H43.9849H43.984H43.9832H43.9823H43.9814H43.9805H43.9797H43.9788H43.9779H43.9771H43.9762H43.9753H43.9745H43.9736H43.9728H43.9719H43.971H43.9702H43.9693H43.9685H43.9676H43.9668H43.9659H43.9651H43.9642H43.9634H43.9625H43.9617H43.9609H43.96H43.9592H43.9583H43.9575H43.9567H43.9558H43.955H43.9542H43.9533H43.9525H43.9517H43.9508H43.95H43.9492H43.9483H43.9475H43.9467H43.9459H43.945H43.9442H43.9434H43.9425H43.9417H43.9409H43.9401H43.9393H43.9384H43.9376H43.9368H43.936H43.9351H43.9343H43.9335H43.9327H43.9319H43.931H43.9302H43.9294H43.9286H43.9278H43.9269H43.9261H43.9253H43.9245H43.9237H43.9228H43.922H43.9212H43.9204H43.9196H43.9187H43.9179H43.9171H43.9163H43.9155H43.9146H43.9138H43.913H43.9122H43.9113H43.9105H43.9097H43.9089H43.908H43.9072H43.9064H43.9056H43.9047H43.9039H43.9031H43.9022H43.9014H43.9006H43.8998H43.8989H43.8981H43.8973H43.8964H43.8956H43.8947H43.8939H43.8931H43.8922H43.8914H43.8905H43.8897H43.8889H43.888H43.8872H43.8863H43.8855H43.8846H43.8838H43.8829H43.8821H43.8812H43.8803H43.8795H43.8786H43.8778H43.8769H43.876H43.8752H43.8743H43.8734H43.8726H43.8717H43.8708H43.8699H43.8691H43.8682H43.8673H43.8664H43.8655H43.8647H43.8638H43.8629H43.862H43.8611H43.8602H43.8593H43.8584H43.8575H43.8566H43.8557H43.8548H43.8539H43.853H43.8521H43.8511H43.8502H43.8493H43.8484H43.8475H43.8465H43.8456H43.8447H43.8437H43.8428H43.8419H43.8409H43.84H43.839H43.8381H43.8371H43.8362H43.8352H43.8343H43.8333H43.8323H43.8314H43.8304H43.8294H43.8285H43.8275H43.8265H43.8255H43.8245H43.8235H43.8225H43.8216H43.8206H43.8196H43.8186H43.8175H43.8165H43.8155H43.8145H43.8135H43.8125H43.8114H43.8104H43.8094H43.8083H43.8073H43.8063H43.8052H43.8042H43.8031H43.802H43.801H43.7999H43.7989H43.7978H43.7967H43.7956H43.7946H43.7935H43.7924H43.7913H43.7902H43.7891H43.788H43.7869H43.7858H43.7847H43.7835H43.7824H43.7813H43.7802H43.779H43.7779H43.7768H43.7756H43.7745H43.7733H43.7721H43.771H43.7698H43.7686H43.7675H43.7663H43.7651H43.7639H43.7627H43.7615H43.7603H43.7591H43.7579H43.7567H43.7555H43.7543H43.753H43.7518H43.7506H43.7493H43.7481H43.7468H43.7456H43.7443H43.7431H43.7418H43.7405H43.7392H43.7379H43.7367H43.7354H43.7341H43.7328H43.7315H43.7301H43.7288H43.7275H43.7262H43.7248H43.7235H43.7222H43.7208H43.7195H43.7181H43.7167H43.7154H43.714H43.7126H43.7112H43.7099H43.7085H43.7071H43.7056H43.7042H43.7028H43.7014H43.7H43.6985H43.6971H43.6957H43.6942H43.6927H43.6913H43.6898H43.6883H43.6869H43.6854H43.6839H43.6824H43.6809H43.6794H43.6779H43.6764H43.6748H43.6733H43.6718H43.6702H43.6687H43.6671H43.6656H43.664H43.6624H43.6608H43.6592H43.6577H43.6561H43.6545H43.6528H43.6512H43.6496H43.648H43.6463C43.5018 52.3841 43.3868 52.384 43.2799 52.3805C43.2191 52.3785 43.1699 52.3756 43.1301 52.3723L42.9555 52.2788L28.6865 44.638L27.9784 44.2589L27.2703 44.638L13.0013 52.2788L12.9657 52.2978L12.9312 52.3188C12.3758 52.6558 11.6052 52.5315 11.1155 51.7577C11.0378 51.5769 11.016 51.3666 11.013 50.8982L13.7884 34.8971L13.9225 34.1241L13.3641 33.5731L1.90058 22.261C1.36466 21.7138 1.36648 20.9596 1.90604 20.4139L2.07655 20.2414L2.17053 20.0513C2.21486 20.0363 2.3204 20.0103 2.51806 20.0103H2.624L2.72888 19.9954L18.6766 17.7315L19.4745 17.6182L19.8205 16.8903L26.7818 2.24497C27.2713 1.46883 28.0431 1.34377 28.5991 1.68122L28.6487 1.71129L28.7004 1.73745C28.889 1.83284 28.9495 1.88741 28.9751 1.91334C29.0012 1.93972 29.0563 2.00237 29.1518 2.19557L36.4262 16.9111L36.7768 17.6203L37.56 17.7315L53.5077 19.9954L53.6126 20.0103H53.7186C53.7867 20.0103 54.0062 20.0637 54.2371 20.3946C54.4653 20.7214 54.533 21.0912 54.4853 21.3322Z" stroke="black" stroke-width="3"/>
</svg>
