<svg width="55" height="55" viewBox="0 0 55 55" fill="none" xmlns="http://www.w3.org/2000/svg">
<rect x="1" y="1" width="53" height="53" rx="26.5" stroke="#C5C9CE" stroke-width="2"/>
<path d="M28 24.5098C27.606 24.5098 27.2159 24.5872 26.8519 24.7374C26.488 24.8877 26.1573 25.108 25.8787 25.3856C25.6001 25.6633 25.3791 25.9929 25.2284 26.3557C25.0776 26.7185 25 27.1073 25 27.5C25 27.8927 25.0776 28.2815 25.2284 28.6443C25.3791 29.0071 25.6001 29.3367 25.8787 29.6144C26.1573 29.892 26.488 30.1123 26.8519 30.2626C27.2159 30.4128 27.606 30.4902 28 30.4902C28.7957 30.49 29.5586 30.1748 30.1211 29.6139C30.6836 29.053 30.9995 28.2924 30.9993 27.4993C30.9991 26.7063 30.6829 25.9458 30.1202 25.3852C29.5574 24.8245 28.7943 24.5097 27.9986 24.5098H28ZM28 20.9776C28.3938 20.9774 28.7837 20.8999 29.1474 20.7496C29.5112 20.5992 29.8416 20.3789 30.12 20.1012C30.3983 19.8236 30.619 19.494 30.7695 19.1313C30.9201 18.7686 30.9975 18.3799 30.9973 17.9874C30.9971 17.595 30.9194 17.2063 30.7685 16.8438C30.6176 16.4812 30.3966 16.1519 30.118 15.8744C29.8395 15.597 29.5088 15.377 29.1449 15.227C28.781 15.077 28.3911 14.9998 27.9973 15C27.202 15.0004 26.4394 15.3156 25.8773 15.8764C25.3152 16.4371 24.9996 17.1975 25 17.9902C25.0004 18.7828 25.3166 19.5429 25.8792 20.1032C26.4419 20.6634 27.2047 20.978 28 20.9776ZM28 34.0197C27.2044 34.0197 26.4413 34.3347 25.8787 34.8955C25.3161 35.4562 25 36.2168 25 37.0098C25 37.8029 25.3161 38.5634 25.8787 39.1242C26.4413 39.685 27.2044 40 28 40C28.7957 40 29.5587 39.685 30.1213 39.1242C30.6839 38.5634 31 37.8029 31 37.0098C31 36.2168 30.6839 35.4562 30.1213 34.8955C29.5587 34.3347 28.7957 34.0197 28 34.0197Z" fill="#C5C9CE"/>
</svg>
