<svg width="19" height="19" viewBox="0 0 19 19" fill="none" xmlns="http://www.w3.org/2000/svg">
<path d="M4.82116 5.13865C4.82116 6.6641 5.52983 8.02528 6.63452 8.91011C3.22367 10.1457 0.783708 13.4152 0.783708 17.251C0.783708 17.6888 1.13894 18.0441 1.57678 18.0441C2.01462 18.0441 2.36985 17.6888 2.36985 17.251C2.36985 13.2321 5.63275 9.96917 9.65169 9.96917C13.6706 9.96917 16.9335 13.2321 16.9335 17.251C16.9335 17.6888 17.2888 18.0441 17.7266 18.0441C18.1644 18.0441 18.5197 17.6888 18.5197 17.251C18.5197 13.4152 16.0797 10.1457 12.6688 8.91011C13.7735 8.02528 14.4822 6.6641 14.4822 5.13865C14.4822 2.47271 12.3176 0.308122 9.65169 0.308122C6.98575 0.308122 4.82116 2.47271 4.82116 5.13865ZM9.65169 1.89426C11.4419 1.89426 12.8961 3.34839 12.8961 5.13865C12.8961 6.92891 11.4419 8.38303 9.65169 8.38303C7.86143 8.38303 6.4073 6.92891 6.4073 5.13865C6.4073 3.34839 7.86143 1.89426 9.65169 1.89426Z" fill="#F7931E" stroke="#F7931E" stroke-width="0.432584"/>
</svg>
