<svg width="40" height="40" viewBox="0 0 40 40" fill="none" xmlns="http://www.w3.org/2000/svg">
<path d="M9.36667 11.1333C9.36667 14.4754 10.9119 17.4592 13.3238 19.4075C5.84542 22.1359 0.5 29.3144 0.5 37.7333C0.5 38.7087 1.29132 39.5 2.26667 39.5C3.24201 39.5 4.03333 38.7087 4.03333 37.7333C4.03333 28.9211 11.1878 21.7667 20 21.7667C28.8122 21.7667 35.9667 28.9211 35.9667 37.7333C35.9667 38.7087 36.758 39.5 37.7333 39.5C38.7087 39.5 39.5 38.7087 39.5 37.7333C39.5 29.3144 34.1546 22.1359 26.6762 19.4075C29.0881 17.4592 30.6333 14.4754 30.6333 11.1333C30.6333 5.26486 25.8685 0.5 20 0.5C14.1315 0.5 9.36667 5.26486 9.36667 11.1333ZM20 4.03333C23.9178 4.03333 27.1 7.21554 27.1 11.1333C27.1 15.0511 23.9178 18.2333 20 18.2333C16.0822 18.2333 12.9 15.0511 12.9 11.1333C12.9 7.21554 16.0822 4.03333 20 4.03333Z" fill="#00A9DC" stroke="#00A9DC"/>
</svg>
